%TF.GenerationSoftware,Altium Limited,Altium Designer,20.2.5 (213)*%
G04 Layer_Physical_Order=3*
G04 Layer_Color=16440176*
%FSLAX45Y45*%
%MOMM*%
%TF.SameCoordinates,0B4FD596-2A60-4D0F-BAE7-1B06E363B609*%
%TF.FilePolarity,Positive*%
%TF.FileFunction,Copper,L3,Inr,Signal*%
%TF.Part,Single*%
G01*
G75*
%TA.AperFunction,Conductor*%
%ADD26C,0.20000*%
%ADD27C,0.30000*%
%TA.AperFunction,ComponentPad*%
%ADD31C,1.30800*%
%ADD32C,2.10000*%
%ADD33C,1.60000*%
%ADD34R,1.60000X1.60000*%
%ADD35C,1.90500*%
%ADD36R,1.60000X1.60000*%
%ADD37O,1.52400X2.18440*%
%ADD38O,1.20000X2.40000*%
%ADD39O,0.73000X1.46000*%
%TA.AperFunction,ViaPad*%
%ADD40C,0.40000*%
%ADD41C,1.00000*%
%ADD42C,3.30000*%
D26*
X12419349Y4462007D02*
G03*
X12420709Y4462000I1251J109993D01*
G01*
X10167676Y5344514D02*
X10168540Y5345378D01*
X10591800Y6108700D02*
X10812260Y5888240D01*
X10591800Y6108700D02*
Y6146800D01*
X10812260Y5770000D02*
Y5888240D01*
X10363200Y6375400D02*
X10591800Y6146800D01*
X10363200Y6375400D02*
Y6540500D01*
X11770986Y5631397D02*
X11772900Y5633310D01*
Y5918200D01*
X12090400Y6235700D01*
X11770986Y5535286D02*
Y5631397D01*
X11734800Y5499100D02*
X11770986Y5535286D01*
X11762100Y5437500D02*
X11811000Y5486400D01*
Y5595288D02*
X11823700Y5607988D01*
X11811000Y5486400D02*
Y5595288D01*
X11823700Y5607988D02*
Y5613400D01*
X10795000Y5499100D02*
X11734800D01*
X11150554Y5614200D02*
X11303000Y5766647D01*
X10519674Y5614200D02*
X11150554D01*
X10325100Y5669074D02*
X10419974Y5574200D01*
X11181264D01*
X11367900Y5760836D01*
X10418874Y5715000D02*
X10519674Y5614200D01*
X10591718Y5461000D02*
X10604500D01*
X10401218Y5270500D02*
X10591718Y5461000D01*
X10274259Y5270500D02*
X10401218D01*
X10236159Y5232400D02*
X10274259Y5270500D01*
X9806300Y5232400D02*
X10236159D01*
X9794584Y5244116D02*
X9806300Y5232400D01*
X9794584Y5244116D02*
Y5260684D01*
X9804400Y5270500D01*
Y5308600D01*
X10399978Y5345378D02*
X10515600Y5461000D01*
X10168540Y5345378D02*
X10399978D01*
X8819992Y5949792D02*
X8978900Y6108700D01*
X10172700D01*
X10325100Y5669074D02*
Y5956300D01*
X10401300Y5732574D02*
Y5956300D01*
X12332500Y6438900D02*
X12395200Y6501600D01*
Y6718300D01*
X12382500Y6731000D02*
X12395200Y6718300D01*
X12077700Y6742716D02*
Y7239000D01*
Y6742716D02*
X12089416Y6731000D01*
X12382500D01*
X12077700Y7239000D02*
X12128500Y7289800D01*
Y7404100D01*
X12052300Y7480300D02*
X12128500Y7404100D01*
X11988800Y7480300D02*
X12052300D01*
X12090400Y6235700D02*
Y6350000D01*
X11959003Y6435873D02*
X11963400Y6431477D01*
Y6426200D02*
Y6431477D01*
X11959003Y6435873D02*
X11963400Y6431477D01*
Y6426200D02*
X11988800Y6400800D01*
Y6273800D02*
Y6400800D01*
X11963400Y6426200D02*
Y6431477D01*
X12090400Y6350000D02*
X12179300Y6438900D01*
X12332500D01*
X12121488Y6474953D02*
X12126900D01*
X12106741Y6489700D02*
X12121488Y6474953D01*
X12001500Y6489700D02*
X12106741D01*
X9791700Y7606316D02*
Y7848600D01*
X9803416Y7594600D02*
X9918700D01*
X9791700Y7606316D02*
X9803416Y7594600D01*
X9728200Y7912100D02*
X9791700Y7848600D01*
X9588500Y7912100D02*
X9728200D01*
X9525800Y7849400D02*
X9588500Y7912100D01*
X9258300Y7810500D02*
X9297200Y7849400D01*
X9525800D01*
X9258300Y7404100D02*
Y7810500D01*
X9155909Y7301709D02*
X9258300Y7404100D01*
X9372600Y7161816D02*
X9512300Y7301516D01*
Y7747000D01*
X9155909Y6946109D02*
Y7301709D01*
X9880600Y6692900D02*
X9956800Y6769100D01*
X10034442D01*
X9372600Y7073900D02*
X9403216Y7043284D01*
X9372600Y7073900D02*
Y7161816D01*
X8877300Y6769100D02*
X9602184D01*
X9613900Y6780816D02*
Y7454900D01*
X9652000Y7493000D01*
X9602184Y6769100D02*
X9613900Y6780816D01*
X10490200Y10464800D02*
X10502900Y10452100D01*
X10401300Y9372600D02*
X10502900Y9474200D01*
Y10452100D01*
X10490200Y10464800D02*
X10502900Y10477500D01*
X10325100Y9245600D02*
Y10401300D01*
Y9245600D02*
X10399400Y9171300D01*
X10248900Y10477500D02*
X10325100Y10401300D01*
X10399400Y9171300D02*
X10691500D01*
X9766300Y9131300D02*
X10668000D01*
X10691500Y9171300D02*
X10936600Y8926200D01*
X10668000Y9131300D02*
X10896600Y8902700D01*
X9664700Y9232900D02*
X9766300Y9131300D01*
X11607800Y7354100D02*
X11722900D01*
X11861800Y7493000D01*
X11112900Y7404100D02*
X11621484D01*
X11633200Y7415816D02*
Y7588832D01*
X11621484Y7404100D02*
X11633200Y7415816D01*
X11861800Y7493000D02*
Y7607300D01*
X11898800Y7886700D02*
X11899900Y7887800D01*
X11607800Y7899400D02*
X11670500Y7836700D01*
X12546800D02*
X12585700Y7797800D01*
X11670500Y7836700D02*
X12546800D01*
X11899900Y7887800D02*
Y7950200D01*
X12522200Y6273800D02*
Y7747000D01*
X11753268Y7708900D02*
X12470484D01*
X11772900Y7785100D02*
X12484100D01*
X11593200Y7605400D02*
X11772900Y7785100D01*
X12585700Y6985000D02*
Y7797800D01*
X11633200Y7588832D02*
X11753268Y7708900D01*
X12484100Y7785100D02*
X12522200Y7747000D01*
X12482200Y6290368D02*
Y7697184D01*
X12470484Y7708900D02*
X12482200Y7697184D01*
X11493500Y8356600D02*
X11899900Y7950200D01*
X10985500Y8356600D02*
X11493500D01*
X10845800Y8496300D02*
X10985500Y8356600D01*
X10896600Y8509000D02*
X10985500Y8420100D01*
X11518900D01*
X10845800Y8496300D02*
Y8674100D01*
X10604500Y8915400D02*
X10845800Y8674100D01*
X10020300Y9220200D02*
X10082420Y9282320D01*
Y9969500D01*
X11216375Y7596875D02*
Y7901675D01*
X11348235Y8033535D01*
X11494300D01*
X11593200Y7603958D02*
Y7605400D01*
X11433342Y7444100D02*
X11593200Y7603958D01*
X11206432Y7444100D02*
X11433342D01*
X11480198Y7893535D02*
X11484024Y7897362D01*
X11495471D02*
X11497509Y7899400D01*
X11484024Y7897362D02*
X11495471D01*
X11402631Y7484100D02*
X11468100Y7549568D01*
X11223000Y7484100D02*
X11402631D01*
X11010900Y7518400D02*
X11188700D01*
X11223000Y7484100D01*
X10157416Y7898600D02*
X10668000D01*
X10134600Y7875784D02*
X10157416Y7898600D01*
X10134600Y6527800D02*
Y7875784D01*
X11497509Y7899400D02*
X11607800D01*
X12593500Y8107500D02*
X12776200Y7924800D01*
X11895000Y8107500D02*
X12593500D01*
X11722100Y8280400D02*
X11895000Y8107500D01*
X11933995Y8001595D02*
X11968090Y7967500D01*
X12581100D02*
X12625700Y7922900D01*
X11968090Y7967500D02*
X12581100D01*
X11933995Y8001595D02*
Y8005005D01*
X11518900Y8420100D02*
X11933995Y8005005D01*
X10998200Y8470900D02*
X11238700D01*
X11239500Y8470100D01*
X10936600Y8532500D02*
X10998200Y8470900D01*
X10936600Y8532500D02*
Y8926200D01*
X10896600Y8509000D02*
Y8902700D01*
X11315700Y5054600D02*
X11379200Y5118100D01*
Y5384800D01*
X12484100Y5892800D02*
X12598400D01*
X12471400Y5791200D02*
Y5880100D01*
X12484100Y5892800D01*
X11924200Y5498000D02*
Y5993579D01*
X11840268Y5357500D02*
X11964200Y5481432D01*
X11823700Y5397500D02*
X11924200Y5498000D01*
Y5993579D02*
X12102821Y6172200D01*
X11964200Y5977010D02*
X12118406Y6131216D01*
X11964200Y5481432D02*
Y5977010D01*
X12364032Y6172200D02*
X12482200Y6290368D01*
X12283784Y6070600D02*
X12395200D01*
X12636500Y6701524D02*
X12637132D01*
X12648848Y6713240D01*
X12654260D01*
X12207584Y5994400D02*
X12283784Y6070600D01*
X12102821Y6172200D02*
X12364032D01*
X12636500Y6311900D02*
Y6701524D01*
X12076716Y5994400D02*
X12207584D01*
X12379616Y6131216D02*
X12522200Y6273800D01*
X12395200Y6070600D02*
X12636500Y6311900D01*
X12118406Y6131216D02*
X12379616D01*
X12065000Y5982684D02*
X12076716Y5994400D01*
X13280373Y5680727D02*
X13284200Y5676900D01*
X12907027Y5680727D02*
X13280373D01*
X12903200Y5676900D02*
X12907027Y5680727D01*
X13284200Y5676900D02*
X13296899Y5689600D01*
X8890000Y4495800D02*
X9334500Y4940300D01*
X11315700D01*
X8521700Y4495800D02*
X8890000D01*
X9182100Y4851400D02*
Y6045200D01*
X8569950Y4542184D02*
X8872884D01*
X9182100Y4851400D01*
X12625700Y7015710D02*
Y7922900D01*
X12665700Y7060216D02*
X12677416Y7048500D01*
X12840685D01*
X12625700Y7015710D02*
X12635700Y7005710D01*
X12665700Y7060216D02*
Y7700000D01*
X12890500Y7924800D01*
X12852400Y6922600D02*
Y7036784D01*
X12840685Y7048500D02*
X12852400Y7036784D01*
X12635700Y6765390D02*
Y7005710D01*
X12738100Y6870700D02*
Y6962600D01*
X13421016Y5311484D02*
X13550900Y5181600D01*
X13421016Y5311484D02*
Y5563584D01*
X12877800Y5575300D02*
X13409300D01*
X13421016Y5563584D01*
X13440900Y5799600D02*
X13550900Y5689600D01*
X13119099Y5811316D02*
X13130817Y5799600D01*
X13440900D01*
X13119099Y5811316D02*
Y7823200D01*
X12839700Y5613400D02*
X12877800Y5575300D01*
X12839700Y5613400D02*
Y6769100D01*
X12738100Y6870700D02*
X12839700Y6769100D01*
X12965900Y6824401D02*
X13017500Y6876001D01*
X12915900Y6195099D02*
Y6985000D01*
X12914099Y6193297D02*
X12915900Y6195099D01*
Y6985000D02*
X12966701Y7035800D01*
X13017500Y6876001D02*
Y6997700D01*
X12965900Y6822600D02*
Y6824401D01*
X10668000Y4381500D02*
X12839700D01*
X12915900Y4457700D02*
X13081000D01*
X12839700Y4381500D02*
X12915900Y4457700D01*
X12803999Y4422000D02*
X12981300Y4599300D01*
X10684068Y4422000D02*
X12803999D01*
X12981300Y4599300D02*
Y5031100D01*
X10581000Y4468500D02*
X10668000Y4381500D01*
X12420709Y4462000D02*
X12767800D01*
X12941299Y4635500D01*
X10071100Y4559300D02*
X10603337D01*
X10700630Y4462007D02*
X12419349D01*
X10603337Y4559300D02*
X10700630Y4462007D01*
X10597568Y4508500D02*
X10684068Y4422000D01*
X9817086Y4508500D02*
X10597568D01*
X12941299Y4635500D02*
Y5257800D01*
X10313370Y4261337D02*
Y4445970D01*
X10335900Y4468500D02*
X10581000D01*
X10313370Y4445970D02*
X10335900Y4468500D01*
X9805370Y4261337D02*
Y4496784D01*
X9817086Y4508500D01*
X12981300Y5031100D02*
X13131799Y5181600D01*
X12941299Y5257800D02*
X13119099Y5435600D01*
X13296899D01*
X12179300Y7073900D02*
X12342500D01*
X12344400Y7075800D01*
X12585700Y6715390D02*
X12635700Y6765390D01*
X12585700Y6527800D02*
Y6715390D01*
X9664700Y9232900D02*
Y9550400D01*
X9055100D02*
X9118600Y9613900D01*
X9601200D01*
X9664700Y9550400D01*
X13131799Y5181600D02*
X13296899D01*
X11303000Y5766647D02*
Y5930900D01*
X12890500Y7924800D02*
Y8305800D01*
X13000072Y8415372D01*
X13440999D01*
X13550999Y8305372D01*
X12966701Y7975600D02*
X13119099Y7823200D01*
X11938000Y9804400D02*
Y10007600D01*
Y9804400D02*
X12052300Y9690100D01*
X12153900D01*
X12407900Y9436100D01*
Y9199490D02*
Y9436100D01*
X12395200Y9118600D02*
Y9186790D01*
X12407900Y9199490D01*
X11722100Y8280400D02*
Y8293100D01*
X9524016Y4826000D02*
X11366500D01*
X9448800Y4610100D02*
X9488321Y4649621D01*
Y4790306D01*
X9524016Y4826000D01*
X11366500D02*
X11510000Y4969500D01*
Y5274300D02*
X11544300Y5308600D01*
X11510000Y4969500D02*
Y5274300D01*
X11544300Y5308600D02*
X11861800D01*
X12076900Y5523700D01*
Y5788087D01*
X12065000Y5799987D02*
Y5982684D01*
Y5799987D02*
X12076900Y5788087D01*
X11315700Y4940300D02*
X11430000Y5054600D01*
X9460400Y4868490D02*
X9464227Y4872316D01*
X9470379D01*
X9470664Y4872601D01*
X9482701D01*
X9486900Y4876800D01*
X11341100D01*
X11470000Y5005700D01*
X9652000Y7493000D02*
X9906000D01*
X10363200D02*
X10365100Y7494900D01*
X10383910Y7443000D02*
X10395810Y7454900D01*
X10325100Y6591021D02*
Y7431284D01*
X10336816Y7443000D01*
X10365100Y7494900D02*
X10454000D01*
X10395810Y7454900D02*
X10858500D01*
X10336816Y7443000D02*
X10383910D01*
X11133610Y7581031D02*
X11149455Y7596875D01*
X10368690Y7594900D02*
X10744215D01*
X10285100Y6607590D02*
Y7511310D01*
X11149455Y7596875D02*
X11216375D01*
X10758085Y7581031D02*
X11133610D01*
X10744215Y7594900D02*
X10758085Y7581031D01*
X10285100Y7511310D02*
X10368690Y7594900D01*
X10464000Y7504900D02*
X10884700D01*
X10454000Y7494900D02*
X10464000Y7504900D01*
X10884700D02*
X10909300Y7480300D01*
Y7404100D02*
Y7480300D01*
X11762100Y5437500D02*
Y5437500D01*
X11506200Y5357500D02*
X11840268D01*
X8558234Y4553900D02*
X8569950Y4542184D01*
X8553026Y5182584D02*
X8558234Y5187792D01*
X8445500Y4572000D02*
X8521700Y4495800D01*
X8445500Y5182584D02*
X8553026D01*
X8445500Y4572000D02*
Y5182584D01*
X8558234Y4553900D02*
Y4679792D01*
X11431900Y5437500D02*
X11762100D01*
X11379200Y5384800D02*
X11431900Y5437500D01*
X11470000Y5005700D02*
Y5321300D01*
X11506200Y5357500D01*
X11430000Y5054600D02*
Y5359400D01*
X11468100Y5397500D01*
X11823700D01*
X11196432Y7454100D02*
X11206432Y7444100D01*
X11081412Y7454100D02*
X11196432D01*
X11067112Y7439800D02*
X11081412Y7454100D01*
X11061700Y7439800D02*
X11067112D01*
X8998302Y6453500D02*
X10131010D01*
X10285100Y6607590D01*
X9021942Y6413500D02*
X10147579D01*
X10325100Y6591021D01*
X8842576Y6234134D02*
X9021942Y6413500D01*
X8437400Y6265700D02*
X8519492Y6347792D01*
X8892595D01*
X8998302Y6453500D01*
X11010900Y7404700D02*
Y7518400D01*
Y7404700D02*
X11011500Y7404100D01*
X8940800Y6159500D02*
X10198100D01*
X8870092Y6088792D02*
X8940800Y6159500D01*
X8437400Y5816626D02*
X8558234Y5695792D01*
X8437400Y5816626D02*
Y6265700D01*
X11367900Y5760836D02*
Y5965818D01*
X10198100Y6159500D02*
X10401300Y5956300D01*
X8697234Y6088792D02*
X8870092D01*
X8558234Y5949792D02*
X8697234Y6088792D01*
D27*
X10401300Y5732574D02*
X10418874Y5715000D01*
X11988800Y7480300D02*
Y7632700D01*
X10172700Y6108700D02*
X10325100Y5956300D01*
X8812234Y5949792D02*
X8819992D01*
X8812234Y5695792D02*
X8826500Y5710058D01*
X8812234Y6234134D02*
X8842576D01*
X8812234Y6203792D02*
Y6234134D01*
D31*
X13473134Y9331192D02*
D03*
Y9731192D02*
D03*
Y9531192D02*
D03*
D32*
Y9116192D02*
D03*
Y9946192D02*
D03*
D33*
X12420600Y4826000D02*
D03*
Y4572000D02*
D03*
X8724900Y10731500D02*
D03*
X8978900D02*
D03*
X9232900D02*
D03*
X9486900D02*
D03*
X9740900D02*
D03*
X9994900D02*
D03*
X10248900D02*
D03*
X10502900D02*
D03*
X10756900D02*
D03*
X11010900D02*
D03*
Y10477500D02*
D03*
X10756900D02*
D03*
X10502900D02*
D03*
X10248900D02*
D03*
X9994900D02*
D03*
X9740900D02*
D03*
X9486900D02*
D03*
X9232900D02*
D03*
X8978900D02*
D03*
X13296899Y6451600D02*
D03*
Y6197600D02*
D03*
Y5943600D02*
D03*
Y5689600D02*
D03*
Y5435600D02*
D03*
Y5181600D02*
D03*
Y4927600D02*
D03*
Y4673600D02*
D03*
X13550900D02*
D03*
Y4927600D02*
D03*
Y5181600D02*
D03*
Y5435600D02*
D03*
Y5689600D02*
D03*
Y5943600D02*
D03*
Y6197600D02*
D03*
Y6451600D02*
D03*
Y6705600D02*
D03*
X8558234Y6203792D02*
D03*
Y5949792D02*
D03*
Y5695792D02*
D03*
Y5441792D02*
D03*
Y5187792D02*
D03*
Y4933792D02*
D03*
Y4679792D02*
D03*
X8812234D02*
D03*
Y4933792D02*
D03*
Y5187792D02*
D03*
Y5441792D02*
D03*
Y5695792D02*
D03*
Y5949792D02*
D03*
Y6203792D02*
D03*
Y6457792D02*
D03*
Y8864252D02*
D03*
Y8610252D02*
D03*
Y8356252D02*
D03*
Y8102252D02*
D03*
Y7848252D02*
D03*
Y7594252D02*
D03*
Y7340252D02*
D03*
Y7086252D02*
D03*
X8558234D02*
D03*
Y7340252D02*
D03*
Y7594252D02*
D03*
Y7848252D02*
D03*
Y8102252D02*
D03*
Y8356252D02*
D03*
Y8610252D02*
D03*
X13550999Y8559372D02*
D03*
Y8305372D02*
D03*
Y8051372D02*
D03*
Y7797372D02*
D03*
Y7543372D02*
D03*
X13296999Y8559372D02*
D03*
Y8305372D02*
D03*
Y8051372D02*
D03*
Y7797372D02*
D03*
Y7543372D02*
D03*
Y7289372D02*
D03*
D34*
X12420600Y5080000D02*
D03*
X13296899Y6705600D02*
D03*
X8558234Y6457792D02*
D03*
Y8864252D02*
D03*
X13550999Y7289372D02*
D03*
D35*
X9537700Y8636000D02*
D03*
Y8146004D02*
D03*
D36*
X8724900Y10477500D02*
D03*
D37*
X10564830Y4007337D02*
D03*
X10310830D02*
D03*
X10058100D02*
D03*
X9802830D02*
D03*
X9805370Y4261337D02*
D03*
X10061910D02*
D03*
X10313370D02*
D03*
X10564830D02*
D03*
D38*
X12517900Y10823500D02*
D03*
X13062900D02*
D03*
D39*
X12547900Y10520500D02*
D03*
X13032899D02*
D03*
D40*
X10167676Y5344514D02*
D03*
X10133924Y5294907D02*
D03*
X10185400Y5803900D02*
D03*
X10604500Y5994400D02*
D03*
X11137900Y5397500D02*
D03*
X11087100Y5435600D02*
D03*
X10807700Y5664200D02*
D03*
X9626600Y5295900D02*
D03*
X10604500Y5461000D02*
D03*
X10515600D02*
D03*
X10795000Y5499100D02*
D03*
X10812260Y5770000D02*
D03*
X10718800Y5854700D02*
D03*
X11518900Y5664200D02*
D03*
X11473801Y6009433D02*
D03*
X9613900Y6337300D02*
D03*
X9715500Y6273800D02*
D03*
X9474200Y5905500D02*
D03*
X9842500Y5957100D02*
D03*
X10067447Y5870782D02*
D03*
X12127700Y7162800D02*
D03*
X11811000Y5956300D02*
D03*
X11988800Y6273800D02*
D03*
X12573000Y6426200D02*
D03*
X12332500Y6438900D02*
D03*
X10363200Y6540500D02*
D03*
X10198100Y7099300D02*
D03*
X12126900Y6474953D02*
D03*
X12141200Y6540500D02*
D03*
X11963400Y6553200D02*
D03*
X12001500Y6489700D02*
D03*
X9334500Y7899400D02*
D03*
X9308300Y7721600D02*
D03*
X9232900Y7035800D02*
D03*
X9155909Y6946109D02*
D03*
X9880600Y6692900D02*
D03*
X9867900Y6781800D02*
D03*
X10034442Y6769100D02*
D03*
X10032200Y6829058D02*
D03*
X9550400Y7023100D02*
D03*
X9423400Y7046900D02*
D03*
X9474200Y6718300D02*
D03*
X10083800Y6869900D02*
D03*
X9523900Y7162000D02*
D03*
X9512300Y7747000D02*
D03*
X10299700Y8890000D02*
D03*
X10401300Y9372600D02*
D03*
X10515600Y9258300D02*
D03*
X11861800Y7607300D02*
D03*
X11898800Y7886700D02*
D03*
X10604500Y8915400D02*
D03*
X10071100Y8940800D02*
D03*
X10020300Y9220200D02*
D03*
X10082420Y9969500D02*
D03*
X11310400Y7624670D02*
D03*
X11468100Y7549568D02*
D03*
X11480198Y7893535D02*
D03*
X11494300Y8033535D02*
D03*
X11556200Y7483012D02*
D03*
X11266375Y7534100D02*
D03*
X10388600Y7848600D02*
D03*
X10668000Y7898600D02*
D03*
X11988800Y8057500D02*
D03*
X11410400Y7641250D02*
D03*
X11239500Y8470100D02*
D03*
X11607800Y7354100D02*
D03*
X11315700Y5054600D02*
D03*
X11277600Y5168900D02*
D03*
X12026900Y5638000D02*
D03*
X11823700Y5613400D02*
D03*
X12280900Y5600700D02*
D03*
X12598400Y5892800D02*
D03*
X12585700Y6019800D02*
D03*
X12788900Y5918200D02*
D03*
X11012900Y5956300D02*
D03*
X12014200Y5537200D02*
D03*
X12471400Y5791200D02*
D03*
X12382500Y5753100D02*
D03*
X12903200Y5676900D02*
D03*
X9096805Y4631895D02*
D03*
X9068600Y5029200D02*
D03*
X9283700Y5359400D02*
D03*
X12585700Y6985000D02*
D03*
X12738100Y6962600D02*
D03*
X12965900Y6822600D02*
D03*
Y6654800D02*
D03*
X12852400Y6922600D02*
D03*
X9956800Y6286500D02*
D03*
X9880600D02*
D03*
X9982200Y5957100D02*
D03*
X13081000Y4457700D02*
D03*
X10439400Y6543300D02*
D03*
X10071100Y4559300D02*
D03*
X12344400Y7075800D02*
D03*
X12179300Y7073900D02*
D03*
X12407100Y6850279D02*
D03*
X12585700Y6527800D02*
D03*
X12611100Y6172200D02*
D03*
X12914099Y6193297D02*
D03*
X12128500Y6070600D02*
D03*
X9842160Y9181300D02*
D03*
X9169400Y8724900D02*
D03*
X9944100Y7975600D02*
D03*
X12654260Y6713240D02*
D03*
X12572200Y6772600D02*
D03*
X12700000Y4940300D02*
D03*
X11303000Y5930900D02*
D03*
X12874335Y7826666D02*
D03*
X12432200Y6795462D02*
D03*
X13017500Y6997700D02*
D03*
X12966701Y7035800D02*
D03*
X11988800Y7480300D02*
D03*
Y7632700D02*
D03*
X12179300Y8356600D02*
D03*
X11938000Y10007600D02*
D03*
X12357900Y9220200D02*
D03*
X12395200Y9118600D02*
D03*
X10809300Y7391575D02*
D03*
X11366375Y7569200D02*
D03*
X11722100Y8293100D02*
D03*
X12534900Y8216900D02*
D03*
X12776200Y7924800D02*
D03*
X12966701Y7975600D02*
D03*
X12750800Y7137400D02*
D03*
X11805800Y7043300D02*
D03*
X11023600Y10033000D02*
D03*
X11493500Y4673600D02*
D03*
X9804400Y5308600D02*
D03*
X10911000Y6019800D02*
D03*
X10483790Y5993600D02*
D03*
X10642600Y5880100D02*
D03*
X10804300Y6032500D02*
D03*
X10464800Y5842000D02*
D03*
X10093324Y5355365D02*
D03*
X9588500Y5461000D02*
D03*
X10031434Y5640366D02*
D03*
X11226800Y5244300D02*
D03*
X9640400Y5016500D02*
D03*
X9460400Y4868490D02*
D03*
X9906000Y7493000D02*
D03*
X8877300Y6769100D02*
D03*
X10363200Y7493000D02*
D03*
X10393306Y7544900D02*
D03*
X10858500Y7454900D02*
D03*
X10909300Y7404100D02*
D03*
X11963400Y6426200D02*
D03*
X9068600Y7239000D02*
D03*
X10134600Y6527800D02*
D03*
X11112900Y7404100D02*
D03*
X11061700Y7439800D02*
D03*
X9220200Y6629400D02*
D03*
X9182100Y6045200D02*
D03*
X10033000Y7429500D02*
D03*
X9906800Y7366000D02*
D03*
X9842500Y7188200D02*
D03*
X9702800Y7048500D02*
D03*
X9918700Y7594600D02*
D03*
X11011500Y7404100D02*
D03*
X10960100Y7454900D02*
D03*
X9550400Y6337300D02*
D03*
X11216375Y7596875D02*
D03*
X11188700Y5295900D02*
D03*
X11367900Y5965818D02*
D03*
X9918967Y7055978D02*
D03*
X10490200Y6146800D02*
D03*
X9931400Y8509000D02*
D03*
X10184600Y7336300D02*
D03*
X10083009Y7379491D02*
D03*
X11112900Y7631030D02*
D03*
X9424500Y5359400D02*
D03*
X8940800Y7251700D02*
D03*
X9080500Y6680200D02*
D03*
X10456300Y5930900D02*
D03*
X10375900Y6135234D02*
D03*
X9001992Y6578600D02*
D03*
X9080500Y6591300D02*
D03*
X12420600Y8699500D02*
D03*
X12573000Y9664700D02*
D03*
X12661900Y10388600D02*
D03*
X11239500Y8572500D02*
D03*
X11595100Y9372600D02*
D03*
X11112500Y9385300D02*
D03*
X9512300Y9550400D02*
D03*
X9448800Y4610100D02*
D03*
X9183200Y7454900D02*
D03*
X9334500Y7607300D02*
D03*
X9169400D02*
D03*
X8978900Y8724900D02*
D03*
X9232900Y7188200D02*
D03*
X8990800Y7162800D02*
D03*
X9423400Y7607300D02*
D03*
X9448800Y4540111D02*
D03*
X9169400Y4546600D02*
D03*
X12623800Y9982200D02*
D03*
X12687300Y10083800D02*
D03*
X9055100Y9550400D02*
D03*
X9321800Y9448800D02*
D03*
Y10083800D02*
D03*
D41*
X10553700Y4673600D02*
D03*
X10858500Y9194800D02*
D03*
X11747500Y8953500D02*
D03*
X13055600Y8940800D02*
D03*
X12953999Y9893300D02*
D03*
D42*
X8699500Y4191000D02*
D03*
X13004800D02*
D03*
Y9626600D02*
D03*
X8699500D02*
D03*
%TF.MD5,e9276cc42c8a9e63f178870c3535fbce*%
M02*
