%TF.GenerationSoftware,Altium Limited,Altium Designer,20.2.5 (213)*%
G04 Layer_Physical_Order=2*
G04 Layer_Color=36540*
%FSLAX45Y45*%
%MOMM*%
%TF.SameCoordinates,0B4FD596-2A60-4D0F-BAE7-1B06E363B609*%
%TF.FilePolarity,Positive*%
%TF.FileFunction,Copper,L2,Inr,Signal*%
%TF.Part,Single*%
G01*
G75*
%TA.AperFunction,ComponentPad*%
%ADD31C,1.30800*%
%ADD32C,2.10000*%
%ADD33C,1.60000*%
%ADD34R,1.60000X1.60000*%
%ADD35C,1.90500*%
%ADD36R,1.60000X1.60000*%
%ADD37O,1.52400X2.18440*%
%ADD38O,1.20000X2.40000*%
%ADD39O,0.73000X1.46000*%
%TA.AperFunction,ViaPad*%
%ADD40C,0.40000*%
%ADD41C,1.00000*%
%ADD42C,3.30000*%
G36*
X13669958Y10704990D02*
Y4369910D01*
X13168790Y3868741D01*
X10592881D01*
X10589944Y3880593D01*
X10613345Y3890287D01*
X10633441Y3905707D01*
X10648861Y3925802D01*
X10658554Y3949204D01*
X10661860Y3974317D01*
Y4040357D01*
X10658554Y4065470D01*
X10648861Y4088872D01*
X10633441Y4108968D01*
X10613345Y4124388D01*
X10589944Y4134081D01*
X10564830Y4137387D01*
X10539717Y4134081D01*
X10516315Y4124388D01*
X10496220Y4108968D01*
X10480800Y4088872D01*
X10471107Y4065470D01*
X10467800Y4040357D01*
Y3974317D01*
X10471107Y3949204D01*
X10480800Y3925802D01*
X10496220Y3905707D01*
X10516315Y3890287D01*
X10539717Y3880593D01*
X10536780Y3868741D01*
X10338881D01*
X10335944Y3880593D01*
X10359345Y3890287D01*
X10379441Y3905707D01*
X10394861Y3925802D01*
X10404554Y3949204D01*
X10407860Y3974317D01*
Y4040357D01*
X10404554Y4065470D01*
X10394861Y4088872D01*
X10379441Y4108968D01*
X10359345Y4124388D01*
X10353189Y4126938D01*
Y4140684D01*
X10361885Y4144287D01*
X10381981Y4159707D01*
X10397401Y4179802D01*
X10407094Y4203204D01*
X10410400Y4228317D01*
Y4294357D01*
X10407094Y4319470D01*
X10397401Y4342872D01*
X10381981Y4362968D01*
X10361885Y4378388D01*
X10338484Y4388081D01*
X10313370Y4391387D01*
X10288257Y4388081D01*
X10264855Y4378388D01*
X10244760Y4362968D01*
X10229340Y4342872D01*
X10219647Y4319470D01*
X10216340Y4294357D01*
Y4228317D01*
X10219647Y4203204D01*
X10229340Y4179802D01*
X10244760Y4159707D01*
X10264855Y4144287D01*
X10271012Y4141736D01*
Y4127990D01*
X10262315Y4124388D01*
X10242220Y4108968D01*
X10226800Y4088872D01*
X10217107Y4065470D01*
X10213800Y4040357D01*
Y3974317D01*
X10217107Y3949204D01*
X10226800Y3925802D01*
X10242220Y3905707D01*
X10262315Y3890287D01*
X10285717Y3880593D01*
X10282780Y3868741D01*
X10086151D01*
X10083214Y3880593D01*
X10106615Y3890287D01*
X10126711Y3905707D01*
X10142131Y3925802D01*
X10151824Y3949204D01*
X10155130Y3974317D01*
Y4040357D01*
X10151824Y4065470D01*
X10142131Y4088872D01*
X10126711Y4108968D01*
X10106615Y4124388D01*
X10101094Y4126675D01*
Y4140421D01*
X10110425Y4144287D01*
X10130521Y4159707D01*
X10145941Y4179802D01*
X10155634Y4203204D01*
X10158940Y4228317D01*
Y4294357D01*
X10155634Y4319470D01*
X10145941Y4342872D01*
X10130521Y4362968D01*
X10110425Y4378388D01*
X10087024Y4388081D01*
X10061910Y4391387D01*
X10036797Y4388081D01*
X10013395Y4378388D01*
X9993300Y4362968D01*
X9977880Y4342872D01*
X9968187Y4319470D01*
X9964880Y4294357D01*
Y4228317D01*
X9968187Y4203204D01*
X9977880Y4179802D01*
X9993300Y4159707D01*
X10013395Y4144287D01*
X10018917Y4142000D01*
Y4128253D01*
X10009585Y4124388D01*
X9989490Y4108968D01*
X9974070Y4088872D01*
X9964377Y4065470D01*
X9961070Y4040357D01*
Y3974317D01*
X9964377Y3949204D01*
X9974070Y3925802D01*
X9989490Y3905707D01*
X10009585Y3890287D01*
X10032987Y3880593D01*
X10030050Y3868741D01*
X9830881D01*
X9827944Y3880593D01*
X9851345Y3890287D01*
X9871441Y3905707D01*
X9886861Y3925802D01*
X9896554Y3949204D01*
X9899860Y3974317D01*
Y4040357D01*
X9896554Y4065470D01*
X9886861Y4088872D01*
X9871441Y4108968D01*
X9851345Y4124388D01*
X9845189Y4126938D01*
Y4140684D01*
X9853885Y4144287D01*
X9873981Y4159707D01*
X9889401Y4179802D01*
X9899094Y4203204D01*
X9902400Y4228317D01*
Y4294357D01*
X9899094Y4319470D01*
X9889401Y4342872D01*
X9873981Y4362968D01*
X9853885Y4378388D01*
X9830484Y4388081D01*
X9805370Y4391387D01*
X9780257Y4388081D01*
X9756855Y4378388D01*
X9736760Y4362968D01*
X9721340Y4342872D01*
X9711647Y4319470D01*
X9708340Y4294357D01*
Y4228317D01*
X9711647Y4203204D01*
X9721340Y4179802D01*
X9736760Y4159707D01*
X9756855Y4144287D01*
X9763012Y4141736D01*
Y4127990D01*
X9754315Y4124388D01*
X9734220Y4108968D01*
X9718800Y4088872D01*
X9709107Y4065470D01*
X9705800Y4040357D01*
Y3974317D01*
X9709107Y3949204D01*
X9718800Y3925802D01*
X9734220Y3905707D01*
X9754315Y3890287D01*
X9777717Y3880593D01*
X9774780Y3868741D01*
X8624410D01*
X8428041Y4065110D01*
Y9232900D01*
Y10882790D01*
X8573610Y11028359D01*
X13346590D01*
X13669958Y10704990D01*
D02*
G37*
%LPC*%
G36*
X13062900Y10964190D02*
X13042017Y10961441D01*
X13022556Y10953380D01*
X13005844Y10940557D01*
X12993021Y10923845D01*
X12984959Y10904384D01*
X12982210Y10883500D01*
Y10763500D01*
X12984959Y10742616D01*
X12993021Y10723155D01*
X13005844Y10706443D01*
X13022556Y10693620D01*
X13042017Y10685559D01*
X13062900Y10682810D01*
X13083784Y10685559D01*
X13103246Y10693620D01*
X13119957Y10706443D01*
X13132780Y10723155D01*
X13140842Y10742616D01*
X13143590Y10763500D01*
Y10883500D01*
X13140842Y10904384D01*
X13132780Y10923845D01*
X13119957Y10940557D01*
X13103246Y10953380D01*
X13083784Y10961441D01*
X13062900Y10964190D01*
D02*
G37*
G36*
X12517900D02*
X12497016Y10961441D01*
X12477555Y10953380D01*
X12460844Y10940557D01*
X12448020Y10923845D01*
X12439959Y10904384D01*
X12437210Y10883500D01*
Y10763500D01*
X12439959Y10742616D01*
X12448020Y10723155D01*
X12460844Y10706443D01*
X12477555Y10693620D01*
X12497016Y10685559D01*
X12517900Y10682810D01*
X12538784Y10685559D01*
X12558245Y10693620D01*
X12574957Y10706443D01*
X12587780Y10723155D01*
X12595841Y10742616D01*
X12598590Y10763500D01*
Y10883500D01*
X12595841Y10904384D01*
X12587780Y10923845D01*
X12574957Y10940557D01*
X12558245Y10953380D01*
X12538784Y10961441D01*
X12517900Y10964190D01*
D02*
G37*
G36*
X8724900Y10832363D02*
X8698795Y10828926D01*
X8674469Y10818850D01*
X8653579Y10802821D01*
X8637550Y10781931D01*
X8627474Y10757605D01*
X8624037Y10731500D01*
X8627474Y10705395D01*
X8637550Y10681069D01*
X8653579Y10660179D01*
X8674469Y10644150D01*
X8698795Y10634074D01*
X8724900Y10630637D01*
X8751005Y10634074D01*
X8775331Y10644150D01*
X8796221Y10660179D01*
X8812250Y10681069D01*
X8822326Y10705395D01*
X8825763Y10731500D01*
X8822326Y10757605D01*
X8812250Y10781931D01*
X8796221Y10802821D01*
X8775331Y10818850D01*
X8751005Y10828926D01*
X8724900Y10832363D01*
D02*
G37*
G36*
X13032899Y10614607D02*
X13010855Y10610222D01*
X12992166Y10597734D01*
X12979678Y10579045D01*
X12975293Y10557000D01*
Y10484000D01*
X12979678Y10461955D01*
X12992166Y10443266D01*
X13010855Y10430778D01*
X13032899Y10426393D01*
X13054945Y10430778D01*
X13073634Y10443266D01*
X13086122Y10461955D01*
X13090508Y10484000D01*
Y10557000D01*
X13086122Y10579045D01*
X13073634Y10597734D01*
X13054945Y10610222D01*
X13032899Y10614607D01*
D02*
G37*
G36*
X12547900D02*
X12525855Y10610222D01*
X12507166Y10597734D01*
X12494678Y10579045D01*
X12490293Y10557000D01*
Y10484000D01*
X12494678Y10461955D01*
X12507166Y10443266D01*
X12525855Y10430778D01*
X12547900Y10426393D01*
X12569945Y10430778D01*
X12588634Y10443266D01*
X12601122Y10461955D01*
X12605507Y10484000D01*
Y10557000D01*
X12601122Y10579045D01*
X12588634Y10597734D01*
X12569945Y10610222D01*
X12547900Y10614607D01*
D02*
G37*
G36*
X8824900Y10577500D02*
X8624900D01*
Y10377500D01*
X8824900D01*
Y10577500D01*
D02*
G37*
G36*
X11010900Y10578363D02*
X10984795Y10574926D01*
X10960469Y10564850D01*
X10939579Y10548821D01*
X10923550Y10527931D01*
X10913474Y10503605D01*
X10910037Y10477500D01*
X10913474Y10451395D01*
X10923550Y10427069D01*
X10939579Y10406179D01*
X10960469Y10390150D01*
X10984795Y10380074D01*
X11010900Y10376637D01*
X11037005Y10380074D01*
X11061331Y10390150D01*
X11082221Y10406179D01*
X11098250Y10427069D01*
X11108326Y10451395D01*
X11111763Y10477500D01*
X11108326Y10503605D01*
X11098250Y10527931D01*
X11082221Y10548821D01*
X11061331Y10564850D01*
X11037005Y10574926D01*
X11010900Y10578363D01*
D02*
G37*
G36*
X10756900D02*
X10730795Y10574926D01*
X10706469Y10564850D01*
X10685579Y10548821D01*
X10669550Y10527931D01*
X10659474Y10503605D01*
X10656037Y10477500D01*
X10659474Y10451395D01*
X10669550Y10427069D01*
X10685579Y10406179D01*
X10706469Y10390150D01*
X10730795Y10380074D01*
X10756900Y10376637D01*
X10783005Y10380074D01*
X10807331Y10390150D01*
X10828221Y10406179D01*
X10844250Y10427069D01*
X10854326Y10451395D01*
X10857763Y10477500D01*
X10854326Y10503605D01*
X10844250Y10527931D01*
X10828221Y10548821D01*
X10807331Y10564850D01*
X10783005Y10574926D01*
X10756900Y10578363D01*
D02*
G37*
G36*
X10502900D02*
X10476795Y10574926D01*
X10452469Y10564850D01*
X10431579Y10548821D01*
X10415550Y10527931D01*
X10405474Y10503605D01*
X10402037Y10477500D01*
X10405474Y10451395D01*
X10415550Y10427069D01*
X10431579Y10406179D01*
X10452469Y10390150D01*
X10476795Y10380074D01*
X10502900Y10376637D01*
X10529005Y10380074D01*
X10553331Y10390150D01*
X10574221Y10406179D01*
X10590250Y10427069D01*
X10600326Y10451395D01*
X10603763Y10477500D01*
X10600326Y10503605D01*
X10590250Y10527931D01*
X10574221Y10548821D01*
X10553331Y10564850D01*
X10529005Y10574926D01*
X10502900Y10578363D01*
D02*
G37*
G36*
X10248900D02*
X10222795Y10574926D01*
X10198469Y10564850D01*
X10177579Y10548821D01*
X10161550Y10527931D01*
X10151474Y10503605D01*
X10148037Y10477500D01*
X10151474Y10451395D01*
X10161550Y10427069D01*
X10177579Y10406179D01*
X10198469Y10390150D01*
X10222795Y10380074D01*
X10248900Y10376637D01*
X10275005Y10380074D01*
X10299331Y10390150D01*
X10320221Y10406179D01*
X10336250Y10427069D01*
X10346326Y10451395D01*
X10349763Y10477500D01*
X10346326Y10503605D01*
X10336250Y10527931D01*
X10320221Y10548821D01*
X10299331Y10564850D01*
X10275005Y10574926D01*
X10248900Y10578363D01*
D02*
G37*
G36*
X9994900D02*
X9968795Y10574926D01*
X9944469Y10564850D01*
X9923579Y10548821D01*
X9907550Y10527931D01*
X9897474Y10503605D01*
X9894037Y10477500D01*
X9897474Y10451395D01*
X9907550Y10427069D01*
X9923579Y10406179D01*
X9944469Y10390150D01*
X9968795Y10380074D01*
X9994900Y10376637D01*
X10021005Y10380074D01*
X10045331Y10390150D01*
X10066221Y10406179D01*
X10082250Y10427069D01*
X10092326Y10451395D01*
X10095763Y10477500D01*
X10092326Y10503605D01*
X10082250Y10527931D01*
X10066221Y10548821D01*
X10045331Y10564850D01*
X10021005Y10574926D01*
X9994900Y10578363D01*
D02*
G37*
G36*
X9740900D02*
X9714795Y10574926D01*
X9690469Y10564850D01*
X9669579Y10548821D01*
X9653550Y10527931D01*
X9643474Y10503605D01*
X9640037Y10477500D01*
X9643474Y10451395D01*
X9653550Y10427069D01*
X9669579Y10406179D01*
X9690469Y10390150D01*
X9714795Y10380074D01*
X9740900Y10376637D01*
X9767005Y10380074D01*
X9791331Y10390150D01*
X9812221Y10406179D01*
X9828250Y10427069D01*
X9838326Y10451395D01*
X9841763Y10477500D01*
X9838326Y10503605D01*
X9828250Y10527931D01*
X9812221Y10548821D01*
X9791331Y10564850D01*
X9767005Y10574926D01*
X9740900Y10578363D01*
D02*
G37*
G36*
X9486900D02*
X9460795Y10574926D01*
X9436469Y10564850D01*
X9415579Y10548821D01*
X9399550Y10527931D01*
X9389474Y10503605D01*
X9386037Y10477500D01*
X9389474Y10451395D01*
X9399550Y10427069D01*
X9415579Y10406179D01*
X9436469Y10390150D01*
X9460795Y10380074D01*
X9486900Y10376637D01*
X9513005Y10380074D01*
X9537331Y10390150D01*
X9558221Y10406179D01*
X9574250Y10427069D01*
X9584326Y10451395D01*
X9587763Y10477500D01*
X9584326Y10503605D01*
X9574250Y10527931D01*
X9558221Y10548821D01*
X9537331Y10564850D01*
X9513005Y10574926D01*
X9486900Y10578363D01*
D02*
G37*
G36*
X9232900D02*
X9206795Y10574926D01*
X9182469Y10564850D01*
X9161579Y10548821D01*
X9145550Y10527931D01*
X9135474Y10503605D01*
X9132037Y10477500D01*
X9135474Y10451395D01*
X9145550Y10427069D01*
X9161579Y10406179D01*
X9182469Y10390150D01*
X9206795Y10380074D01*
X9232900Y10376637D01*
X9259005Y10380074D01*
X9283331Y10390150D01*
X9304221Y10406179D01*
X9320250Y10427069D01*
X9330326Y10451395D01*
X9333763Y10477500D01*
X9330326Y10503605D01*
X9320250Y10527931D01*
X9304221Y10548821D01*
X9283331Y10564850D01*
X9259005Y10574926D01*
X9232900Y10578363D01*
D02*
G37*
G36*
X8978900D02*
X8952795Y10574926D01*
X8928469Y10564850D01*
X8907579Y10548821D01*
X8891550Y10527931D01*
X8881474Y10503605D01*
X8878037Y10477500D01*
X8881474Y10451395D01*
X8891550Y10427069D01*
X8907579Y10406179D01*
X8928469Y10390150D01*
X8952795Y10380074D01*
X8978900Y10376637D01*
X9005005Y10380074D01*
X9029331Y10390150D01*
X9050221Y10406179D01*
X9066250Y10427069D01*
X9076326Y10451395D01*
X9079763Y10477500D01*
X9076326Y10503605D01*
X9066250Y10527931D01*
X9050221Y10548821D01*
X9029331Y10564850D01*
X9005005Y10574926D01*
X8978900Y10578363D01*
D02*
G37*
G36*
X12687300Y10124584D02*
X12671693Y10121479D01*
X12658462Y10112638D01*
X12649621Y10099407D01*
X12646516Y10083800D01*
X12649621Y10068193D01*
X12658462Y10054962D01*
X12671693Y10046121D01*
X12687300Y10043016D01*
X12702907Y10046121D01*
X12716138Y10054962D01*
X12724979Y10068193D01*
X12728084Y10083800D01*
X12724979Y10099407D01*
X12716138Y10112638D01*
X12702907Y10121479D01*
X12687300Y10124584D01*
D02*
G37*
G36*
X9321800D02*
X9306193Y10121479D01*
X9292962Y10112638D01*
X9284121Y10099407D01*
X9281016Y10083800D01*
X9284121Y10068193D01*
X9292962Y10054962D01*
X9306193Y10046121D01*
X9321800Y10043016D01*
X9337407Y10046121D01*
X9350638Y10054962D01*
X9359479Y10068193D01*
X9362584Y10083800D01*
X9359479Y10099407D01*
X9350638Y10112638D01*
X9337407Y10121479D01*
X9321800Y10124584D01*
D02*
G37*
G36*
X11938000Y10048384D02*
X11922393Y10045279D01*
X11909162Y10036438D01*
X11900321Y10023207D01*
X11897216Y10007600D01*
X11900321Y9991993D01*
X11909162Y9978762D01*
X11922393Y9969921D01*
X11938000Y9966816D01*
X11953607Y9969921D01*
X11966838Y9978762D01*
X11975679Y9991993D01*
X11978784Y10007600D01*
X11975679Y10023207D01*
X11966838Y10036438D01*
X11953607Y10045279D01*
X11938000Y10048384D01*
D02*
G37*
G36*
X12623800Y10022984D02*
X12608193Y10019879D01*
X12594962Y10011038D01*
X12586121Y9997807D01*
X12583016Y9982200D01*
X12586121Y9966593D01*
X12594962Y9953362D01*
X12608193Y9944521D01*
X12623800Y9941416D01*
X12639407Y9944521D01*
X12652638Y9953362D01*
X12661479Y9966593D01*
X12664584Y9982200D01*
X12661479Y9997807D01*
X12652638Y10011038D01*
X12639407Y10019879D01*
X12623800Y10022984D01*
D02*
G37*
G36*
X10082420Y10010284D02*
X10066812Y10007179D01*
X10053581Y9998338D01*
X10044741Y9985107D01*
X10041636Y9969500D01*
X10044741Y9953893D01*
X10053581Y9940662D01*
X10066812Y9931821D01*
X10082420Y9928716D01*
X10098027Y9931821D01*
X10111258Y9940662D01*
X10120099Y9953893D01*
X10123203Y9969500D01*
X10120099Y9985107D01*
X10111258Y9998338D01*
X10098027Y10007179D01*
X10082420Y10010284D01*
D02*
G37*
G36*
X12953999Y9963904D02*
X12935725Y9961498D01*
X12918698Y9954445D01*
X12904076Y9943224D01*
X12892854Y9928602D01*
X12885802Y9911574D01*
X12883395Y9893300D01*
X12885802Y9875026D01*
X12892854Y9857998D01*
X12904076Y9843376D01*
X12918698Y9832155D01*
X12935725Y9825102D01*
X12953999Y9822696D01*
X12972273Y9825102D01*
X12989302Y9832155D01*
X13003925Y9843376D01*
X13015144Y9857998D01*
X13022198Y9875026D01*
X13024603Y9893300D01*
X13022198Y9911574D01*
X13015144Y9928602D01*
X13003925Y9943224D01*
X12989302Y9954445D01*
X12972273Y9961498D01*
X12953999Y9963904D01*
D02*
G37*
G36*
X13473134Y10072271D02*
X13440501Y10067975D01*
X13410095Y10055380D01*
X13383983Y10035343D01*
X13363947Y10009232D01*
X13351350Y9978824D01*
X13347055Y9946192D01*
X13351350Y9913561D01*
X13363947Y9883153D01*
X13383983Y9857041D01*
X13410095Y9837005D01*
X13440501Y9824409D01*
X13441512Y9824277D01*
X13443228Y9811241D01*
X13430066Y9805789D01*
X13412225Y9792100D01*
X13398538Y9774261D01*
X13389932Y9753486D01*
X13386996Y9731192D01*
X13389932Y9708899D01*
X13398538Y9688124D01*
X13412225Y9670284D01*
X13430066Y9656596D01*
X13450841Y9647991D01*
X13473134Y9645056D01*
X13495428Y9647991D01*
X13516203Y9656596D01*
X13534042Y9670284D01*
X13547731Y9688124D01*
X13556335Y9708899D01*
X13559271Y9731192D01*
X13556335Y9753486D01*
X13547731Y9774261D01*
X13534042Y9792100D01*
X13516203Y9805789D01*
X13503040Y9811241D01*
X13504758Y9824277D01*
X13505766Y9824409D01*
X13536174Y9837005D01*
X13562285Y9857041D01*
X13582323Y9883153D01*
X13594917Y9913561D01*
X13599213Y9946192D01*
X13594917Y9978824D01*
X13582323Y10009232D01*
X13562285Y10035343D01*
X13536174Y10055380D01*
X13505766Y10067975D01*
X13473134Y10072271D01*
D02*
G37*
G36*
X9055100Y9591184D02*
X9039493Y9588079D01*
X9026262Y9579238D01*
X9017421Y9566007D01*
X9014316Y9550400D01*
X9017421Y9534793D01*
X9026262Y9521562D01*
X9039493Y9512721D01*
X9055100Y9509616D01*
X9070707Y9512721D01*
X9083938Y9521562D01*
X9092779Y9534793D01*
X9095884Y9550400D01*
X9092779Y9566007D01*
X9083938Y9579238D01*
X9070707Y9588079D01*
X9055100Y9591184D01*
D02*
G37*
G36*
X13473134Y9617329D02*
X13450841Y9614394D01*
X13430066Y9605789D01*
X13412225Y9592100D01*
X13398538Y9574261D01*
X13389932Y9553486D01*
X13386996Y9531192D01*
X13389932Y9508898D01*
X13398538Y9488124D01*
X13412225Y9470284D01*
X13430066Y9456596D01*
X13450841Y9447991D01*
X13473134Y9445056D01*
X13495428Y9447991D01*
X13516203Y9456596D01*
X13534042Y9470284D01*
X13547731Y9488124D01*
X13556335Y9508898D01*
X13559271Y9531192D01*
X13556335Y9553486D01*
X13547731Y9574261D01*
X13534042Y9592100D01*
X13516203Y9605789D01*
X13495428Y9614394D01*
X13473134Y9617329D01*
D02*
G37*
G36*
X13004800Y9812495D02*
X12968533Y9808923D01*
X12933661Y9798345D01*
X12901521Y9781166D01*
X12873352Y9758048D01*
X12850233Y9729878D01*
X12833055Y9697739D01*
X12822478Y9662866D01*
X12818906Y9626600D01*
X12822478Y9590334D01*
X12833055Y9555461D01*
X12850233Y9523322D01*
X12873352Y9495152D01*
X12901521Y9472034D01*
X12933661Y9454855D01*
X12968533Y9444277D01*
X13004800Y9440705D01*
X13041066Y9444277D01*
X13075938Y9454855D01*
X13108078Y9472034D01*
X13136247Y9495152D01*
X13159366Y9523322D01*
X13176546Y9555461D01*
X13187123Y9590334D01*
X13190695Y9626600D01*
X13187123Y9662866D01*
X13176546Y9697739D01*
X13159366Y9729878D01*
X13136247Y9758048D01*
X13108078Y9781166D01*
X13075938Y9798345D01*
X13041066Y9808923D01*
X13004800Y9812495D01*
D02*
G37*
G36*
X8699500D02*
X8663234Y9808923D01*
X8628361Y9798345D01*
X8596222Y9781166D01*
X8568052Y9758048D01*
X8544934Y9729878D01*
X8527755Y9697739D01*
X8517177Y9662866D01*
X8513605Y9626600D01*
X8517177Y9590334D01*
X8527755Y9555461D01*
X8544934Y9523322D01*
X8568052Y9495152D01*
X8596222Y9472034D01*
X8628361Y9454855D01*
X8663234Y9444277D01*
X8699500Y9440705D01*
X8735766Y9444277D01*
X8770639Y9454855D01*
X8802778Y9472034D01*
X8830948Y9495152D01*
X8854066Y9523322D01*
X8871245Y9555461D01*
X8881823Y9590334D01*
X8885395Y9626600D01*
X8881823Y9662866D01*
X8871245Y9697739D01*
X8854066Y9729878D01*
X8830948Y9758048D01*
X8802778Y9781166D01*
X8770639Y9798345D01*
X8735766Y9808923D01*
X8699500Y9812495D01*
D02*
G37*
G36*
X9321800Y9489584D02*
X9306193Y9486479D01*
X9292962Y9477638D01*
X9284121Y9464407D01*
X9281016Y9448800D01*
X9284121Y9433193D01*
X9292962Y9419962D01*
X9306193Y9411121D01*
X9321800Y9408016D01*
X9337407Y9411121D01*
X9350638Y9419962D01*
X9359479Y9433193D01*
X9362584Y9448800D01*
X9359479Y9464407D01*
X9350638Y9477638D01*
X9337407Y9486479D01*
X9321800Y9489584D01*
D02*
G37*
G36*
X10401300Y9413384D02*
X10385693Y9410279D01*
X10372462Y9401438D01*
X10363621Y9388207D01*
X10360516Y9372600D01*
X10363621Y9356993D01*
X10372462Y9343762D01*
X10385693Y9334921D01*
X10401300Y9331816D01*
X10416907Y9334921D01*
X10430138Y9343762D01*
X10438979Y9356993D01*
X10442084Y9372600D01*
X10438979Y9388207D01*
X10430138Y9401438D01*
X10416907Y9410279D01*
X10401300Y9413384D01*
D02*
G37*
G36*
X12357900Y9260984D02*
X12342293Y9257879D01*
X12329062Y9249038D01*
X12320221Y9235807D01*
X12317117Y9220200D01*
X12320221Y9204593D01*
X12329062Y9191362D01*
X12342293Y9182521D01*
X12357900Y9179416D01*
X12373507Y9182521D01*
X12386738Y9191362D01*
X12395579Y9204593D01*
X12398684Y9220200D01*
X12395579Y9235807D01*
X12386738Y9249038D01*
X12373507Y9257879D01*
X12357900Y9260984D01*
D02*
G37*
G36*
X10020300D02*
X10004693Y9257879D01*
X9991462Y9249038D01*
X9982621Y9235807D01*
X9979516Y9220200D01*
X9982621Y9204593D01*
X9991462Y9191362D01*
X10004693Y9182521D01*
X10020300Y9179416D01*
X10035907Y9182521D01*
X10049138Y9191362D01*
X10057979Y9204593D01*
X10061084Y9220200D01*
X10057979Y9235807D01*
X10049138Y9249038D01*
X10035907Y9257879D01*
X10020300Y9260984D01*
D02*
G37*
G36*
X10858500Y9265404D02*
X10840226Y9262998D01*
X10823198Y9255945D01*
X10808576Y9244724D01*
X10797355Y9230102D01*
X10790302Y9213074D01*
X10787896Y9194800D01*
X10790302Y9176526D01*
X10797355Y9159498D01*
X10808576Y9144876D01*
X10823198Y9133655D01*
X10840226Y9126602D01*
X10858500Y9124196D01*
X10876774Y9126602D01*
X10893802Y9133655D01*
X10908424Y9144876D01*
X10919645Y9159498D01*
X10926698Y9176526D01*
X10929104Y9194800D01*
X10926698Y9213074D01*
X10919645Y9230102D01*
X10908424Y9244724D01*
X10893802Y9255945D01*
X10876774Y9262998D01*
X10858500Y9265404D01*
D02*
G37*
G36*
X12395200Y9159384D02*
X12379593Y9156279D01*
X12366362Y9147438D01*
X12357521Y9134207D01*
X12354416Y9118600D01*
X12357521Y9102993D01*
X12366362Y9089762D01*
X12379593Y9080921D01*
X12395200Y9077816D01*
X12410807Y9080921D01*
X12424038Y9089762D01*
X12432879Y9102993D01*
X12435984Y9118600D01*
X12432879Y9134207D01*
X12424038Y9147438D01*
X12410807Y9156279D01*
X12395200Y9159384D01*
D02*
G37*
G36*
X13473134Y9417329D02*
X13450841Y9414394D01*
X13430066Y9405789D01*
X13412225Y9392100D01*
X13398538Y9374261D01*
X13389932Y9353486D01*
X13386996Y9331192D01*
X13389932Y9308898D01*
X13398538Y9288124D01*
X13412225Y9270284D01*
X13430066Y9256596D01*
X13443228Y9251144D01*
X13441512Y9238108D01*
X13440501Y9237975D01*
X13410095Y9225380D01*
X13383983Y9205344D01*
X13363947Y9179232D01*
X13351350Y9148824D01*
X13347055Y9116192D01*
X13351350Y9083561D01*
X13363947Y9053153D01*
X13383983Y9027041D01*
X13410095Y9007005D01*
X13440501Y8994409D01*
X13473134Y8990114D01*
X13505766Y8994409D01*
X13536174Y9007005D01*
X13562285Y9027041D01*
X13582323Y9053153D01*
X13594917Y9083561D01*
X13599213Y9116192D01*
X13594917Y9148824D01*
X13582323Y9179232D01*
X13562285Y9205344D01*
X13536174Y9225380D01*
X13505766Y9237975D01*
X13504758Y9238108D01*
X13503040Y9251144D01*
X13516203Y9256596D01*
X13534042Y9270284D01*
X13547731Y9288124D01*
X13556335Y9308898D01*
X13559271Y9331192D01*
X13556335Y9353486D01*
X13547731Y9374261D01*
X13534042Y9392100D01*
X13516203Y9405789D01*
X13495428Y9414394D01*
X13473134Y9417329D01*
D02*
G37*
G36*
X10071100Y8981584D02*
X10055493Y8978479D01*
X10042262Y8969638D01*
X10033421Y8956407D01*
X10030316Y8940800D01*
X10033421Y8925193D01*
X10042262Y8911962D01*
X10055493Y8903121D01*
X10071100Y8900016D01*
X10086707Y8903121D01*
X10099938Y8911962D01*
X10108779Y8925193D01*
X10111884Y8940800D01*
X10108779Y8956407D01*
X10099938Y8969638D01*
X10086707Y8978479D01*
X10071100Y8981584D01*
D02*
G37*
G36*
X11747500Y9024104D02*
X11729226Y9021698D01*
X11712198Y9014645D01*
X11697576Y9003424D01*
X11686355Y8988802D01*
X11679302Y8971774D01*
X11676896Y8953500D01*
X11679302Y8935226D01*
X11686355Y8918198D01*
X11697576Y8903576D01*
X11712198Y8892355D01*
X11729226Y8885302D01*
X11747500Y8882896D01*
X11765774Y8885302D01*
X11782802Y8892355D01*
X11797424Y8903576D01*
X11808645Y8918198D01*
X11815698Y8935226D01*
X11818104Y8953500D01*
X11815698Y8971774D01*
X11808645Y8988802D01*
X11797424Y9003424D01*
X11782802Y9014645D01*
X11765774Y9021698D01*
X11747500Y9024104D01*
D02*
G37*
G36*
X10604500Y8956184D02*
X10588893Y8953079D01*
X10575662Y8944238D01*
X10566821Y8931007D01*
X10563716Y8915400D01*
X10566821Y8899793D01*
X10575662Y8886562D01*
X10588893Y8877721D01*
X10604500Y8874616D01*
X10620107Y8877721D01*
X10633338Y8886562D01*
X10642179Y8899793D01*
X10645284Y8915400D01*
X10642179Y8931007D01*
X10633338Y8944238D01*
X10620107Y8953079D01*
X10604500Y8956184D01*
D02*
G37*
G36*
X13055600Y9011404D02*
X13037326Y9008998D01*
X13020297Y9001945D01*
X13005676Y8990724D01*
X12994455Y8976102D01*
X12987402Y8959074D01*
X12984996Y8940800D01*
X12987402Y8922526D01*
X12994455Y8905498D01*
X13005676Y8890876D01*
X13020297Y8879655D01*
X13037326Y8872602D01*
X13055600Y8870196D01*
X13073874Y8872602D01*
X13090903Y8879655D01*
X13105524Y8890876D01*
X13116745Y8905498D01*
X13123798Y8922526D01*
X13126204Y8940800D01*
X13123798Y8959074D01*
X13116745Y8976102D01*
X13105524Y8990724D01*
X13090903Y9001945D01*
X13073874Y9008998D01*
X13055600Y9011404D01*
D02*
G37*
G36*
X10299700Y8930784D02*
X10284093Y8927679D01*
X10270862Y8918838D01*
X10262021Y8905607D01*
X10258916Y8890000D01*
X10262021Y8874393D01*
X10270862Y8861162D01*
X10284093Y8852321D01*
X10299700Y8849216D01*
X10315307Y8852321D01*
X10328538Y8861162D01*
X10337379Y8874393D01*
X10340484Y8890000D01*
X10337379Y8905607D01*
X10328538Y8918838D01*
X10315307Y8927679D01*
X10299700Y8930784D01*
D02*
G37*
G36*
X8658234Y8964252D02*
X8458234D01*
Y8764252D01*
X8658234D01*
Y8964252D01*
D02*
G37*
G36*
X8812234Y8965115D02*
X8786129Y8961678D01*
X8761803Y8951602D01*
X8740913Y8935573D01*
X8724885Y8914684D01*
X8714808Y8890357D01*
X8711371Y8864252D01*
X8714808Y8838147D01*
X8724885Y8813821D01*
X8740913Y8792932D01*
X8761803Y8776903D01*
X8786129Y8766827D01*
X8812234Y8763390D01*
X8838339Y8766827D01*
X8862666Y8776903D01*
X8883555Y8792932D01*
X8899584Y8813821D01*
X8909660Y8838147D01*
X8913097Y8864252D01*
X8909660Y8890357D01*
X8899584Y8914684D01*
X8883555Y8935573D01*
X8862666Y8951602D01*
X8838339Y8961678D01*
X8812234Y8965115D01*
D02*
G37*
G36*
X9169400Y8765684D02*
X9153793Y8762579D01*
X9140562Y8753738D01*
X9131721Y8740507D01*
X9128616Y8724900D01*
X9131721Y8709293D01*
X9140562Y8696062D01*
X9153793Y8687221D01*
X9169400Y8684116D01*
X9185007Y8687221D01*
X9198238Y8696062D01*
X9207079Y8709293D01*
X9210184Y8724900D01*
X9207079Y8740507D01*
X9198238Y8753738D01*
X9185007Y8762579D01*
X9169400Y8765684D01*
D02*
G37*
G36*
X8978900D02*
X8963293Y8762579D01*
X8950062Y8753738D01*
X8941221Y8740507D01*
X8938116Y8724900D01*
X8941221Y8709293D01*
X8950062Y8696062D01*
X8963293Y8687221D01*
X8978900Y8684116D01*
X8994507Y8687221D01*
X9007738Y8696062D01*
X9016579Y8709293D01*
X9019684Y8724900D01*
X9016579Y8740507D01*
X9007738Y8753738D01*
X8994507Y8762579D01*
X8978900Y8765684D01*
D02*
G37*
G36*
X9537700Y8752244D02*
X9507614Y8748283D01*
X9479578Y8736671D01*
X9455503Y8718197D01*
X9437029Y8694122D01*
X9425417Y8666086D01*
X9421456Y8636000D01*
X9425417Y8605914D01*
X9437029Y8577878D01*
X9455503Y8553803D01*
X9479578Y8535329D01*
X9507614Y8523717D01*
X9537700Y8519756D01*
X9567786Y8523717D01*
X9595822Y8535329D01*
X9619897Y8553803D01*
X9638371Y8577878D01*
X9649983Y8605914D01*
X9653944Y8636000D01*
X9649983Y8666086D01*
X9638371Y8694122D01*
X9619897Y8718197D01*
X9595822Y8736671D01*
X9567786Y8748283D01*
X9537700Y8752244D01*
D02*
G37*
G36*
X8812234Y8711115D02*
X8786129Y8707678D01*
X8761803Y8697602D01*
X8740913Y8681573D01*
X8724885Y8660684D01*
X8714808Y8636357D01*
X8711371Y8610252D01*
X8714808Y8584147D01*
X8724885Y8559821D01*
X8740913Y8538932D01*
X8761803Y8522903D01*
X8786129Y8512827D01*
X8812234Y8509390D01*
X8838339Y8512827D01*
X8862666Y8522903D01*
X8883555Y8538932D01*
X8899584Y8559821D01*
X8909660Y8584147D01*
X8913097Y8610252D01*
X8909660Y8636357D01*
X8899584Y8660684D01*
X8883555Y8681573D01*
X8862666Y8697602D01*
X8838339Y8707678D01*
X8812234Y8711115D01*
D02*
G37*
G36*
X8558234D02*
X8532129Y8707678D01*
X8507803Y8697602D01*
X8486913Y8681573D01*
X8470885Y8660684D01*
X8460808Y8636357D01*
X8457371Y8610252D01*
X8460808Y8584147D01*
X8470885Y8559821D01*
X8486913Y8538932D01*
X8507803Y8522903D01*
X8532129Y8512827D01*
X8558234Y8509390D01*
X8584339Y8512827D01*
X8608666Y8522903D01*
X8629555Y8538932D01*
X8645584Y8559821D01*
X8655660Y8584147D01*
X8659097Y8610252D01*
X8655660Y8636357D01*
X8645584Y8660684D01*
X8629555Y8681573D01*
X8608666Y8697602D01*
X8584339Y8707678D01*
X8558234Y8711115D01*
D02*
G37*
G36*
X11239500Y8510883D02*
X11223893Y8507779D01*
X11210662Y8498938D01*
X11201821Y8485707D01*
X11198716Y8470100D01*
X11201821Y8454493D01*
X11210662Y8441262D01*
X11223893Y8432421D01*
X11239500Y8429316D01*
X11255107Y8432421D01*
X11268338Y8441262D01*
X11277179Y8454493D01*
X11280284Y8470100D01*
X11277179Y8485707D01*
X11268338Y8498938D01*
X11255107Y8507779D01*
X11239500Y8510883D01*
D02*
G37*
G36*
X12179300Y8397384D02*
X12163693Y8394279D01*
X12150462Y8385438D01*
X12141621Y8372207D01*
X12138516Y8356600D01*
X12141621Y8340993D01*
X12150462Y8327762D01*
X12163693Y8318921D01*
X12179300Y8315816D01*
X12194907Y8318921D01*
X12208138Y8327762D01*
X12216979Y8340993D01*
X12220084Y8356600D01*
X12216979Y8372207D01*
X12208138Y8385438D01*
X12194907Y8394279D01*
X12179300Y8397384D01*
D02*
G37*
G36*
X8812234Y8457115D02*
X8786129Y8453678D01*
X8761803Y8443602D01*
X8740913Y8427573D01*
X8724885Y8406684D01*
X8714808Y8382357D01*
X8711371Y8356252D01*
X8714808Y8330147D01*
X8724885Y8305821D01*
X8740913Y8284932D01*
X8761803Y8268903D01*
X8786129Y8258827D01*
X8812234Y8255390D01*
X8838339Y8258827D01*
X8862666Y8268903D01*
X8883555Y8284932D01*
X8899584Y8305821D01*
X8909660Y8330147D01*
X8913097Y8356252D01*
X8909660Y8382357D01*
X8899584Y8406684D01*
X8883555Y8427573D01*
X8862666Y8443602D01*
X8838339Y8453678D01*
X8812234Y8457115D01*
D02*
G37*
G36*
X8558234D02*
X8532129Y8453678D01*
X8507803Y8443602D01*
X8486913Y8427573D01*
X8470885Y8406684D01*
X8460808Y8382357D01*
X8457371Y8356252D01*
X8460808Y8330147D01*
X8470885Y8305821D01*
X8486913Y8284932D01*
X8507803Y8268903D01*
X8532129Y8258827D01*
X8558234Y8255390D01*
X8584339Y8258827D01*
X8608666Y8268903D01*
X8629555Y8284932D01*
X8645584Y8305821D01*
X8655660Y8330147D01*
X8659097Y8356252D01*
X8655660Y8382357D01*
X8645584Y8406684D01*
X8629555Y8427573D01*
X8608666Y8443602D01*
X8584339Y8453678D01*
X8558234Y8457115D01*
D02*
G37*
G36*
X11722100Y8333884D02*
X11706493Y8330779D01*
X11693262Y8321938D01*
X11684421Y8308707D01*
X11681316Y8293100D01*
X11684421Y8277493D01*
X11693262Y8264262D01*
X11706493Y8255421D01*
X11722100Y8252316D01*
X11737707Y8255421D01*
X11750938Y8264262D01*
X11759779Y8277493D01*
X11762884Y8293100D01*
X11759779Y8308707D01*
X11750938Y8321938D01*
X11737707Y8330779D01*
X11722100Y8333884D01*
D02*
G37*
G36*
X13550999Y8406235D02*
X13524895Y8402798D01*
X13500568Y8392722D01*
X13479678Y8376693D01*
X13463651Y8355803D01*
X13453574Y8331477D01*
X13450137Y8305372D01*
X13453574Y8279267D01*
X13463651Y8254941D01*
X13479678Y8234051D01*
X13500568Y8218022D01*
X13524895Y8207946D01*
X13550999Y8204509D01*
X13577104Y8207946D01*
X13601431Y8218022D01*
X13622321Y8234051D01*
X13638348Y8254941D01*
X13648425Y8279267D01*
X13651862Y8305372D01*
X13648425Y8331477D01*
X13638348Y8355803D01*
X13622321Y8376693D01*
X13601431Y8392722D01*
X13577104Y8402798D01*
X13550999Y8406235D01*
D02*
G37*
G36*
X13296999D02*
X13270894Y8402798D01*
X13246568Y8392722D01*
X13225679Y8376693D01*
X13209650Y8355803D01*
X13199574Y8331477D01*
X13196136Y8305372D01*
X13199574Y8279267D01*
X13209650Y8254941D01*
X13225679Y8234051D01*
X13246568Y8218022D01*
X13270894Y8207946D01*
X13296999Y8204509D01*
X13323103Y8207946D01*
X13347430Y8218022D01*
X13368320Y8234051D01*
X13384349Y8254941D01*
X13394424Y8279267D01*
X13397862Y8305372D01*
X13394424Y8331477D01*
X13384349Y8355803D01*
X13368320Y8376693D01*
X13347430Y8392722D01*
X13323103Y8402798D01*
X13296999Y8406235D01*
D02*
G37*
G36*
X9537700Y8262248D02*
X9507614Y8258287D01*
X9479578Y8246674D01*
X9455503Y8228201D01*
X9437029Y8204126D01*
X9425417Y8176090D01*
X9421456Y8146004D01*
X9425417Y8115917D01*
X9437029Y8087881D01*
X9455503Y8063806D01*
X9479578Y8045333D01*
X9507614Y8033720D01*
X9537700Y8029759D01*
X9567786Y8033720D01*
X9595822Y8045333D01*
X9619897Y8063806D01*
X9638371Y8087881D01*
X9649983Y8115917D01*
X9653944Y8146004D01*
X9649983Y8176090D01*
X9638371Y8204126D01*
X9619897Y8228201D01*
X9595822Y8246674D01*
X9567786Y8258287D01*
X9537700Y8262248D01*
D02*
G37*
G36*
X11988800Y8098284D02*
X11973193Y8095179D01*
X11959962Y8086338D01*
X11951121Y8073107D01*
X11948016Y8057500D01*
X11951121Y8041893D01*
X11959962Y8028662D01*
X11973193Y8019821D01*
X11988800Y8016717D01*
X12004407Y8019821D01*
X12017638Y8028662D01*
X12026479Y8041893D01*
X12029584Y8057500D01*
X12026479Y8073107D01*
X12017638Y8086338D01*
X12004407Y8095179D01*
X11988800Y8098284D01*
D02*
G37*
G36*
X8812234Y8203115D02*
X8786129Y8199678D01*
X8761803Y8189602D01*
X8740913Y8173573D01*
X8724885Y8152684D01*
X8714808Y8128357D01*
X8711371Y8102252D01*
X8714808Y8076147D01*
X8724885Y8051821D01*
X8740913Y8030932D01*
X8761803Y8014903D01*
X8786129Y8004827D01*
X8812234Y8001390D01*
X8838339Y8004827D01*
X8862666Y8014903D01*
X8883555Y8030932D01*
X8899584Y8051821D01*
X8909660Y8076147D01*
X8913097Y8102252D01*
X8909660Y8128357D01*
X8899584Y8152684D01*
X8883555Y8173573D01*
X8862666Y8189602D01*
X8838339Y8199678D01*
X8812234Y8203115D01*
D02*
G37*
G36*
X8558234D02*
X8532129Y8199678D01*
X8507803Y8189602D01*
X8486913Y8173573D01*
X8470885Y8152684D01*
X8460808Y8128357D01*
X8457371Y8102252D01*
X8460808Y8076147D01*
X8470885Y8051821D01*
X8486913Y8030932D01*
X8507803Y8014903D01*
X8532129Y8004827D01*
X8558234Y8001390D01*
X8584339Y8004827D01*
X8608666Y8014903D01*
X8629555Y8030932D01*
X8645584Y8051821D01*
X8655660Y8076147D01*
X8659097Y8102252D01*
X8655660Y8128357D01*
X8645584Y8152684D01*
X8629555Y8173573D01*
X8608666Y8189602D01*
X8584339Y8199678D01*
X8558234Y8203115D01*
D02*
G37*
G36*
X11494300Y8074318D02*
X11478693Y8071214D01*
X11465462Y8062373D01*
X11456621Y8049142D01*
X11453517Y8033535D01*
X11456621Y8017928D01*
X11465462Y8004696D01*
X11478693Y7995856D01*
X11494300Y7992751D01*
X11509907Y7995856D01*
X11523138Y8004696D01*
X11531979Y8017928D01*
X11535084Y8033535D01*
X11531979Y8049142D01*
X11523138Y8062373D01*
X11509907Y8071214D01*
X11494300Y8074318D01*
D02*
G37*
G36*
X13550999Y8152235D02*
X13524895Y8148798D01*
X13500568Y8138722D01*
X13479678Y8122693D01*
X13463651Y8101803D01*
X13453574Y8077477D01*
X13450137Y8051372D01*
X13453574Y8025267D01*
X13463651Y8000941D01*
X13479678Y7980051D01*
X13500568Y7964022D01*
X13524895Y7953946D01*
X13550999Y7950509D01*
X13577104Y7953946D01*
X13601431Y7964022D01*
X13622321Y7980051D01*
X13638348Y8000941D01*
X13648425Y8025267D01*
X13651862Y8051372D01*
X13648425Y8077477D01*
X13638348Y8101803D01*
X13622321Y8122693D01*
X13601431Y8138722D01*
X13577104Y8148798D01*
X13550999Y8152235D01*
D02*
G37*
G36*
X13296999D02*
X13270894Y8148798D01*
X13246568Y8138722D01*
X13225679Y8122693D01*
X13209650Y8101803D01*
X13199574Y8077477D01*
X13196136Y8051372D01*
X13199574Y8025267D01*
X13209650Y8000941D01*
X13225679Y7980051D01*
X13246568Y7964022D01*
X13270894Y7953946D01*
X13296999Y7950509D01*
X13323103Y7953946D01*
X13347430Y7964022D01*
X13368320Y7980051D01*
X13384349Y8000941D01*
X13394424Y8025267D01*
X13397862Y8051372D01*
X13394424Y8077477D01*
X13384349Y8101803D01*
X13368320Y8122693D01*
X13347430Y8138722D01*
X13323103Y8148798D01*
X13296999Y8152235D01*
D02*
G37*
G36*
X12966701Y8016384D02*
X12951093Y8013279D01*
X12937862Y8004438D01*
X12929021Y7991207D01*
X12925916Y7975600D01*
X12929021Y7959993D01*
X12937862Y7946762D01*
X12951093Y7937921D01*
X12966701Y7934816D01*
X12982307Y7937921D01*
X12995538Y7946762D01*
X13004379Y7959993D01*
X13007484Y7975600D01*
X13004379Y7991207D01*
X12995538Y8004438D01*
X12982307Y8013279D01*
X12966701Y8016384D01*
D02*
G37*
G36*
X12776200Y7965584D02*
X12760593Y7962479D01*
X12747362Y7953638D01*
X12738521Y7940407D01*
X12735416Y7924800D01*
X12738521Y7909193D01*
X12747362Y7895962D01*
X12760593Y7887121D01*
X12776200Y7884016D01*
X12791807Y7887121D01*
X12805038Y7895962D01*
X12813879Y7909193D01*
X12816985Y7924800D01*
X12813879Y7940407D01*
X12805038Y7953638D01*
X12791807Y7962479D01*
X12776200Y7965584D01*
D02*
G37*
G36*
X9334500Y7940184D02*
X9318893Y7937079D01*
X9305662Y7928238D01*
X9296821Y7915007D01*
X9293716Y7899400D01*
X9296821Y7883793D01*
X9305662Y7870562D01*
X9318893Y7861721D01*
X9334500Y7858616D01*
X9350107Y7861721D01*
X9363338Y7870562D01*
X9372179Y7883793D01*
X9375284Y7899400D01*
X9372179Y7915007D01*
X9363338Y7928238D01*
X9350107Y7937079D01*
X9334500Y7940184D01*
D02*
G37*
G36*
X10668000Y7939383D02*
X10652393Y7936279D01*
X10639162Y7927438D01*
X10630321Y7914207D01*
X10627216Y7898600D01*
X10630321Y7882993D01*
X10639162Y7869762D01*
X10652393Y7860921D01*
X10668000Y7857816D01*
X10683607Y7860921D01*
X10696838Y7869762D01*
X10705679Y7882993D01*
X10708784Y7898600D01*
X10705679Y7914207D01*
X10696838Y7927438D01*
X10683607Y7936279D01*
X10668000Y7939383D01*
D02*
G37*
G36*
X11480198Y7934319D02*
X11464590Y7931214D01*
X11451359Y7922374D01*
X11442518Y7909142D01*
X11439414Y7893535D01*
X11442518Y7877928D01*
X11451359Y7864697D01*
X11464590Y7855856D01*
X11480198Y7852752D01*
X11495805Y7855856D01*
X11509036Y7864697D01*
X11517877Y7877928D01*
X11520981Y7893535D01*
X11517877Y7909142D01*
X11509036Y7922374D01*
X11495805Y7931214D01*
X11480198Y7934319D01*
D02*
G37*
G36*
X11898800Y7927484D02*
X11883193Y7924379D01*
X11869962Y7915538D01*
X11861121Y7902307D01*
X11858016Y7886700D01*
X11861121Y7871093D01*
X11869962Y7857862D01*
X11883193Y7849021D01*
X11898800Y7845916D01*
X11914407Y7849021D01*
X11927638Y7857862D01*
X11936479Y7871093D01*
X11939583Y7886700D01*
X11936479Y7902307D01*
X11927638Y7915538D01*
X11914407Y7924379D01*
X11898800Y7927484D01*
D02*
G37*
G36*
X10388600Y7889384D02*
X10372993Y7886279D01*
X10359762Y7877438D01*
X10350921Y7864207D01*
X10347816Y7848600D01*
X10350921Y7832993D01*
X10359762Y7819762D01*
X10372993Y7810921D01*
X10388600Y7807816D01*
X10404207Y7810921D01*
X10417438Y7819762D01*
X10426279Y7832993D01*
X10429384Y7848600D01*
X10426279Y7864207D01*
X10417438Y7877438D01*
X10404207Y7886279D01*
X10388600Y7889384D01*
D02*
G37*
G36*
X12874335Y7867449D02*
X12858727Y7864345D01*
X12845496Y7855504D01*
X12836655Y7842273D01*
X12833551Y7826666D01*
X12836655Y7811059D01*
X12845496Y7797827D01*
X12858727Y7788987D01*
X12874335Y7785882D01*
X12889941Y7788987D01*
X12903172Y7797827D01*
X12912013Y7811059D01*
X12915118Y7826666D01*
X12912013Y7842273D01*
X12903172Y7855504D01*
X12889941Y7864345D01*
X12874335Y7867449D01*
D02*
G37*
G36*
X8812234Y7949115D02*
X8786129Y7945678D01*
X8761803Y7935602D01*
X8740913Y7919573D01*
X8724885Y7898684D01*
X8714808Y7874357D01*
X8711371Y7848252D01*
X8714808Y7822147D01*
X8724885Y7797821D01*
X8740913Y7776932D01*
X8761803Y7760903D01*
X8786129Y7750827D01*
X8812234Y7747390D01*
X8838339Y7750827D01*
X8862666Y7760903D01*
X8883555Y7776932D01*
X8899584Y7797821D01*
X8909660Y7822147D01*
X8913097Y7848252D01*
X8909660Y7874357D01*
X8899584Y7898684D01*
X8883555Y7919573D01*
X8862666Y7935602D01*
X8838339Y7945678D01*
X8812234Y7949115D01*
D02*
G37*
G36*
X8558234D02*
X8532129Y7945678D01*
X8507803Y7935602D01*
X8486913Y7919573D01*
X8470885Y7898684D01*
X8460808Y7874357D01*
X8457371Y7848252D01*
X8460808Y7822147D01*
X8470885Y7797821D01*
X8486913Y7776932D01*
X8507803Y7760903D01*
X8532129Y7750827D01*
X8558234Y7747390D01*
X8584339Y7750827D01*
X8608666Y7760903D01*
X8629555Y7776932D01*
X8645584Y7797821D01*
X8655660Y7822147D01*
X8659097Y7848252D01*
X8655660Y7874357D01*
X8645584Y7898684D01*
X8629555Y7919573D01*
X8608666Y7935602D01*
X8584339Y7945678D01*
X8558234Y7949115D01*
D02*
G37*
G36*
X9512300Y7787784D02*
X9496693Y7784679D01*
X9483462Y7775838D01*
X9474621Y7762607D01*
X9471516Y7747000D01*
X9474621Y7731393D01*
X9483462Y7718162D01*
X9496693Y7709321D01*
X9512300Y7706216D01*
X9527907Y7709321D01*
X9541138Y7718162D01*
X9549979Y7731393D01*
X9553084Y7747000D01*
X9549979Y7762607D01*
X9541138Y7775838D01*
X9527907Y7784679D01*
X9512300Y7787784D01*
D02*
G37*
G36*
X9308300Y7762384D02*
X9292693Y7759279D01*
X9279462Y7750438D01*
X9270621Y7737207D01*
X9267516Y7721600D01*
X9270621Y7705993D01*
X9279462Y7692762D01*
X9292693Y7683921D01*
X9308300Y7680816D01*
X9323907Y7683921D01*
X9337138Y7692762D01*
X9345979Y7705993D01*
X9349083Y7721600D01*
X9345979Y7737207D01*
X9337138Y7750438D01*
X9323907Y7759279D01*
X9308300Y7762384D01*
D02*
G37*
G36*
X9423400Y7648084D02*
X9407793Y7644979D01*
X9394562Y7636138D01*
X9385721Y7622907D01*
X9385424Y7621417D01*
X9372476D01*
X9372179Y7622907D01*
X9363338Y7636138D01*
X9350107Y7644979D01*
X9334500Y7648084D01*
X9318893Y7644979D01*
X9305662Y7636138D01*
X9296821Y7622907D01*
X9293716Y7607300D01*
X9296821Y7591693D01*
X9305662Y7578462D01*
X9318893Y7569621D01*
X9334500Y7566516D01*
X9350107Y7569621D01*
X9363338Y7578462D01*
X9372179Y7591693D01*
X9372476Y7593183D01*
X9385424D01*
X9385721Y7591693D01*
X9394562Y7578462D01*
X9407793Y7569621D01*
X9423400Y7566516D01*
X9439007Y7569621D01*
X9452238Y7578462D01*
X9461079Y7591693D01*
X9464184Y7607300D01*
X9461079Y7622907D01*
X9452238Y7636138D01*
X9439007Y7644979D01*
X9423400Y7648084D01*
D02*
G37*
G36*
X11410400Y7682034D02*
X11394793Y7678929D01*
X11381562Y7670089D01*
X11372721Y7656857D01*
X11369617Y7641250D01*
X11372572Y7626390D01*
X11372165Y7624752D01*
X11365389Y7613894D01*
X11360069Y7613368D01*
X11350883Y7623159D01*
X11351184Y7624670D01*
X11348079Y7640278D01*
X11339239Y7653509D01*
X11326008Y7662349D01*
X11310400Y7665454D01*
X11294793Y7662349D01*
X11281562Y7653509D01*
X11272721Y7640278D01*
X11269617Y7624670D01*
X11272721Y7609063D01*
X11281562Y7595832D01*
X11294793Y7586991D01*
X11310400Y7583887D01*
X11315776Y7584956D01*
X11326577Y7574156D01*
X11325591Y7569200D01*
X11328696Y7553593D01*
X11337536Y7540362D01*
X11350767Y7531521D01*
X11366375Y7528416D01*
X11381982Y7531521D01*
X11395213Y7540362D01*
X11404054Y7553593D01*
X11407158Y7569200D01*
X11404054Y7584807D01*
X11400992Y7589389D01*
X11408630Y7600819D01*
X11410400Y7600467D01*
X11426007Y7603571D01*
X11439238Y7612412D01*
X11448079Y7625643D01*
X11451184Y7641250D01*
X11448079Y7656857D01*
X11439238Y7670089D01*
X11426007Y7678929D01*
X11410400Y7682034D01*
D02*
G37*
G36*
X11988800Y7673484D02*
X11973193Y7670379D01*
X11959962Y7661538D01*
X11951121Y7648307D01*
X11948016Y7632700D01*
X11951121Y7617093D01*
X11959962Y7603862D01*
X11973193Y7595021D01*
X11988800Y7591916D01*
X12004407Y7595021D01*
X12017638Y7603862D01*
X12026479Y7617093D01*
X12029584Y7632700D01*
X12026479Y7648307D01*
X12017638Y7661538D01*
X12004407Y7670379D01*
X11988800Y7673484D01*
D02*
G37*
G36*
X11861800Y7648084D02*
X11846193Y7644979D01*
X11832962Y7636138D01*
X11824121Y7622907D01*
X11821016Y7607300D01*
X11824121Y7591693D01*
X11832962Y7578462D01*
X11846193Y7569621D01*
X11861800Y7566516D01*
X11877407Y7569621D01*
X11890638Y7578462D01*
X11899479Y7591693D01*
X11902584Y7607300D01*
X11899479Y7622907D01*
X11890638Y7636138D01*
X11877407Y7644979D01*
X11861800Y7648084D01*
D02*
G37*
G36*
X9169400D02*
X9153793Y7644979D01*
X9140562Y7636138D01*
X9131721Y7622907D01*
X9128616Y7607300D01*
X9131721Y7591693D01*
X9140562Y7578462D01*
X9153793Y7569621D01*
X9169400Y7566516D01*
X9185007Y7569621D01*
X9198238Y7578462D01*
X9207079Y7591693D01*
X9210184Y7607300D01*
X9207079Y7622907D01*
X9198238Y7636138D01*
X9185007Y7644979D01*
X9169400Y7648084D01*
D02*
G37*
G36*
X9918700Y7635384D02*
X9903093Y7632279D01*
X9889862Y7623438D01*
X9881021Y7610207D01*
X9877916Y7594600D01*
X9881021Y7578993D01*
X9889862Y7565762D01*
X9903093Y7556921D01*
X9918700Y7553816D01*
X9934307Y7556921D01*
X9947538Y7565762D01*
X9956379Y7578993D01*
X9959484Y7594600D01*
X9956379Y7610207D01*
X9947538Y7623438D01*
X9934307Y7632279D01*
X9918700Y7635384D01*
D02*
G37*
G36*
X11468100Y7590352D02*
X11452493Y7587247D01*
X11439262Y7578407D01*
X11430421Y7565176D01*
X11427316Y7549568D01*
X11430421Y7533961D01*
X11439262Y7520730D01*
X11452493Y7511889D01*
X11468100Y7508785D01*
X11483707Y7511889D01*
X11496938Y7520730D01*
X11505779Y7533961D01*
X11508884Y7549568D01*
X11505779Y7565176D01*
X11496938Y7578407D01*
X11483707Y7587247D01*
X11468100Y7590352D01*
D02*
G37*
G36*
X8812234Y7695115D02*
X8786129Y7691678D01*
X8761803Y7681602D01*
X8740913Y7665573D01*
X8724885Y7644684D01*
X8714808Y7620357D01*
X8711371Y7594252D01*
X8714808Y7568147D01*
X8724885Y7543821D01*
X8740913Y7522932D01*
X8761803Y7506903D01*
X8786129Y7496827D01*
X8812234Y7493390D01*
X8838339Y7496827D01*
X8862666Y7506903D01*
X8883555Y7522932D01*
X8899584Y7543821D01*
X8909660Y7568147D01*
X8913097Y7594252D01*
X8909660Y7620357D01*
X8899584Y7644684D01*
X8883555Y7665573D01*
X8862666Y7681602D01*
X8838339Y7691678D01*
X8812234Y7695115D01*
D02*
G37*
G36*
X8558234D02*
X8532129Y7691678D01*
X8507803Y7681602D01*
X8486913Y7665573D01*
X8470885Y7644684D01*
X8460808Y7620357D01*
X8457371Y7594252D01*
X8460808Y7568147D01*
X8470885Y7543821D01*
X8486913Y7522932D01*
X8507803Y7506903D01*
X8532129Y7496827D01*
X8558234Y7493390D01*
X8584339Y7496827D01*
X8608666Y7506903D01*
X8629555Y7522932D01*
X8645584Y7543821D01*
X8655660Y7568147D01*
X8659097Y7594252D01*
X8655660Y7620357D01*
X8645584Y7644684D01*
X8629555Y7665573D01*
X8608666Y7681602D01*
X8584339Y7691678D01*
X8558234Y7695115D01*
D02*
G37*
G36*
X11216375Y7637659D02*
X11200768Y7634554D01*
X11187537Y7625713D01*
X11178696Y7612482D01*
X11175592Y7596875D01*
X11178696Y7581268D01*
X11187537Y7568037D01*
X11200768Y7559196D01*
X11216375Y7556092D01*
X11218070Y7556429D01*
X11220666Y7554787D01*
X11227844Y7545424D01*
X11225591Y7534100D01*
X11228696Y7518492D01*
X11237537Y7505261D01*
X11250768Y7496421D01*
X11266375Y7493316D01*
X11281982Y7496421D01*
X11295213Y7505261D01*
X11304054Y7518492D01*
X11307158Y7534100D01*
X11304054Y7549707D01*
X11295213Y7562938D01*
X11281982Y7571779D01*
X11266375Y7574883D01*
X11264681Y7574546D01*
X11262084Y7576188D01*
X11254906Y7585551D01*
X11257159Y7596875D01*
X11254054Y7612482D01*
X11245213Y7625713D01*
X11231982Y7634554D01*
X11216375Y7637659D01*
D02*
G37*
G36*
X10393306Y7585683D02*
X10377699Y7582579D01*
X10364468Y7573738D01*
X10355627Y7560507D01*
X10352523Y7544900D01*
X10355056Y7532164D01*
X10347593Y7530679D01*
X10334362Y7521838D01*
X10325521Y7508607D01*
X10322416Y7493000D01*
X10325521Y7477393D01*
X10334362Y7464162D01*
X10347593Y7455321D01*
X10363200Y7452216D01*
X10378807Y7455321D01*
X10392038Y7464162D01*
X10400879Y7477393D01*
X10403984Y7493000D01*
X10401450Y7505736D01*
X10408914Y7507221D01*
X10422145Y7516061D01*
X10430985Y7529293D01*
X10434090Y7544900D01*
X10430985Y7560507D01*
X10422145Y7573738D01*
X10408914Y7582579D01*
X10393306Y7585683D01*
D02*
G37*
G36*
X9906000Y7533784D02*
X9890393Y7530679D01*
X9877162Y7521838D01*
X9868321Y7508607D01*
X9865216Y7493000D01*
X9868321Y7477393D01*
X9877162Y7464162D01*
X9890393Y7455321D01*
X9906000Y7452216D01*
X9921607Y7455321D01*
X9934838Y7464162D01*
X9943679Y7477393D01*
X9946784Y7493000D01*
X9943679Y7508607D01*
X9934838Y7521838D01*
X9921607Y7530679D01*
X9906000Y7533784D01*
D02*
G37*
G36*
X10960100Y7495684D02*
X10944493Y7492579D01*
X10931262Y7483738D01*
X10922421Y7470507D01*
X10919496Y7455804D01*
X10918056Y7452089D01*
X10910593Y7444626D01*
X10909300Y7444884D01*
X10908007Y7444626D01*
X10900544Y7452089D01*
X10899104Y7455804D01*
X10896179Y7470507D01*
X10887338Y7483738D01*
X10874107Y7492579D01*
X10858500Y7495684D01*
X10842893Y7492579D01*
X10829662Y7483738D01*
X10820821Y7470507D01*
X10817716Y7454900D01*
X10820821Y7439293D01*
X10829662Y7426062D01*
X10842893Y7417221D01*
X10857596Y7414296D01*
X10861311Y7412856D01*
X10867256Y7406911D01*
X10868696Y7403196D01*
X10871621Y7388493D01*
X10880462Y7375262D01*
X10893693Y7366421D01*
X10909300Y7363316D01*
X10924907Y7366421D01*
X10938138Y7375262D01*
X10946979Y7388493D01*
X10949904Y7403196D01*
X10951344Y7406911D01*
X10958807Y7414374D01*
X10959773Y7414182D01*
X10963261Y7413255D01*
X10969545Y7406971D01*
X10970873Y7403311D01*
X10973821Y7388493D01*
X10982662Y7375262D01*
X10995893Y7366421D01*
X11011500Y7363316D01*
X11027107Y7366421D01*
X11040338Y7375262D01*
X11049179Y7388493D01*
X11051669Y7401012D01*
X11061700Y7399017D01*
X11072692Y7401203D01*
X11075221Y7388493D01*
X11084061Y7375262D01*
X11097293Y7366421D01*
X11112900Y7363316D01*
X11128507Y7366421D01*
X11141738Y7375262D01*
X11150579Y7388493D01*
X11153683Y7404100D01*
X11150579Y7419707D01*
X11141738Y7432938D01*
X11128507Y7441779D01*
X11112900Y7444884D01*
X11101907Y7442697D01*
X11099379Y7455407D01*
X11090538Y7468639D01*
X11077307Y7477479D01*
X11061700Y7480584D01*
X11046093Y7477479D01*
X11032862Y7468639D01*
X11024021Y7455407D01*
X11022961Y7450079D01*
X11009109Y7445540D01*
X11008339Y7445745D01*
X11002055Y7452029D01*
X11000727Y7455689D01*
X10997779Y7470507D01*
X10988938Y7483738D01*
X10975707Y7492579D01*
X10960100Y7495684D01*
D02*
G37*
G36*
X13550999Y7644235D02*
X13524895Y7640798D01*
X13500568Y7630722D01*
X13479678Y7614693D01*
X13463651Y7593803D01*
X13453574Y7569477D01*
X13450137Y7543372D01*
X13453574Y7517267D01*
X13463651Y7492941D01*
X13479678Y7472051D01*
X13500568Y7456022D01*
X13524895Y7445946D01*
X13550999Y7442509D01*
X13577104Y7445946D01*
X13601431Y7456022D01*
X13622321Y7472051D01*
X13638348Y7492941D01*
X13648425Y7517267D01*
X13651862Y7543372D01*
X13648425Y7569477D01*
X13638348Y7593803D01*
X13622321Y7614693D01*
X13601431Y7630722D01*
X13577104Y7640798D01*
X13550999Y7644235D01*
D02*
G37*
G36*
X13296999D02*
X13270894Y7640798D01*
X13246568Y7630722D01*
X13225679Y7614693D01*
X13209650Y7593803D01*
X13199574Y7569477D01*
X13196136Y7543372D01*
X13199574Y7517267D01*
X13209650Y7492941D01*
X13225679Y7472051D01*
X13246568Y7456022D01*
X13270894Y7445946D01*
X13296999Y7442509D01*
X13323103Y7445946D01*
X13347430Y7456022D01*
X13368320Y7472051D01*
X13384349Y7492941D01*
X13394424Y7517267D01*
X13397862Y7543372D01*
X13394424Y7569477D01*
X13384349Y7593803D01*
X13368320Y7614693D01*
X13347430Y7630722D01*
X13323103Y7640798D01*
X13296999Y7644235D01*
D02*
G37*
G36*
X11556200Y7523795D02*
X11540593Y7520691D01*
X11527362Y7511850D01*
X11518521Y7498619D01*
X11515416Y7483012D01*
X11518521Y7467405D01*
X11527362Y7454174D01*
X11540593Y7445333D01*
X11556200Y7442228D01*
X11571807Y7445333D01*
X11585038Y7454174D01*
X11593879Y7467405D01*
X11596983Y7483012D01*
X11593879Y7498619D01*
X11585038Y7511850D01*
X11571807Y7520691D01*
X11556200Y7523795D01*
D02*
G37*
G36*
X11988800Y7521084D02*
X11973193Y7517979D01*
X11959962Y7509138D01*
X11951121Y7495907D01*
X11948016Y7480300D01*
X11951121Y7464693D01*
X11959962Y7451462D01*
X11973193Y7442621D01*
X11988800Y7439516D01*
X12004407Y7442621D01*
X12017638Y7451462D01*
X12026479Y7464693D01*
X12029584Y7480300D01*
X12026479Y7495907D01*
X12017638Y7509138D01*
X12004407Y7517979D01*
X11988800Y7521084D01*
D02*
G37*
G36*
X9183200Y7495684D02*
X9167593Y7492579D01*
X9154361Y7483738D01*
X9145521Y7470507D01*
X9142416Y7454900D01*
X9145521Y7439293D01*
X9154361Y7426062D01*
X9167593Y7417221D01*
X9183200Y7414116D01*
X9198807Y7417221D01*
X9212038Y7426062D01*
X9220879Y7439293D01*
X9223983Y7454900D01*
X9220879Y7470507D01*
X9212038Y7483738D01*
X9198807Y7492579D01*
X9183200Y7495684D01*
D02*
G37*
G36*
X10033000Y7470284D02*
X10017393Y7467179D01*
X10004162Y7458338D01*
X9995321Y7445107D01*
X9992216Y7429500D01*
X9995321Y7413893D01*
X10004162Y7400662D01*
X10017393Y7391821D01*
X10031184Y7389078D01*
X10035654Y7386429D01*
X10039939Y7382145D01*
X10042587Y7377675D01*
X10045330Y7363883D01*
X10054171Y7350652D01*
X10067402Y7341812D01*
X10083009Y7338707D01*
X10098617Y7341812D01*
X10111848Y7350652D01*
X10120688Y7363883D01*
X10123793Y7379491D01*
X10120688Y7395098D01*
X10111848Y7408329D01*
X10098617Y7417170D01*
X10084825Y7419913D01*
X10080355Y7422561D01*
X10076071Y7426846D01*
X10073422Y7431316D01*
X10070679Y7445107D01*
X10061838Y7458338D01*
X10048607Y7467179D01*
X10033000Y7470284D01*
D02*
G37*
G36*
X9906800Y7406784D02*
X9891193Y7403679D01*
X9877962Y7394838D01*
X9869121Y7381607D01*
X9866017Y7366000D01*
X9869121Y7350393D01*
X9877962Y7337162D01*
X9891193Y7328321D01*
X9906800Y7325216D01*
X9922407Y7328321D01*
X9935638Y7337162D01*
X9944479Y7350393D01*
X9947584Y7366000D01*
X9944479Y7381607D01*
X9935638Y7394838D01*
X9922407Y7403679D01*
X9906800Y7406784D01*
D02*
G37*
G36*
X11607800Y7394884D02*
X11592193Y7391779D01*
X11578962Y7382938D01*
X11570121Y7369707D01*
X11567016Y7354100D01*
X11570121Y7338493D01*
X11578962Y7325262D01*
X11592193Y7316421D01*
X11607800Y7313317D01*
X11623407Y7316421D01*
X11636638Y7325262D01*
X11645479Y7338493D01*
X11648584Y7354100D01*
X11645479Y7369707D01*
X11636638Y7382938D01*
X11623407Y7391779D01*
X11607800Y7394884D01*
D02*
G37*
G36*
X8812234Y7441115D02*
X8786129Y7437678D01*
X8761803Y7427602D01*
X8740913Y7411573D01*
X8724885Y7390684D01*
X8714808Y7366357D01*
X8711371Y7340252D01*
X8714808Y7314147D01*
X8724885Y7289821D01*
X8740913Y7268932D01*
X8761803Y7252903D01*
X8786129Y7242827D01*
X8812234Y7239390D01*
X8838339Y7242827D01*
X8862666Y7252903D01*
X8883555Y7268932D01*
X8899584Y7289821D01*
X8909660Y7314147D01*
X8913097Y7340252D01*
X8909660Y7366357D01*
X8899584Y7390684D01*
X8883555Y7411573D01*
X8862666Y7427602D01*
X8838339Y7437678D01*
X8812234Y7441115D01*
D02*
G37*
G36*
X8558234D02*
X8532129Y7437678D01*
X8507803Y7427602D01*
X8486913Y7411573D01*
X8470885Y7390684D01*
X8460808Y7366357D01*
X8457371Y7340252D01*
X8460808Y7314147D01*
X8470885Y7289821D01*
X8486913Y7268932D01*
X8507803Y7252903D01*
X8532129Y7242827D01*
X8558234Y7239390D01*
X8584339Y7242827D01*
X8608666Y7252903D01*
X8629555Y7268932D01*
X8645584Y7289821D01*
X8655660Y7314147D01*
X8659097Y7340252D01*
X8655660Y7366357D01*
X8645584Y7390684D01*
X8629555Y7411573D01*
X8608666Y7427602D01*
X8584339Y7437678D01*
X8558234Y7441115D01*
D02*
G37*
G36*
X8940800Y7292484D02*
X8925193Y7289379D01*
X8911962Y7280538D01*
X8903121Y7267307D01*
X8900016Y7251700D01*
X8903121Y7236093D01*
X8911962Y7222862D01*
X8925193Y7214021D01*
X8940800Y7210916D01*
X8956407Y7214021D01*
X8969638Y7222862D01*
X8978479Y7236093D01*
X8981584Y7251700D01*
X8978479Y7267307D01*
X8969638Y7280538D01*
X8956407Y7289379D01*
X8940800Y7292484D01*
D02*
G37*
G36*
X9068600Y7279784D02*
X9052993Y7276679D01*
X9039762Y7267838D01*
X9030921Y7254607D01*
X9027817Y7239000D01*
X9030921Y7223393D01*
X9039762Y7210162D01*
X9052993Y7201321D01*
X9068600Y7198216D01*
X9084207Y7201321D01*
X9097438Y7210162D01*
X9106279Y7223393D01*
X9109384Y7239000D01*
X9106279Y7254607D01*
X9097438Y7267838D01*
X9084207Y7276679D01*
X9068600Y7279784D01*
D02*
G37*
G36*
X13650999Y7389372D02*
X13450999D01*
Y7189372D01*
X13650999D01*
Y7389372D01*
D02*
G37*
G36*
X13296999Y7390235D02*
X13270894Y7386798D01*
X13246568Y7376722D01*
X13225679Y7360693D01*
X13209650Y7339803D01*
X13199574Y7315477D01*
X13196136Y7289372D01*
X13199574Y7263267D01*
X13209650Y7238941D01*
X13225679Y7218051D01*
X13246568Y7202022D01*
X13270894Y7191946D01*
X13296999Y7188509D01*
X13323103Y7191946D01*
X13347430Y7202022D01*
X13368320Y7218051D01*
X13384349Y7238941D01*
X13394424Y7263267D01*
X13397862Y7289372D01*
X13394424Y7315477D01*
X13384349Y7339803D01*
X13368320Y7360693D01*
X13347430Y7376722D01*
X13323103Y7386798D01*
X13296999Y7390235D01*
D02*
G37*
G36*
X9842500Y7228984D02*
X9826893Y7225879D01*
X9813662Y7217038D01*
X9804821Y7203807D01*
X9801716Y7188200D01*
X9804821Y7172593D01*
X9813662Y7159362D01*
X9826893Y7150521D01*
X9842500Y7147416D01*
X9858107Y7150521D01*
X9871338Y7159362D01*
X9880179Y7172593D01*
X9883284Y7188200D01*
X9880179Y7203807D01*
X9871338Y7217038D01*
X9858107Y7225879D01*
X9842500Y7228984D01*
D02*
G37*
G36*
X9232900D02*
X9217293Y7225879D01*
X9204062Y7217038D01*
X9195221Y7203807D01*
X9192116Y7188200D01*
X9195221Y7172593D01*
X9204062Y7159362D01*
X9217293Y7150521D01*
X9232900Y7147416D01*
X9248507Y7150521D01*
X9261738Y7159362D01*
X9270579Y7172593D01*
X9273684Y7188200D01*
X9270579Y7203807D01*
X9261738Y7217038D01*
X9248507Y7225879D01*
X9232900Y7228984D01*
D02*
G37*
G36*
X8990800Y7203584D02*
X8975193Y7200479D01*
X8961962Y7191638D01*
X8953121Y7178407D01*
X8950016Y7162800D01*
X8953121Y7147193D01*
X8961962Y7133962D01*
X8975193Y7125121D01*
X8990800Y7122016D01*
X9006407Y7125121D01*
X9019638Y7133962D01*
X9028479Y7147193D01*
X9031583Y7162800D01*
X9028479Y7178407D01*
X9019638Y7191638D01*
X9006407Y7200479D01*
X8990800Y7203584D01*
D02*
G37*
G36*
X9523900Y7202783D02*
X9508293Y7199679D01*
X9495062Y7190838D01*
X9486221Y7177607D01*
X9483117Y7162000D01*
X9486221Y7146393D01*
X9495062Y7133162D01*
X9508293Y7124321D01*
X9523900Y7121216D01*
X9539507Y7124321D01*
X9552739Y7133162D01*
X9561579Y7146393D01*
X9564684Y7162000D01*
X9561579Y7177607D01*
X9552739Y7190838D01*
X9539507Y7199679D01*
X9523900Y7202783D01*
D02*
G37*
G36*
X10198100Y7140084D02*
X10182493Y7136979D01*
X10169262Y7128138D01*
X10160421Y7114907D01*
X10157316Y7099300D01*
X10160421Y7083693D01*
X10169262Y7070462D01*
X10182493Y7061621D01*
X10198100Y7058516D01*
X10213707Y7061621D01*
X10226938Y7070462D01*
X10235779Y7083693D01*
X10238884Y7099300D01*
X10235779Y7114907D01*
X10226938Y7128138D01*
X10213707Y7136979D01*
X10198100Y7140084D01*
D02*
G37*
G36*
X12344400Y7116583D02*
X12328793Y7113479D01*
X12315562Y7104638D01*
X12306721Y7091407D01*
X12303616Y7075800D01*
X12306721Y7060193D01*
X12315562Y7046962D01*
X12328793Y7038121D01*
X12344400Y7035016D01*
X12360007Y7038121D01*
X12373238Y7046962D01*
X12382079Y7060193D01*
X12385184Y7075800D01*
X12382079Y7091407D01*
X12373238Y7104638D01*
X12360007Y7113479D01*
X12344400Y7116583D01*
D02*
G37*
G36*
X12179300Y7114684D02*
X12163693Y7111579D01*
X12150462Y7102738D01*
X12141621Y7089507D01*
X12138516Y7073900D01*
X12141621Y7058293D01*
X12150462Y7045062D01*
X12163693Y7036221D01*
X12179300Y7033116D01*
X12194907Y7036221D01*
X12208138Y7045062D01*
X12216979Y7058293D01*
X12220084Y7073900D01*
X12216979Y7089507D01*
X12208138Y7102738D01*
X12194907Y7111579D01*
X12179300Y7114684D01*
D02*
G37*
G36*
X9918967Y7096761D02*
X9903360Y7093657D01*
X9890129Y7084816D01*
X9881288Y7071585D01*
X9878184Y7055978D01*
X9881288Y7040370D01*
X9890129Y7027139D01*
X9903360Y7018298D01*
X9918967Y7015194D01*
X9934574Y7018298D01*
X9947806Y7027139D01*
X9956646Y7040370D01*
X9959751Y7055978D01*
X9956646Y7071585D01*
X9947806Y7084816D01*
X9934574Y7093657D01*
X9918967Y7096761D01*
D02*
G37*
G36*
X9702800Y7089284D02*
X9687193Y7086179D01*
X9673962Y7077338D01*
X9665121Y7064107D01*
X9662016Y7048500D01*
X9665121Y7032893D01*
X9673962Y7019662D01*
X9687193Y7010821D01*
X9702800Y7007716D01*
X9718407Y7010821D01*
X9731638Y7019662D01*
X9740479Y7032893D01*
X9743584Y7048500D01*
X9740479Y7064107D01*
X9731638Y7077338D01*
X9718407Y7086179D01*
X9702800Y7089284D01*
D02*
G37*
G36*
X9423400Y7087684D02*
X9407793Y7084579D01*
X9394562Y7075738D01*
X9385721Y7062507D01*
X9382616Y7046900D01*
X9385721Y7031293D01*
X9394562Y7018062D01*
X9407793Y7009221D01*
X9423400Y7006117D01*
X9439007Y7009221D01*
X9452238Y7018062D01*
X9461079Y7031293D01*
X9464184Y7046900D01*
X9461079Y7062507D01*
X9452238Y7075738D01*
X9439007Y7084579D01*
X9423400Y7087684D01*
D02*
G37*
G36*
X9232900Y7076584D02*
X9217293Y7073479D01*
X9204062Y7064638D01*
X9195221Y7051407D01*
X9192116Y7035800D01*
X9195221Y7020193D01*
X9204062Y7006962D01*
X9217293Y6998121D01*
X9232900Y6995016D01*
X9248507Y6998121D01*
X9261738Y7006962D01*
X9270579Y7020193D01*
X9273684Y7035800D01*
X9270579Y7051407D01*
X9261738Y7064638D01*
X9248507Y7073479D01*
X9232900Y7076584D01*
D02*
G37*
G36*
X8812234Y7187115D02*
X8786129Y7183678D01*
X8761803Y7173602D01*
X8740913Y7157573D01*
X8724885Y7136684D01*
X8714808Y7112357D01*
X8711371Y7086252D01*
X8714808Y7060147D01*
X8724885Y7035821D01*
X8740913Y7014932D01*
X8761803Y6998903D01*
X8786129Y6988827D01*
X8812234Y6985390D01*
X8838339Y6988827D01*
X8862666Y6998903D01*
X8883555Y7014932D01*
X8899584Y7035821D01*
X8909660Y7060147D01*
X8913097Y7086252D01*
X8909660Y7112357D01*
X8899584Y7136684D01*
X8883555Y7157573D01*
X8862666Y7173602D01*
X8838339Y7183678D01*
X8812234Y7187115D01*
D02*
G37*
G36*
X9550400Y7063884D02*
X9534793Y7060779D01*
X9521562Y7051938D01*
X9512721Y7038707D01*
X9509616Y7023100D01*
X9512721Y7007493D01*
X9521562Y6994262D01*
X9534793Y6985421D01*
X9550400Y6982316D01*
X9566007Y6985421D01*
X9579238Y6994262D01*
X9588079Y7007493D01*
X9591184Y7023100D01*
X9588079Y7038707D01*
X9579238Y7051938D01*
X9566007Y7060779D01*
X9550400Y7063884D01*
D02*
G37*
G36*
X12966701Y7076584D02*
X12951093Y7073479D01*
X12937862Y7064638D01*
X12929021Y7051407D01*
X12925916Y7035800D01*
X12929021Y7020193D01*
X12937862Y7006962D01*
X12951093Y6998121D01*
X12966701Y6995016D01*
X12976849Y6997035D01*
X12979820Y6982093D01*
X12988663Y6968862D01*
X13001894Y6960021D01*
X13017500Y6956916D01*
X13033107Y6960021D01*
X13046338Y6968862D01*
X13055179Y6982093D01*
X13058284Y6997700D01*
X13055179Y7013307D01*
X13046338Y7026538D01*
X13033107Y7035379D01*
X13017500Y7038484D01*
X13007352Y7036465D01*
X13004379Y7051407D01*
X12995538Y7064638D01*
X12982307Y7073479D01*
X12966701Y7076584D01*
D02*
G37*
G36*
X12585700Y7025784D02*
X12570093Y7022679D01*
X12556862Y7013838D01*
X12548021Y7000607D01*
X12544916Y6985000D01*
X12548021Y6969393D01*
X12556862Y6956162D01*
X12570093Y6947321D01*
X12585700Y6944216D01*
X12601307Y6947321D01*
X12614538Y6956162D01*
X12623379Y6969393D01*
X12626484Y6985000D01*
X12623379Y7000607D01*
X12614538Y7013838D01*
X12601307Y7022679D01*
X12585700Y7025784D01*
D02*
G37*
G36*
X12738100Y7003383D02*
X12722493Y7000279D01*
X12709262Y6991438D01*
X12700421Y6978207D01*
X12697316Y6962600D01*
X12700421Y6946992D01*
X12709262Y6933761D01*
X12722493Y6924921D01*
X12738100Y6921816D01*
X12753707Y6924921D01*
X12766938Y6933761D01*
X12775779Y6946992D01*
X12778884Y6962600D01*
X12775779Y6978207D01*
X12766938Y6991438D01*
X12753707Y7000279D01*
X12738100Y7003383D01*
D02*
G37*
G36*
X9155909Y6986893D02*
X9140302Y6983788D01*
X9127071Y6974948D01*
X9118230Y6961717D01*
X9115126Y6946109D01*
X9118230Y6930502D01*
X9127071Y6917271D01*
X9140302Y6908430D01*
X9155909Y6905326D01*
X9171517Y6908430D01*
X9184748Y6917271D01*
X9193588Y6930502D01*
X9196693Y6946109D01*
X9193588Y6961717D01*
X9184748Y6974948D01*
X9171517Y6983788D01*
X9155909Y6986893D01*
D02*
G37*
G36*
X12852400Y6963383D02*
X12836794Y6960279D01*
X12823563Y6951438D01*
X12814722Y6938207D01*
X12811617Y6922600D01*
X12814722Y6906993D01*
X12823563Y6893761D01*
X12836794Y6884921D01*
X12852400Y6881816D01*
X12868007Y6884921D01*
X12881238Y6893761D01*
X12890079Y6906993D01*
X12893184Y6922600D01*
X12890079Y6938207D01*
X12881238Y6951438D01*
X12868007Y6960279D01*
X12852400Y6963383D01*
D02*
G37*
G36*
X10083800Y6910683D02*
X10068193Y6907579D01*
X10054962Y6898738D01*
X10046121Y6885507D01*
X10043016Y6869900D01*
X10033138Y6869655D01*
X10032200Y6869841D01*
X10016593Y6866737D01*
X10003362Y6857896D01*
X9994521Y6844665D01*
X9991416Y6829058D01*
X9994521Y6813451D01*
X10003362Y6800220D01*
X9998909Y6787920D01*
X9996763Y6784707D01*
X9993658Y6769100D01*
X9996763Y6753493D01*
X10005604Y6740262D01*
X10018835Y6731421D01*
X10034442Y6728316D01*
X10050049Y6731421D01*
X10063280Y6740262D01*
X10072121Y6753493D01*
X10075225Y6769100D01*
X10072121Y6784707D01*
X10063280Y6797938D01*
X10067732Y6810238D01*
X10069879Y6813451D01*
X10072983Y6829058D01*
X10082862Y6829303D01*
X10083800Y6829116D01*
X10099407Y6832221D01*
X10112638Y6841062D01*
X10121479Y6854293D01*
X10124584Y6869900D01*
X10121479Y6885507D01*
X10112638Y6898738D01*
X10099407Y6907579D01*
X10083800Y6910683D01*
D02*
G37*
G36*
X12965900Y6863384D02*
X12950293Y6860279D01*
X12937062Y6851438D01*
X12928221Y6838207D01*
X12925116Y6822600D01*
X12928221Y6806993D01*
X12937062Y6793762D01*
X12950293Y6784921D01*
X12965900Y6781817D01*
X12981506Y6784921D01*
X12994737Y6793762D01*
X13003580Y6806993D01*
X13006683Y6822600D01*
X13003580Y6838207D01*
X12994737Y6851438D01*
X12981506Y6860279D01*
X12965900Y6863384D01*
D02*
G37*
G36*
X12407100Y6891063D02*
X12391493Y6887958D01*
X12378262Y6879118D01*
X12369421Y6865886D01*
X12366316Y6850279D01*
X12369421Y6834672D01*
X12378262Y6821441D01*
X12391492Y6812600D01*
X12392270Y6799753D01*
X12391417Y6795462D01*
X12394521Y6779855D01*
X12403362Y6766624D01*
X12416593Y6757783D01*
X12432200Y6754678D01*
X12447807Y6757783D01*
X12461039Y6766624D01*
X12469879Y6779855D01*
X12472984Y6795462D01*
X12469879Y6811069D01*
X12461039Y6824300D01*
X12447808Y6833141D01*
X12447030Y6845988D01*
X12447883Y6850279D01*
X12444779Y6865886D01*
X12435938Y6879118D01*
X12422707Y6887958D01*
X12407100Y6891063D01*
D02*
G37*
G36*
X12572200Y6813384D02*
X12556593Y6810279D01*
X12543362Y6801439D01*
X12534521Y6788207D01*
X12531416Y6772600D01*
X12534521Y6756993D01*
X12543362Y6743762D01*
X12556593Y6734921D01*
X12572200Y6731817D01*
X12587807Y6734921D01*
X12601038Y6743762D01*
X12609879Y6756993D01*
X12612983Y6772600D01*
X12609879Y6788207D01*
X12601038Y6801439D01*
X12587807Y6810279D01*
X12572200Y6813384D01*
D02*
G37*
G36*
X8877300Y6809884D02*
X8861693Y6806779D01*
X8848462Y6797938D01*
X8839621Y6784707D01*
X8836516Y6769100D01*
X8839621Y6753493D01*
X8848462Y6740262D01*
X8861693Y6731421D01*
X8877300Y6728316D01*
X8892907Y6731421D01*
X8906138Y6740262D01*
X8914979Y6753493D01*
X8918084Y6769100D01*
X8914979Y6784707D01*
X8906138Y6797938D01*
X8892907Y6806779D01*
X8877300Y6809884D01*
D02*
G37*
G36*
X12654260Y6754023D02*
X12638653Y6750919D01*
X12625422Y6742078D01*
X12616581Y6728847D01*
X12613477Y6713240D01*
X12616581Y6697633D01*
X12625422Y6684401D01*
X12638653Y6675561D01*
X12654260Y6672456D01*
X12669867Y6675561D01*
X12683099Y6684401D01*
X12691939Y6697633D01*
X12695044Y6713240D01*
X12691939Y6728847D01*
X12683099Y6742078D01*
X12669867Y6750919D01*
X12654260Y6754023D01*
D02*
G37*
G36*
X9880600Y6733684D02*
X9864993Y6730579D01*
X9851762Y6721738D01*
X9842921Y6708507D01*
X9839816Y6692900D01*
X9842921Y6677293D01*
X9851762Y6664062D01*
X9864993Y6655221D01*
X9880600Y6652116D01*
X9896207Y6655221D01*
X9909438Y6664062D01*
X9918279Y6677293D01*
X9921384Y6692900D01*
X9918279Y6708507D01*
X9909438Y6721738D01*
X9896207Y6730579D01*
X9880600Y6733684D01*
D02*
G37*
G36*
X12965900Y6695584D02*
X12950293Y6692479D01*
X12937062Y6683638D01*
X12928221Y6670407D01*
X12925116Y6654800D01*
X12928221Y6639193D01*
X12937062Y6625962D01*
X12950293Y6617121D01*
X12965900Y6614016D01*
X12981506Y6617121D01*
X12994737Y6625962D01*
X13003580Y6639193D01*
X13006683Y6654800D01*
X13003580Y6670407D01*
X12994737Y6683638D01*
X12981506Y6692479D01*
X12965900Y6695584D01*
D02*
G37*
G36*
X9080500Y6720984D02*
X9064893Y6717879D01*
X9051662Y6709038D01*
X9042821Y6695807D01*
X9039716Y6680200D01*
X9042821Y6664593D01*
X9051662Y6651362D01*
X9064893Y6642521D01*
X9066383Y6642224D01*
Y6629276D01*
X9064893Y6628979D01*
X9051662Y6620138D01*
X9044640Y6609630D01*
X9031623Y6607403D01*
X9030830Y6607438D01*
X9017599Y6616279D01*
X9001992Y6619384D01*
X8986385Y6616279D01*
X8973154Y6607438D01*
X8964313Y6594207D01*
X8961209Y6578600D01*
X8964313Y6562993D01*
X8973154Y6549762D01*
X8986385Y6540921D01*
X9001992Y6537816D01*
X9017599Y6540921D01*
X9030831Y6549762D01*
X9037852Y6560270D01*
X9050869Y6562497D01*
X9051662Y6562462D01*
X9064893Y6553621D01*
X9080500Y6550516D01*
X9096107Y6553621D01*
X9109338Y6562462D01*
X9118179Y6575693D01*
X9121284Y6591300D01*
X9118179Y6606907D01*
X9109338Y6620138D01*
X9096107Y6628979D01*
X9094617Y6629276D01*
Y6642224D01*
X9096107Y6642521D01*
X9109338Y6651362D01*
X9118179Y6664593D01*
X9121284Y6680200D01*
X9118179Y6695807D01*
X9109338Y6709038D01*
X9096107Y6717879D01*
X9080500Y6720984D01*
D02*
G37*
G36*
X13396899Y6805600D02*
X13196899D01*
Y6605600D01*
X13396899D01*
Y6805600D01*
D02*
G37*
G36*
X13550900Y6806463D02*
X13524796Y6803026D01*
X13500468Y6792950D01*
X13479579Y6776921D01*
X13463550Y6756031D01*
X13453474Y6731705D01*
X13450037Y6705600D01*
X13453474Y6679495D01*
X13463550Y6655169D01*
X13479579Y6634279D01*
X13500468Y6618250D01*
X13524796Y6608174D01*
X13550900Y6604737D01*
X13577005Y6608174D01*
X13601331Y6618250D01*
X13622221Y6634279D01*
X13638251Y6655169D01*
X13648326Y6679495D01*
X13651762Y6705600D01*
X13648326Y6731705D01*
X13638251Y6756031D01*
X13622221Y6776921D01*
X13601331Y6792950D01*
X13577005Y6803026D01*
X13550900Y6806463D01*
D02*
G37*
G36*
X9220200Y6670184D02*
X9204593Y6667079D01*
X9191362Y6658238D01*
X9182521Y6645007D01*
X9179416Y6629400D01*
X9182521Y6613793D01*
X9191362Y6600562D01*
X9204593Y6591721D01*
X9220200Y6588616D01*
X9235807Y6591721D01*
X9249038Y6600562D01*
X9257879Y6613793D01*
X9260984Y6629400D01*
X9257879Y6645007D01*
X9249038Y6658238D01*
X9235807Y6667079D01*
X9220200Y6670184D01*
D02*
G37*
G36*
X10363200Y6581284D02*
X10347593Y6578179D01*
X10334362Y6569338D01*
X10325521Y6556107D01*
X10322416Y6540500D01*
X10325521Y6524893D01*
X10334362Y6511662D01*
X10347593Y6502821D01*
X10363200Y6499716D01*
X10378807Y6502821D01*
X10392038Y6511662D01*
X10400879Y6524893D01*
X10403984Y6540500D01*
X10400879Y6556107D01*
X10392038Y6569338D01*
X10378807Y6578179D01*
X10363200Y6581284D01*
D02*
G37*
G36*
X12585700Y6568584D02*
X12570093Y6565479D01*
X12556862Y6556638D01*
X12548021Y6543407D01*
X12544916Y6527800D01*
X12548021Y6512193D01*
X12556862Y6498962D01*
X12570093Y6490121D01*
X12585700Y6487016D01*
X12601307Y6490121D01*
X12614538Y6498962D01*
X12623379Y6512193D01*
X12626484Y6527800D01*
X12623379Y6543407D01*
X12614538Y6556638D01*
X12601307Y6565479D01*
X12585700Y6568584D01*
D02*
G37*
G36*
X10134600D02*
X10118993Y6565479D01*
X10105762Y6556638D01*
X10096921Y6543407D01*
X10093816Y6527800D01*
X10096921Y6512193D01*
X10105762Y6498962D01*
X10118993Y6490121D01*
X10134600Y6487016D01*
X10150207Y6490121D01*
X10163438Y6498962D01*
X10172279Y6512193D01*
X10175384Y6527800D01*
X10172279Y6543407D01*
X10163438Y6556638D01*
X10150207Y6565479D01*
X10134600Y6568584D01*
D02*
G37*
G36*
X12126900Y6515737D02*
X12111293Y6512632D01*
X12098061Y6503791D01*
X12089221Y6490560D01*
X12086116Y6474953D01*
X12089221Y6459346D01*
X12098061Y6446115D01*
X12111293Y6437274D01*
X12126900Y6434170D01*
X12142507Y6437274D01*
X12155738Y6446115D01*
X12164579Y6459346D01*
X12167683Y6474953D01*
X12164579Y6490560D01*
X12155738Y6503791D01*
X12142507Y6512632D01*
X12126900Y6515737D01*
D02*
G37*
G36*
X12332500Y6479684D02*
X12316893Y6476579D01*
X12303662Y6467738D01*
X12294821Y6454507D01*
X12291717Y6438900D01*
X12294821Y6423293D01*
X12303662Y6410062D01*
X12316893Y6401221D01*
X12332500Y6398116D01*
X12348107Y6401221D01*
X12361338Y6410062D01*
X12370179Y6423293D01*
X12373284Y6438900D01*
X12370179Y6454507D01*
X12361338Y6467738D01*
X12348107Y6476579D01*
X12332500Y6479684D01*
D02*
G37*
G36*
X12573000Y6466984D02*
X12557393Y6463879D01*
X12544162Y6455038D01*
X12535321Y6441807D01*
X12532216Y6426200D01*
X12535321Y6410593D01*
X12544162Y6397362D01*
X12557393Y6388521D01*
X12573000Y6385416D01*
X12588607Y6388521D01*
X12601838Y6397362D01*
X12610679Y6410593D01*
X12613784Y6426200D01*
X12610679Y6441807D01*
X12601838Y6455038D01*
X12588607Y6463879D01*
X12573000Y6466984D01*
D02*
G37*
G36*
X11963400Y6593984D02*
X11947793Y6590879D01*
X11934562Y6582038D01*
X11925721Y6568807D01*
X11922616Y6553200D01*
X11925721Y6537593D01*
X11934562Y6524362D01*
X11947793Y6515521D01*
X11954482Y6514190D01*
X11963116Y6505978D01*
X11962876Y6500557D01*
X11960716Y6489700D01*
X11962876Y6478843D01*
X11963116Y6473422D01*
X11954482Y6465210D01*
X11947793Y6463879D01*
X11934562Y6455038D01*
X11925721Y6441807D01*
X11922616Y6426200D01*
X11925721Y6410593D01*
X11934562Y6397362D01*
X11947793Y6388521D01*
X11963400Y6385416D01*
X11979007Y6388521D01*
X11992238Y6397362D01*
X12001079Y6410593D01*
X12004184Y6426200D01*
X12002024Y6437057D01*
X12001784Y6442478D01*
X12010418Y6450690D01*
X12017107Y6452021D01*
X12030338Y6460862D01*
X12039179Y6474093D01*
X12042284Y6489700D01*
X12039179Y6505307D01*
X12030338Y6518538D01*
X12017107Y6527379D01*
X12010418Y6528710D01*
X12001784Y6536922D01*
X12002024Y6542343D01*
X12004184Y6553200D01*
X12001079Y6568807D01*
X11992238Y6582038D01*
X11979007Y6590879D01*
X11963400Y6593984D01*
D02*
G37*
G36*
X9613900Y6378084D02*
X9598293Y6374979D01*
X9585062Y6366138D01*
X9579238D01*
X9566007Y6374979D01*
X9550400Y6378084D01*
X9534793Y6374979D01*
X9521562Y6366138D01*
X9512721Y6352907D01*
X9509616Y6337300D01*
X9512721Y6321693D01*
X9521562Y6308462D01*
X9534793Y6299621D01*
X9550400Y6296516D01*
X9566007Y6299621D01*
X9579238Y6308462D01*
X9585062D01*
X9598293Y6299621D01*
X9613900Y6296516D01*
X9629507Y6299621D01*
X9642738Y6308462D01*
X9651579Y6321693D01*
X9654684Y6337300D01*
X9651579Y6352907D01*
X9642738Y6366138D01*
X9629507Y6374979D01*
X9613900Y6378084D01*
D02*
G37*
G36*
X8658234Y6557792D02*
X8458234D01*
Y6357792D01*
X8658234D01*
Y6557792D01*
D02*
G37*
G36*
X8812234Y6558655D02*
X8786129Y6555218D01*
X8761803Y6545142D01*
X8740913Y6529113D01*
X8724885Y6508224D01*
X8714808Y6483897D01*
X8711371Y6457792D01*
X8714808Y6431687D01*
X8724885Y6407361D01*
X8740913Y6386472D01*
X8761803Y6370443D01*
X8786129Y6360367D01*
X8812234Y6356930D01*
X8838339Y6360367D01*
X8862666Y6370443D01*
X8883555Y6386472D01*
X8899584Y6407361D01*
X8909660Y6431687D01*
X8913097Y6457792D01*
X8909660Y6483897D01*
X8899584Y6508224D01*
X8883555Y6529113D01*
X8862666Y6545142D01*
X8838339Y6555218D01*
X8812234Y6558655D01*
D02*
G37*
G36*
X13296899Y6552463D02*
X13270795Y6549026D01*
X13246469Y6538950D01*
X13225578Y6522921D01*
X13209550Y6502031D01*
X13199474Y6477705D01*
X13196037Y6451600D01*
X13199474Y6425495D01*
X13209550Y6401169D01*
X13225578Y6380279D01*
X13246469Y6364250D01*
X13270795Y6354174D01*
X13296899Y6350737D01*
X13323006Y6354174D01*
X13347331Y6364250D01*
X13368221Y6380279D01*
X13384250Y6401169D01*
X13394325Y6425495D01*
X13397763Y6451600D01*
X13394325Y6477705D01*
X13384250Y6502031D01*
X13368221Y6522921D01*
X13347331Y6538950D01*
X13323006Y6549026D01*
X13296899Y6552463D01*
D02*
G37*
G36*
X9880600Y6327284D02*
X9864993Y6324179D01*
X9851762Y6315338D01*
X9842921Y6302107D01*
X9839816Y6286500D01*
X9842921Y6270893D01*
X9851762Y6257662D01*
X9864993Y6248821D01*
X9880600Y6245716D01*
X9896207Y6248821D01*
X9909438Y6257662D01*
X9918279Y6270893D01*
X9921384Y6286500D01*
X9918279Y6302107D01*
X9909438Y6315338D01*
X9896207Y6324179D01*
X9880600Y6327284D01*
D02*
G37*
G36*
X11988800Y6314584D02*
X11973193Y6311479D01*
X11959962Y6302638D01*
X11951121Y6289407D01*
X11948016Y6273800D01*
X11951121Y6258193D01*
X11959962Y6244962D01*
X11973193Y6236121D01*
X11988800Y6233016D01*
X12004407Y6236121D01*
X12017638Y6244962D01*
X12026479Y6258193D01*
X12029584Y6273800D01*
X12026479Y6289407D01*
X12017638Y6302638D01*
X12004407Y6311479D01*
X11988800Y6314584D01*
D02*
G37*
G36*
X9715500D02*
X9699893Y6311479D01*
X9686662Y6302638D01*
X9677821Y6289407D01*
X9674716Y6273800D01*
X9677821Y6258193D01*
X9686662Y6244962D01*
X9699893Y6236121D01*
X9715500Y6233016D01*
X9731107Y6236121D01*
X9744338Y6244962D01*
X9753179Y6258193D01*
X9756284Y6273800D01*
X9753179Y6289407D01*
X9744338Y6302638D01*
X9731107Y6311479D01*
X9715500Y6314584D01*
D02*
G37*
G36*
X12914099Y6234081D02*
X12898491Y6230976D01*
X12885260Y6222136D01*
X12876421Y6208905D01*
X12873315Y6193297D01*
X12876421Y6177690D01*
X12885260Y6164459D01*
X12898491Y6155618D01*
X12914099Y6152514D01*
X12929706Y6155618D01*
X12942937Y6164459D01*
X12951778Y6177690D01*
X12954881Y6193297D01*
X12951778Y6208905D01*
X12942937Y6222136D01*
X12929706Y6230976D01*
X12914099Y6234081D01*
D02*
G37*
G36*
X12611100Y6212984D02*
X12595493Y6209879D01*
X12582262Y6201038D01*
X12573421Y6187807D01*
X12570316Y6172200D01*
X12573421Y6156593D01*
X12582262Y6143362D01*
X12595493Y6134521D01*
X12611100Y6131416D01*
X12626707Y6134521D01*
X12639938Y6143362D01*
X12648779Y6156593D01*
X12651884Y6172200D01*
X12648779Y6187807D01*
X12639938Y6201038D01*
X12626707Y6209879D01*
X12611100Y6212984D01*
D02*
G37*
G36*
X10490200Y6187584D02*
X10474593Y6184479D01*
X10461362Y6175638D01*
X10452521Y6162407D01*
X10449416Y6146800D01*
X10452521Y6131193D01*
X10461362Y6117962D01*
X10474593Y6109121D01*
X10490200Y6106016D01*
X10505807Y6109121D01*
X10519038Y6117962D01*
X10527879Y6131193D01*
X10530984Y6146800D01*
X10527879Y6162407D01*
X10519038Y6175638D01*
X10505807Y6184479D01*
X10490200Y6187584D01*
D02*
G37*
G36*
X8812234Y6304655D02*
X8786129Y6301218D01*
X8761803Y6291142D01*
X8740913Y6275113D01*
X8724885Y6254224D01*
X8714808Y6229897D01*
X8711371Y6203792D01*
X8714808Y6177687D01*
X8724885Y6153361D01*
X8740913Y6132472D01*
X8761803Y6116443D01*
X8786129Y6106367D01*
X8812234Y6102930D01*
X8838339Y6106367D01*
X8862666Y6116443D01*
X8883555Y6132472D01*
X8899584Y6153361D01*
X8909660Y6177687D01*
X8913097Y6203792D01*
X8909660Y6229897D01*
X8899584Y6254224D01*
X8883555Y6275113D01*
X8862666Y6291142D01*
X8838339Y6301218D01*
X8812234Y6304655D01*
D02*
G37*
G36*
X8558234D02*
X8532129Y6301218D01*
X8507803Y6291142D01*
X8486913Y6275113D01*
X8470885Y6254224D01*
X8460808Y6229897D01*
X8457371Y6203792D01*
X8460808Y6177687D01*
X8470885Y6153361D01*
X8486913Y6132472D01*
X8507803Y6116443D01*
X8532129Y6106367D01*
X8558234Y6102930D01*
X8584339Y6106367D01*
X8608666Y6116443D01*
X8629555Y6132472D01*
X8645584Y6153361D01*
X8655660Y6177687D01*
X8659097Y6203792D01*
X8655660Y6229897D01*
X8645584Y6254224D01*
X8629555Y6275113D01*
X8608666Y6291142D01*
X8584339Y6301218D01*
X8558234Y6304655D01*
D02*
G37*
G36*
X13550900Y6298463D02*
X13524796Y6295026D01*
X13500468Y6284950D01*
X13479579Y6268921D01*
X13463550Y6248031D01*
X13453474Y6223705D01*
X13450037Y6197600D01*
X13453474Y6171495D01*
X13463550Y6147169D01*
X13479579Y6126279D01*
X13500468Y6110250D01*
X13524796Y6100174D01*
X13550900Y6096737D01*
X13577005Y6100174D01*
X13601331Y6110250D01*
X13622221Y6126279D01*
X13638251Y6147169D01*
X13648326Y6171495D01*
X13651762Y6197600D01*
X13648326Y6223705D01*
X13638251Y6248031D01*
X13622221Y6268921D01*
X13601331Y6284950D01*
X13577005Y6295026D01*
X13550900Y6298463D01*
D02*
G37*
G36*
X13296899D02*
X13270795Y6295026D01*
X13246469Y6284950D01*
X13225578Y6268921D01*
X13209550Y6248031D01*
X13199474Y6223705D01*
X13196037Y6197600D01*
X13199474Y6171495D01*
X13209550Y6147169D01*
X13225578Y6126279D01*
X13246469Y6110250D01*
X13270795Y6100174D01*
X13296899Y6096737D01*
X13323006Y6100174D01*
X13347331Y6110250D01*
X13368221Y6126279D01*
X13384250Y6147169D01*
X13394325Y6171495D01*
X13397763Y6197600D01*
X13394325Y6223705D01*
X13384250Y6248031D01*
X13368221Y6268921D01*
X13347331Y6284950D01*
X13323006Y6295026D01*
X13296899Y6298463D01*
D02*
G37*
G36*
X10375900Y6176017D02*
X10360293Y6172913D01*
X10347062Y6164072D01*
X10338221Y6150841D01*
X10335116Y6135234D01*
X10338221Y6119627D01*
X10347062Y6106395D01*
X10360293Y6097555D01*
X10375900Y6094450D01*
X10391507Y6097555D01*
X10404738Y6106395D01*
X10413579Y6119627D01*
X10416684Y6135234D01*
X10413579Y6150841D01*
X10404738Y6164072D01*
X10391507Y6172913D01*
X10375900Y6176017D01*
D02*
G37*
G36*
X12128500Y6111384D02*
X12112893Y6108279D01*
X12099662Y6099438D01*
X12090821Y6086207D01*
X12087716Y6070600D01*
X12090821Y6054993D01*
X12099662Y6041762D01*
X12112893Y6032921D01*
X12128500Y6029816D01*
X12144107Y6032921D01*
X12157338Y6041762D01*
X12166179Y6054993D01*
X12169284Y6070600D01*
X12166179Y6086207D01*
X12157338Y6099438D01*
X12144107Y6108279D01*
X12128500Y6111384D01*
D02*
G37*
G36*
X9182100Y6085984D02*
X9166493Y6082879D01*
X9153262Y6074038D01*
X9144421Y6060807D01*
X9141316Y6045200D01*
X9144421Y6029593D01*
X9153262Y6016362D01*
X9166493Y6007521D01*
X9182100Y6004416D01*
X9197707Y6007521D01*
X9210938Y6016362D01*
X9219779Y6029593D01*
X9222884Y6045200D01*
X9219779Y6060807D01*
X9210938Y6074038D01*
X9197707Y6082879D01*
X9182100Y6085984D01*
D02*
G37*
G36*
X12585700Y6060584D02*
X12570093Y6057479D01*
X12556862Y6048638D01*
X12548021Y6035407D01*
X12544916Y6019800D01*
X12548021Y6004193D01*
X12556862Y5990962D01*
X12570093Y5982121D01*
X12585700Y5979016D01*
X12601307Y5982121D01*
X12614538Y5990962D01*
X12623379Y6004193D01*
X12626484Y6019800D01*
X12623379Y6035407D01*
X12614538Y6048638D01*
X12601307Y6057479D01*
X12585700Y6060584D01*
D02*
G37*
G36*
X10911000D02*
X10895393Y6057479D01*
X10882162Y6048638D01*
X10873321Y6035407D01*
X10870217Y6019800D01*
X10873321Y6004193D01*
X10882162Y5990962D01*
X10895393Y5982121D01*
X10911000Y5979016D01*
X10926607Y5982121D01*
X10939838Y5990962D01*
X10948679Y6004193D01*
X10951784Y6019800D01*
X10948679Y6035407D01*
X10939838Y6048638D01*
X10926607Y6057479D01*
X10911000Y6060584D01*
D02*
G37*
G36*
X11367900Y6006602D02*
X11352293Y6003497D01*
X11339061Y5994657D01*
X11330221Y5981425D01*
X11329285Y5976719D01*
X11318607Y5968579D01*
X11303000Y5971684D01*
X11287393Y5968579D01*
X11274162Y5959738D01*
X11265321Y5946507D01*
X11262216Y5930900D01*
X11265321Y5915293D01*
X11274162Y5902062D01*
X11287393Y5893221D01*
X11303000Y5890116D01*
X11318607Y5893221D01*
X11331838Y5902062D01*
X11340679Y5915293D01*
X11341615Y5919999D01*
X11352293Y5928139D01*
X11367900Y5925035D01*
X11383507Y5928139D01*
X11396738Y5936980D01*
X11405579Y5950211D01*
X11408683Y5965818D01*
X11405579Y5981425D01*
X11396738Y5994657D01*
X11383507Y6003497D01*
X11367900Y6006602D01*
D02*
G37*
G36*
X10604500Y6035184D02*
X10588893Y6032079D01*
X10575662Y6023238D01*
X10566821Y6010007D01*
X10563716Y5994400D01*
X10566821Y5978793D01*
X10575662Y5965562D01*
X10588893Y5956721D01*
X10604500Y5953616D01*
X10620107Y5956721D01*
X10633338Y5965562D01*
X10642179Y5978793D01*
X10645284Y5994400D01*
X10642179Y6010007D01*
X10633338Y6023238D01*
X10620107Y6032079D01*
X10604500Y6035184D01*
D02*
G37*
G36*
X9982200Y5997884D02*
X9966593Y5994779D01*
X9953362Y5985938D01*
X9944521Y5972707D01*
X9941416Y5957100D01*
X9944521Y5941493D01*
X9953362Y5928262D01*
X9966593Y5919421D01*
X9982200Y5916317D01*
X9997807Y5919421D01*
X10011038Y5928262D01*
X10019879Y5941493D01*
X10022984Y5957100D01*
X10019879Y5972707D01*
X10011038Y5985938D01*
X9997807Y5994779D01*
X9982200Y5997884D01*
D02*
G37*
G36*
X9842500D02*
X9826893Y5994779D01*
X9813662Y5985938D01*
X9804821Y5972707D01*
X9801716Y5957100D01*
X9804821Y5941493D01*
X9813662Y5928262D01*
X9826893Y5919421D01*
X9842500Y5916317D01*
X9858107Y5919421D01*
X9871338Y5928262D01*
X9880179Y5941493D01*
X9883284Y5957100D01*
X9880179Y5972707D01*
X9871338Y5985938D01*
X9858107Y5994779D01*
X9842500Y5997884D01*
D02*
G37*
G36*
X11811000Y5997084D02*
X11795393Y5993979D01*
X11782162Y5985138D01*
X11773321Y5971907D01*
X11770216Y5956300D01*
X11773321Y5940693D01*
X11782162Y5927462D01*
X11795393Y5918621D01*
X11811000Y5915516D01*
X11826607Y5918621D01*
X11839838Y5927462D01*
X11848679Y5940693D01*
X11851784Y5956300D01*
X11848679Y5971907D01*
X11839838Y5985138D01*
X11826607Y5993979D01*
X11811000Y5997084D01*
D02*
G37*
G36*
X11012900D02*
X10997293Y5993979D01*
X10984062Y5985138D01*
X10975221Y5971907D01*
X10972116Y5956300D01*
X10975221Y5940693D01*
X10984062Y5927462D01*
X10997293Y5918621D01*
X11012900Y5915516D01*
X11028507Y5918621D01*
X11041738Y5927462D01*
X11050579Y5940693D01*
X11053684Y5956300D01*
X11050579Y5971907D01*
X11041738Y5985138D01*
X11028507Y5993979D01*
X11012900Y5997084D01*
D02*
G37*
G36*
X10483790Y6034383D02*
X10468183Y6031279D01*
X10454951Y6022438D01*
X10446111Y6009207D01*
X10443006Y5993600D01*
X10445228Y5982430D01*
X10440692Y5968579D01*
X10427461Y5959738D01*
X10418621Y5946507D01*
X10415516Y5930900D01*
X10418621Y5915293D01*
X10427461Y5902062D01*
X10440693Y5893221D01*
X10456300Y5890116D01*
X10471907Y5893221D01*
X10485138Y5902062D01*
X10493979Y5915293D01*
X10497083Y5930900D01*
X10494862Y5942070D01*
X10499397Y5955921D01*
X10512628Y5964762D01*
X10521469Y5977993D01*
X10524573Y5993600D01*
X10521469Y6009207D01*
X10512628Y6022438D01*
X10499397Y6031279D01*
X10483790Y6034383D01*
D02*
G37*
G36*
X12788900Y5958984D02*
X12773293Y5955879D01*
X12760062Y5947038D01*
X12751221Y5933807D01*
X12748116Y5918200D01*
X12751221Y5902593D01*
X12760062Y5889362D01*
X12773293Y5880521D01*
X12788900Y5877416D01*
X12804507Y5880521D01*
X12817738Y5889362D01*
X12826579Y5902593D01*
X12829684Y5918200D01*
X12826579Y5933807D01*
X12817738Y5947038D01*
X12804507Y5955879D01*
X12788900Y5958984D01*
D02*
G37*
G36*
X9474200Y5946284D02*
X9458593Y5943179D01*
X9445362Y5934338D01*
X9436521Y5921107D01*
X9433416Y5905500D01*
X9436521Y5889893D01*
X9445362Y5876662D01*
X9458593Y5867821D01*
X9474200Y5864716D01*
X9489807Y5867821D01*
X9503038Y5876662D01*
X9511879Y5889893D01*
X9514984Y5905500D01*
X9511879Y5921107D01*
X9503038Y5934338D01*
X9489807Y5943179D01*
X9474200Y5946284D01*
D02*
G37*
G36*
X12598400Y5933584D02*
X12582793Y5930479D01*
X12569562Y5921638D01*
X12560721Y5908407D01*
X12557616Y5892800D01*
X12560721Y5877193D01*
X12569562Y5863962D01*
X12582793Y5855121D01*
X12598400Y5852016D01*
X12614007Y5855121D01*
X12627238Y5863962D01*
X12636079Y5877193D01*
X12639184Y5892800D01*
X12636079Y5908407D01*
X12627238Y5921638D01*
X12614007Y5930479D01*
X12598400Y5933584D01*
D02*
G37*
G36*
X8812234Y6050655D02*
X8786129Y6047218D01*
X8761803Y6037142D01*
X8740913Y6021113D01*
X8724885Y6000224D01*
X8714808Y5975897D01*
X8711371Y5949792D01*
X8714808Y5923687D01*
X8724885Y5899361D01*
X8740913Y5878472D01*
X8761803Y5862443D01*
X8786129Y5852367D01*
X8812234Y5848930D01*
X8838339Y5852367D01*
X8862666Y5862443D01*
X8883555Y5878472D01*
X8899584Y5899361D01*
X8909660Y5923687D01*
X8913097Y5949792D01*
X8909660Y5975897D01*
X8899584Y6000224D01*
X8883555Y6021113D01*
X8862666Y6037142D01*
X8838339Y6047218D01*
X8812234Y6050655D01*
D02*
G37*
G36*
X8558234D02*
X8532129Y6047218D01*
X8507803Y6037142D01*
X8486913Y6021113D01*
X8470885Y6000224D01*
X8460808Y5975897D01*
X8457371Y5949792D01*
X8460808Y5923687D01*
X8470885Y5899361D01*
X8486913Y5878472D01*
X8507803Y5862443D01*
X8532129Y5852367D01*
X8558234Y5848930D01*
X8584339Y5852367D01*
X8608666Y5862443D01*
X8629555Y5878472D01*
X8645584Y5899361D01*
X8655660Y5923687D01*
X8659097Y5949792D01*
X8655660Y5975897D01*
X8645584Y6000224D01*
X8629555Y6021113D01*
X8608666Y6037142D01*
X8584339Y6047218D01*
X8558234Y6050655D01*
D02*
G37*
G36*
X13550900Y6044463D02*
X13524796Y6041026D01*
X13500468Y6030950D01*
X13479579Y6014921D01*
X13463550Y5994031D01*
X13453474Y5969705D01*
X13450037Y5943600D01*
X13453474Y5917495D01*
X13463550Y5893169D01*
X13479579Y5872279D01*
X13500468Y5856250D01*
X13524796Y5846174D01*
X13550900Y5842737D01*
X13577005Y5846174D01*
X13601331Y5856250D01*
X13622221Y5872279D01*
X13638251Y5893169D01*
X13648326Y5917495D01*
X13651762Y5943600D01*
X13648326Y5969705D01*
X13638251Y5994031D01*
X13622221Y6014921D01*
X13601331Y6030950D01*
X13577005Y6041026D01*
X13550900Y6044463D01*
D02*
G37*
G36*
X13296899D02*
X13270795Y6041026D01*
X13246469Y6030950D01*
X13225578Y6014921D01*
X13209550Y5994031D01*
X13199474Y5969705D01*
X13196037Y5943600D01*
X13199474Y5917495D01*
X13209550Y5893169D01*
X13225578Y5872279D01*
X13246469Y5856250D01*
X13270795Y5846174D01*
X13296899Y5842737D01*
X13323006Y5846174D01*
X13347331Y5856250D01*
X13368221Y5872279D01*
X13384250Y5893169D01*
X13394325Y5917495D01*
X13397763Y5943600D01*
X13394325Y5969705D01*
X13384250Y5994031D01*
X13368221Y6014921D01*
X13347331Y6030950D01*
X13323006Y6041026D01*
X13296899Y6044463D01*
D02*
G37*
G36*
X10642600Y5920884D02*
X10626993Y5917779D01*
X10613762Y5908938D01*
X10604921Y5895707D01*
X10601816Y5880100D01*
X10604921Y5864493D01*
X10613762Y5851262D01*
X10626993Y5842421D01*
X10642600Y5839316D01*
X10658207Y5842421D01*
X10671438Y5851262D01*
X10680279Y5864493D01*
X10683384Y5880100D01*
X10680279Y5895707D01*
X10671438Y5908938D01*
X10658207Y5917779D01*
X10642600Y5920884D01*
D02*
G37*
G36*
X12471400Y5831984D02*
X12455793Y5828879D01*
X12442562Y5820038D01*
X12433721Y5806807D01*
X12430616Y5791200D01*
X12433721Y5775593D01*
X12442562Y5762362D01*
X12455793Y5753521D01*
X12471400Y5750416D01*
X12487007Y5753521D01*
X12500238Y5762362D01*
X12509079Y5775593D01*
X12512184Y5791200D01*
X12509079Y5806807D01*
X12500238Y5820038D01*
X12487007Y5828879D01*
X12471400Y5831984D01*
D02*
G37*
G36*
X10812260Y5810783D02*
X10796653Y5807679D01*
X10783422Y5798838D01*
X10774581Y5785607D01*
X10771477Y5770000D01*
X10774581Y5754393D01*
X10783422Y5741161D01*
X10796653Y5732321D01*
X10812260Y5729216D01*
X10827867Y5732321D01*
X10841098Y5741161D01*
X10849939Y5754393D01*
X10853044Y5770000D01*
X10849939Y5785607D01*
X10841098Y5798838D01*
X10827867Y5807679D01*
X10812260Y5810783D01*
D02*
G37*
G36*
X12903200Y5717684D02*
X12887593Y5714579D01*
X12874362Y5705738D01*
X12865521Y5692507D01*
X12862416Y5676900D01*
X12865521Y5661293D01*
X12874362Y5648062D01*
X12887593Y5639221D01*
X12903200Y5636116D01*
X12918806Y5639221D01*
X12932037Y5648062D01*
X12940878Y5661293D01*
X12943983Y5676900D01*
X12940878Y5692507D01*
X12932037Y5705738D01*
X12918806Y5714579D01*
X12903200Y5717684D01*
D02*
G37*
G36*
X10807700Y5704984D02*
X10792093Y5701879D01*
X10778862Y5693038D01*
X10770021Y5679807D01*
X10766916Y5664200D01*
X10770021Y5648593D01*
X10778862Y5635362D01*
X10792093Y5626521D01*
X10807700Y5623416D01*
X10823307Y5626521D01*
X10836538Y5635362D01*
X10845379Y5648593D01*
X10848484Y5664200D01*
X10845379Y5679807D01*
X10836538Y5693038D01*
X10823307Y5701879D01*
X10807700Y5704984D01*
D02*
G37*
G36*
X12026900Y5678783D02*
X12011293Y5675679D01*
X11998062Y5666838D01*
X11989221Y5653607D01*
X11986116Y5638000D01*
X11989221Y5622393D01*
X11998062Y5609162D01*
X12011293Y5600321D01*
X12026900Y5597216D01*
X12042507Y5600321D01*
X12055738Y5609162D01*
X12064579Y5622393D01*
X12067684Y5638000D01*
X12064579Y5653607D01*
X12055738Y5666838D01*
X12042507Y5675679D01*
X12026900Y5678783D01*
D02*
G37*
G36*
X8812234Y5796655D02*
X8786129Y5793218D01*
X8761803Y5783142D01*
X8740913Y5767113D01*
X8724885Y5746224D01*
X8714808Y5721897D01*
X8711371Y5695792D01*
X8714808Y5669687D01*
X8724885Y5645361D01*
X8740913Y5624472D01*
X8761803Y5608443D01*
X8786129Y5598367D01*
X8812234Y5594930D01*
X8838339Y5598367D01*
X8862666Y5608443D01*
X8883555Y5624472D01*
X8899584Y5645361D01*
X8909660Y5669687D01*
X8913097Y5695792D01*
X8909660Y5721897D01*
X8899584Y5746224D01*
X8883555Y5767113D01*
X8862666Y5783142D01*
X8838339Y5793218D01*
X8812234Y5796655D01*
D02*
G37*
G36*
X8558234D02*
X8532129Y5793218D01*
X8507803Y5783142D01*
X8486913Y5767113D01*
X8470885Y5746224D01*
X8460808Y5721897D01*
X8457371Y5695792D01*
X8460808Y5669687D01*
X8470885Y5645361D01*
X8486913Y5624472D01*
X8507803Y5608443D01*
X8532129Y5598367D01*
X8558234Y5594930D01*
X8584339Y5598367D01*
X8608666Y5608443D01*
X8629555Y5624472D01*
X8645584Y5645361D01*
X8655660Y5669687D01*
X8659097Y5695792D01*
X8655660Y5721897D01*
X8645584Y5746224D01*
X8629555Y5767113D01*
X8608666Y5783142D01*
X8584339Y5793218D01*
X8558234Y5796655D01*
D02*
G37*
G36*
X13550900Y5790463D02*
X13524796Y5787026D01*
X13500468Y5776950D01*
X13479579Y5760921D01*
X13463550Y5740031D01*
X13453474Y5715705D01*
X13450037Y5689600D01*
X13453474Y5663495D01*
X13463550Y5639169D01*
X13479579Y5618279D01*
X13500468Y5602250D01*
X13524796Y5592174D01*
X13550900Y5588737D01*
X13577005Y5592174D01*
X13601331Y5602250D01*
X13622221Y5618279D01*
X13638251Y5639169D01*
X13648326Y5663495D01*
X13651762Y5689600D01*
X13648326Y5715705D01*
X13638251Y5740031D01*
X13622221Y5760921D01*
X13601331Y5776950D01*
X13577005Y5787026D01*
X13550900Y5790463D01*
D02*
G37*
G36*
X13296899D02*
X13270795Y5787026D01*
X13246469Y5776950D01*
X13225578Y5760921D01*
X13209550Y5740031D01*
X13199474Y5715705D01*
X13196037Y5689600D01*
X13199474Y5663495D01*
X13209550Y5639169D01*
X13225578Y5618279D01*
X13246469Y5602250D01*
X13270795Y5592174D01*
X13296899Y5588737D01*
X13323006Y5592174D01*
X13347331Y5602250D01*
X13368221Y5618279D01*
X13384250Y5639169D01*
X13394325Y5663495D01*
X13397763Y5689600D01*
X13394325Y5715705D01*
X13384250Y5740031D01*
X13368221Y5760921D01*
X13347331Y5776950D01*
X13323006Y5787026D01*
X13296899Y5790463D01*
D02*
G37*
G36*
X11823700Y5654184D02*
X11808093Y5651079D01*
X11794862Y5642238D01*
X11786021Y5629007D01*
X11782916Y5613400D01*
X11786021Y5597793D01*
X11794862Y5584562D01*
X11808093Y5575721D01*
X11823700Y5572616D01*
X11839307Y5575721D01*
X11852538Y5584562D01*
X11861379Y5597793D01*
X11864484Y5613400D01*
X11861379Y5629007D01*
X11852538Y5642238D01*
X11839307Y5651079D01*
X11823700Y5654184D01*
D02*
G37*
G36*
X12280900Y5641484D02*
X12265293Y5638379D01*
X12252062Y5629538D01*
X12243221Y5616307D01*
X12240116Y5600700D01*
X12243221Y5585093D01*
X12252062Y5571862D01*
X12265293Y5563021D01*
X12280900Y5559916D01*
X12296507Y5563021D01*
X12309738Y5571862D01*
X12318579Y5585093D01*
X12321684Y5600700D01*
X12318579Y5616307D01*
X12309738Y5629538D01*
X12296507Y5638379D01*
X12280900Y5641484D01*
D02*
G37*
G36*
X12014200Y5577984D02*
X11998593Y5574879D01*
X11985362Y5566038D01*
X11976521Y5552807D01*
X11973416Y5537200D01*
X11976521Y5521593D01*
X11985362Y5508362D01*
X11998593Y5499521D01*
X12014200Y5496416D01*
X12029807Y5499521D01*
X12043038Y5508362D01*
X12051879Y5521593D01*
X12054984Y5537200D01*
X12051879Y5552807D01*
X12043038Y5566038D01*
X12029807Y5574879D01*
X12014200Y5577984D01*
D02*
G37*
G36*
X10604500Y5501784D02*
X10588893Y5498679D01*
X10575662Y5489838D01*
X10566821Y5476607D01*
X10566524Y5475117D01*
X10553576D01*
X10553279Y5476607D01*
X10544438Y5489838D01*
X10531207Y5498679D01*
X10515600Y5501784D01*
X10499993Y5498679D01*
X10486762Y5489838D01*
X10477921Y5476607D01*
X10474816Y5461000D01*
X10477921Y5445393D01*
X10486762Y5432162D01*
X10499993Y5423321D01*
X10515600Y5420216D01*
X10531207Y5423321D01*
X10544438Y5432162D01*
X10553279Y5445393D01*
X10553576Y5446883D01*
X10566524D01*
X10566821Y5445393D01*
X10575662Y5432162D01*
X10588893Y5423321D01*
X10604500Y5420216D01*
X10620107Y5423321D01*
X10633338Y5432162D01*
X10642179Y5445393D01*
X10645284Y5461000D01*
X10642179Y5476607D01*
X10633338Y5489838D01*
X10620107Y5498679D01*
X10604500Y5501784D01*
D02*
G37*
G36*
X10795000Y5539884D02*
X10779393Y5536779D01*
X10766162Y5527938D01*
X10757321Y5514707D01*
X10754216Y5499100D01*
X10757321Y5483493D01*
X10766162Y5470262D01*
X10779393Y5461421D01*
X10795000Y5458316D01*
X10810607Y5461421D01*
X10823838Y5470262D01*
X10832679Y5483493D01*
X10835784Y5499100D01*
X10832679Y5514707D01*
X10823838Y5527938D01*
X10810607Y5536779D01*
X10795000Y5539884D01*
D02*
G37*
G36*
X11087100Y5476384D02*
X11071493Y5473279D01*
X11058262Y5464438D01*
X11049421Y5451207D01*
X11046316Y5435600D01*
X11049421Y5419993D01*
X11058262Y5406762D01*
X11071493Y5397921D01*
X11087100Y5394816D01*
X11097249Y5396835D01*
X11100221Y5381893D01*
X11109062Y5368662D01*
X11122293Y5359821D01*
X11137900Y5356716D01*
X11153507Y5359821D01*
X11166738Y5368662D01*
X11175579Y5381893D01*
X11178684Y5397500D01*
X11175579Y5413107D01*
X11166738Y5426338D01*
X11153507Y5435179D01*
X11137900Y5438284D01*
X11127751Y5436265D01*
X11124779Y5451207D01*
X11115938Y5464438D01*
X11102707Y5473279D01*
X11087100Y5476384D01*
D02*
G37*
G36*
X8812234Y5542655D02*
X8786129Y5539218D01*
X8761803Y5529142D01*
X8740913Y5513113D01*
X8724885Y5492224D01*
X8714808Y5467897D01*
X8711371Y5441792D01*
X8714808Y5415687D01*
X8724885Y5391361D01*
X8740913Y5370472D01*
X8761803Y5354443D01*
X8786129Y5344367D01*
X8812234Y5340930D01*
X8838339Y5344367D01*
X8862666Y5354443D01*
X8883555Y5370472D01*
X8899584Y5391361D01*
X8909660Y5415687D01*
X8913097Y5441792D01*
X8909660Y5467897D01*
X8899584Y5492224D01*
X8883555Y5513113D01*
X8862666Y5529142D01*
X8838339Y5539218D01*
X8812234Y5542655D01*
D02*
G37*
G36*
X8558234D02*
X8532129Y5539218D01*
X8507803Y5529142D01*
X8486913Y5513113D01*
X8470885Y5492224D01*
X8460808Y5467897D01*
X8457371Y5441792D01*
X8460808Y5415687D01*
X8470885Y5391361D01*
X8486913Y5370472D01*
X8507803Y5354443D01*
X8532129Y5344367D01*
X8558234Y5340930D01*
X8584339Y5344367D01*
X8608666Y5354443D01*
X8629555Y5370472D01*
X8645584Y5391361D01*
X8655660Y5415687D01*
X8659097Y5441792D01*
X8655660Y5467897D01*
X8645584Y5492224D01*
X8629555Y5513113D01*
X8608666Y5529142D01*
X8584339Y5539218D01*
X8558234Y5542655D01*
D02*
G37*
G36*
X13550900Y5536463D02*
X13524796Y5533026D01*
X13500468Y5522950D01*
X13479579Y5506921D01*
X13463550Y5486031D01*
X13453474Y5461705D01*
X13450037Y5435600D01*
X13453474Y5409495D01*
X13463550Y5385169D01*
X13479579Y5364279D01*
X13500468Y5348250D01*
X13524796Y5338174D01*
X13550900Y5334737D01*
X13577005Y5338174D01*
X13601331Y5348250D01*
X13622221Y5364279D01*
X13638251Y5385169D01*
X13648326Y5409495D01*
X13651762Y5435600D01*
X13648326Y5461705D01*
X13638251Y5486031D01*
X13622221Y5506921D01*
X13601331Y5522950D01*
X13577005Y5533026D01*
X13550900Y5536463D01*
D02*
G37*
G36*
X13296899D02*
X13270795Y5533026D01*
X13246469Y5522950D01*
X13225578Y5506921D01*
X13209550Y5486031D01*
X13199474Y5461705D01*
X13196037Y5435600D01*
X13199474Y5409495D01*
X13209550Y5385169D01*
X13225578Y5364279D01*
X13246469Y5348250D01*
X13270795Y5338174D01*
X13296899Y5334737D01*
X13323006Y5338174D01*
X13347331Y5348250D01*
X13368221Y5364279D01*
X13384250Y5385169D01*
X13394325Y5409495D01*
X13397763Y5435600D01*
X13394325Y5461705D01*
X13384250Y5486031D01*
X13368221Y5506921D01*
X13347331Y5522950D01*
X13323006Y5533026D01*
X13296899Y5536463D01*
D02*
G37*
G36*
X9424500Y5400184D02*
X9408893Y5397079D01*
X9395661Y5388238D01*
X9386821Y5375007D01*
X9383716Y5359400D01*
X9386821Y5343793D01*
X9395661Y5330562D01*
X9408893Y5321721D01*
X9424500Y5318616D01*
X9440107Y5321721D01*
X9453338Y5330562D01*
X9462179Y5343793D01*
X9465283Y5359400D01*
X9462179Y5375007D01*
X9453338Y5388238D01*
X9440107Y5397079D01*
X9424500Y5400184D01*
D02*
G37*
G36*
X9283700D02*
X9268093Y5397079D01*
X9254862Y5388238D01*
X9246021Y5375007D01*
X9242916Y5359400D01*
X9246021Y5343793D01*
X9254862Y5330562D01*
X9268093Y5321721D01*
X9283700Y5318616D01*
X9299307Y5321721D01*
X9312538Y5330562D01*
X9321379Y5343793D01*
X9324484Y5359400D01*
X9321379Y5375007D01*
X9312538Y5388238D01*
X9299307Y5397079D01*
X9283700Y5400184D01*
D02*
G37*
G36*
X10167676Y5385297D02*
X10152068Y5382193D01*
X10138837Y5373352D01*
X10129997Y5360121D01*
X10126892Y5344514D01*
X10129997Y5328907D01*
X10138837Y5315675D01*
X10152068Y5306835D01*
X10167676Y5303730D01*
X10183283Y5306835D01*
X10196514Y5315675D01*
X10205355Y5328907D01*
X10208459Y5344514D01*
X10205355Y5360121D01*
X10196514Y5373352D01*
X10183283Y5382193D01*
X10167676Y5385297D01*
D02*
G37*
G36*
X9804400Y5349384D02*
X9788793Y5346279D01*
X9775562Y5337438D01*
X9766721Y5324207D01*
X9763616Y5308600D01*
X9766721Y5292993D01*
X9775562Y5279762D01*
X9788793Y5270921D01*
X9804400Y5267816D01*
X9820007Y5270921D01*
X9833238Y5279762D01*
X9842079Y5292993D01*
X9845184Y5308600D01*
X9842079Y5324207D01*
X9833238Y5337438D01*
X9820007Y5346279D01*
X9804400Y5349384D01*
D02*
G37*
G36*
X9626600Y5336684D02*
X9610993Y5333579D01*
X9597762Y5324738D01*
X9588921Y5311507D01*
X9585816Y5295900D01*
X9588921Y5280293D01*
X9597762Y5267062D01*
X9610993Y5258221D01*
X9626600Y5255116D01*
X9642207Y5258221D01*
X9655438Y5267062D01*
X9664279Y5280293D01*
X9667384Y5295900D01*
X9664279Y5311507D01*
X9655438Y5324738D01*
X9642207Y5333579D01*
X9626600Y5336684D01*
D02*
G37*
G36*
X11188700D02*
X11173093Y5333579D01*
X11159862Y5324738D01*
X11151021Y5311507D01*
X11147916Y5295900D01*
X11151021Y5280293D01*
X11159862Y5267062D01*
X11173093Y5258221D01*
X11188188Y5255218D01*
X11186016Y5244300D01*
X11189121Y5228693D01*
X11197962Y5215462D01*
X11211193Y5206621D01*
X11226800Y5203516D01*
X11240306Y5206203D01*
X11240330Y5206179D01*
X11246592Y5197347D01*
X11247362Y5195643D01*
X11239921Y5184507D01*
X11236816Y5168900D01*
X11239921Y5153293D01*
X11248762Y5140062D01*
X11261993Y5131221D01*
X11277600Y5128116D01*
X11293207Y5131221D01*
X11306438Y5140062D01*
X11315279Y5153293D01*
X11318384Y5168900D01*
X11315279Y5184507D01*
X11306438Y5197738D01*
X11293207Y5206579D01*
X11277600Y5209684D01*
X11264094Y5206997D01*
X11264070Y5207021D01*
X11257808Y5215853D01*
X11257038Y5217557D01*
X11264479Y5228693D01*
X11267584Y5244300D01*
X11264479Y5259907D01*
X11255638Y5273138D01*
X11242407Y5281979D01*
X11227312Y5284982D01*
X11229484Y5295900D01*
X11226379Y5311507D01*
X11217538Y5324738D01*
X11204307Y5333579D01*
X11188700Y5336684D01*
D02*
G37*
G36*
X8812234Y5288655D02*
X8786129Y5285218D01*
X8761803Y5275142D01*
X8740913Y5259113D01*
X8724885Y5238224D01*
X8714808Y5213897D01*
X8711371Y5187792D01*
X8714808Y5161687D01*
X8724885Y5137361D01*
X8740913Y5116472D01*
X8761803Y5100443D01*
X8786129Y5090367D01*
X8812234Y5086930D01*
X8838339Y5090367D01*
X8862666Y5100443D01*
X8883555Y5116472D01*
X8899584Y5137361D01*
X8909660Y5161687D01*
X8913097Y5187792D01*
X8909660Y5213897D01*
X8899584Y5238224D01*
X8883555Y5259113D01*
X8862666Y5275142D01*
X8838339Y5285218D01*
X8812234Y5288655D01*
D02*
G37*
G36*
X8558234D02*
X8532129Y5285218D01*
X8507803Y5275142D01*
X8486913Y5259113D01*
X8470885Y5238224D01*
X8460808Y5213897D01*
X8457371Y5187792D01*
X8460808Y5161687D01*
X8470885Y5137361D01*
X8486913Y5116472D01*
X8507803Y5100443D01*
X8532129Y5090367D01*
X8558234Y5086930D01*
X8584339Y5090367D01*
X8608666Y5100443D01*
X8629555Y5116472D01*
X8645584Y5137361D01*
X8655660Y5161687D01*
X8659097Y5187792D01*
X8655660Y5213897D01*
X8645584Y5238224D01*
X8629555Y5259113D01*
X8608666Y5275142D01*
X8584339Y5285218D01*
X8558234Y5288655D01*
D02*
G37*
G36*
X13550900Y5282463D02*
X13524796Y5279026D01*
X13500468Y5268950D01*
X13479579Y5252921D01*
X13463550Y5232031D01*
X13453474Y5207705D01*
X13450037Y5181600D01*
X13453474Y5155495D01*
X13463550Y5131169D01*
X13479579Y5110279D01*
X13500468Y5094250D01*
X13524796Y5084174D01*
X13550900Y5080737D01*
X13577005Y5084174D01*
X13601331Y5094250D01*
X13622221Y5110279D01*
X13638251Y5131169D01*
X13648326Y5155495D01*
X13651762Y5181600D01*
X13648326Y5207705D01*
X13638251Y5232031D01*
X13622221Y5252921D01*
X13601331Y5268950D01*
X13577005Y5279026D01*
X13550900Y5282463D01*
D02*
G37*
G36*
X13296899D02*
X13270795Y5279026D01*
X13246469Y5268950D01*
X13225578Y5252921D01*
X13209550Y5232031D01*
X13199474Y5207705D01*
X13196037Y5181600D01*
X13199474Y5155495D01*
X13209550Y5131169D01*
X13225578Y5110279D01*
X13246469Y5094250D01*
X13270795Y5084174D01*
X13296899Y5080737D01*
X13323006Y5084174D01*
X13347331Y5094250D01*
X13368221Y5110279D01*
X13384250Y5131169D01*
X13394325Y5155495D01*
X13397763Y5181600D01*
X13394325Y5207705D01*
X13384250Y5232031D01*
X13368221Y5252921D01*
X13347331Y5268950D01*
X13323006Y5279026D01*
X13296899Y5282463D01*
D02*
G37*
G36*
X11315700Y5095384D02*
X11300093Y5092279D01*
X11286862Y5083438D01*
X11278021Y5070207D01*
X11274916Y5054600D01*
X11278021Y5038993D01*
X11286862Y5025762D01*
X11300093Y5016921D01*
X11315700Y5013816D01*
X11331307Y5016921D01*
X11344538Y5025762D01*
X11353379Y5038993D01*
X11356484Y5054600D01*
X11353379Y5070207D01*
X11344538Y5083438D01*
X11331307Y5092279D01*
X11315700Y5095384D01*
D02*
G37*
G36*
X9068600Y5069984D02*
X9052993Y5066879D01*
X9039762Y5058038D01*
X9030921Y5044807D01*
X9027817Y5029200D01*
X9030921Y5013593D01*
X9039762Y5000362D01*
X9052993Y4991521D01*
X9068600Y4988416D01*
X9084207Y4991521D01*
X9097438Y5000362D01*
X9106279Y5013593D01*
X9109384Y5029200D01*
X9106279Y5044807D01*
X9097438Y5058038D01*
X9084207Y5066879D01*
X9068600Y5069984D01*
D02*
G37*
G36*
X9640400Y5057284D02*
X9624793Y5054179D01*
X9611562Y5045338D01*
X9602721Y5032107D01*
X9599617Y5016500D01*
X9602721Y5000893D01*
X9611562Y4987662D01*
X9624793Y4978821D01*
X9640400Y4975716D01*
X9656007Y4978821D01*
X9669238Y4987662D01*
X9678079Y5000893D01*
X9681184Y5016500D01*
X9678079Y5032107D01*
X9669238Y5045338D01*
X9656007Y5054179D01*
X9640400Y5057284D01*
D02*
G37*
G36*
X12700000Y4981084D02*
X12684393Y4977979D01*
X12671162Y4969138D01*
X12662321Y4955907D01*
X12659216Y4940300D01*
X12662321Y4924693D01*
X12671162Y4911462D01*
X12684393Y4902621D01*
X12700000Y4899516D01*
X12715607Y4902621D01*
X12728838Y4911462D01*
X12737679Y4924693D01*
X12740784Y4940300D01*
X12737679Y4955907D01*
X12728838Y4969138D01*
X12715607Y4977979D01*
X12700000Y4981084D01*
D02*
G37*
G36*
X8812234Y5034655D02*
X8786129Y5031218D01*
X8761803Y5021142D01*
X8740913Y5005113D01*
X8724885Y4984224D01*
X8714808Y4959897D01*
X8711371Y4933792D01*
X8714808Y4907687D01*
X8724885Y4883361D01*
X8740913Y4862472D01*
X8761803Y4846443D01*
X8786129Y4836367D01*
X8812234Y4832930D01*
X8838339Y4836367D01*
X8862666Y4846443D01*
X8883555Y4862472D01*
X8899584Y4883361D01*
X8909660Y4907687D01*
X8913097Y4933792D01*
X8909660Y4959897D01*
X8899584Y4984224D01*
X8883555Y5005113D01*
X8862666Y5021142D01*
X8838339Y5031218D01*
X8812234Y5034655D01*
D02*
G37*
G36*
X8558234D02*
X8532129Y5031218D01*
X8507803Y5021142D01*
X8486913Y5005113D01*
X8470885Y4984224D01*
X8460808Y4959897D01*
X8457371Y4933792D01*
X8460808Y4907687D01*
X8470885Y4883361D01*
X8486913Y4862472D01*
X8507803Y4846443D01*
X8532129Y4836367D01*
X8558234Y4832930D01*
X8584339Y4836367D01*
X8608666Y4846443D01*
X8629555Y4862472D01*
X8645584Y4883361D01*
X8655660Y4907687D01*
X8659097Y4933792D01*
X8655660Y4959897D01*
X8645584Y4984224D01*
X8629555Y5005113D01*
X8608666Y5021142D01*
X8584339Y5031218D01*
X8558234Y5034655D01*
D02*
G37*
G36*
X9460400Y4909273D02*
X9444793Y4906169D01*
X9431562Y4897328D01*
X9422721Y4884097D01*
X9419616Y4868490D01*
X9422721Y4852882D01*
X9431562Y4839651D01*
X9444793Y4830811D01*
X9460400Y4827706D01*
X9476007Y4830811D01*
X9489238Y4839651D01*
X9498079Y4852882D01*
X9501183Y4868490D01*
X9498079Y4884097D01*
X9489238Y4897328D01*
X9476007Y4906169D01*
X9460400Y4909273D01*
D02*
G37*
G36*
X13550900Y5028463D02*
X13524796Y5025026D01*
X13500468Y5014950D01*
X13479579Y4998921D01*
X13463550Y4978031D01*
X13453474Y4953705D01*
X13450037Y4927600D01*
X13453474Y4901495D01*
X13463550Y4877169D01*
X13479579Y4856279D01*
X13500468Y4840250D01*
X13524796Y4830174D01*
X13550900Y4826737D01*
X13577005Y4830174D01*
X13601331Y4840250D01*
X13622221Y4856279D01*
X13638251Y4877169D01*
X13648326Y4901495D01*
X13651762Y4927600D01*
X13648326Y4953705D01*
X13638251Y4978031D01*
X13622221Y4998921D01*
X13601331Y5014950D01*
X13577005Y5025026D01*
X13550900Y5028463D01*
D02*
G37*
G36*
X13296899D02*
X13270795Y5025026D01*
X13246469Y5014950D01*
X13225578Y4998921D01*
X13209550Y4978031D01*
X13199474Y4953705D01*
X13196037Y4927600D01*
X13199474Y4901495D01*
X13209550Y4877169D01*
X13225578Y4856279D01*
X13246469Y4840250D01*
X13270795Y4830174D01*
X13296899Y4826737D01*
X13323006Y4830174D01*
X13347331Y4840250D01*
X13368221Y4856279D01*
X13384250Y4877169D01*
X13394325Y4901495D01*
X13397763Y4927600D01*
X13394325Y4953705D01*
X13384250Y4978031D01*
X13368221Y4998921D01*
X13347331Y5014950D01*
X13323006Y5025026D01*
X13296899Y5028463D01*
D02*
G37*
G36*
X12420600Y4926863D02*
X12394495Y4923426D01*
X12370169Y4913350D01*
X12349279Y4897321D01*
X12333250Y4876431D01*
X12323174Y4852105D01*
X12319737Y4826000D01*
X12323174Y4799895D01*
X12333250Y4775569D01*
X12349279Y4754679D01*
X12370169Y4738650D01*
X12394495Y4728574D01*
X12420600Y4725137D01*
X12446705Y4728574D01*
X12471031Y4738650D01*
X12491921Y4754679D01*
X12507950Y4775569D01*
X12518026Y4799895D01*
X12521463Y4826000D01*
X12518026Y4852105D01*
X12507950Y4876431D01*
X12491921Y4897321D01*
X12471031Y4913350D01*
X12446705Y4923426D01*
X12420600Y4926863D01*
D02*
G37*
G36*
X10553700Y4744204D02*
X10535426Y4741798D01*
X10518398Y4734745D01*
X10503776Y4723524D01*
X10492555Y4708902D01*
X10485502Y4691874D01*
X10483096Y4673600D01*
X10485502Y4655326D01*
X10492555Y4638298D01*
X10503776Y4623676D01*
X10518398Y4612455D01*
X10535426Y4605402D01*
X10553700Y4602996D01*
X10571974Y4605402D01*
X10589002Y4612455D01*
X10603624Y4623676D01*
X10614845Y4638298D01*
X10621898Y4655326D01*
X10624304Y4673600D01*
X10621898Y4691874D01*
X10614845Y4708902D01*
X10603624Y4723524D01*
X10589002Y4734745D01*
X10571974Y4741798D01*
X10553700Y4744204D01*
D02*
G37*
G36*
X9096805Y4672678D02*
X9081198Y4669574D01*
X9067967Y4660733D01*
X9059126Y4647502D01*
X9056022Y4631895D01*
X9059126Y4616287D01*
X9067967Y4603056D01*
X9081198Y4594216D01*
X9096805Y4591111D01*
X9112412Y4594216D01*
X9125643Y4603056D01*
X9134484Y4616287D01*
X9137589Y4631895D01*
X9134484Y4647502D01*
X9125643Y4660733D01*
X9112412Y4669574D01*
X9096805Y4672678D01*
D02*
G37*
G36*
X8558234Y4780655D02*
X8532129Y4777218D01*
X8507803Y4767142D01*
X8486913Y4751113D01*
X8470885Y4730224D01*
X8460808Y4705897D01*
X8457371Y4679792D01*
X8460808Y4653687D01*
X8470885Y4629361D01*
X8486913Y4608472D01*
X8507803Y4592443D01*
X8532129Y4582367D01*
X8558234Y4578930D01*
X8584339Y4582367D01*
X8608666Y4592443D01*
X8629555Y4608472D01*
X8645584Y4629361D01*
X8655660Y4653687D01*
X8659097Y4679792D01*
X8655660Y4705897D01*
X8645584Y4730224D01*
X8629555Y4751113D01*
X8608666Y4767142D01*
X8584339Y4777218D01*
X8558234Y4780655D01*
D02*
G37*
G36*
X13550900Y4774463D02*
X13524796Y4771026D01*
X13500468Y4760950D01*
X13479579Y4744921D01*
X13463550Y4724031D01*
X13453474Y4699705D01*
X13450037Y4673600D01*
X13453474Y4647495D01*
X13463550Y4623169D01*
X13479579Y4602279D01*
X13500468Y4586250D01*
X13524796Y4576174D01*
X13550900Y4572737D01*
X13577005Y4576174D01*
X13601331Y4586250D01*
X13622221Y4602279D01*
X13638251Y4623169D01*
X13648326Y4647495D01*
X13651762Y4673600D01*
X13648326Y4699705D01*
X13638251Y4724031D01*
X13622221Y4744921D01*
X13601331Y4760950D01*
X13577005Y4771026D01*
X13550900Y4774463D01*
D02*
G37*
G36*
X13296899D02*
X13270795Y4771026D01*
X13246469Y4760950D01*
X13225578Y4744921D01*
X13209550Y4724031D01*
X13199474Y4699705D01*
X13196037Y4673600D01*
X13199474Y4647495D01*
X13209550Y4623169D01*
X13225578Y4602279D01*
X13246469Y4586250D01*
X13270795Y4576174D01*
X13296899Y4572737D01*
X13323006Y4576174D01*
X13347331Y4586250D01*
X13368221Y4602279D01*
X13384250Y4623169D01*
X13394325Y4647495D01*
X13397763Y4673600D01*
X13394325Y4699705D01*
X13384250Y4724031D01*
X13368221Y4744921D01*
X13347331Y4760950D01*
X13323006Y4771026D01*
X13296899Y4774463D01*
D02*
G37*
G36*
X10071100Y4600084D02*
X10055493Y4596979D01*
X10042262Y4588138D01*
X10033421Y4574907D01*
X10030316Y4559300D01*
X10033421Y4543693D01*
X10042262Y4530462D01*
X10055493Y4521621D01*
X10071100Y4518516D01*
X10086707Y4521621D01*
X10099938Y4530462D01*
X10108779Y4543693D01*
X10111884Y4559300D01*
X10108779Y4574907D01*
X10099938Y4588138D01*
X10086707Y4596979D01*
X10071100Y4600084D01*
D02*
G37*
G36*
X9169400Y4587384D02*
X9153793Y4584279D01*
X9140562Y4575438D01*
X9131721Y4562207D01*
X9128616Y4546600D01*
X9131721Y4530993D01*
X9140562Y4517762D01*
X9153793Y4508921D01*
X9169400Y4505816D01*
X9185007Y4508921D01*
X9198238Y4517762D01*
X9207079Y4530993D01*
X9210184Y4546600D01*
X9207079Y4562207D01*
X9198238Y4575438D01*
X9185007Y4584279D01*
X9169400Y4587384D01*
D02*
G37*
G36*
X9448800Y4650884D02*
X9433193Y4647779D01*
X9419962Y4638938D01*
X9411121Y4625707D01*
X9408016Y4610100D01*
X9411121Y4594493D01*
X9418593Y4583309D01*
X9419843Y4575105D01*
X9418593Y4566901D01*
X9411121Y4555718D01*
X9408016Y4540111D01*
X9411121Y4524504D01*
X9419962Y4511272D01*
X9433193Y4502432D01*
X9448800Y4499327D01*
X9464407Y4502432D01*
X9477638Y4511272D01*
X9486479Y4524504D01*
X9489584Y4540111D01*
X9486479Y4555718D01*
X9479007Y4566901D01*
X9477757Y4575105D01*
X9479007Y4583309D01*
X9486479Y4594493D01*
X9489584Y4610100D01*
X9486479Y4625707D01*
X9477638Y4638938D01*
X9464407Y4647779D01*
X9448800Y4650884D01*
D02*
G37*
G36*
X12420600Y4672863D02*
X12394495Y4669426D01*
X12370169Y4659350D01*
X12349279Y4643321D01*
X12333250Y4622431D01*
X12323174Y4598105D01*
X12319737Y4572000D01*
X12323174Y4545895D01*
X12333250Y4521569D01*
X12349279Y4500679D01*
X12370169Y4484650D01*
X12394495Y4474574D01*
X12420600Y4471137D01*
X12446705Y4474574D01*
X12471031Y4484650D01*
X12491921Y4500679D01*
X12507950Y4521569D01*
X12518026Y4545895D01*
X12521463Y4572000D01*
X12518026Y4598105D01*
X12507950Y4622431D01*
X12491921Y4643321D01*
X12471031Y4659350D01*
X12446705Y4669426D01*
X12420600Y4672863D01*
D02*
G37*
G36*
X13081000Y4498484D02*
X13065393Y4495379D01*
X13052162Y4486538D01*
X13043321Y4473307D01*
X13040216Y4457700D01*
X13043321Y4442093D01*
X13052162Y4428862D01*
X13065393Y4420021D01*
X13081000Y4416916D01*
X13096606Y4420021D01*
X13109837Y4428862D01*
X13118678Y4442093D01*
X13121783Y4457700D01*
X13118678Y4473307D01*
X13109837Y4486538D01*
X13096606Y4495379D01*
X13081000Y4498484D01*
D02*
G37*
G36*
X13004800Y4376895D02*
X12968533Y4373323D01*
X12933661Y4362745D01*
X12901521Y4345566D01*
X12873352Y4322448D01*
X12850233Y4294278D01*
X12833055Y4262139D01*
X12822478Y4227266D01*
X12818906Y4191000D01*
X12822478Y4154734D01*
X12833055Y4119861D01*
X12850233Y4087722D01*
X12873352Y4059552D01*
X12901521Y4036434D01*
X12933661Y4019255D01*
X12968533Y4008677D01*
X13004800Y4005105D01*
X13041066Y4008677D01*
X13075938Y4019255D01*
X13108078Y4036434D01*
X13136247Y4059552D01*
X13159366Y4087722D01*
X13176546Y4119861D01*
X13187123Y4154734D01*
X13190695Y4191000D01*
X13187123Y4227266D01*
X13176546Y4262139D01*
X13159366Y4294278D01*
X13136247Y4322448D01*
X13108078Y4345566D01*
X13075938Y4362745D01*
X13041066Y4373323D01*
X13004800Y4376895D01*
D02*
G37*
G36*
X8699500D02*
X8663234Y4373323D01*
X8628361Y4362745D01*
X8596222Y4345566D01*
X8568052Y4322448D01*
X8544934Y4294278D01*
X8527755Y4262139D01*
X8517177Y4227266D01*
X8513605Y4191000D01*
X8517177Y4154734D01*
X8527755Y4119861D01*
X8544934Y4087722D01*
X8568052Y4059552D01*
X8596222Y4036434D01*
X8628361Y4019255D01*
X8663234Y4008677D01*
X8699500Y4005105D01*
X8735766Y4008677D01*
X8770639Y4019255D01*
X8802778Y4036434D01*
X8830948Y4059552D01*
X8854066Y4087722D01*
X8871245Y4119861D01*
X8881823Y4154734D01*
X8885395Y4191000D01*
X8881823Y4227266D01*
X8871245Y4262139D01*
X8854066Y4294278D01*
X8830948Y4322448D01*
X8802778Y4345566D01*
X8770639Y4362745D01*
X8735766Y4373323D01*
X8699500Y4376895D01*
D02*
G37*
%LPD*%
D31*
X13473134Y9331192D02*
D03*
Y9731192D02*
D03*
Y9531192D02*
D03*
D32*
Y9116192D02*
D03*
Y9946192D02*
D03*
D33*
X12420600Y4826000D02*
D03*
Y4572000D02*
D03*
X8724900Y10731500D02*
D03*
X8978900D02*
D03*
X9232900D02*
D03*
X9486900D02*
D03*
X9740900D02*
D03*
X9994900D02*
D03*
X10248900D02*
D03*
X10502900D02*
D03*
X10756900D02*
D03*
X11010900D02*
D03*
Y10477500D02*
D03*
X10756900D02*
D03*
X10502900D02*
D03*
X10248900D02*
D03*
X9994900D02*
D03*
X9740900D02*
D03*
X9486900D02*
D03*
X9232900D02*
D03*
X8978900D02*
D03*
X13296899Y6451600D02*
D03*
Y6197600D02*
D03*
Y5943600D02*
D03*
Y5689600D02*
D03*
Y5435600D02*
D03*
Y5181600D02*
D03*
Y4927600D02*
D03*
Y4673600D02*
D03*
X13550900D02*
D03*
Y4927600D02*
D03*
Y5181600D02*
D03*
Y5435600D02*
D03*
Y5689600D02*
D03*
Y5943600D02*
D03*
Y6197600D02*
D03*
Y6451600D02*
D03*
Y6705600D02*
D03*
X8558234Y6203792D02*
D03*
Y5949792D02*
D03*
Y5695792D02*
D03*
Y5441792D02*
D03*
Y5187792D02*
D03*
Y4933792D02*
D03*
Y4679792D02*
D03*
X8812234D02*
D03*
Y4933792D02*
D03*
Y5187792D02*
D03*
Y5441792D02*
D03*
Y5695792D02*
D03*
Y5949792D02*
D03*
Y6203792D02*
D03*
Y6457792D02*
D03*
Y8864252D02*
D03*
Y8610252D02*
D03*
Y8356252D02*
D03*
Y8102252D02*
D03*
Y7848252D02*
D03*
Y7594252D02*
D03*
Y7340252D02*
D03*
Y7086252D02*
D03*
X8558234D02*
D03*
Y7340252D02*
D03*
Y7594252D02*
D03*
Y7848252D02*
D03*
Y8102252D02*
D03*
Y8356252D02*
D03*
Y8610252D02*
D03*
X13550999Y8559372D02*
D03*
Y8305372D02*
D03*
Y8051372D02*
D03*
Y7797372D02*
D03*
Y7543372D02*
D03*
X13296999Y8559372D02*
D03*
Y8305372D02*
D03*
Y8051372D02*
D03*
Y7797372D02*
D03*
Y7543372D02*
D03*
Y7289372D02*
D03*
D34*
X12420600Y5080000D02*
D03*
X13296899Y6705600D02*
D03*
X8558234Y6457792D02*
D03*
Y8864252D02*
D03*
X13550999Y7289372D02*
D03*
D35*
X9537700Y8636000D02*
D03*
Y8146004D02*
D03*
D36*
X8724900Y10477500D02*
D03*
D37*
X10564830Y4007337D02*
D03*
X10310830D02*
D03*
X10058100D02*
D03*
X9802830D02*
D03*
X9805370Y4261337D02*
D03*
X10061910D02*
D03*
X10313370D02*
D03*
X10564830D02*
D03*
D38*
X12517900Y10823500D02*
D03*
X13062900D02*
D03*
D39*
X12547900Y10520500D02*
D03*
X13032899D02*
D03*
D40*
X10167676Y5344514D02*
D03*
X10133924Y5294907D02*
D03*
X10185400Y5803900D02*
D03*
X10604500Y5994400D02*
D03*
X11137900Y5397500D02*
D03*
X11087100Y5435600D02*
D03*
X10807700Y5664200D02*
D03*
X9626600Y5295900D02*
D03*
X10604500Y5461000D02*
D03*
X10515600D02*
D03*
X10795000Y5499100D02*
D03*
X10812260Y5770000D02*
D03*
X10718800Y5854700D02*
D03*
X11518900Y5664200D02*
D03*
X11473801Y6009433D02*
D03*
X9613900Y6337300D02*
D03*
X9715500Y6273800D02*
D03*
X9474200Y5905500D02*
D03*
X9842500Y5957100D02*
D03*
X10067447Y5870782D02*
D03*
X12127700Y7162800D02*
D03*
X11811000Y5956300D02*
D03*
X11988800Y6273800D02*
D03*
X12573000Y6426200D02*
D03*
X12332500Y6438900D02*
D03*
X10363200Y6540500D02*
D03*
X10198100Y7099300D02*
D03*
X12126900Y6474953D02*
D03*
X12141200Y6540500D02*
D03*
X11963400Y6553200D02*
D03*
X12001500Y6489700D02*
D03*
X9334500Y7899400D02*
D03*
X9308300Y7721600D02*
D03*
X9232900Y7035800D02*
D03*
X9155909Y6946109D02*
D03*
X9880600Y6692900D02*
D03*
X9867900Y6781800D02*
D03*
X10034442Y6769100D02*
D03*
X10032200Y6829058D02*
D03*
X9550400Y7023100D02*
D03*
X9423400Y7046900D02*
D03*
X9474200Y6718300D02*
D03*
X10083800Y6869900D02*
D03*
X9523900Y7162000D02*
D03*
X9512300Y7747000D02*
D03*
X10299700Y8890000D02*
D03*
X10401300Y9372600D02*
D03*
X10515600Y9258300D02*
D03*
X11861800Y7607300D02*
D03*
X11898800Y7886700D02*
D03*
X10604500Y8915400D02*
D03*
X10071100Y8940800D02*
D03*
X10020300Y9220200D02*
D03*
X10082420Y9969500D02*
D03*
X11310400Y7624670D02*
D03*
X11468100Y7549568D02*
D03*
X11480198Y7893535D02*
D03*
X11494300Y8033535D02*
D03*
X11556200Y7483012D02*
D03*
X11266375Y7534100D02*
D03*
X10388600Y7848600D02*
D03*
X10668000Y7898600D02*
D03*
X11988800Y8057500D02*
D03*
X11410400Y7641250D02*
D03*
X11239500Y8470100D02*
D03*
X11607800Y7354100D02*
D03*
X11315700Y5054600D02*
D03*
X11277600Y5168900D02*
D03*
X12026900Y5638000D02*
D03*
X11823700Y5613400D02*
D03*
X12280900Y5600700D02*
D03*
X12598400Y5892800D02*
D03*
X12585700Y6019800D02*
D03*
X12788900Y5918200D02*
D03*
X11012900Y5956300D02*
D03*
X12014200Y5537200D02*
D03*
X12471400Y5791200D02*
D03*
X12382500Y5753100D02*
D03*
X12903200Y5676900D02*
D03*
X9096805Y4631895D02*
D03*
X9068600Y5029200D02*
D03*
X9283700Y5359400D02*
D03*
X12585700Y6985000D02*
D03*
X12738100Y6962600D02*
D03*
X12965900Y6822600D02*
D03*
Y6654800D02*
D03*
X12852400Y6922600D02*
D03*
X9956800Y6286500D02*
D03*
X9880600D02*
D03*
X9982200Y5957100D02*
D03*
X13081000Y4457700D02*
D03*
X10439400Y6543300D02*
D03*
X10071100Y4559300D02*
D03*
X12344400Y7075800D02*
D03*
X12179300Y7073900D02*
D03*
X12407100Y6850279D02*
D03*
X12585700Y6527800D02*
D03*
X12611100Y6172200D02*
D03*
X12914099Y6193297D02*
D03*
X12128500Y6070600D02*
D03*
X9842160Y9181300D02*
D03*
X9169400Y8724900D02*
D03*
X9944100Y7975600D02*
D03*
X12654260Y6713240D02*
D03*
X12572200Y6772600D02*
D03*
X12700000Y4940300D02*
D03*
X11303000Y5930900D02*
D03*
X12874335Y7826666D02*
D03*
X12432200Y6795462D02*
D03*
X13017500Y6997700D02*
D03*
X12966701Y7035800D02*
D03*
X11988800Y7480300D02*
D03*
Y7632700D02*
D03*
X12179300Y8356600D02*
D03*
X11938000Y10007600D02*
D03*
X12357900Y9220200D02*
D03*
X12395200Y9118600D02*
D03*
X10809300Y7391575D02*
D03*
X11366375Y7569200D02*
D03*
X11722100Y8293100D02*
D03*
X12534900Y8216900D02*
D03*
X12776200Y7924800D02*
D03*
X12966701Y7975600D02*
D03*
X12750800Y7137400D02*
D03*
X11805800Y7043300D02*
D03*
X11023600Y10033000D02*
D03*
X11493500Y4673600D02*
D03*
X9804400Y5308600D02*
D03*
X10911000Y6019800D02*
D03*
X10483790Y5993600D02*
D03*
X10642600Y5880100D02*
D03*
X10804300Y6032500D02*
D03*
X10464800Y5842000D02*
D03*
X10093324Y5355365D02*
D03*
X9588500Y5461000D02*
D03*
X10031434Y5640366D02*
D03*
X11226800Y5244300D02*
D03*
X9640400Y5016500D02*
D03*
X9460400Y4868490D02*
D03*
X9906000Y7493000D02*
D03*
X8877300Y6769100D02*
D03*
X10363200Y7493000D02*
D03*
X10393306Y7544900D02*
D03*
X10858500Y7454900D02*
D03*
X10909300Y7404100D02*
D03*
X11963400Y6426200D02*
D03*
X9068600Y7239000D02*
D03*
X10134600Y6527800D02*
D03*
X11112900Y7404100D02*
D03*
X11061700Y7439800D02*
D03*
X9220200Y6629400D02*
D03*
X9182100Y6045200D02*
D03*
X10033000Y7429500D02*
D03*
X9906800Y7366000D02*
D03*
X9842500Y7188200D02*
D03*
X9702800Y7048500D02*
D03*
X9918700Y7594600D02*
D03*
X11011500Y7404100D02*
D03*
X10960100Y7454900D02*
D03*
X9550400Y6337300D02*
D03*
X11216375Y7596875D02*
D03*
X11188700Y5295900D02*
D03*
X11367900Y5965818D02*
D03*
X9918967Y7055978D02*
D03*
X10490200Y6146800D02*
D03*
X9931400Y8509000D02*
D03*
X10184600Y7336300D02*
D03*
X10083009Y7379491D02*
D03*
X11112900Y7631030D02*
D03*
X9424500Y5359400D02*
D03*
X8940800Y7251700D02*
D03*
X9080500Y6680200D02*
D03*
X10456300Y5930900D02*
D03*
X10375900Y6135234D02*
D03*
X9001992Y6578600D02*
D03*
X9080500Y6591300D02*
D03*
X12420600Y8699500D02*
D03*
X12573000Y9664700D02*
D03*
X12661900Y10388600D02*
D03*
X11239500Y8572500D02*
D03*
X11595100Y9372600D02*
D03*
X11112500Y9385300D02*
D03*
X9512300Y9550400D02*
D03*
X9448800Y4610100D02*
D03*
X9183200Y7454900D02*
D03*
X9334500Y7607300D02*
D03*
X9169400D02*
D03*
X8978900Y8724900D02*
D03*
X9232900Y7188200D02*
D03*
X8990800Y7162800D02*
D03*
X9423400Y7607300D02*
D03*
X9448800Y4540111D02*
D03*
X9169400Y4546600D02*
D03*
X12623800Y9982200D02*
D03*
X12687300Y10083800D02*
D03*
X9055100Y9550400D02*
D03*
X9321800Y9448800D02*
D03*
Y10083800D02*
D03*
D41*
X10553700Y4673600D02*
D03*
X10858500Y9194800D02*
D03*
X11747500Y8953500D02*
D03*
X13055600Y8940800D02*
D03*
X12953999Y9893300D02*
D03*
D42*
X8699500Y4191000D02*
D03*
X13004800D02*
D03*
Y9626600D02*
D03*
X8699500D02*
D03*
%TF.MD5,9b32d6e410da23b0f24af2d9a7c03185*%
M02*
