%TF.GenerationSoftware,Altium Limited,Altium Designer,20.2.5 (213)*%
G04 Layer_Color=65535*
%FSLAX45Y45*%
%MOMM*%
%TF.SameCoordinates,0B4FD596-2A60-4D0F-BAE7-1B06E363B609*%
%TF.FilePolarity,Positive*%
%TF.FileFunction,Legend,Top*%
%TF.Part,Single*%
G01*
G75*
%TA.AperFunction,NonConductor*%
%ADD44C,0.25400*%
%ADD57C,0.20000*%
%ADD58C,0.17780*%
%ADD59C,0.25000*%
%ADD60C,0.15240*%
%ADD61C,0.10160*%
%ADD62C,0.12700*%
%ADD63C,0.63500*%
%ADD64C,0.50800*%
%ADD65C,0.15000*%
G36*
X10566100Y4417547D02*
X10629600Y4481047D01*
X10502600D01*
X10566100Y4417547D01*
D02*
G37*
G36*
X9974399Y11010848D02*
X9976202Y11010709D01*
X9978282Y11010571D01*
X9980501Y11010293D01*
X9982859Y11010016D01*
X9987990Y11009045D01*
X9990625Y11008352D01*
X9993121Y11007658D01*
X9995618Y11006687D01*
X9998114Y11005578D01*
X10000333Y11004330D01*
X10002274Y11002943D01*
X9995618Y10984221D01*
X9995479Y10984359D01*
X9995063Y10984637D01*
X9994508Y10984914D01*
X9993676Y10985469D01*
X9992567Y10986162D01*
X9991318Y10986856D01*
X9989932Y10987549D01*
X9988267Y10988381D01*
X9986464Y10989075D01*
X9984662Y10989768D01*
X9980501Y10991155D01*
X9978282Y10991710D01*
X9976063Y10991987D01*
X9973705Y10992264D01*
X9971348Y10992403D01*
X9970100D01*
X9968713Y10992264D01*
X9967049Y10991848D01*
X9965107Y10991432D01*
X9963165Y10990739D01*
X9961224Y10989768D01*
X9959560Y10988381D01*
X9959421Y10988242D01*
X9959005Y10987688D01*
X9958312Y10986717D01*
X9957618Y10985607D01*
X9956786Y10984082D01*
X9956231Y10982279D01*
X9955677Y10980199D01*
X9955538Y10977980D01*
Y10977841D01*
Y10977564D01*
X9955677Y10976870D01*
X9955954Y10976177D01*
X9956231Y10975206D01*
X9956786Y10974097D01*
X9957479Y10972710D01*
X9958450Y10971323D01*
X9959698Y10969659D01*
X9961224Y10967995D01*
X9963165Y10966192D01*
X9965384Y10964250D01*
X9968158Y10962309D01*
X9971209Y10960228D01*
X9974815Y10958148D01*
X9978975Y10956068D01*
X9979114D01*
X9979530Y10955790D01*
X9980224Y10955513D01*
X9981056Y10955097D01*
X9982027Y10954542D01*
X9983136Y10953849D01*
X9985771Y10952323D01*
X9988683Y10950659D01*
X9991734Y10948717D01*
X9994369Y10946776D01*
X9995618Y10945805D01*
X9996727Y10944834D01*
X9997004Y10944557D01*
X9997559Y10944002D01*
X9998530Y10942893D01*
X9999778Y10941506D01*
X10001165Y10939703D01*
X10002552Y10937761D01*
X10003800Y10935543D01*
X10005048Y10933046D01*
Y10932908D01*
X10005187Y10932769D01*
X10005325Y10932353D01*
X10005464Y10931798D01*
X10006019Y10930411D01*
X10006574Y10928608D01*
X10006990Y10926389D01*
X10007544Y10923754D01*
X10007822Y10920981D01*
X10007960Y10917930D01*
Y10917791D01*
Y10917236D01*
X10007822Y10916543D01*
Y10915433D01*
X10007544Y10914185D01*
X10007267Y10912660D01*
X10006990Y10911134D01*
X10006435Y10909331D01*
X10005880Y10907390D01*
X10005048Y10905448D01*
X10004077Y10903368D01*
X10002968Y10901288D01*
X10001581Y10899207D01*
X9999917Y10897266D01*
X9998114Y10895324D01*
X9996034Y10893383D01*
X9995895Y10893244D01*
X9995479Y10892967D01*
X9994785Y10892550D01*
X9993953Y10891857D01*
X9992705Y10891164D01*
X9991318Y10890332D01*
X9989654Y10889499D01*
X9987713Y10888667D01*
X9985494Y10887697D01*
X9983136Y10886864D01*
X9980640Y10886032D01*
X9977727Y10885339D01*
X9974815Y10884645D01*
X9971625Y10884229D01*
X9968158Y10883952D01*
X9964552Y10883813D01*
X9962888D01*
X9961640Y10883952D01*
X9960114Y10884091D01*
X9958312Y10884229D01*
X9956370Y10884507D01*
X9954151Y10884923D01*
X9951793Y10885339D01*
X9949297Y10886032D01*
X9946801Y10886726D01*
X9944166Y10887558D01*
X9941392Y10888529D01*
X9938757Y10889777D01*
X9936122Y10891164D01*
X9933487Y10892689D01*
X9941531Y10912244D01*
X9941669Y10912105D01*
X9942086Y10911828D01*
X9942779Y10911412D01*
X9943750Y10910857D01*
X9944859Y10910163D01*
X9946246Y10909331D01*
X9947772Y10908638D01*
X9949574Y10907806D01*
X9951377Y10906835D01*
X9953458Y10906142D01*
X9957618Y10904616D01*
X9959976Y10904061D01*
X9962195Y10903645D01*
X9964552Y10903368D01*
X9966910Y10903229D01*
X9967742D01*
X9968713Y10903368D01*
X9969961Y10903507D01*
X9971348Y10903645D01*
X9973012Y10903923D01*
X9974815Y10904339D01*
X9976618Y10904893D01*
X9978282Y10905587D01*
X9980085Y10906419D01*
X9981749Y10907528D01*
X9983136Y10908915D01*
X9984384Y10910441D01*
X9985355Y10912105D01*
X9985910Y10914185D01*
X9986187Y10916543D01*
Y10916681D01*
Y10916820D01*
Y10917652D01*
X9985910Y10918900D01*
X9985632Y10920426D01*
X9985078Y10922229D01*
X9984245Y10924309D01*
X9983136Y10926528D01*
X9981610Y10928608D01*
X9981333Y10928886D01*
X9980640Y10929579D01*
X9980085Y10930134D01*
X9979392Y10930827D01*
X9978559Y10931521D01*
X9977589Y10932353D01*
X9976340Y10933185D01*
X9975092Y10934294D01*
X9973567Y10935265D01*
X9971764Y10936375D01*
X9969822Y10937623D01*
X9967742Y10938732D01*
X9965384Y10940119D01*
X9962888Y10941367D01*
X9962749Y10941506D01*
X9962333Y10941645D01*
X9961501Y10942061D01*
X9960669Y10942615D01*
X9959421Y10943170D01*
X9958173Y10943864D01*
X9955261Y10945528D01*
X9952071Y10947331D01*
X9948881Y10949272D01*
X9947494Y10950243D01*
X9946107Y10951214D01*
X9944859Y10952185D01*
X9943888Y10953017D01*
X9943611Y10953294D01*
X9943056Y10953849D01*
X9942224Y10954820D01*
X9941115Y10956068D01*
X9939867Y10957732D01*
X9938618Y10959535D01*
X9937509Y10961615D01*
X9936399Y10963834D01*
Y10963973D01*
X9936261Y10964111D01*
X9935983Y10964944D01*
X9935567Y10966192D01*
X9935151Y10967995D01*
X9934597Y10970075D01*
X9934181Y10972432D01*
X9933903Y10975067D01*
X9933764Y10977841D01*
Y10977980D01*
Y10978535D01*
X9933903Y10979228D01*
Y10980199D01*
X9934042Y10981447D01*
X9934319Y10982834D01*
X9934597Y10984498D01*
X9935013Y10986162D01*
X9935567Y10987965D01*
X9936261Y10989907D01*
X9937093Y10991848D01*
X9938202Y10993928D01*
X9939312Y10995870D01*
X9940699Y10997812D01*
X9942363Y10999753D01*
X9944166Y11001556D01*
X9944304Y11001695D01*
X9944582Y11001972D01*
X9945275Y11002388D01*
X9946107Y11003082D01*
X9947078Y11003775D01*
X9948326Y11004607D01*
X9949713Y11005439D01*
X9951377Y11006271D01*
X9953319Y11007103D01*
X9955261Y11008074D01*
X9957479Y11008768D01*
X9959837Y11009461D01*
X9962333Y11010155D01*
X9965107Y11010571D01*
X9967881Y11010848D01*
X9970932Y11010987D01*
X9973012D01*
X9974399Y11010848D01*
D02*
G37*
G36*
X9814912D02*
X9816299D01*
X9818102Y11010571D01*
X9820182Y11010293D01*
X9822401Y11010016D01*
X9824898Y11009461D01*
X9827533Y11008906D01*
X9830306Y11008074D01*
X9833219Y11007103D01*
X9836131Y11005855D01*
X9839043Y11004468D01*
X9841956Y11002943D01*
X9844729Y11001001D01*
X9847503Y10998921D01*
X9838350Y10981308D01*
X9838211Y10981447D01*
X9837656Y10981863D01*
X9836686Y10982556D01*
X9835438Y10983527D01*
X9833635Y10984498D01*
X9831693Y10985607D01*
X9829197Y10986856D01*
X9826284Y10988104D01*
X9826146D01*
X9825868Y10988242D01*
X9825452Y10988381D01*
X9824898Y10988658D01*
X9823511Y10989213D01*
X9821569Y10989907D01*
X9819350Y10990461D01*
X9817131Y10991016D01*
X9814774Y10991432D01*
X9812555Y10991571D01*
X9811723D01*
X9810752Y10991432D01*
X9809504D01*
X9807978Y10991155D01*
X9806314Y10990877D01*
X9804234Y10990600D01*
X9802153Y10990045D01*
X9799934Y10989352D01*
X9797577Y10988520D01*
X9795219Y10987549D01*
X9792723Y10986301D01*
X9790365Y10984914D01*
X9788146Y10983250D01*
X9785927Y10981447D01*
X9783847Y10979228D01*
X9783708Y10979089D01*
X9783431Y10978673D01*
X9782876Y10977980D01*
X9782183Y10977009D01*
X9781489Y10975761D01*
X9780519Y10974235D01*
X9779687Y10972432D01*
X9778716Y10970491D01*
X9777745Y10968272D01*
X9776774Y10965776D01*
X9775803Y10963002D01*
X9775110Y10960090D01*
X9774417Y10956900D01*
X9773862Y10953571D01*
X9773584Y10949966D01*
X9773446Y10946221D01*
Y10945944D01*
Y10945389D01*
X9773584Y10944280D01*
Y10943031D01*
X9773723Y10941367D01*
X9774001Y10939426D01*
X9774278Y10937345D01*
X9774694Y10934988D01*
X9775249Y10932491D01*
X9775942Y10929995D01*
X9776774Y10927360D01*
X9777745Y10924725D01*
X9778993Y10922090D01*
X9780380Y10919594D01*
X9781906Y10917236D01*
X9783708Y10914879D01*
X9783847Y10914740D01*
X9784124Y10914324D01*
X9784818Y10913769D01*
X9785650Y10913076D01*
X9786621Y10912244D01*
X9787869Y10911134D01*
X9789394Y10910163D01*
X9791059Y10909054D01*
X9793000Y10907944D01*
X9795080Y10906974D01*
X9797299Y10906003D01*
X9799796Y10905032D01*
X9802569Y10904339D01*
X9805482Y10903784D01*
X9808533Y10903368D01*
X9811723Y10903229D01*
X9812832D01*
X9813664Y10903368D01*
X9814635D01*
X9815883Y10903507D01*
X9818518Y10904061D01*
X9821569Y10904755D01*
X9824759Y10905864D01*
X9827949Y10907390D01*
X9829474Y10908360D01*
X9831000Y10909470D01*
Y10933740D01*
X9813942D01*
Y10952323D01*
X9852773D01*
Y10897266D01*
X9852634D01*
X9852357Y10896988D01*
X9851941Y10896711D01*
X9851386Y10896156D01*
X9850554Y10895740D01*
X9849583Y10895047D01*
X9848474Y10894353D01*
X9847226Y10893660D01*
X9845839Y10892828D01*
X9844313Y10891996D01*
X9840846Y10890332D01*
X9836963Y10888806D01*
X9832525Y10887280D01*
X9832386D01*
X9831970Y10887142D01*
X9831277Y10887003D01*
X9830445Y10886726D01*
X9829335Y10886448D01*
X9828087Y10886171D01*
X9826562Y10885894D01*
X9824898Y10885616D01*
X9823095Y10885200D01*
X9821153Y10884923D01*
X9817131Y10884368D01*
X9812693Y10883952D01*
X9808117Y10883813D01*
X9807007D01*
X9805620Y10883952D01*
X9803818Y10884091D01*
X9801599Y10884368D01*
X9798964Y10884784D01*
X9796051Y10885200D01*
X9793000Y10886032D01*
X9789672Y10886864D01*
X9786343Y10887974D01*
X9782876Y10889361D01*
X9779271Y10891025D01*
X9775803Y10893105D01*
X9772475Y10895324D01*
X9769285Y10897959D01*
X9766234Y10901010D01*
X9766096Y10901149D01*
X9765541Y10901842D01*
X9764847Y10902813D01*
X9763877Y10904200D01*
X9762628Y10905864D01*
X9761380Y10907944D01*
X9759993Y10910441D01*
X9758607Y10913214D01*
X9757081Y10916404D01*
X9755694Y10919871D01*
X9754446Y10923616D01*
X9753198Y10927638D01*
X9752227Y10932075D01*
X9751534Y10936791D01*
X9750979Y10941645D01*
X9750840Y10946915D01*
Y10947053D01*
Y10947192D01*
Y10947608D01*
Y10948163D01*
X9750979Y10949688D01*
X9751118Y10951630D01*
X9751395Y10953987D01*
X9751672Y10956900D01*
X9752227Y10959951D01*
X9752921Y10963418D01*
X9753891Y10966885D01*
X9755001Y10970630D01*
X9756249Y10974513D01*
X9757913Y10978396D01*
X9759855Y10982279D01*
X9762074Y10986023D01*
X9764709Y10989629D01*
X9767621Y10993096D01*
X9767760Y10993235D01*
X9768453Y10993928D01*
X9769424Y10994761D01*
X9770672Y10995870D01*
X9772475Y10997257D01*
X9774417Y10998782D01*
X9776913Y11000447D01*
X9779687Y11002111D01*
X9782738Y11003775D01*
X9786066Y11005301D01*
X9789810Y11006826D01*
X9793832Y11008213D01*
X9798270Y11009322D01*
X9802847Y11010155D01*
X9807839Y11010848D01*
X9812971Y11010987D01*
X9813942D01*
X9814912Y11010848D01*
D02*
G37*
G36*
X10126397Y10884229D02*
X10117382D01*
X10090616Y10961892D01*
X10064543Y10884229D01*
X10055529D01*
X10015172Y11008906D01*
X10037777D01*
X10060938Y10934710D01*
X10085901Y11008906D01*
X10095470D01*
X10120433Y10934710D01*
X10143593Y11008906D01*
X10166199D01*
X10126397Y10884229D01*
D02*
G37*
G36*
X9518683Y10932353D02*
Y10932075D01*
Y10931243D01*
Y10929995D01*
X9518545Y10928331D01*
X9518406Y10926251D01*
X9518129Y10924032D01*
X9517851Y10921397D01*
X9517435Y10918623D01*
X9516880Y10915711D01*
X9516048Y10912660D01*
X9515216Y10909609D01*
X9514245Y10906696D01*
X9512997Y10903784D01*
X9511610Y10901010D01*
X9509946Y10898375D01*
X9508143Y10896018D01*
X9508005Y10895879D01*
X9507589Y10895463D01*
X9507034Y10894908D01*
X9506202Y10894215D01*
X9505092Y10893244D01*
X9503705Y10892273D01*
X9502041Y10891164D01*
X9500100Y10890193D01*
X9497881Y10889083D01*
X9495384Y10887974D01*
X9492749Y10887003D01*
X9489698Y10886032D01*
X9486370Y10885339D01*
X9482903Y10884784D01*
X9479020Y10884368D01*
X9474859Y10884229D01*
X9473334D01*
X9472363Y10884368D01*
X9470976Y10884507D01*
X9469589Y10884645D01*
X9467925Y10884923D01*
X9466122Y10885200D01*
X9462100Y10886171D01*
X9460020Y10886864D01*
X9458078Y10887558D01*
X9455998Y10888529D01*
X9453918Y10889499D01*
X9451976Y10890748D01*
X9450173Y10892134D01*
X9450035Y10892273D01*
X9449757Y10892550D01*
X9449341Y10892967D01*
X9448648Y10893660D01*
X9447954Y10894492D01*
X9447122Y10895463D01*
X9446290Y10896572D01*
X9445319Y10897959D01*
X9444487Y10899485D01*
X9443517Y10901149D01*
X9442684Y10902952D01*
X9441852Y10904893D01*
X9441159Y10907112D01*
X9440604Y10909470D01*
X9440188Y10911828D01*
X9439911Y10914463D01*
X9459327D01*
Y10914324D01*
X9459465Y10914046D01*
X9459743Y10913492D01*
X9460020Y10912798D01*
X9460436Y10911966D01*
X9460991Y10910995D01*
X9461684Y10910025D01*
X9462655Y10909054D01*
X9463626Y10908083D01*
X9464874Y10907112D01*
X9466399Y10906142D01*
X9468064Y10905309D01*
X9470005Y10904616D01*
X9472085Y10904061D01*
X9474582Y10903784D01*
X9477217Y10903645D01*
X9478188D01*
X9479020Y10903784D01*
X9479852Y10903923D01*
X9480823Y10904061D01*
X9483180Y10904477D01*
X9485676Y10905309D01*
X9488173Y10906558D01*
X9489421Y10907390D01*
X9490530Y10908360D01*
X9491640Y10909331D01*
X9492472Y10910579D01*
Y10910718D01*
X9492611Y10910857D01*
X9492888Y10911273D01*
X9493165Y10911828D01*
X9493443Y10912660D01*
X9493859Y10913492D01*
X9494275Y10914601D01*
X9494691Y10915849D01*
X9495107Y10917236D01*
X9495523Y10918762D01*
X9495939Y10920565D01*
X9496216Y10922368D01*
X9496494Y10924448D01*
X9496771Y10926667D01*
X9496910Y10929163D01*
Y10931659D01*
Y11008906D01*
X9518683D01*
Y10932353D01*
D02*
G37*
G36*
X10214738Y11009600D02*
X10216541Y11009461D01*
X10218760Y11009322D01*
X10221395Y11008906D01*
X10224307Y11008352D01*
X10227497Y11007797D01*
X10230826Y11006965D01*
X10234293Y11005855D01*
X10237898Y11004607D01*
X10241366Y11003082D01*
X10244971Y11001279D01*
X10248300Y10999198D01*
X10251628Y10996702D01*
X10254679Y10993928D01*
X10254818Y10993790D01*
X10255373Y10993235D01*
X10256205Y10992264D01*
X10257176Y10991016D01*
X10258285Y10989491D01*
X10259672Y10987549D01*
X10261059Y10985330D01*
X10262584Y10982834D01*
X10264110Y10979921D01*
X10265497Y10976732D01*
X10266883Y10973403D01*
X10267993Y10969659D01*
X10269102Y10965637D01*
X10269796Y10961476D01*
X10270351Y10956900D01*
X10270489Y10952185D01*
Y10952046D01*
Y10951491D01*
Y10950520D01*
X10270351Y10949272D01*
X10270212Y10947885D01*
X10270073Y10946083D01*
X10269796Y10944002D01*
X10269518Y10941783D01*
X10269102Y10939426D01*
X10268548Y10936791D01*
X10267854Y10934017D01*
X10267161Y10931243D01*
X10266190Y10928192D01*
X10265081Y10925280D01*
X10263971Y10922090D01*
X10262446Y10919039D01*
X10260920Y10915988D01*
X10259117Y10912798D01*
X10257176Y10909886D01*
X10254818Y10906835D01*
X10252460Y10904061D01*
X10249687Y10901288D01*
X10246774Y10898653D01*
X10243585Y10896295D01*
X10239979Y10894076D01*
X10236234Y10891996D01*
X10232074Y10890193D01*
X10227636Y10888806D01*
X10222921Y10887558D01*
X10217789Y10886587D01*
X10212381Y10886032D01*
X10206556Y10885894D01*
X10179374D01*
Y11008768D01*
X10180483D01*
X10181870Y11008906D01*
X10183534D01*
X10185615Y11009045D01*
X10187972D01*
X10190607Y11009184D01*
X10193242Y11009322D01*
X10198790Y11009461D01*
X10201563D01*
X10204198Y11009600D01*
X10206556D01*
X10208775Y11009738D01*
X10213351D01*
X10214738Y11009600D01*
D02*
G37*
G36*
X9879955Y10885894D02*
X9861094D01*
X9907553Y11009461D01*
X9926276D01*
X9879955Y10885894D01*
D02*
G37*
G36*
X9743906D02*
X9719775D01*
X9710761Y10910857D01*
X9668462D01*
X9660002Y10885894D01*
X9635733D01*
X9684827Y11010571D01*
X9694396D01*
X9743906Y10885894D01*
D02*
G37*
G36*
X9633514Y10989491D02*
X9592602D01*
Y10885894D01*
X9570828D01*
Y10989491D01*
X9531720D01*
Y11008906D01*
X9633514D01*
Y10989491D01*
D02*
G37*
G36*
X9554919Y4619052D02*
X9551313D01*
Y4619191D01*
Y4619607D01*
X9551174Y4620161D01*
X9551036Y4620994D01*
X9550897Y4621964D01*
X9550619Y4623074D01*
X9550065Y4625709D01*
X9549233Y4628621D01*
X9548123Y4631534D01*
X9546736Y4634307D01*
X9545904Y4635694D01*
X9544933Y4636804D01*
X9544656Y4637081D01*
X9543963Y4637774D01*
X9542853Y4638745D01*
X9541189Y4639993D01*
X9539109Y4641380D01*
X9536612Y4642767D01*
X9533700Y4644015D01*
X9530233Y4644986D01*
X9529956D01*
X9529678Y4645125D01*
X9529262Y4645263D01*
X9528569D01*
X9527875Y4645402D01*
X9526904Y4645541D01*
X9525795Y4645679D01*
X9524547Y4645818D01*
X9523160Y4645957D01*
X9521634Y4646095D01*
X9519832D01*
X9517890Y4646234D01*
X9515671Y4646373D01*
X9499722D01*
Y4597417D01*
X9504438D01*
X9505963Y4597556D01*
X9507766Y4597695D01*
X9509708Y4597972D01*
X9511788Y4598388D01*
X9514007Y4598943D01*
X9515948Y4599775D01*
X9516226Y4599914D01*
X9516781Y4600191D01*
X9517751Y4600884D01*
X9518861Y4601716D01*
X9520248Y4602687D01*
X9521634Y4604074D01*
X9523021Y4605738D01*
X9524408Y4607680D01*
X9524547Y4607957D01*
X9524963Y4608789D01*
X9525518Y4610038D01*
X9526350Y4611702D01*
X9527043Y4613921D01*
X9527875Y4616556D01*
X9528430Y4619607D01*
X9528985Y4623074D01*
X9532174D01*
Y4563024D01*
X9528985D01*
Y4563162D01*
X9528846Y4563717D01*
Y4564688D01*
X9528569Y4565797D01*
X9528430Y4567184D01*
X9528014Y4568710D01*
X9527737Y4570374D01*
X9527182Y4572177D01*
X9526072Y4575921D01*
X9524408Y4579527D01*
X9523437Y4581330D01*
X9522328Y4582855D01*
X9521218Y4584242D01*
X9519832Y4585352D01*
X9519693D01*
X9519554Y4585629D01*
X9519138Y4585906D01*
X9518583Y4586184D01*
X9517890Y4586600D01*
X9517058Y4587155D01*
X9514978Y4588125D01*
X9512481Y4589096D01*
X9509708Y4590067D01*
X9506518Y4590622D01*
X9503190Y4590899D01*
X9499722D01*
Y4554287D01*
Y4554148D01*
Y4553870D01*
Y4553454D01*
Y4552761D01*
Y4551235D01*
X9499861Y4549294D01*
X9500000Y4547352D01*
X9500138Y4545411D01*
X9500416Y4543885D01*
X9500555Y4543192D01*
X9500693Y4542637D01*
Y4542498D01*
X9500832Y4542221D01*
X9501109Y4541805D01*
X9501525Y4541389D01*
X9502080Y4540696D01*
X9502773Y4540002D01*
X9503606Y4539447D01*
X9504576Y4538754D01*
X9504715D01*
X9505131Y4538477D01*
X9505825Y4538199D01*
X9506657Y4537922D01*
X9507766Y4537644D01*
X9509153Y4537367D01*
X9510678Y4537228D01*
X9512481Y4537090D01*
X9516503D01*
Y4533900D01*
X9454234D01*
Y4537090D01*
X9458949D01*
X9459920Y4537228D01*
X9461030Y4537367D01*
X9462416Y4537506D01*
X9463803Y4537922D01*
X9465190Y4538338D01*
X9466438Y4538893D01*
X9466577D01*
X9466854Y4539170D01*
X9467270Y4539447D01*
X9467825Y4539863D01*
X9468380Y4540418D01*
X9468935Y4541112D01*
X9469489Y4542082D01*
X9470044Y4543053D01*
Y4543192D01*
X9470183Y4543608D01*
X9470321Y4544301D01*
X9470599Y4545272D01*
X9470737Y4546798D01*
X9470876Y4548739D01*
Y4549849D01*
X9471015Y4551235D01*
Y4552622D01*
Y4554287D01*
Y4632920D01*
Y4633059D01*
Y4633336D01*
Y4633752D01*
Y4634446D01*
Y4635971D01*
X9470876Y4637774D01*
X9470737Y4639716D01*
X9470599Y4641519D01*
X9470321Y4643183D01*
X9470183Y4643738D01*
X9470044Y4644292D01*
Y4644431D01*
X9469905Y4644709D01*
X9469628Y4645125D01*
X9469212Y4645679D01*
X9468657Y4646373D01*
X9467964Y4646927D01*
X9467132Y4647621D01*
X9466022Y4648314D01*
X9465884Y4648453D01*
X9465467Y4648592D01*
X9464774Y4648869D01*
X9463942Y4649285D01*
X9462832Y4649562D01*
X9461446Y4649840D01*
X9459920Y4649979D01*
X9458117Y4650117D01*
X9454234D01*
Y4653307D01*
X9554919D01*
Y4619052D01*
D02*
G37*
G36*
X9315550Y4650117D02*
X9315273D01*
X9314857Y4649979D01*
X9314302D01*
X9313054Y4649701D01*
X9311390Y4649424D01*
X9309725Y4649008D01*
X9308061Y4648592D01*
X9306536Y4648037D01*
X9305287Y4647482D01*
X9305149D01*
X9304871Y4647205D01*
X9304317Y4646789D01*
X9303762Y4646234D01*
X9303207Y4645541D01*
X9302514Y4644709D01*
X9301820Y4643738D01*
X9301266Y4642490D01*
Y4642351D01*
X9300988Y4641796D01*
X9300850Y4640964D01*
X9300572Y4639716D01*
X9300295Y4638052D01*
X9300156Y4635971D01*
X9299879Y4633475D01*
Y4630563D01*
Y4531265D01*
X9296828D01*
X9216252Y4630701D01*
Y4554703D01*
Y4554564D01*
Y4554287D01*
Y4553732D01*
X9216391Y4553038D01*
Y4552206D01*
X9216530Y4551235D01*
X9216807Y4549017D01*
X9217362Y4546659D01*
X9218194Y4544440D01*
X9219303Y4542360D01*
X9219997Y4541389D01*
X9220829Y4540696D01*
X9221106Y4540557D01*
X9221661Y4540141D01*
X9222632Y4539586D01*
X9224019Y4538893D01*
X9225544Y4538199D01*
X9227347Y4537644D01*
X9229427Y4537228D01*
X9231646Y4537090D01*
X9234559D01*
Y4533900D01*
X9192260D01*
Y4537090D01*
X9193924D01*
X9195588Y4537367D01*
X9197669Y4537644D01*
X9199888Y4538061D01*
X9202245Y4538754D01*
X9204326Y4539725D01*
X9205158Y4540418D01*
X9205990Y4541112D01*
X9206128Y4541250D01*
X9206544Y4541944D01*
X9207238Y4542914D01*
X9207931Y4544301D01*
X9208625Y4546243D01*
X9209318Y4548601D01*
X9209734Y4551374D01*
X9209873Y4554703D01*
Y4638884D01*
X9207238Y4642074D01*
X9207099Y4642351D01*
X9206544Y4642906D01*
X9205851Y4643599D01*
X9205019Y4644570D01*
X9202800Y4646650D01*
X9201691Y4647621D01*
X9200581Y4648314D01*
X9200442Y4648453D01*
X9200026Y4648592D01*
X9199333Y4648869D01*
X9198501Y4649146D01*
X9197253Y4649424D01*
X9195727Y4649701D01*
X9194063Y4649979D01*
X9192121Y4650117D01*
Y4653307D01*
X9234420D01*
X9293361Y4579388D01*
Y4630563D01*
Y4630701D01*
Y4630979D01*
Y4631534D01*
Y4632366D01*
X9293222Y4633198D01*
Y4634169D01*
X9292945Y4636387D01*
X9292529Y4638884D01*
X9291974Y4641241D01*
X9291280Y4643322D01*
X9290726Y4644292D01*
X9290171Y4645125D01*
X9290032Y4645402D01*
X9289339Y4645957D01*
X9288368Y4646789D01*
X9286842Y4647621D01*
X9284901Y4648592D01*
X9282543Y4649424D01*
X9279631Y4649979D01*
X9276164Y4650117D01*
Y4653307D01*
X9315550D01*
Y4650117D01*
D02*
G37*
G36*
X9722310Y4578834D02*
X9733266D01*
Y4560666D01*
X9722310D01*
Y4533900D01*
X9698041D01*
Y4560666D01*
X9654910D01*
Y4578834D01*
X9711493Y4655803D01*
X9722310D01*
Y4578834D01*
D02*
G37*
G36*
X9605954Y4655665D02*
X9606925Y4655526D01*
X9609144Y4655248D01*
X9611640Y4654694D01*
X9614553Y4654000D01*
X9617326Y4652891D01*
X9620239Y4651504D01*
X9620378D01*
X9620516Y4651365D01*
X9620932Y4651088D01*
X9621487Y4650811D01*
X9622874Y4649840D01*
X9624538Y4648453D01*
X9626341Y4646789D01*
X9628282Y4644847D01*
X9630224Y4642490D01*
X9631888Y4639855D01*
Y4639716D01*
X9632027Y4639577D01*
X9632304Y4639161D01*
X9632582Y4638606D01*
X9633275Y4637220D01*
X9634107Y4635417D01*
X9634801Y4633336D01*
X9635494Y4630979D01*
X9636049Y4628482D01*
X9636187Y4626125D01*
Y4625986D01*
Y4625570D01*
Y4625015D01*
X9636049Y4624045D01*
Y4623074D01*
X9635910Y4621826D01*
X9635633Y4620300D01*
X9635355Y4618775D01*
X9634939Y4616972D01*
X9634523Y4615169D01*
X9633414Y4611147D01*
X9631750Y4606709D01*
X9630640Y4604490D01*
X9629531Y4602271D01*
X9629392Y4602133D01*
X9629115Y4601578D01*
X9628560Y4600607D01*
X9627728Y4599220D01*
X9626618Y4597556D01*
X9625093Y4595614D01*
X9623429Y4593257D01*
X9621348Y4590483D01*
X9618991Y4587432D01*
X9616217Y4584104D01*
X9613027Y4580359D01*
X9609421Y4576337D01*
X9605400Y4571899D01*
X9600962Y4567184D01*
X9596108Y4562192D01*
X9590699Y4556922D01*
X9619684D01*
X9621626Y4557060D01*
X9623706D01*
X9625786Y4557199D01*
X9627450Y4557338D01*
X9628282Y4557476D01*
X9628837Y4557615D01*
X9628976D01*
X9629392Y4557754D01*
X9629808Y4558031D01*
X9630501Y4558308D01*
X9632027Y4559140D01*
X9633552Y4560250D01*
X9633691Y4560389D01*
X9633969Y4560666D01*
X9634385Y4561221D01*
X9634939Y4562053D01*
X9635633Y4563162D01*
X9636465Y4564549D01*
X9637436Y4566352D01*
X9638545Y4568432D01*
X9641735D01*
X9634939Y4533900D01*
X9564765D01*
Y4535703D01*
X9564904Y4535842D01*
X9565181Y4536119D01*
X9565597Y4536674D01*
X9566152Y4537367D01*
X9566984Y4538338D01*
X9567816Y4539309D01*
X9568787Y4540557D01*
X9569897Y4541944D01*
X9572532Y4544995D01*
X9575444Y4548601D01*
X9578495Y4552484D01*
X9581823Y4556644D01*
X9585290Y4560943D01*
X9588619Y4565381D01*
X9591947Y4569680D01*
X9594998Y4573841D01*
X9597911Y4577863D01*
X9600407Y4581469D01*
X9602487Y4584797D01*
X9603319Y4586323D01*
X9604013Y4587571D01*
X9604151Y4587709D01*
X9604290Y4588125D01*
X9604706Y4588819D01*
X9605122Y4589790D01*
X9605677Y4591038D01*
X9606232Y4592425D01*
X9606786Y4594089D01*
X9607480Y4595753D01*
X9608173Y4597695D01*
X9608728Y4599775D01*
X9609838Y4604074D01*
X9610670Y4608789D01*
X9610808Y4611147D01*
X9610947Y4613505D01*
Y4613643D01*
Y4613921D01*
Y4614475D01*
X9610808Y4615030D01*
Y4615862D01*
X9610670Y4616833D01*
X9610254Y4618913D01*
X9609560Y4621410D01*
X9608451Y4623906D01*
X9607064Y4626541D01*
X9605122Y4628899D01*
Y4629037D01*
X9604845Y4629176D01*
X9604151Y4629869D01*
X9602903Y4630840D01*
X9601239Y4632088D01*
X9599159Y4633198D01*
X9596801Y4634169D01*
X9594166Y4634862D01*
X9592641Y4635139D01*
X9590560D01*
X9589867Y4635001D01*
X9588896D01*
X9587787Y4634723D01*
X9586400Y4634446D01*
X9585013Y4634030D01*
X9583349Y4633475D01*
X9581685Y4632782D01*
X9580020Y4631811D01*
X9578218Y4630701D01*
X9576553Y4629453D01*
X9574750Y4627789D01*
X9573086Y4625986D01*
X9571561Y4623906D01*
X9570035Y4621548D01*
X9566845Y4622658D01*
Y4622796D01*
X9567123Y4623351D01*
X9567400Y4624322D01*
X9567678Y4625431D01*
X9568232Y4626818D01*
X9568787Y4628482D01*
X9569619Y4630285D01*
X9570451Y4632088D01*
X9572393Y4636249D01*
X9574889Y4640271D01*
X9577802Y4644292D01*
X9579466Y4645957D01*
X9581269Y4647621D01*
X9581407Y4647760D01*
X9581685Y4648037D01*
X9582239Y4648314D01*
X9582933Y4648869D01*
X9583904Y4649562D01*
X9585013Y4650256D01*
X9586261Y4650949D01*
X9587648Y4651781D01*
X9589312Y4652475D01*
X9590976Y4653168D01*
X9594721Y4654555D01*
X9596801Y4655110D01*
X9599020Y4655387D01*
X9601239Y4655665D01*
X9603597Y4655803D01*
X9605122D01*
X9605954Y4655665D01*
D02*
G37*
G36*
X9384199Y4653168D02*
X9386279D01*
X9388637Y4653030D01*
X9390994Y4652891D01*
X9396125Y4652614D01*
X9401395Y4652059D01*
X9403892Y4651643D01*
X9406388Y4651227D01*
X9408607Y4650811D01*
X9410549Y4650256D01*
X9410687D01*
X9410965Y4650117D01*
X9411519Y4649979D01*
X9412213Y4649701D01*
X9413045Y4649285D01*
X9414154Y4648869D01*
X9416373Y4647760D01*
X9419008Y4646234D01*
X9421782Y4644292D01*
X9424556Y4641935D01*
X9427052Y4639161D01*
X9427191Y4639022D01*
X9427329Y4638745D01*
X9427607Y4638329D01*
X9428023Y4637774D01*
X9428578Y4636942D01*
X9429132Y4636110D01*
X9429687Y4635001D01*
X9430242Y4633752D01*
X9431351Y4630979D01*
X9432461Y4627789D01*
X9433154Y4624183D01*
X9433431Y4622242D01*
Y4620300D01*
Y4620161D01*
Y4619745D01*
Y4619052D01*
X9433293Y4618081D01*
X9433154Y4616972D01*
X9432877Y4615724D01*
X9432599Y4614198D01*
X9432183Y4612673D01*
X9431767Y4611008D01*
X9431074Y4609205D01*
X9430380Y4607403D01*
X9429410Y4605600D01*
X9428300Y4603797D01*
X9427052Y4601994D01*
X9425526Y4600191D01*
X9423862Y4598527D01*
X9423585Y4598249D01*
X9423169Y4597972D01*
X9422753Y4597556D01*
X9421366Y4596585D01*
X9419424Y4595476D01*
X9417067Y4594089D01*
X9414154Y4592702D01*
X9410687Y4591315D01*
X9406804Y4590206D01*
X9435512Y4549710D01*
Y4549571D01*
X9435789Y4549433D01*
X9436066Y4549017D01*
X9436483Y4548462D01*
X9437453Y4547214D01*
X9438701Y4545549D01*
X9439950Y4543885D01*
X9441336Y4542360D01*
X9442585Y4540973D01*
X9443555Y4540002D01*
X9443694Y4539863D01*
X9444249Y4539586D01*
X9444942Y4539170D01*
X9445913Y4538615D01*
X9447161Y4538061D01*
X9448687Y4537644D01*
X9450212Y4537228D01*
X9452015Y4537090D01*
Y4533900D01*
X9414293D01*
X9375878Y4588264D01*
X9368111D01*
Y4554703D01*
Y4554564D01*
Y4554287D01*
Y4553732D01*
Y4553177D01*
Y4551513D01*
X9368250Y4549571D01*
X9368389Y4547491D01*
X9368527Y4545411D01*
X9368805Y4543747D01*
X9369082Y4543053D01*
X9369221Y4542498D01*
Y4542360D01*
X9369498Y4542082D01*
X9369776Y4541666D01*
X9370192Y4541112D01*
X9370746Y4540418D01*
X9371440Y4539725D01*
X9372411Y4539031D01*
X9373381Y4538477D01*
X9373520D01*
X9373936Y4538199D01*
X9374768Y4538061D01*
X9375878Y4537783D01*
X9377403Y4537506D01*
X9379345Y4537367D01*
X9381841Y4537090D01*
X9384615D01*
Y4533900D01*
X9323594D01*
Y4537090D01*
X9324981D01*
X9326367Y4537228D01*
X9328032D01*
X9329835Y4537506D01*
X9331776Y4537783D01*
X9333440Y4538061D01*
X9334688Y4538615D01*
X9334827Y4538754D01*
X9335105Y4538893D01*
X9335659Y4539170D01*
X9336353Y4539725D01*
X9337740Y4540834D01*
X9338294Y4541666D01*
X9338849Y4542498D01*
Y4542637D01*
X9338988Y4543053D01*
X9339265Y4543747D01*
X9339542Y4544995D01*
X9339681Y4546520D01*
X9339820Y4547630D01*
X9339958Y4548739D01*
Y4549987D01*
X9340097Y4551374D01*
Y4553038D01*
Y4554703D01*
Y4632504D01*
Y4632643D01*
Y4632920D01*
Y4633475D01*
Y4634030D01*
Y4635694D01*
X9339958Y4637636D01*
X9339820Y4639716D01*
X9339542Y4641657D01*
X9339265Y4643322D01*
X9339126Y4644015D01*
X9338849Y4644570D01*
Y4644709D01*
X9338572Y4644986D01*
X9338294Y4645402D01*
X9337878Y4645957D01*
X9337323Y4646650D01*
X9336491Y4647344D01*
X9335659Y4648037D01*
X9334550Y4648592D01*
X9334411Y4648730D01*
X9333995Y4648869D01*
X9333163Y4649146D01*
X9332053Y4649424D01*
X9330667Y4649701D01*
X9328725Y4649840D01*
X9326367Y4650117D01*
X9323594D01*
Y4653307D01*
X9382534D01*
X9384199Y4653168D01*
D02*
G37*
G36*
X12903824Y5040842D02*
X12905350Y5040703D01*
X12907153Y5040565D01*
X12909094Y5040287D01*
X12911313Y5039871D01*
X12913811Y5039455D01*
X12916306Y5038762D01*
X12918941Y5038068D01*
X12921715Y5037236D01*
X12924628Y5036266D01*
X12927402Y5035017D01*
X12930313Y5033631D01*
X12933224Y5032105D01*
X12933363Y5031966D01*
X12933919Y5031689D01*
X12934750Y5031134D01*
X12935722Y5030441D01*
X12937108Y5029609D01*
X12938495Y5028499D01*
X12940160Y5027112D01*
X12941962Y5025726D01*
X12943904Y5024061D01*
X12945847Y5022258D01*
X12947787Y5020317D01*
X12949728Y5018098D01*
X12951810Y5015879D01*
X12953612Y5013383D01*
X12955415Y5010748D01*
X12957079Y5007974D01*
X12957217Y5007835D01*
X12957495Y5007281D01*
X12957912Y5006448D01*
X12958466Y5005339D01*
X12959021Y5003952D01*
X12959714Y5002288D01*
X12960545Y5000346D01*
X12961378Y4998127D01*
X12962073Y4995908D01*
X12962904Y4993273D01*
X12963597Y4990638D01*
X12964291Y4987865D01*
X12964706Y4984952D01*
X12965123Y4981901D01*
X12965401Y4978712D01*
X12965540Y4975522D01*
Y4974274D01*
X12965401Y4973303D01*
Y4972194D01*
X12965260Y4970807D01*
X12965123Y4969142D01*
X12964845Y4967478D01*
X12964568Y4965537D01*
X12964153Y4963456D01*
X12963181Y4959019D01*
X12961794Y4954026D01*
X12959991Y4948895D01*
Y4948756D01*
X12959853Y4948479D01*
X12959714Y4948062D01*
X12959575Y4947508D01*
X12959021Y4946121D01*
X12958466Y4944457D01*
X12957912Y4942793D01*
X12957356Y4940990D01*
X12957079Y4939603D01*
X12956940Y4938909D01*
Y4938077D01*
X12957079Y4937523D01*
X12957217Y4936829D01*
X12957771Y4935304D01*
X12958188Y4934471D01*
X12958882Y4933639D01*
X12959021Y4933501D01*
X12959299Y4933362D01*
X12959853Y4932946D01*
X12960545Y4932530D01*
X12961378Y4931975D01*
X12962627Y4931559D01*
X12963875Y4931143D01*
X12965540Y4930866D01*
Y4927676D01*
X12924211D01*
Y4930866D01*
X12924350D01*
X12924904Y4931004D01*
X12925735Y4931282D01*
X12926846Y4931698D01*
X12928233Y4932114D01*
X12929758Y4932669D01*
X12931422Y4933362D01*
X12933363Y4934194D01*
X12937247Y4936136D01*
X12941408Y4938632D01*
X12943488Y4940158D01*
X12945430Y4941822D01*
X12947232Y4943486D01*
X12948897Y4945427D01*
X12949036Y4945566D01*
X12949313Y4945844D01*
X12949728Y4946537D01*
X12950282Y4947230D01*
X12950977Y4948340D01*
X12951669Y4949449D01*
X12952502Y4950836D01*
X12953336Y4952362D01*
X12954028Y4954026D01*
X12954860Y4955967D01*
X12956247Y4959989D01*
X12956802Y4962208D01*
X12957217Y4964566D01*
X12957495Y4966924D01*
X12957634Y4969420D01*
Y4970529D01*
X12957495Y4971361D01*
Y4972332D01*
X12957356Y4973442D01*
X12957079Y4974829D01*
X12956802Y4976215D01*
X12956108Y4979405D01*
X12954860Y4982872D01*
X12953336Y4986478D01*
X12952225Y4988281D01*
X12951115Y4990084D01*
X12950977Y4990222D01*
X12950838Y4990500D01*
X12950423Y4990916D01*
X12950006Y4991609D01*
X12948619Y4993273D01*
X12946678Y4995215D01*
X12944180Y4997434D01*
X12941408Y4999792D01*
X12938078Y5001872D01*
X12934335Y5003675D01*
X12934196D01*
X12933780Y5003952D01*
X12932948Y5004230D01*
X12931976Y5004507D01*
X12930730Y5004923D01*
X12929343Y5005478D01*
X12927678Y5005894D01*
X12925735Y5006448D01*
X12923656Y5007003D01*
X12921300Y5007419D01*
X12918941Y5007974D01*
X12916306Y5008390D01*
X12910759Y5008945D01*
X12904794Y5009222D01*
X12904655D01*
X12904102D01*
X12903270D01*
X12902161D01*
X12900635Y5009083D01*
X12899109Y5008945D01*
X12897168D01*
X12895226Y5008667D01*
X12893007Y5008529D01*
X12890649Y5008251D01*
X12885796Y5007558D01*
X12880664Y5006587D01*
X12875671Y5005200D01*
X12875533D01*
X12875117Y5005062D01*
X12874423Y5004784D01*
X12873453Y5004368D01*
X12872482Y5003952D01*
X12871095Y5003536D01*
X12868321Y5002149D01*
X12864993Y5000346D01*
X12861803Y4998127D01*
X12858614Y4995631D01*
X12857227Y4994106D01*
X12855840Y4992580D01*
X12855701Y4992441D01*
X12855562Y4992164D01*
X12855286Y4991748D01*
X12854869Y4991055D01*
X12854314Y4990222D01*
X12853758Y4989113D01*
X12853204Y4987865D01*
X12852512Y4986617D01*
X12851958Y4985091D01*
X12851263Y4983288D01*
X12850708Y4981485D01*
X12850291Y4979544D01*
X12849738Y4977464D01*
X12849460Y4975106D01*
X12849323Y4972748D01*
X12849184Y4970252D01*
Y4969142D01*
X12849323Y4968310D01*
Y4967340D01*
X12849460Y4966230D01*
X12849599Y4964843D01*
X12849738Y4963456D01*
X12850430Y4960267D01*
X12851263Y4956800D01*
X12852373Y4953194D01*
X12854037Y4949588D01*
Y4949449D01*
X12854314Y4949172D01*
X12854591Y4948617D01*
X12855008Y4947924D01*
X12855562Y4947092D01*
X12856256Y4945982D01*
X12857088Y4944873D01*
X12858060Y4943625D01*
X12859167Y4942099D01*
X12860416Y4940574D01*
X12861803Y4938909D01*
X12863329Y4937245D01*
X12864993Y4935442D01*
X12866795Y4933639D01*
X12868736Y4931698D01*
X12870956Y4929756D01*
X12860693D01*
X12860555Y4929895D01*
X12860278Y4930172D01*
X12859723Y4930727D01*
X12859029Y4931559D01*
X12858197Y4932391D01*
X12857227Y4933501D01*
X12856117Y4934749D01*
X12854869Y4936136D01*
X12852373Y4939325D01*
X12849876Y4942931D01*
X12847519Y4946814D01*
X12845576Y4950836D01*
Y4950975D01*
X12845438Y4951391D01*
X12845161Y4951946D01*
X12844884Y4952778D01*
X12844469Y4953749D01*
X12844052Y4954997D01*
X12843636Y4956384D01*
X12843219Y4958048D01*
X12842802Y4959851D01*
X12842387Y4961792D01*
X12841971Y4963872D01*
X12841554Y4966091D01*
X12841000Y4970945D01*
X12840862Y4976215D01*
Y4978018D01*
X12841000Y4979405D01*
X12841139Y4981069D01*
X12841278Y4983011D01*
X12841554Y4985230D01*
X12841833Y4987587D01*
X12842249Y4990084D01*
X12842665Y4992857D01*
X12844052Y4998543D01*
X12845023Y5001456D01*
X12845993Y5004368D01*
X12847102Y5007281D01*
X12848489Y5010054D01*
X12848628Y5010193D01*
X12848904Y5010748D01*
X12849323Y5011441D01*
X12849876Y5012551D01*
X12850708Y5013799D01*
X12851678Y5015186D01*
X12852789Y5016711D01*
X12854037Y5018514D01*
X12855562Y5020317D01*
X12857227Y5022120D01*
X12859029Y5024061D01*
X12860971Y5026003D01*
X12863051Y5027806D01*
X12865408Y5029609D01*
X12867766Y5031412D01*
X12870401Y5032937D01*
X12870540Y5033076D01*
X12871095Y5033214D01*
X12871788Y5033631D01*
X12872897Y5034185D01*
X12874284Y5034740D01*
X12875810Y5035433D01*
X12877612Y5036266D01*
X12879694Y5036959D01*
X12881773Y5037652D01*
X12884131Y5038484D01*
X12886766Y5039178D01*
X12889401Y5039733D01*
X12892175Y5040287D01*
X12894949Y5040565D01*
X12897861Y5040842D01*
X12900912Y5040981D01*
X12901051D01*
X12901744D01*
X12902576D01*
X12903824Y5040842D01*
D02*
G37*
G36*
X12846687Y4916304D02*
X12846964Y4915472D01*
X12847241Y4914362D01*
X12847656Y4912837D01*
X12848351Y4911173D01*
X12849323Y4909370D01*
X12850430Y4907705D01*
X12851958Y4906041D01*
X12852234Y4905903D01*
X12852927Y4905348D01*
X12853343Y4904932D01*
X12854037Y4904377D01*
X12854869Y4903822D01*
X12855840Y4903129D01*
X12856949Y4902435D01*
X12858336Y4901742D01*
X12859723Y4900910D01*
X12861388Y4899939D01*
X12863329Y4898968D01*
X12865269Y4897998D01*
X12867490Y4896888D01*
X12869984Y4895779D01*
X12965401Y4853064D01*
Y4851400D01*
X12867349Y4808408D01*
X12867212Y4808269D01*
X12866795Y4808130D01*
X12866103Y4807853D01*
X12865131Y4807298D01*
X12864021Y4806882D01*
X12862775Y4806189D01*
X12860001Y4804802D01*
X12856949Y4803138D01*
X12854037Y4801474D01*
X12852789Y4800641D01*
X12851540Y4799809D01*
X12850571Y4798977D01*
X12849738Y4798284D01*
X12849599Y4798145D01*
X12849323Y4797729D01*
X12848904Y4797036D01*
X12848351Y4796065D01*
X12847797Y4794817D01*
X12847380Y4793430D01*
X12846964Y4791766D01*
X12846687Y4789824D01*
X12843497D01*
Y4847517D01*
X12846687D01*
Y4844049D01*
X12846825Y4842801D01*
X12846964Y4841276D01*
X12847519Y4838086D01*
X12847935Y4836561D01*
X12848628Y4835312D01*
Y4835174D01*
X12848904Y4835035D01*
X12849599Y4834342D01*
X12850847Y4833648D01*
X12851678Y4833510D01*
X12852650Y4833371D01*
X12852789D01*
X12852927D01*
X12853621D01*
X12854591Y4833648D01*
X12855840Y4833926D01*
X12856117Y4834064D01*
X12856393D01*
X12856949Y4834342D01*
X12857780Y4834619D01*
X12859029Y4835174D01*
X12860555Y4835728D01*
X12862497Y4836561D01*
X12877473Y4843079D01*
Y4884961D01*
X12865825Y4890093D01*
X12865549Y4890231D01*
X12864854Y4890509D01*
X12863745Y4890925D01*
X12862497Y4891341D01*
X12860832Y4891757D01*
X12859306Y4892173D01*
X12857643Y4892450D01*
X12856117Y4892589D01*
X12855840D01*
X12855286D01*
X12854453Y4892312D01*
X12853343Y4892034D01*
X12852095Y4891618D01*
X12850847Y4890925D01*
X12849738Y4889954D01*
X12848767Y4888567D01*
Y4888428D01*
X12848489Y4888012D01*
X12848351Y4887319D01*
X12847935Y4886209D01*
X12847656Y4884684D01*
X12847241Y4882604D01*
X12847102Y4881355D01*
X12846964Y4879969D01*
X12846825Y4878443D01*
X12846687Y4876779D01*
X12843497D01*
Y4916581D01*
X12846687D01*
Y4916304D01*
D02*
G37*
G36*
X12962904Y4742949D02*
X12888985Y4684008D01*
X12940160D01*
X12940298D01*
X12940576D01*
X12941130D01*
X12941962D01*
X12942795Y4684147D01*
X12943765D01*
X12945984Y4684424D01*
X12948482Y4684840D01*
X12950838Y4685395D01*
X12952917Y4686088D01*
X12953889Y4686643D01*
X12954721Y4687198D01*
X12954999Y4687337D01*
X12955553Y4688030D01*
X12956386Y4689001D01*
X12957217Y4690526D01*
X12958188Y4692468D01*
X12959021Y4694826D01*
X12959575Y4697738D01*
X12959714Y4701205D01*
X12962904D01*
Y4661819D01*
X12959714D01*
Y4662096D01*
X12959575Y4662512D01*
Y4663067D01*
X12959299Y4664315D01*
X12959021Y4665979D01*
X12958604Y4667643D01*
X12958188Y4669308D01*
X12957634Y4670833D01*
X12957079Y4672081D01*
Y4672220D01*
X12956802Y4672497D01*
X12956386Y4673052D01*
X12955830Y4673607D01*
X12955138Y4674162D01*
X12954305Y4674855D01*
X12953336Y4675548D01*
X12952086Y4676103D01*
X12951949D01*
X12951393Y4676381D01*
X12950562Y4676519D01*
X12949313Y4676797D01*
X12947649Y4677074D01*
X12945567Y4677213D01*
X12943073Y4677490D01*
X12940160D01*
X12840862D01*
Y4680541D01*
X12940298Y4761116D01*
X12864299D01*
X12864162D01*
X12863882D01*
X12863329D01*
X12862634Y4760978D01*
X12861803D01*
X12860832Y4760839D01*
X12858614Y4760562D01*
X12856256Y4760007D01*
X12854037Y4759175D01*
X12851958Y4758065D01*
X12850986Y4757372D01*
X12850291Y4756540D01*
X12850154Y4756263D01*
X12849738Y4755708D01*
X12849184Y4754737D01*
X12848489Y4753350D01*
X12847797Y4751825D01*
X12847241Y4750022D01*
X12846825Y4747941D01*
X12846687Y4745723D01*
Y4742810D01*
X12843497D01*
Y4785109D01*
X12846687D01*
Y4783445D01*
X12846964Y4781780D01*
X12847241Y4779700D01*
X12847656Y4777481D01*
X12848351Y4775124D01*
X12849323Y4773043D01*
X12850015Y4772211D01*
X12850708Y4771379D01*
X12850847Y4771240D01*
X12851540Y4770824D01*
X12852512Y4770131D01*
X12853899Y4769438D01*
X12855840Y4768744D01*
X12858197Y4768051D01*
X12860971Y4767635D01*
X12864299Y4767496D01*
X12948482D01*
X12951669Y4770131D01*
X12951949Y4770270D01*
X12952502Y4770824D01*
X12953197Y4771518D01*
X12954167Y4772350D01*
X12956247Y4774569D01*
X12957217Y4775678D01*
X12957912Y4776788D01*
X12958051Y4776926D01*
X12958188Y4777342D01*
X12958466Y4778036D01*
X12958743Y4778868D01*
X12959021Y4780116D01*
X12959299Y4781642D01*
X12959575Y4783306D01*
X12959714Y4785247D01*
X12962904D01*
Y4742949D01*
D02*
G37*
G36*
X13300690Y8810936D02*
X13297084D01*
Y8811075D01*
X13296945Y8811630D01*
X13296806Y8812323D01*
X13296529Y8813432D01*
X13296114Y8814681D01*
X13295697Y8816067D01*
X13295142Y8817732D01*
X13294449Y8819535D01*
X13292786Y8823279D01*
X13291814Y8825359D01*
X13290565Y8827301D01*
X13289317Y8829381D01*
X13287791Y8831323D01*
X13286128Y8833126D01*
X13284325Y8834928D01*
X13284186Y8835067D01*
X13283910Y8835345D01*
X13283354Y8835761D01*
X13282523Y8836315D01*
X13281689Y8837009D01*
X13280580Y8837841D01*
X13279332Y8838673D01*
X13277946Y8839505D01*
X13274617Y8841169D01*
X13271011Y8842695D01*
X13269070Y8843250D01*
X13266989Y8843666D01*
X13264909Y8843943D01*
X13262691Y8844082D01*
X13261858D01*
X13261165Y8843943D01*
X13259502Y8843804D01*
X13257559Y8843527D01*
X13255202Y8842833D01*
X13252844Y8842001D01*
X13250487Y8840892D01*
X13248405Y8839228D01*
X13248128Y8838950D01*
X13247574Y8838396D01*
X13246742Y8837425D01*
X13245770Y8836038D01*
X13244800Y8834374D01*
X13243968Y8832571D01*
X13243413Y8830352D01*
X13243137Y8828133D01*
Y8827994D01*
Y8827440D01*
X13243275Y8826746D01*
X13243413Y8825775D01*
X13243552Y8824805D01*
X13243968Y8823556D01*
X13244383Y8822308D01*
X13244939Y8821199D01*
X13245078Y8821060D01*
X13245355Y8820505D01*
X13246048Y8819673D01*
X13246880Y8818564D01*
X13247990Y8817316D01*
X13249515Y8815929D01*
X13251180Y8814542D01*
X13253120Y8813016D01*
X13253398Y8812878D01*
X13253954Y8812462D01*
X13254507Y8812184D01*
X13255202Y8811768D01*
X13256033Y8811214D01*
X13257143Y8810659D01*
X13258252Y8809965D01*
X13259639Y8809272D01*
X13261165Y8808440D01*
X13262968Y8807469D01*
X13265048Y8806498D01*
X13267267Y8805250D01*
X13269763Y8804141D01*
X13272398Y8802754D01*
X13272676Y8802615D01*
X13273369Y8802338D01*
X13274339Y8801783D01*
X13275865Y8800951D01*
X13277528Y8800119D01*
X13279471Y8799009D01*
X13281551Y8797761D01*
X13283910Y8796513D01*
X13288625Y8793462D01*
X13293340Y8790272D01*
X13295419Y8788469D01*
X13297501Y8786805D01*
X13299303Y8785002D01*
X13300829Y8783338D01*
X13300967Y8783199D01*
X13301106Y8782922D01*
X13301521Y8782367D01*
X13301938Y8781674D01*
X13302493Y8780842D01*
X13303047Y8779871D01*
X13303741Y8778623D01*
X13304434Y8777236D01*
X13305821Y8774185D01*
X13306931Y8770579D01*
X13307764Y8766696D01*
X13307901Y8764616D01*
X13308040Y8762397D01*
Y8762258D01*
Y8761703D01*
X13307901Y8761010D01*
Y8759900D01*
X13307623Y8758652D01*
X13307484Y8757127D01*
X13307069Y8755463D01*
X13306514Y8753660D01*
X13305960Y8751718D01*
X13305128Y8749638D01*
X13304156Y8747558D01*
X13303047Y8745339D01*
X13301660Y8743120D01*
X13300134Y8740901D01*
X13298332Y8738820D01*
X13296252Y8736740D01*
X13296114Y8736602D01*
X13295697Y8736324D01*
X13295004Y8735769D01*
X13294173Y8735076D01*
X13293062Y8734244D01*
X13291675Y8733412D01*
X13290012Y8732441D01*
X13288208Y8731470D01*
X13286128Y8730361D01*
X13283910Y8729390D01*
X13281413Y8728558D01*
X13278778Y8727726D01*
X13276004Y8727032D01*
X13273093Y8726478D01*
X13269902Y8726200D01*
X13266573Y8726062D01*
X13265604D01*
X13264493Y8726200D01*
X13263106D01*
X13261443Y8726339D01*
X13259639Y8726616D01*
X13255894Y8727310D01*
X13255617D01*
X13255063Y8727587D01*
X13253954Y8727864D01*
X13252428Y8728280D01*
X13250626Y8728835D01*
X13248405Y8729529D01*
X13246048Y8730361D01*
X13243275Y8731470D01*
X13243137Y8731609D01*
X13242581Y8731748D01*
X13241750Y8732025D01*
X13240778Y8732441D01*
X13238422Y8732996D01*
X13237311Y8733134D01*
X13236201Y8733273D01*
X13235786D01*
X13235370Y8733134D01*
X13234814Y8732996D01*
X13233289Y8732580D01*
X13232318Y8732025D01*
X13231348Y8731470D01*
X13231209Y8731332D01*
X13230933Y8731193D01*
X13230516Y8730777D01*
X13229961Y8730083D01*
X13229266Y8729390D01*
X13228574Y8728419D01*
X13227881Y8727310D01*
X13227325Y8726062D01*
X13224136D01*
Y8771134D01*
X13227325D01*
Y8770856D01*
X13227464Y8770302D01*
X13227742Y8769331D01*
X13228159Y8767944D01*
X13228574Y8766419D01*
X13229129Y8764616D01*
X13229822Y8762535D01*
X13230653Y8760316D01*
X13231625Y8757959D01*
X13232735Y8755601D01*
X13233983Y8753244D01*
X13235231Y8750747D01*
X13236755Y8748390D01*
X13238422Y8746171D01*
X13240363Y8743952D01*
X13242303Y8742010D01*
X13242442Y8741872D01*
X13242857Y8741594D01*
X13243413Y8741039D01*
X13244244Y8740485D01*
X13245216Y8739791D01*
X13246465Y8738959D01*
X13247852Y8737988D01*
X13249515Y8737156D01*
X13251180Y8736185D01*
X13252982Y8735215D01*
X13257004Y8733689D01*
X13259222Y8733134D01*
X13261443Y8732580D01*
X13263800Y8732302D01*
X13266158Y8732164D01*
X13267128D01*
X13267822Y8732302D01*
X13268654D01*
X13269624Y8732441D01*
X13271843Y8732857D01*
X13274478Y8733412D01*
X13277113Y8734383D01*
X13279610Y8735631D01*
X13281967Y8737434D01*
X13282106D01*
X13282245Y8737711D01*
X13282938Y8738404D01*
X13283910Y8739514D01*
X13285017Y8741039D01*
X13285989Y8742842D01*
X13286960Y8744923D01*
X13287653Y8747419D01*
X13287930Y8748667D01*
Y8749915D01*
Y8750054D01*
Y8750609D01*
X13287791Y8751441D01*
X13287653Y8752550D01*
X13287376Y8753798D01*
X13286960Y8755185D01*
X13286404Y8756572D01*
X13285573Y8758098D01*
X13285434Y8758236D01*
X13285156Y8758791D01*
X13284602Y8759623D01*
X13283910Y8760594D01*
X13282938Y8761703D01*
X13281689Y8762951D01*
X13280302Y8764338D01*
X13278639Y8765586D01*
X13278362Y8765725D01*
X13277808Y8766280D01*
X13276559Y8766973D01*
X13274895Y8768083D01*
X13273924Y8768776D01*
X13272676Y8769470D01*
X13271289Y8770163D01*
X13269902Y8770995D01*
X13268237Y8771966D01*
X13266435Y8772798D01*
X13264493Y8773908D01*
X13262413Y8774878D01*
X13262274Y8775017D01*
X13261719Y8775294D01*
X13260887Y8775710D01*
X13259778Y8776265D01*
X13258391Y8776959D01*
X13256866Y8777652D01*
X13255202Y8778623D01*
X13253398Y8779594D01*
X13249515Y8781674D01*
X13245631Y8784031D01*
X13243690Y8785141D01*
X13241888Y8786250D01*
X13240363Y8787360D01*
X13238837Y8788469D01*
X13238698Y8788608D01*
X13238559Y8788747D01*
X13237727Y8789440D01*
X13236340Y8790688D01*
X13234814Y8792214D01*
X13233151Y8794017D01*
X13231348Y8796236D01*
X13229546Y8798593D01*
X13228020Y8801090D01*
Y8801228D01*
X13227881Y8801367D01*
X13227742Y8801783D01*
X13227464Y8802338D01*
X13226772Y8803725D01*
X13226216Y8805666D01*
X13225523Y8807885D01*
X13224831Y8810520D01*
X13224413Y8813294D01*
X13224275Y8816345D01*
Y8816484D01*
Y8817038D01*
X13224413Y8817732D01*
Y8818702D01*
X13224551Y8819951D01*
X13224831Y8821337D01*
X13225107Y8823002D01*
X13225523Y8824805D01*
X13226077Y8826607D01*
X13226772Y8828549D01*
X13227603Y8830629D01*
X13228712Y8832571D01*
X13229822Y8834651D01*
X13231209Y8836731D01*
X13232874Y8838673D01*
X13234676Y8840615D01*
X13234814Y8840753D01*
X13235231Y8841031D01*
X13235786Y8841585D01*
X13236618Y8842140D01*
X13237589Y8842972D01*
X13238837Y8843804D01*
X13240363Y8844775D01*
X13241888Y8845746D01*
X13243829Y8846578D01*
X13245770Y8847549D01*
X13247990Y8848381D01*
X13250346Y8849213D01*
X13252844Y8849768D01*
X13255479Y8850322D01*
X13258252Y8850600D01*
X13261165Y8850738D01*
X13262135D01*
X13263245Y8850600D01*
X13264771D01*
X13266573Y8850322D01*
X13268376Y8850045D01*
X13270457Y8849768D01*
X13272537Y8849213D01*
X13272676D01*
X13273230Y8849074D01*
X13274200Y8848797D01*
X13275311Y8848381D01*
X13276836Y8847826D01*
X13278500Y8847133D01*
X13280441Y8846301D01*
X13282523Y8845330D01*
X13282661D01*
X13282799Y8845191D01*
X13283493Y8844914D01*
X13284602Y8844498D01*
X13285851Y8843943D01*
X13288625Y8842972D01*
X13289873Y8842695D01*
X13290982Y8842556D01*
X13291399D01*
X13292230Y8842695D01*
X13293340Y8843111D01*
X13294449Y8843943D01*
Y8844082D01*
X13294727Y8844220D01*
X13295004Y8844636D01*
X13295280Y8845330D01*
X13295697Y8846162D01*
X13296114Y8847410D01*
X13296667Y8848936D01*
X13297084Y8850738D01*
X13299719D01*
X13300690Y8810936D01*
D02*
G37*
G36*
X13463643Y8813294D02*
X13464754Y8813016D01*
X13466000Y8812739D01*
X13467249Y8812184D01*
X13468636Y8811352D01*
X13469745Y8810381D01*
X13469884Y8810243D01*
X13470161Y8809827D01*
X13470715Y8809133D01*
X13471271Y8808162D01*
X13471687Y8806914D01*
X13472243Y8805527D01*
X13472519Y8803725D01*
X13472658Y8801783D01*
Y8801506D01*
Y8800812D01*
X13472519Y8799703D01*
X13472243Y8798455D01*
X13471964Y8796929D01*
X13471410Y8795404D01*
X13470715Y8793878D01*
X13469745Y8792630D01*
X13469608Y8792491D01*
X13469191Y8792075D01*
X13468636Y8791659D01*
X13467804Y8791104D01*
X13466833Y8790411D01*
X13465724Y8789995D01*
X13464337Y8789579D01*
X13462950Y8789440D01*
X13462119D01*
X13461285Y8789579D01*
X13460176Y8789856D01*
X13458928Y8790134D01*
X13457541Y8790688D01*
X13456154Y8791382D01*
X13454768Y8792352D01*
X13454630Y8792491D01*
X13454213Y8792769D01*
X13453658Y8793323D01*
X13452965Y8793878D01*
X13451717Y8794987D01*
X13451163Y8795404D01*
X13450746Y8795681D01*
X13450607Y8795820D01*
X13450191Y8795958D01*
X13449635Y8796097D01*
X13448804Y8796236D01*
X13448389D01*
X13447833Y8796097D01*
X13447279Y8795958D01*
X13445615Y8795404D01*
X13444781Y8794987D01*
X13443950Y8794294D01*
X13443813Y8794155D01*
X13443396Y8793739D01*
X13442702Y8793046D01*
X13441870Y8792075D01*
X13441039Y8790827D01*
X13440067Y8789440D01*
X13439235Y8787637D01*
X13438403Y8785696D01*
Y8785557D01*
X13438264Y8785280D01*
X13438126Y8784864D01*
X13437987Y8784170D01*
X13437709Y8783477D01*
X13437572Y8782506D01*
X13437292Y8781396D01*
X13437016Y8780148D01*
X13436461Y8777375D01*
X13436044Y8774185D01*
X13435768Y8770718D01*
X13435629Y8766973D01*
Y8747974D01*
X13435768Y8743120D01*
Y8742842D01*
Y8742288D01*
Y8741455D01*
X13435907Y8740346D01*
Y8739237D01*
X13436044Y8738266D01*
X13436185Y8737295D01*
X13436324Y8736602D01*
Y8736463D01*
X13436461Y8736185D01*
X13436739Y8735769D01*
X13437016Y8735215D01*
X13437987Y8733967D01*
X13439374Y8732996D01*
X13439513D01*
X13439790Y8732857D01*
X13440344Y8732580D01*
X13441039Y8732441D01*
X13442009Y8732164D01*
X13443257Y8732025D01*
X13444781Y8731886D01*
X13446448Y8731748D01*
Y8728697D01*
X13401929D01*
Y8731748D01*
X13402206D01*
X13402760Y8731886D01*
X13403732Y8732025D01*
X13404842Y8732302D01*
X13405951Y8732580D01*
X13407199Y8733134D01*
X13408308Y8733828D01*
X13409142Y8734660D01*
X13409279Y8734799D01*
X13409418Y8735215D01*
X13409695Y8736047D01*
X13410110Y8737295D01*
X13410249Y8738127D01*
X13410527Y8739098D01*
X13410666Y8740207D01*
X13410805Y8741455D01*
X13410944Y8742842D01*
Y8744368D01*
X13411082Y8746171D01*
Y8748112D01*
Y8793601D01*
Y8793739D01*
Y8793878D01*
Y8794710D01*
Y8795958D01*
X13410944Y8797345D01*
Y8798871D01*
X13410805Y8800396D01*
X13410527Y8801644D01*
X13410249Y8802615D01*
Y8802754D01*
X13410110Y8803031D01*
X13409973Y8803447D01*
X13409695Y8804002D01*
X13408862Y8805250D01*
X13407755Y8806221D01*
X13407616D01*
X13407475Y8806498D01*
X13407060Y8806637D01*
X13406367Y8806914D01*
X13405673Y8807192D01*
X13404564Y8807469D01*
X13403316Y8807746D01*
X13401929Y8808024D01*
Y8811075D01*
X13435629D01*
Y8792214D01*
X13435768Y8792352D01*
X13436044Y8792769D01*
X13436461Y8793462D01*
X13437016Y8794294D01*
X13437709Y8795265D01*
X13438542Y8796513D01*
X13440483Y8799148D01*
X13442702Y8801922D01*
X13445061Y8804695D01*
X13446307Y8806082D01*
X13447556Y8807192D01*
X13448804Y8808301D01*
X13449915Y8809133D01*
X13450052D01*
X13450191Y8809272D01*
X13451022Y8809827D01*
X13452133Y8810520D01*
X13453796Y8811352D01*
X13455600Y8812046D01*
X13457680Y8812739D01*
X13459760Y8813294D01*
X13461980Y8813432D01*
X13462811D01*
X13463643Y8813294D01*
D02*
G37*
G36*
X13563773Y8808024D02*
X13563635D01*
X13563080Y8807885D01*
X13562386Y8807746D01*
X13561554Y8807469D01*
X13560445Y8807053D01*
X13559474Y8806498D01*
X13558365Y8805805D01*
X13557394Y8804973D01*
X13557256Y8804834D01*
X13556978Y8804418D01*
X13556284Y8803586D01*
X13555591Y8802338D01*
X13555035Y8801506D01*
X13554482Y8800535D01*
X13553928Y8799287D01*
X13553233Y8798039D01*
X13552541Y8796513D01*
X13551707Y8794849D01*
X13550876Y8792907D01*
X13550044Y8790827D01*
X13522585Y8726200D01*
X13518562D01*
X13490688Y8789995D01*
Y8790134D01*
X13490408Y8790550D01*
X13490271Y8791104D01*
X13489854Y8791936D01*
X13489439Y8792769D01*
X13489023Y8793878D01*
X13487914Y8796236D01*
X13486665Y8798871D01*
X13485278Y8801228D01*
X13484723Y8802338D01*
X13484030Y8803309D01*
X13483475Y8804141D01*
X13482919Y8804834D01*
X13482782Y8804973D01*
X13482504Y8805250D01*
X13482088Y8805666D01*
X13481395Y8806082D01*
X13480563Y8806637D01*
X13479591Y8807192D01*
X13478345Y8807608D01*
X13476958Y8808024D01*
Y8811075D01*
X13520644D01*
Y8808024D01*
X13519949D01*
X13519257Y8807885D01*
X13518423D01*
X13516483Y8807330D01*
X13515649Y8807053D01*
X13514957Y8806498D01*
X13514818Y8806360D01*
X13514679Y8806082D01*
X13514262Y8805666D01*
X13513986Y8805111D01*
X13513155Y8803586D01*
X13513016Y8802754D01*
X13512875Y8801783D01*
Y8801644D01*
Y8801090D01*
X13513155Y8800257D01*
X13513431Y8799009D01*
X13513847Y8797345D01*
X13514540Y8795126D01*
X13515511Y8792630D01*
X13516759Y8789440D01*
X13530350Y8758514D01*
X13541168Y8785141D01*
Y8785280D01*
X13541306Y8785696D01*
X13541583Y8786250D01*
X13541861Y8787083D01*
X13542278Y8788053D01*
X13542555Y8789024D01*
X13543526Y8791520D01*
X13544357Y8794294D01*
X13545052Y8796929D01*
X13545605Y8799425D01*
X13545744Y8800535D01*
Y8801506D01*
Y8801644D01*
Y8801922D01*
X13545605Y8802476D01*
X13545467Y8803170D01*
X13544913Y8804557D01*
X13544496Y8805250D01*
X13543803Y8805944D01*
X13543665Y8806082D01*
X13543387Y8806221D01*
X13542970Y8806498D01*
X13542278Y8806914D01*
X13541306Y8807192D01*
X13540057Y8807608D01*
X13538670Y8807885D01*
X13536868Y8808024D01*
Y8811075D01*
X13563773D01*
Y8808024D01*
D02*
G37*
G36*
X13612035Y8813294D02*
X13613007D01*
X13614116Y8813155D01*
X13615364Y8813016D01*
X13616751Y8812739D01*
X13619801Y8812046D01*
X13623270Y8811075D01*
X13626736Y8809688D01*
X13630203Y8807885D01*
X13630342D01*
X13630618Y8807608D01*
X13631035Y8807330D01*
X13631728Y8806914D01*
X13633392Y8805527D01*
X13635474Y8803863D01*
X13637692Y8801644D01*
X13640050Y8798871D01*
X13642268Y8795681D01*
X13644209Y8792075D01*
Y8791936D01*
X13644487Y8791659D01*
X13644626Y8791104D01*
X13645042Y8790272D01*
X13645319Y8789301D01*
X13645735Y8788192D01*
X13646152Y8786944D01*
X13646706Y8785418D01*
X13647122Y8783893D01*
X13647539Y8782090D01*
X13648370Y8778345D01*
X13648924Y8774185D01*
X13649065Y8769747D01*
Y8769608D01*
Y8768915D01*
Y8768083D01*
X13648924Y8766835D01*
X13648787Y8765309D01*
X13648648Y8763506D01*
X13648370Y8761565D01*
X13647954Y8759484D01*
X13646844Y8754769D01*
X13646152Y8752412D01*
X13645319Y8749915D01*
X13644350Y8747419D01*
X13643100Y8745061D01*
X13641714Y8742565D01*
X13640189Y8740346D01*
X13640050Y8740207D01*
X13639633Y8739791D01*
X13639079Y8739098D01*
X13638248Y8738127D01*
X13637137Y8737018D01*
X13635750Y8735908D01*
X13634225Y8734660D01*
X13632422Y8733273D01*
X13630479Y8732025D01*
X13628261Y8730638D01*
X13625764Y8729529D01*
X13623129Y8728419D01*
X13620218Y8727448D01*
X13617168Y8726755D01*
X13613977Y8726339D01*
X13610510Y8726200D01*
X13609679D01*
X13608707Y8726339D01*
X13607458D01*
X13605933Y8726616D01*
X13604131Y8726894D01*
X13602190Y8727310D01*
X13600108Y8727864D01*
X13597751Y8728558D01*
X13595532Y8729390D01*
X13593036Y8730361D01*
X13590678Y8731609D01*
X13588458Y8733134D01*
X13586240Y8734799D01*
X13584021Y8736879D01*
X13582080Y8739098D01*
X13581941Y8739237D01*
X13581664Y8739653D01*
X13581110Y8740485D01*
X13580554Y8741455D01*
X13579723Y8742704D01*
X13578889Y8744090D01*
X13578058Y8745893D01*
X13577087Y8747835D01*
X13576115Y8749915D01*
X13575284Y8752273D01*
X13574452Y8754769D01*
X13573621Y8757404D01*
X13573065Y8760178D01*
X13572510Y8763090D01*
X13572234Y8766141D01*
X13572095Y8769331D01*
Y8769470D01*
Y8770163D01*
X13572234Y8770995D01*
Y8772382D01*
X13572372Y8773908D01*
X13572649Y8775710D01*
X13572926Y8777652D01*
X13573341Y8779871D01*
X13573897Y8782229D01*
X13574591Y8784725D01*
X13575423Y8787221D01*
X13576393Y8789856D01*
X13577502Y8792491D01*
X13578889Y8795126D01*
X13580415Y8797761D01*
X13582217Y8800257D01*
X13582356Y8800396D01*
X13582634Y8800812D01*
X13583328Y8801506D01*
X13584160Y8802338D01*
X13585130Y8803309D01*
X13586378Y8804418D01*
X13587904Y8805666D01*
X13589568Y8806914D01*
X13591510Y8808024D01*
X13593590Y8809272D01*
X13595808Y8810381D01*
X13598306Y8811352D01*
X13601079Y8812184D01*
X13603992Y8812878D01*
X13607043Y8813294D01*
X13610233Y8813432D01*
X13611342D01*
X13612035Y8813294D01*
D02*
G37*
G36*
X13361433D02*
X13362543Y8813155D01*
X13363791Y8812878D01*
X13365315Y8812600D01*
X13366843Y8812184D01*
X13368506Y8811630D01*
X13370171Y8810936D01*
X13371973Y8810104D01*
X13373915Y8809133D01*
X13375719Y8807885D01*
X13377521Y8806498D01*
X13379324Y8804973D01*
X13381126Y8803170D01*
X13381265Y8803031D01*
X13381541Y8802754D01*
X13381960Y8802060D01*
X13382513Y8801228D01*
X13383345Y8800119D01*
X13384039Y8798871D01*
X13384871Y8797345D01*
X13385841Y8795542D01*
X13386674Y8793601D01*
X13387645Y8791243D01*
X13388477Y8788747D01*
X13389169Y8786112D01*
X13389864Y8783199D01*
X13390417Y8780010D01*
X13390834Y8776543D01*
X13391112Y8772937D01*
X13345901D01*
Y8772798D01*
Y8772243D01*
X13346039Y8771411D01*
X13346178Y8770163D01*
X13346317Y8768776D01*
X13346594Y8767251D01*
X13346870Y8765448D01*
X13347289Y8763506D01*
X13348257Y8759346D01*
X13349783Y8755046D01*
X13350755Y8752828D01*
X13351865Y8750747D01*
X13353111Y8748806D01*
X13354498Y8746864D01*
X13354639Y8746725D01*
X13354776Y8746587D01*
X13355609Y8745755D01*
X13356857Y8744645D01*
X13358659Y8743258D01*
X13360741Y8741872D01*
X13363235Y8740762D01*
X13366148Y8739930D01*
X13367674Y8739791D01*
X13369200Y8739653D01*
X13370032D01*
X13371141Y8739791D01*
X13372389Y8740069D01*
X13373915Y8740346D01*
X13375439Y8740901D01*
X13377106Y8741594D01*
X13378769Y8742565D01*
X13378906Y8742704D01*
X13379462Y8743120D01*
X13380434Y8743952D01*
X13381541Y8745061D01*
X13382928Y8746448D01*
X13384454Y8748251D01*
X13386258Y8750609D01*
X13388062Y8753244D01*
X13391112Y8751302D01*
X13390973Y8751163D01*
X13390834Y8750747D01*
X13390417Y8750054D01*
X13389864Y8749083D01*
X13389310Y8747974D01*
X13388477Y8746725D01*
X13386674Y8743674D01*
X13384454Y8740485D01*
X13381960Y8737295D01*
X13379185Y8734383D01*
X13377660Y8732996D01*
X13376134Y8731886D01*
X13375995D01*
X13375719Y8731609D01*
X13375302Y8731332D01*
X13374747Y8731054D01*
X13373915Y8730638D01*
X13373083Y8730083D01*
X13371973Y8729529D01*
X13370724Y8729113D01*
X13368089Y8728003D01*
X13364900Y8727032D01*
X13361295Y8726478D01*
X13357411Y8726200D01*
X13356580D01*
X13355609Y8726339D01*
X13354359Y8726478D01*
X13352835Y8726616D01*
X13351170Y8726894D01*
X13349229Y8727310D01*
X13347150Y8728003D01*
X13344930Y8728697D01*
X13342572Y8729667D01*
X13340353Y8730777D01*
X13337996Y8732164D01*
X13335777Y8733689D01*
X13333559Y8735631D01*
X13331477Y8737711D01*
X13329675Y8740207D01*
X13329536Y8740346D01*
X13329398Y8740762D01*
X13328981Y8741317D01*
X13328564Y8742288D01*
X13328011Y8743397D01*
X13327316Y8744645D01*
X13326624Y8746309D01*
X13325929Y8747974D01*
X13325237Y8749915D01*
X13324544Y8752134D01*
X13323988Y8754353D01*
X13323296Y8756849D01*
X13322879Y8759484D01*
X13322462Y8762397D01*
X13322324Y8765309D01*
X13322186Y8768360D01*
Y8768638D01*
Y8769331D01*
X13322324Y8770302D01*
Y8771827D01*
X13322462Y8773491D01*
X13322740Y8775572D01*
X13323157Y8777791D01*
X13323573Y8780287D01*
X13324127Y8782783D01*
X13324959Y8785418D01*
X13325790Y8788192D01*
X13326901Y8790966D01*
X13328149Y8793601D01*
X13329675Y8796374D01*
X13331339Y8798871D01*
X13333279Y8801228D01*
X13333418Y8801367D01*
X13333835Y8801783D01*
X13334390Y8802338D01*
X13335222Y8803170D01*
X13336331Y8804002D01*
X13337579Y8805111D01*
X13339105Y8806221D01*
X13340768Y8807330D01*
X13342572Y8808440D01*
X13344514Y8809549D01*
X13346733Y8810659D01*
X13348952Y8811491D01*
X13351448Y8812323D01*
X13353944Y8812878D01*
X13356580Y8813294D01*
X13359354Y8813432D01*
X13360600D01*
X13361433Y8813294D01*
D02*
G37*
G36*
X8690811Y6719042D02*
X8691921Y6718765D01*
X8693169Y6718487D01*
X8694417Y6717932D01*
X8695804Y6717100D01*
X8696914Y6716130D01*
X8697052Y6715991D01*
X8697330Y6715575D01*
X8697884Y6714881D01*
X8698439Y6713911D01*
X8698855Y6712662D01*
X8699410Y6711276D01*
X8699687Y6709473D01*
X8699826Y6707531D01*
Y6707254D01*
Y6706560D01*
X8699687Y6705451D01*
X8699410Y6704203D01*
X8699132Y6702677D01*
X8698578Y6701152D01*
X8697884Y6699626D01*
X8696914Y6698378D01*
X8696775Y6698239D01*
X8696359Y6697823D01*
X8695804Y6697407D01*
X8694972Y6696852D01*
X8694001Y6696159D01*
X8692892Y6695743D01*
X8691505Y6695327D01*
X8690118Y6695188D01*
X8689286D01*
X8688454Y6695327D01*
X8687344Y6695604D01*
X8686096Y6695882D01*
X8684709Y6696436D01*
X8683322Y6697130D01*
X8681936Y6698101D01*
X8681797Y6698239D01*
X8681381Y6698517D01*
X8680826Y6699071D01*
X8680133Y6699626D01*
X8678885Y6700736D01*
X8678330Y6701152D01*
X8677914Y6701429D01*
X8677775Y6701568D01*
X8677359Y6701706D01*
X8676804Y6701845D01*
X8675972Y6701984D01*
X8675556D01*
X8675001Y6701845D01*
X8674447Y6701706D01*
X8672783Y6701152D01*
X8671950Y6700736D01*
X8671118Y6700042D01*
X8670980Y6699904D01*
X8670564Y6699487D01*
X8669870Y6698794D01*
X8669038Y6697823D01*
X8668206Y6696575D01*
X8667235Y6695188D01*
X8666403Y6693385D01*
X8665571Y6691444D01*
Y6691305D01*
X8665432Y6691028D01*
X8665294Y6690612D01*
X8665155Y6689918D01*
X8664878Y6689225D01*
X8664739Y6688254D01*
X8664461Y6687145D01*
X8664184Y6685896D01*
X8663629Y6683123D01*
X8663213Y6679933D01*
X8662936Y6676466D01*
X8662797Y6672721D01*
Y6653722D01*
X8662936Y6648868D01*
Y6648590D01*
Y6648036D01*
Y6647204D01*
X8663075Y6646094D01*
Y6644985D01*
X8663213Y6644014D01*
X8663352Y6643043D01*
X8663491Y6642350D01*
Y6642211D01*
X8663629Y6641934D01*
X8663907Y6641518D01*
X8664184Y6640963D01*
X8665155Y6639715D01*
X8666542Y6638744D01*
X8666680D01*
X8666958Y6638605D01*
X8667513Y6638328D01*
X8668206Y6638189D01*
X8669177Y6637912D01*
X8670425Y6637773D01*
X8671950Y6637634D01*
X8673615Y6637496D01*
Y6634445D01*
X8629097D01*
Y6637496D01*
X8629374D01*
X8629929Y6637634D01*
X8630900Y6637773D01*
X8632009Y6638050D01*
X8633119Y6638328D01*
X8634367Y6638883D01*
X8635477Y6639576D01*
X8636309Y6640408D01*
X8636447Y6640547D01*
X8636586Y6640963D01*
X8636863Y6641795D01*
X8637279Y6643043D01*
X8637418Y6643875D01*
X8637695Y6644846D01*
X8637834Y6645955D01*
X8637973Y6647204D01*
X8638112Y6648590D01*
Y6650116D01*
X8638250Y6651919D01*
Y6653860D01*
Y6699349D01*
Y6699487D01*
Y6699626D01*
Y6700458D01*
Y6701706D01*
X8638112Y6703093D01*
Y6704619D01*
X8637973Y6706144D01*
X8637695Y6707392D01*
X8637418Y6708363D01*
Y6708502D01*
X8637279Y6708779D01*
X8637141Y6709195D01*
X8636863Y6709750D01*
X8636031Y6710998D01*
X8634922Y6711969D01*
X8634783D01*
X8634644Y6712246D01*
X8634228Y6712385D01*
X8633535Y6712662D01*
X8632842Y6712940D01*
X8631732Y6713217D01*
X8630484Y6713495D01*
X8629097Y6713772D01*
Y6716823D01*
X8662797D01*
Y6697962D01*
X8662936Y6698101D01*
X8663213Y6698517D01*
X8663629Y6699210D01*
X8664184Y6700042D01*
X8664878Y6701013D01*
X8665710Y6702261D01*
X8667651Y6704896D01*
X8669870Y6707670D01*
X8672228Y6710444D01*
X8673476Y6711830D01*
X8674724Y6712940D01*
X8675972Y6714049D01*
X8677082Y6714881D01*
X8677220D01*
X8677359Y6715020D01*
X8678191Y6715575D01*
X8679301Y6716268D01*
X8680965Y6717100D01*
X8682768Y6717794D01*
X8684848Y6718487D01*
X8686928Y6719042D01*
X8689147Y6719181D01*
X8689979D01*
X8690811Y6719042D01*
D02*
G37*
G36*
X8873458Y6753713D02*
X8875400D01*
X8877480Y6753574D01*
X8879838Y6753436D01*
X8884553Y6752881D01*
X8889407Y6752326D01*
X8891626Y6751910D01*
X8893845Y6751355D01*
X8895786Y6750801D01*
X8897451Y6750107D01*
X8897589D01*
X8897867Y6749968D01*
X8898283Y6749691D01*
X8898837Y6749414D01*
X8900502Y6748582D01*
X8902443Y6747333D01*
X8904523Y6745808D01*
X8906881Y6744005D01*
X8908961Y6741786D01*
X8911042Y6739151D01*
Y6739012D01*
X8911319Y6738874D01*
X8911458Y6738458D01*
X8911874Y6737903D01*
X8912567Y6736377D01*
X8913538Y6734575D01*
X8914509Y6732217D01*
X8915202Y6729582D01*
X8915757Y6726808D01*
X8916034Y6723757D01*
Y6723619D01*
Y6723341D01*
Y6722925D01*
X8915896Y6722370D01*
Y6721538D01*
X8915757Y6720706D01*
X8915202Y6718626D01*
X8914509Y6716268D01*
X8913399Y6713633D01*
X8911735Y6710998D01*
X8910764Y6709611D01*
X8909655Y6708363D01*
X8909516Y6708225D01*
X8909377Y6708086D01*
X8908961Y6707670D01*
X8908407Y6707254D01*
X8907713Y6706699D01*
X8906881Y6706006D01*
X8905772Y6705312D01*
X8904523Y6704480D01*
X8903137Y6703648D01*
X8901472Y6702816D01*
X8899670Y6701984D01*
X8897728Y6701013D01*
X8895509Y6700181D01*
X8893013Y6699349D01*
X8890378Y6698517D01*
X8887465Y6697685D01*
X8887604D01*
X8888159Y6697546D01*
X8889130Y6697269D01*
X8890239Y6696991D01*
X8891626Y6696575D01*
X8893290Y6696159D01*
X8894954Y6695604D01*
X8896896Y6695050D01*
X8900779Y6693663D01*
X8904801Y6691999D01*
X8906604Y6691166D01*
X8908407Y6690196D01*
X8910071Y6689225D01*
X8911458Y6688115D01*
X8911596Y6687977D01*
X8911874Y6687699D01*
X8912428Y6687283D01*
X8912983Y6686729D01*
X8913815Y6685896D01*
X8914647Y6684926D01*
X8915480Y6683816D01*
X8916450Y6682568D01*
X8917421Y6681043D01*
X8918253Y6679517D01*
X8919085Y6677853D01*
X8919917Y6675911D01*
X8920472Y6673970D01*
X8921027Y6671889D01*
X8921304Y6669670D01*
X8921443Y6667313D01*
Y6667174D01*
Y6666758D01*
Y6666065D01*
X8921304Y6665094D01*
X8921166Y6663984D01*
X8920888Y6662598D01*
X8920472Y6661072D01*
X8920056Y6659546D01*
X8919501Y6657744D01*
X8918808Y6655941D01*
X8917837Y6654138D01*
X8916866Y6652196D01*
X8915618Y6650393D01*
X8914093Y6648452D01*
X8912428Y6646649D01*
X8910487Y6644985D01*
X8910348Y6644846D01*
X8909932Y6644569D01*
X8909100Y6644014D01*
X8907991Y6643320D01*
X8906604Y6642488D01*
X8904940Y6641656D01*
X8902998Y6640685D01*
X8900779Y6639715D01*
X8898144Y6638744D01*
X8895232Y6637773D01*
X8892181Y6636941D01*
X8888713Y6636109D01*
X8884969Y6635415D01*
X8880947Y6634861D01*
X8876509Y6634583D01*
X8871933Y6634445D01*
X8811328D01*
Y6637634D01*
X8812715D01*
X8814101Y6637773D01*
X8815766D01*
X8817569Y6638050D01*
X8819510Y6638328D01*
X8821174Y6638605D01*
X8822423Y6639160D01*
X8822561Y6639299D01*
X8822977Y6639437D01*
X8823393Y6639715D01*
X8824087Y6640269D01*
X8825474Y6641379D01*
X8826028Y6642211D01*
X8826583Y6643043D01*
Y6643182D01*
X8826722Y6643598D01*
X8826999Y6644291D01*
X8827276Y6645539D01*
X8827415Y6647204D01*
X8827554Y6648174D01*
X8827693Y6649284D01*
Y6650532D01*
X8827831Y6652058D01*
Y6653583D01*
Y6655386D01*
Y6732910D01*
Y6733049D01*
Y6733326D01*
Y6733881D01*
Y6734436D01*
Y6736100D01*
X8827693Y6738042D01*
X8827554Y6740122D01*
X8827276Y6742202D01*
X8826999Y6743866D01*
X8826860Y6744560D01*
X8826583Y6745115D01*
Y6745253D01*
X8826306Y6745531D01*
X8826028Y6745947D01*
X8825612Y6746501D01*
X8825058Y6747195D01*
X8824364Y6747888D01*
X8823532Y6748582D01*
X8822423Y6749136D01*
X8822284Y6749275D01*
X8821868Y6749414D01*
X8821036Y6749691D01*
X8819926Y6749968D01*
X8818401Y6750246D01*
X8816459Y6750385D01*
X8814101Y6750662D01*
X8811328D01*
Y6753852D01*
X8871794D01*
X8873458Y6753713D01*
D02*
G37*
G36*
X8482924D02*
X8485004Y6753574D01*
X8487501Y6753297D01*
X8490136Y6753020D01*
X8493048Y6752742D01*
X8499011Y6751633D01*
X8502062Y6750801D01*
X8505114Y6749968D01*
X8508026Y6748859D01*
X8510800Y6747611D01*
X8513435Y6746224D01*
X8515654Y6744560D01*
X8515792Y6744421D01*
X8516208Y6744144D01*
X8516763Y6743589D01*
X8517456Y6742896D01*
X8518289Y6742063D01*
X8519259Y6740954D01*
X8520230Y6739706D01*
X8521340Y6738319D01*
X8522310Y6736655D01*
X8523281Y6734991D01*
X8524252Y6733049D01*
X8525084Y6731107D01*
X8525916Y6728888D01*
X8526471Y6726670D01*
X8526748Y6724173D01*
X8526887Y6721677D01*
Y6721538D01*
Y6721122D01*
Y6720567D01*
X8526748Y6719735D01*
X8526610Y6718765D01*
X8526471Y6717516D01*
X8526332Y6716268D01*
X8525916Y6714881D01*
X8525084Y6711692D01*
X8523836Y6708363D01*
X8523004Y6706699D01*
X8522033Y6704896D01*
X8520785Y6703371D01*
X8519537Y6701706D01*
X8519398Y6701568D01*
X8519259Y6701290D01*
X8518843Y6700874D01*
X8518150Y6700320D01*
X8517456Y6699626D01*
X8516624Y6698933D01*
X8515515Y6698101D01*
X8514405Y6697130D01*
X8513019Y6696298D01*
X8511493Y6695327D01*
X8509967Y6694356D01*
X8508165Y6693524D01*
X8504143Y6691860D01*
X8499705Y6690473D01*
X8499566D01*
X8499289Y6690334D01*
X8498734D01*
X8498041Y6690196D01*
X8497070Y6690057D01*
X8495960Y6689780D01*
X8494574Y6689641D01*
X8492909Y6689502D01*
X8490968Y6689225D01*
X8488888Y6689086D01*
X8486530Y6688948D01*
X8483895Y6688670D01*
X8480983Y6688531D01*
X8477931D01*
X8474464Y6688393D01*
X8470859D01*
Y6655386D01*
Y6655247D01*
Y6654970D01*
Y6654415D01*
Y6653860D01*
Y6652196D01*
X8470997Y6650116D01*
X8471136Y6648036D01*
X8471275Y6646094D01*
X8471552Y6644291D01*
X8471829Y6643598D01*
X8471968Y6643043D01*
Y6642904D01*
X8472245Y6642627D01*
X8472523Y6642211D01*
X8472939Y6641656D01*
X8473494Y6640963D01*
X8474187Y6640269D01*
X8475158Y6639576D01*
X8476129Y6639021D01*
X8476267D01*
X8476683Y6638744D01*
X8477515Y6638605D01*
X8478625Y6638328D01*
X8480150Y6638050D01*
X8482092Y6637912D01*
X8484588Y6637634D01*
X8487362D01*
Y6634445D01*
X8426757D01*
Y6637634D01*
X8428144D01*
X8429531Y6637773D01*
X8431195D01*
X8432998Y6638050D01*
X8434939Y6638328D01*
X8436604Y6638605D01*
X8437852Y6639160D01*
X8437990Y6639299D01*
X8438268Y6639437D01*
X8438823Y6639715D01*
X8439516Y6640269D01*
X8440903Y6641379D01*
X8441458Y6642211D01*
X8442012Y6643043D01*
Y6643182D01*
X8442151Y6643598D01*
X8442428Y6644291D01*
X8442706Y6645539D01*
X8442844Y6647204D01*
X8442983Y6648174D01*
X8443122Y6649284D01*
Y6650532D01*
X8443260Y6652058D01*
Y6653583D01*
Y6655386D01*
Y6732910D01*
Y6733049D01*
Y6733326D01*
Y6733881D01*
Y6734436D01*
Y6736100D01*
X8443122Y6738042D01*
X8442983Y6740122D01*
X8442706Y6742202D01*
X8442428Y6743866D01*
X8442290Y6744560D01*
X8442012Y6745115D01*
Y6745253D01*
X8441735Y6745531D01*
X8441458Y6745947D01*
X8441042Y6746501D01*
X8440487Y6747195D01*
X8439655Y6747888D01*
X8438823Y6748582D01*
X8437713Y6749136D01*
X8437574Y6749275D01*
X8437158Y6749414D01*
X8436326Y6749691D01*
X8435217Y6749968D01*
X8433830Y6750246D01*
X8431888Y6750385D01*
X8429531Y6750662D01*
X8426757D01*
Y6753852D01*
X8481260D01*
X8482924Y6753713D01*
D02*
G37*
G36*
X8741292Y6716823D02*
X8760847D01*
Y6708225D01*
X8741292D01*
Y6657189D01*
Y6657050D01*
Y6656912D01*
Y6656079D01*
Y6654831D01*
X8741431Y6653444D01*
Y6651919D01*
X8741570Y6650393D01*
X8741708Y6649007D01*
X8741847Y6648036D01*
Y6647897D01*
X8741986Y6647758D01*
X8742402Y6646788D01*
X8743095Y6645817D01*
X8744205Y6644707D01*
X8744343D01*
X8744482Y6644569D01*
X8745176Y6644153D01*
X8746146Y6643598D01*
X8747256Y6643459D01*
X8747533D01*
X8748227Y6643598D01*
X8749336Y6643875D01*
X8750723Y6644569D01*
X8752387Y6645539D01*
X8753219Y6646372D01*
X8754190Y6647204D01*
X8755161Y6648174D01*
X8755993Y6649284D01*
X8756964Y6650671D01*
X8757934Y6652196D01*
X8760708Y6650255D01*
X8760569Y6650116D01*
X8760431Y6649561D01*
X8759876Y6648729D01*
X8759321Y6647620D01*
X8758489Y6646372D01*
X8757657Y6644846D01*
X8756409Y6643320D01*
X8755161Y6641795D01*
X8753635Y6640269D01*
X8751832Y6638744D01*
X8750029Y6637218D01*
X8747949Y6635970D01*
X8745592Y6634861D01*
X8743095Y6634029D01*
X8740460Y6633474D01*
X8737548Y6633335D01*
X8736855D01*
X8736300Y6633474D01*
X8734774Y6633613D01*
X8732971Y6633890D01*
X8730891Y6634445D01*
X8728672Y6635138D01*
X8726453Y6636248D01*
X8724373Y6637634D01*
X8724096Y6637773D01*
X8723541Y6638328D01*
X8722570Y6639299D01*
X8721461Y6640408D01*
X8720351Y6641934D01*
X8719103Y6643598D01*
X8718132Y6645401D01*
X8717439Y6647342D01*
Y6647481D01*
X8717300Y6648036D01*
X8717161Y6649007D01*
Y6649700D01*
X8717023Y6650532D01*
X8716884Y6651503D01*
Y6652612D01*
X8716745Y6653999D01*
Y6655525D01*
Y6657189D01*
X8716607Y6659130D01*
Y6661211D01*
Y6663568D01*
Y6708225D01*
X8705928D01*
Y6711276D01*
X8706067Y6711414D01*
X8706483Y6711692D01*
X8707037Y6712108D01*
X8707731Y6712662D01*
X8708702Y6713356D01*
X8709811Y6714188D01*
X8712446Y6716268D01*
X8715358Y6718626D01*
X8718410Y6721400D01*
X8721599Y6724451D01*
X8724650Y6727640D01*
X8724789Y6727779D01*
X8725066Y6728056D01*
X8725482Y6728472D01*
X8726037Y6729166D01*
X8726731Y6729998D01*
X8727424Y6730969D01*
X8728395Y6732078D01*
X8729366Y6733326D01*
X8731446Y6736239D01*
X8733803Y6739567D01*
X8736161Y6743173D01*
X8738380Y6747056D01*
X8741292D01*
Y6716823D01*
D02*
G37*
G36*
X8578893Y6719042D02*
X8579864D01*
X8580974Y6718903D01*
X8582222Y6718765D01*
X8583609Y6718487D01*
X8586660Y6717794D01*
X8590127Y6716823D01*
X8593594Y6715436D01*
X8597061Y6713633D01*
X8597200D01*
X8597477Y6713356D01*
X8597893Y6713079D01*
X8598587Y6712662D01*
X8600251Y6711276D01*
X8602331Y6709611D01*
X8604550Y6707392D01*
X8606908Y6704619D01*
X8609127Y6701429D01*
X8611068Y6697823D01*
Y6697685D01*
X8611345Y6697407D01*
X8611484Y6696852D01*
X8611900Y6696020D01*
X8612178Y6695050D01*
X8612594Y6693940D01*
X8613010Y6692692D01*
X8613564Y6691166D01*
X8613980Y6689641D01*
X8614397Y6687838D01*
X8615229Y6684094D01*
X8615783Y6679933D01*
X8615922Y6675495D01*
Y6675356D01*
Y6674663D01*
Y6673831D01*
X8615783Y6672583D01*
X8615645Y6671057D01*
X8615506Y6669254D01*
X8615229Y6667313D01*
X8614813Y6665233D01*
X8613703Y6660517D01*
X8613010Y6658160D01*
X8612178Y6655663D01*
X8611207Y6653167D01*
X8609959Y6650809D01*
X8608572Y6648313D01*
X8607046Y6646094D01*
X8606908Y6645955D01*
X8606492Y6645539D01*
X8605937Y6644846D01*
X8605105Y6643875D01*
X8603995Y6642766D01*
X8602608Y6641656D01*
X8601083Y6640408D01*
X8599280Y6639021D01*
X8597338Y6637773D01*
X8595119Y6636386D01*
X8592623Y6635277D01*
X8589988Y6634167D01*
X8587076Y6633197D01*
X8584025Y6632503D01*
X8580835Y6632087D01*
X8577368Y6631948D01*
X8576536D01*
X8575565Y6632087D01*
X8574317D01*
X8572791Y6632364D01*
X8570988Y6632642D01*
X8569047Y6633058D01*
X8566967Y6633613D01*
X8564609Y6634306D01*
X8562390Y6635138D01*
X8559894Y6636109D01*
X8557536Y6637357D01*
X8555317Y6638883D01*
X8553098Y6640547D01*
X8550879Y6642627D01*
X8548938Y6644846D01*
X8548799Y6644985D01*
X8548522Y6645401D01*
X8547967Y6646233D01*
X8547412Y6647204D01*
X8546580Y6648452D01*
X8545748Y6649839D01*
X8544916Y6651642D01*
X8543945Y6653583D01*
X8542974Y6655663D01*
X8542142Y6658021D01*
X8541310Y6660517D01*
X8540478Y6663152D01*
X8539923Y6665926D01*
X8539368Y6668838D01*
X8539091Y6671889D01*
X8538952Y6675079D01*
Y6675218D01*
Y6675911D01*
X8539091Y6676743D01*
Y6678130D01*
X8539230Y6679656D01*
X8539507Y6681459D01*
X8539785Y6683400D01*
X8540201Y6685619D01*
X8540755Y6687977D01*
X8541449Y6690473D01*
X8542281Y6692969D01*
X8543252Y6695604D01*
X8544361Y6698239D01*
X8545748Y6700874D01*
X8547273Y6703509D01*
X8549076Y6706006D01*
X8549215Y6706144D01*
X8549492Y6706560D01*
X8550186Y6707254D01*
X8551018Y6708086D01*
X8551989Y6709057D01*
X8553237Y6710166D01*
X8554762Y6711414D01*
X8556427Y6712662D01*
X8558368Y6713772D01*
X8560448Y6715020D01*
X8562667Y6716130D01*
X8565164Y6717100D01*
X8567937Y6717932D01*
X8570850Y6718626D01*
X8573901Y6719042D01*
X8577091Y6719181D01*
X8578200D01*
X8578893Y6719042D01*
D02*
G37*
G36*
X13420839Y6971794D02*
X13421948Y6971516D01*
X13423196Y6971239D01*
X13424445Y6970684D01*
X13425832Y6969852D01*
X13426941Y6968881D01*
X13427078Y6968743D01*
X13427357Y6968327D01*
X13427911Y6967633D01*
X13428465Y6966662D01*
X13428882Y6965414D01*
X13429437Y6964027D01*
X13429713Y6962225D01*
X13429852Y6960283D01*
Y6960006D01*
Y6959312D01*
X13429713Y6958203D01*
X13429437Y6956955D01*
X13429160Y6955429D01*
X13428606Y6953904D01*
X13427911Y6952378D01*
X13426941Y6951130D01*
X13426802Y6950991D01*
X13426385Y6950575D01*
X13425832Y6950159D01*
X13424998Y6949604D01*
X13424028Y6948911D01*
X13422919Y6948495D01*
X13421532Y6948079D01*
X13420145Y6947940D01*
X13419313D01*
X13418481Y6948079D01*
X13417371Y6948356D01*
X13416122Y6948634D01*
X13414735Y6949188D01*
X13413350Y6949882D01*
X13411963Y6950852D01*
X13411824Y6950991D01*
X13411407Y6951269D01*
X13410854Y6951823D01*
X13410159Y6952378D01*
X13408913Y6953487D01*
X13408357Y6953904D01*
X13407941Y6954181D01*
X13407802Y6954320D01*
X13407385Y6954458D01*
X13406831Y6954597D01*
X13406000Y6954736D01*
X13405583D01*
X13405029Y6954597D01*
X13404474Y6954458D01*
X13402811Y6953904D01*
X13401978Y6953487D01*
X13401144Y6952794D01*
X13401007Y6952655D01*
X13400591Y6952239D01*
X13399896Y6951546D01*
X13399065Y6950575D01*
X13398233Y6949327D01*
X13397263Y6947940D01*
X13396429Y6946137D01*
X13395598Y6944196D01*
Y6944057D01*
X13395459Y6943780D01*
X13395322Y6943364D01*
X13395181Y6942670D01*
X13394905Y6941977D01*
X13394766Y6941006D01*
X13394489Y6939896D01*
X13394211Y6938648D01*
X13393655Y6935875D01*
X13393240Y6932685D01*
X13392963Y6929218D01*
X13392824Y6925473D01*
Y6906474D01*
X13392963Y6901620D01*
Y6901342D01*
Y6900788D01*
Y6899955D01*
X13393102Y6898846D01*
Y6897737D01*
X13393240Y6896766D01*
X13393379Y6895795D01*
X13393518Y6895102D01*
Y6894963D01*
X13393655Y6894685D01*
X13393935Y6894269D01*
X13394211Y6893715D01*
X13395181Y6892467D01*
X13396568Y6891496D01*
X13396709D01*
X13396985Y6891357D01*
X13397540Y6891080D01*
X13398233Y6890941D01*
X13399203Y6890664D01*
X13400452Y6890525D01*
X13401978Y6890386D01*
X13403642Y6890248D01*
Y6887197D01*
X13359125D01*
Y6890248D01*
X13359402D01*
X13359956Y6890386D01*
X13360927Y6890525D01*
X13362038Y6890802D01*
X13363145Y6891080D01*
X13364394Y6891634D01*
X13365504Y6892328D01*
X13366336Y6893160D01*
X13366473Y6893299D01*
X13366612Y6893715D01*
X13366890Y6894547D01*
X13367307Y6895795D01*
X13367445Y6896627D01*
X13367723Y6897598D01*
X13367860Y6898707D01*
X13367999Y6899955D01*
X13368140Y6901342D01*
Y6902868D01*
X13368277Y6904671D01*
Y6906612D01*
Y6952101D01*
Y6952239D01*
Y6952378D01*
Y6953210D01*
Y6954458D01*
X13368140Y6955845D01*
Y6957371D01*
X13367999Y6958896D01*
X13367723Y6960144D01*
X13367445Y6961115D01*
Y6961254D01*
X13367307Y6961531D01*
X13367168Y6961947D01*
X13366890Y6962502D01*
X13366058Y6963750D01*
X13364949Y6964721D01*
X13364810D01*
X13364671Y6964998D01*
X13364255Y6965137D01*
X13363562Y6965414D01*
X13362869Y6965692D01*
X13361758Y6965969D01*
X13360510Y6966246D01*
X13359125Y6966524D01*
Y6969575D01*
X13392824D01*
Y6950714D01*
X13392963Y6950852D01*
X13393240Y6951269D01*
X13393655Y6951962D01*
X13394211Y6952794D01*
X13394905Y6953765D01*
X13395737Y6955013D01*
X13397678Y6957648D01*
X13399896Y6960422D01*
X13402255Y6963195D01*
X13403503Y6964582D01*
X13404752Y6965692D01*
X13406000Y6966801D01*
X13407109Y6967633D01*
X13407248D01*
X13407385Y6967772D01*
X13408218Y6968327D01*
X13409328Y6969020D01*
X13410992Y6969852D01*
X13412794Y6970546D01*
X13414874Y6971239D01*
X13416956Y6971794D01*
X13419174Y6971932D01*
X13420006D01*
X13420839Y6971794D01*
D02*
G37*
G36*
X13647032Y6911050D02*
X13647171Y6910912D01*
X13647310Y6910495D01*
X13647588Y6909802D01*
X13648141Y6908831D01*
X13648558Y6907722D01*
X13649251Y6906474D01*
X13650638Y6903700D01*
X13652303Y6900649D01*
X13653966Y6897737D01*
X13654797Y6896488D01*
X13655630Y6895240D01*
X13656464Y6894269D01*
X13657156Y6893437D01*
X13657295Y6893299D01*
X13657710Y6893021D01*
X13658405Y6892605D01*
X13659375Y6892050D01*
X13660623Y6891496D01*
X13662010Y6891080D01*
X13663673Y6890664D01*
X13665616Y6890386D01*
Y6887197D01*
X13607922D01*
Y6890386D01*
X13611391D01*
X13612639Y6890525D01*
X13614165Y6890664D01*
X13617354Y6891218D01*
X13618880Y6891634D01*
X13620126Y6892328D01*
X13620267D01*
X13620406Y6892605D01*
X13621098Y6893299D01*
X13621793Y6894547D01*
X13621930Y6895379D01*
X13622069Y6896350D01*
Y6896488D01*
Y6896627D01*
Y6897320D01*
X13621793Y6898291D01*
X13621513Y6899539D01*
X13621376Y6899817D01*
Y6900094D01*
X13621098Y6900649D01*
X13620821Y6901481D01*
X13620267Y6902729D01*
X13619711Y6904255D01*
X13618880Y6906196D01*
X13612361Y6921174D01*
X13570479D01*
X13565347Y6909525D01*
X13565208Y6909247D01*
X13564931Y6908554D01*
X13564516Y6907444D01*
X13564099Y6906196D01*
X13563683Y6904532D01*
X13563268Y6903007D01*
X13562990Y6901342D01*
X13562851Y6899817D01*
Y6899539D01*
Y6898985D01*
X13563129Y6898153D01*
X13563406Y6897043D01*
X13563821Y6895795D01*
X13564516Y6894547D01*
X13565486Y6893437D01*
X13566873Y6892467D01*
X13567010D01*
X13567429Y6892189D01*
X13568121Y6892050D01*
X13569231Y6891634D01*
X13570757Y6891357D01*
X13572836Y6890941D01*
X13574084Y6890802D01*
X13575471Y6890664D01*
X13576997Y6890525D01*
X13578661Y6890386D01*
Y6887197D01*
X13538860D01*
Y6890386D01*
X13539136D01*
X13539967Y6890664D01*
X13541078Y6890941D01*
X13542603Y6891357D01*
X13544267Y6892050D01*
X13546069Y6893021D01*
X13547734Y6894131D01*
X13549399Y6895656D01*
X13549538Y6895934D01*
X13550092Y6896627D01*
X13550508Y6897043D01*
X13551064Y6897737D01*
X13551617Y6898569D01*
X13552312Y6899539D01*
X13553004Y6900649D01*
X13553699Y6902036D01*
X13554530Y6903423D01*
X13555501Y6905087D01*
X13556471Y6907028D01*
X13557442Y6908970D01*
X13558553Y6911189D01*
X13559660Y6913685D01*
X13602376Y7009100D01*
X13604041D01*
X13647032Y6911050D01*
D02*
G37*
G36*
X13212952Y7006465D02*
X13215031Y7006326D01*
X13217528Y7006049D01*
X13220163Y7005771D01*
X13223074Y7005494D01*
X13229039Y7004385D01*
X13232091Y7003552D01*
X13235141Y7002720D01*
X13238052Y7001611D01*
X13240826Y7000363D01*
X13243462Y6998976D01*
X13245682Y6997312D01*
X13245819Y6997173D01*
X13246236Y6996896D01*
X13246790Y6996341D01*
X13247484Y6995647D01*
X13248315Y6994815D01*
X13249286Y6993706D01*
X13250256Y6992458D01*
X13251367Y6991071D01*
X13252338Y6989407D01*
X13253308Y6987742D01*
X13254279Y6985801D01*
X13255112Y6983859D01*
X13255943Y6981640D01*
X13256499Y6979421D01*
X13256775Y6976925D01*
X13256914Y6974429D01*
Y6974290D01*
Y6973874D01*
Y6973319D01*
X13256775Y6972487D01*
X13256638Y6971516D01*
X13256499Y6970268D01*
X13256358Y6969020D01*
X13255943Y6967633D01*
X13255112Y6964444D01*
X13253864Y6961115D01*
X13253030Y6959451D01*
X13252060Y6957648D01*
X13250812Y6956122D01*
X13249564Y6954458D01*
X13249425Y6954320D01*
X13249286Y6954042D01*
X13248869Y6953626D01*
X13248177Y6953071D01*
X13247484Y6952378D01*
X13246651Y6951685D01*
X13245541Y6950852D01*
X13244432Y6949882D01*
X13243047Y6949050D01*
X13241521Y6948079D01*
X13239995Y6947108D01*
X13238193Y6946276D01*
X13234171Y6944612D01*
X13229732Y6943225D01*
X13229593D01*
X13229317Y6943086D01*
X13228761D01*
X13228069Y6942948D01*
X13227097Y6942809D01*
X13225987Y6942531D01*
X13224602Y6942393D01*
X13222935Y6942254D01*
X13220995Y6941977D01*
X13218915Y6941838D01*
X13216557Y6941699D01*
X13213922Y6941422D01*
X13211011Y6941283D01*
X13207959D01*
X13204491Y6941145D01*
X13200887D01*
Y6908138D01*
Y6907999D01*
Y6907722D01*
Y6907167D01*
Y6906612D01*
Y6904948D01*
X13201024Y6902868D01*
X13201163Y6900788D01*
X13201302Y6898846D01*
X13201579Y6897043D01*
X13201857Y6896350D01*
X13201994Y6895795D01*
Y6895656D01*
X13202274Y6895379D01*
X13202550Y6894963D01*
X13202966Y6894408D01*
X13203522Y6893715D01*
X13204214Y6893021D01*
X13205185Y6892328D01*
X13206155Y6891773D01*
X13206294D01*
X13206709Y6891496D01*
X13207542Y6891357D01*
X13208652Y6891080D01*
X13210178Y6890802D01*
X13212119Y6890664D01*
X13214615Y6890386D01*
X13217389D01*
Y6887197D01*
X13156784D01*
Y6890386D01*
X13158171D01*
X13159558Y6890525D01*
X13161221D01*
X13163025Y6890802D01*
X13164967Y6891080D01*
X13166631Y6891357D01*
X13167879Y6891912D01*
X13168018Y6892050D01*
X13168295Y6892189D01*
X13168851Y6892467D01*
X13169543Y6893021D01*
X13170930Y6894131D01*
X13171484Y6894963D01*
X13172038Y6895795D01*
Y6895934D01*
X13172179Y6896350D01*
X13172455Y6897043D01*
X13172733Y6898291D01*
X13172871Y6899955D01*
X13173010Y6900926D01*
X13173149Y6902036D01*
Y6903284D01*
X13173288Y6904809D01*
Y6906335D01*
Y6908138D01*
Y6985662D01*
Y6985801D01*
Y6986078D01*
Y6986633D01*
Y6987188D01*
Y6988852D01*
X13173149Y6990793D01*
X13173010Y6992874D01*
X13172733Y6994954D01*
X13172455Y6996618D01*
X13172318Y6997312D01*
X13172038Y6997866D01*
Y6998005D01*
X13171762Y6998282D01*
X13171484Y6998698D01*
X13171069Y6999253D01*
X13170514Y6999947D01*
X13169682Y7000640D01*
X13168851Y7001333D01*
X13167740Y7001888D01*
X13167603Y7002027D01*
X13167186Y7002166D01*
X13166353Y7002443D01*
X13165244Y7002720D01*
X13163857Y7002998D01*
X13161916Y7003136D01*
X13159558Y7003414D01*
X13156784D01*
Y7006603D01*
X13211287D01*
X13212952Y7006465D01*
D02*
G37*
G36*
X13471320Y6969575D02*
X13490874D01*
Y6960976D01*
X13471320D01*
Y6909941D01*
Y6909802D01*
Y6909663D01*
Y6908831D01*
Y6907583D01*
X13471458Y6906196D01*
Y6904671D01*
X13471597Y6903145D01*
X13471736Y6901758D01*
X13471873Y6900788D01*
Y6900649D01*
X13472012Y6900510D01*
X13472429Y6899539D01*
X13473122Y6898569D01*
X13474232Y6897459D01*
X13474371D01*
X13474509Y6897320D01*
X13475203Y6896904D01*
X13476173Y6896350D01*
X13477283Y6896211D01*
X13477560D01*
X13478255Y6896350D01*
X13479362Y6896627D01*
X13480750Y6897320D01*
X13482414Y6898291D01*
X13483246Y6899123D01*
X13484216Y6899955D01*
X13485188Y6900926D01*
X13486020Y6902036D01*
X13486990Y6903423D01*
X13487962Y6904948D01*
X13490735Y6903007D01*
X13490598Y6902868D01*
X13490459Y6902313D01*
X13489903Y6901481D01*
X13489348Y6900372D01*
X13488516Y6899123D01*
X13487685Y6897598D01*
X13486436Y6896072D01*
X13485188Y6894547D01*
X13483662Y6893021D01*
X13481859Y6891496D01*
X13480057Y6889970D01*
X13477975Y6888722D01*
X13475620Y6887613D01*
X13473122Y6886780D01*
X13470486Y6886226D01*
X13467575Y6886087D01*
X13466882D01*
X13466327Y6886226D01*
X13464801Y6886364D01*
X13462997Y6886642D01*
X13460918Y6887197D01*
X13458699Y6887890D01*
X13456480Y6888999D01*
X13454401Y6890386D01*
X13454123Y6890525D01*
X13453568Y6891080D01*
X13452597Y6892050D01*
X13451488Y6893160D01*
X13450378Y6894685D01*
X13449130Y6896350D01*
X13448158Y6898153D01*
X13447466Y6900094D01*
Y6900233D01*
X13447327Y6900788D01*
X13447188Y6901758D01*
Y6902452D01*
X13447050Y6903284D01*
X13446912Y6904255D01*
Y6905364D01*
X13446771Y6906751D01*
Y6908277D01*
Y6909941D01*
X13446634Y6911882D01*
Y6913963D01*
Y6916320D01*
Y6960976D01*
X13435954D01*
Y6964027D01*
X13436095Y6964166D01*
X13436510Y6964444D01*
X13437065Y6964860D01*
X13437758Y6965414D01*
X13438728Y6966108D01*
X13439838Y6966940D01*
X13442473Y6969020D01*
X13445386Y6971378D01*
X13448438Y6974151D01*
X13451627Y6977202D01*
X13454677Y6980392D01*
X13454816Y6980531D01*
X13455093Y6980808D01*
X13455510Y6981224D01*
X13456064Y6981918D01*
X13456758Y6982750D01*
X13457451Y6983721D01*
X13458421Y6984830D01*
X13459393Y6986078D01*
X13461473Y6988991D01*
X13463831Y6992319D01*
X13466188Y6995925D01*
X13468407Y6999808D01*
X13471320D01*
Y6969575D01*
D02*
G37*
G36*
X13308920Y6971794D02*
X13309891D01*
X13311002Y6971655D01*
X13312250Y6971516D01*
X13313635Y6971239D01*
X13316687Y6970546D01*
X13320154Y6969575D01*
X13323621Y6968188D01*
X13327087Y6966385D01*
X13327226D01*
X13327504Y6966108D01*
X13327921Y6965830D01*
X13328613Y6965414D01*
X13330278Y6964027D01*
X13332358Y6962363D01*
X13334576Y6960144D01*
X13336935Y6957371D01*
X13339154Y6954181D01*
X13341095Y6950575D01*
Y6950436D01*
X13341373Y6950159D01*
X13341512Y6949604D01*
X13341927Y6948772D01*
X13342204Y6947801D01*
X13342621Y6946692D01*
X13343037Y6945444D01*
X13343591Y6943918D01*
X13344008Y6942393D01*
X13344424Y6940590D01*
X13345256Y6936845D01*
X13345810Y6932685D01*
X13345949Y6928247D01*
Y6928108D01*
Y6927415D01*
Y6926583D01*
X13345810Y6925335D01*
X13345673Y6923809D01*
X13345534Y6922006D01*
X13345256Y6920065D01*
X13344839Y6917984D01*
X13343730Y6913269D01*
X13343037Y6910912D01*
X13342204Y6908415D01*
X13341234Y6905919D01*
X13339986Y6903561D01*
X13338599Y6901065D01*
X13337073Y6898846D01*
X13336935Y6898707D01*
X13336519Y6898291D01*
X13335963Y6897598D01*
X13335132Y6896627D01*
X13334023Y6895518D01*
X13332635Y6894408D01*
X13331110Y6893160D01*
X13329308Y6891773D01*
X13327367Y6890525D01*
X13325146Y6889138D01*
X13322650Y6888029D01*
X13320015Y6886919D01*
X13317104Y6885948D01*
X13314052Y6885255D01*
X13310863Y6884839D01*
X13307394Y6884700D01*
X13306563D01*
X13305592Y6884839D01*
X13304344D01*
X13302818Y6885116D01*
X13301016Y6885394D01*
X13299074Y6885810D01*
X13296994Y6886364D01*
X13294637Y6887058D01*
X13292416Y6887890D01*
X13289922Y6888861D01*
X13287563Y6890109D01*
X13285344Y6891634D01*
X13283125Y6893299D01*
X13280907Y6895379D01*
X13278966Y6897598D01*
X13278825Y6897737D01*
X13278549Y6898153D01*
X13277994Y6898985D01*
X13277438Y6899955D01*
X13276607Y6901204D01*
X13275775Y6902590D01*
X13274944Y6904393D01*
X13273972Y6906335D01*
X13273001Y6908415D01*
X13272169Y6910773D01*
X13271336Y6913269D01*
X13270505Y6915904D01*
X13269949Y6918678D01*
X13269395Y6921590D01*
X13269118Y6924641D01*
X13268980Y6927831D01*
Y6927970D01*
Y6928663D01*
X13269118Y6929495D01*
Y6930882D01*
X13269257Y6932408D01*
X13269534Y6934210D01*
X13269812Y6936152D01*
X13270229Y6938371D01*
X13270782Y6940729D01*
X13271477Y6943225D01*
X13272308Y6945721D01*
X13273279Y6948356D01*
X13274388Y6950991D01*
X13275775Y6953626D01*
X13277301Y6956261D01*
X13279103Y6958757D01*
X13279242Y6958896D01*
X13279520Y6959312D01*
X13280212Y6960006D01*
X13281046Y6960838D01*
X13282016Y6961809D01*
X13283264Y6962918D01*
X13284790Y6964166D01*
X13286453Y6965414D01*
X13288396Y6966524D01*
X13290475Y6967772D01*
X13292696Y6968881D01*
X13295190Y6969852D01*
X13297964Y6970684D01*
X13300877Y6971378D01*
X13303928Y6971794D01*
X13307118Y6971932D01*
X13308228D01*
X13308920Y6971794D01*
D02*
G37*
G36*
X8924702Y9114211D02*
X8921512D01*
Y9114349D01*
X8921374Y9114904D01*
X8921096Y9115736D01*
X8920680Y9116846D01*
X8920264Y9118232D01*
X8919709Y9119758D01*
X8919016Y9121422D01*
X8918184Y9123364D01*
X8916242Y9127247D01*
X8913746Y9131407D01*
X8912220Y9133488D01*
X8910556Y9135429D01*
X8908892Y9137232D01*
X8906950Y9138896D01*
X8906812Y9139035D01*
X8906534Y9139312D01*
X8905841Y9139728D01*
X8905148Y9140283D01*
X8904038Y9140977D01*
X8902929Y9141670D01*
X8901542Y9142502D01*
X8900016Y9143334D01*
X8898352Y9144028D01*
X8896410Y9144860D01*
X8892389Y9146247D01*
X8890170Y9146801D01*
X8887812Y9147217D01*
X8885454Y9147495D01*
X8882958Y9147633D01*
X8881849D01*
X8881017Y9147495D01*
X8880046D01*
X8878936Y9147356D01*
X8877549Y9147079D01*
X8876163Y9146801D01*
X8872973Y9146108D01*
X8869506Y9144860D01*
X8865900Y9143334D01*
X8864097Y9142225D01*
X8862294Y9141115D01*
X8862156Y9140977D01*
X8861878Y9140838D01*
X8861462Y9140422D01*
X8860769Y9140006D01*
X8859104Y9138619D01*
X8857163Y9136677D01*
X8854944Y9134181D01*
X8852586Y9131407D01*
X8850506Y9128079D01*
X8848703Y9124335D01*
Y9124196D01*
X8848426Y9123780D01*
X8848148Y9122948D01*
X8847871Y9121977D01*
X8847455Y9120729D01*
X8846900Y9119342D01*
X8846484Y9117678D01*
X8845929Y9115736D01*
X8845375Y9113656D01*
X8844959Y9111298D01*
X8844404Y9108941D01*
X8843988Y9106306D01*
X8843433Y9100758D01*
X8843156Y9094795D01*
Y9094656D01*
Y9094101D01*
Y9093269D01*
Y9092160D01*
X8843294Y9090634D01*
X8843433Y9089109D01*
Y9087167D01*
X8843711Y9085226D01*
X8843849Y9083007D01*
X8844127Y9080649D01*
X8844820Y9075795D01*
X8845791Y9070664D01*
X8847178Y9065671D01*
Y9065533D01*
X8847316Y9065116D01*
X8847594Y9064423D01*
X8848010Y9063452D01*
X8848426Y9062481D01*
X8848842Y9061095D01*
X8850229Y9058321D01*
X8852032Y9054993D01*
X8854251Y9051803D01*
X8856747Y9048613D01*
X8858272Y9047226D01*
X8859798Y9045839D01*
X8859937Y9045701D01*
X8860214Y9045562D01*
X8860630Y9045285D01*
X8861323Y9044869D01*
X8862156Y9044314D01*
X8863265Y9043759D01*
X8864513Y9043204D01*
X8865761Y9042511D01*
X8867287Y9041956D01*
X8869090Y9041263D01*
X8870893Y9040708D01*
X8872834Y9040292D01*
X8874914Y9039737D01*
X8877272Y9039460D01*
X8879630Y9039321D01*
X8882126Y9039183D01*
X8883235D01*
X8884068Y9039321D01*
X8885038D01*
X8886148Y9039460D01*
X8887535Y9039599D01*
X8888922Y9039737D01*
X8892111Y9040431D01*
X8895578Y9041263D01*
X8899184Y9042372D01*
X8902790Y9044037D01*
X8902929D01*
X8903206Y9044314D01*
X8903761Y9044591D01*
X8904454Y9045007D01*
X8905286Y9045562D01*
X8906396Y9046255D01*
X8907505Y9047088D01*
X8908753Y9048058D01*
X8910279Y9049168D01*
X8911804Y9050416D01*
X8913469Y9051803D01*
X8915133Y9053328D01*
X8916936Y9054993D01*
X8918739Y9056795D01*
X8920680Y9058737D01*
X8922622Y9060956D01*
Y9050693D01*
X8922483Y9050555D01*
X8922206Y9050277D01*
X8921651Y9049723D01*
X8920819Y9049029D01*
X8919987Y9048197D01*
X8918877Y9047226D01*
X8917629Y9046117D01*
X8916242Y9044869D01*
X8913053Y9042372D01*
X8909447Y9039876D01*
X8905564Y9037518D01*
X8901542Y9035577D01*
X8901403D01*
X8900987Y9035438D01*
X8900432Y9035161D01*
X8899600Y9034883D01*
X8898629Y9034467D01*
X8897381Y9034051D01*
X8895994Y9033635D01*
X8894330Y9033219D01*
X8892527Y9032803D01*
X8890586Y9032387D01*
X8888505Y9031971D01*
X8886287Y9031555D01*
X8881433Y9031000D01*
X8876163Y9030862D01*
X8874360D01*
X8872973Y9031000D01*
X8871309Y9031139D01*
X8869367Y9031278D01*
X8867148Y9031555D01*
X8864790Y9031832D01*
X8862294Y9032248D01*
X8859521Y9032664D01*
X8853834Y9034051D01*
X8850922Y9035022D01*
X8848010Y9035993D01*
X8845097Y9037102D01*
X8842324Y9038489D01*
X8842185Y9038628D01*
X8841630Y9038905D01*
X8840937Y9039321D01*
X8839827Y9039876D01*
X8838579Y9040708D01*
X8837192Y9041679D01*
X8835667Y9042788D01*
X8833864Y9044037D01*
X8832061Y9045562D01*
X8830258Y9047226D01*
X8828317Y9049029D01*
X8826375Y9050971D01*
X8824572Y9053051D01*
X8822769Y9055409D01*
X8820966Y9057766D01*
X8819441Y9060401D01*
X8819302Y9060540D01*
X8819163Y9061095D01*
X8818747Y9061788D01*
X8818193Y9062898D01*
X8817638Y9064284D01*
X8816945Y9065810D01*
X8816112Y9067613D01*
X8815419Y9069693D01*
X8814726Y9071773D01*
X8813893Y9074131D01*
X8813200Y9076766D01*
X8812645Y9079401D01*
X8812091Y9082175D01*
X8811813Y9084948D01*
X8811536Y9087861D01*
X8811397Y9090912D01*
Y9091050D01*
Y9091744D01*
Y9092576D01*
X8811536Y9093824D01*
X8811675Y9095350D01*
X8811813Y9097152D01*
X8812091Y9099094D01*
X8812507Y9101313D01*
X8812923Y9103809D01*
X8813616Y9106306D01*
X8814310Y9108941D01*
X8815142Y9111714D01*
X8816112Y9114627D01*
X8817361Y9117400D01*
X8818747Y9120313D01*
X8820273Y9123225D01*
X8820412Y9123364D01*
X8820689Y9123919D01*
X8821244Y9124751D01*
X8821937Y9125721D01*
X8822769Y9127108D01*
X8823879Y9128495D01*
X8825266Y9130159D01*
X8826652Y9131962D01*
X8828317Y9133904D01*
X8830119Y9135845D01*
X8832061Y9137787D01*
X8834280Y9139728D01*
X8836499Y9141809D01*
X8838995Y9143612D01*
X8841630Y9145415D01*
X8844404Y9147079D01*
X8844543Y9147217D01*
X8845097Y9147495D01*
X8845929Y9147911D01*
X8847039Y9148466D01*
X8848426Y9149020D01*
X8850090Y9149714D01*
X8852032Y9150546D01*
X8854251Y9151378D01*
X8856469Y9152071D01*
X8859104Y9152903D01*
X8861739Y9153597D01*
X8864513Y9154290D01*
X8867425Y9154706D01*
X8870477Y9155122D01*
X8873666Y9155400D01*
X8876856Y9155538D01*
X8878104D01*
X8879075Y9155400D01*
X8880184D01*
X8881571Y9155261D01*
X8883235Y9155122D01*
X8884900Y9154845D01*
X8886841Y9154568D01*
X8888922Y9154152D01*
X8893359Y9153181D01*
X8898352Y9151794D01*
X8903483Y9149991D01*
X8903622D01*
X8903899Y9149852D01*
X8904315Y9149714D01*
X8904870Y9149575D01*
X8906257Y9149020D01*
X8907921Y9148466D01*
X8909585Y9147911D01*
X8911388Y9147356D01*
X8912775Y9147079D01*
X8913469Y9146940D01*
X8914301D01*
X8914855Y9147079D01*
X8915549Y9147217D01*
X8917074Y9147772D01*
X8917906Y9148188D01*
X8918739Y9148882D01*
X8918877Y9149020D01*
X8919016Y9149298D01*
X8919432Y9149852D01*
X8919848Y9150546D01*
X8920403Y9151378D01*
X8920819Y9152626D01*
X8921235Y9153874D01*
X8921512Y9155538D01*
X8924702D01*
Y9114211D01*
D02*
G37*
G36*
X8687552Y9118094D02*
X8688662Y9117816D01*
X8689910Y9117539D01*
X8691158Y9116984D01*
X8692545Y9116152D01*
X8693654Y9115181D01*
X8693793Y9115043D01*
X8694070Y9114627D01*
X8694625Y9113933D01*
X8695180Y9112962D01*
X8695596Y9111714D01*
X8696151Y9110327D01*
X8696428Y9108525D01*
X8696567Y9106583D01*
Y9106306D01*
Y9105612D01*
X8696428Y9104503D01*
X8696151Y9103255D01*
X8695873Y9101729D01*
X8695319Y9100204D01*
X8694625Y9098678D01*
X8693654Y9097430D01*
X8693516Y9097291D01*
X8693100Y9096875D01*
X8692545Y9096459D01*
X8691713Y9095904D01*
X8690742Y9095211D01*
X8689633Y9094795D01*
X8688246Y9094379D01*
X8686859Y9094240D01*
X8686027D01*
X8685195Y9094379D01*
X8684085Y9094656D01*
X8682837Y9094934D01*
X8681450Y9095488D01*
X8680063Y9096182D01*
X8678677Y9097152D01*
X8678538Y9097291D01*
X8678122Y9097569D01*
X8677567Y9098123D01*
X8676874Y9098678D01*
X8675626Y9099787D01*
X8675071Y9100204D01*
X8674655Y9100481D01*
X8674516Y9100620D01*
X8674100Y9100758D01*
X8673545Y9100897D01*
X8672713Y9101036D01*
X8672297D01*
X8671742Y9100897D01*
X8671188Y9100758D01*
X8669523Y9100204D01*
X8668691Y9099787D01*
X8667859Y9099094D01*
X8667721Y9098955D01*
X8667304Y9098539D01*
X8666611Y9097846D01*
X8665779Y9096875D01*
X8664947Y9095627D01*
X8663976Y9094240D01*
X8663144Y9092437D01*
X8662312Y9090496D01*
Y9090357D01*
X8662173Y9090080D01*
X8662034Y9089664D01*
X8661896Y9088970D01*
X8661618Y9088277D01*
X8661480Y9087306D01*
X8661202Y9086196D01*
X8660925Y9084948D01*
X8660370Y9082175D01*
X8659954Y9078985D01*
X8659677Y9075518D01*
X8659538Y9071773D01*
Y9052774D01*
X8659677Y9047920D01*
Y9047642D01*
Y9047088D01*
Y9046255D01*
X8659816Y9045146D01*
Y9044037D01*
X8659954Y9043066D01*
X8660093Y9042095D01*
X8660232Y9041402D01*
Y9041263D01*
X8660370Y9040985D01*
X8660648Y9040569D01*
X8660925Y9040015D01*
X8661896Y9038767D01*
X8663283Y9037796D01*
X8663421D01*
X8663699Y9037657D01*
X8664253Y9037380D01*
X8664947Y9037241D01*
X8665918Y9036964D01*
X8667166Y9036825D01*
X8668691Y9036686D01*
X8670356Y9036548D01*
Y9033497D01*
X8625838D01*
Y9036548D01*
X8626115D01*
X8626670Y9036686D01*
X8627641Y9036825D01*
X8628750Y9037102D01*
X8629860Y9037380D01*
X8631108Y9037934D01*
X8632217Y9038628D01*
X8633050Y9039460D01*
X8633188Y9039599D01*
X8633327Y9040015D01*
X8633604Y9040847D01*
X8634020Y9042095D01*
X8634159Y9042927D01*
X8634436Y9043898D01*
X8634575Y9045007D01*
X8634714Y9046255D01*
X8634852Y9047642D01*
Y9049168D01*
X8634991Y9050971D01*
Y9052912D01*
Y9098401D01*
Y9098539D01*
Y9098678D01*
Y9099510D01*
Y9100758D01*
X8634852Y9102145D01*
Y9103671D01*
X8634714Y9105196D01*
X8634436Y9106444D01*
X8634159Y9107415D01*
Y9107554D01*
X8634020Y9107831D01*
X8633882Y9108247D01*
X8633604Y9108802D01*
X8632772Y9110050D01*
X8631663Y9111021D01*
X8631524D01*
X8631385Y9111298D01*
X8630969Y9111437D01*
X8630276Y9111714D01*
X8629582Y9111992D01*
X8628473Y9112269D01*
X8627225Y9112546D01*
X8625838Y9112824D01*
Y9115875D01*
X8659538D01*
Y9097014D01*
X8659677Y9097152D01*
X8659954Y9097569D01*
X8660370Y9098262D01*
X8660925Y9099094D01*
X8661618Y9100065D01*
X8662451Y9101313D01*
X8664392Y9103948D01*
X8666611Y9106722D01*
X8668969Y9109495D01*
X8670217Y9110882D01*
X8671465Y9111992D01*
X8672713Y9113101D01*
X8673823Y9113933D01*
X8673961D01*
X8674100Y9114072D01*
X8674932Y9114627D01*
X8676042Y9115320D01*
X8677706Y9116152D01*
X8679509Y9116846D01*
X8681589Y9117539D01*
X8683669Y9118094D01*
X8685888Y9118232D01*
X8686720D01*
X8687552Y9118094D01*
D02*
G37*
G36*
X8479665Y9152765D02*
X8481745Y9152626D01*
X8484242Y9152349D01*
X8486877Y9152071D01*
X8489789Y9151794D01*
X8495752Y9150685D01*
X8498803Y9149852D01*
X8501854Y9149020D01*
X8504767Y9147911D01*
X8507541Y9146663D01*
X8510176Y9145276D01*
X8512394Y9143612D01*
X8512533Y9143473D01*
X8512949Y9143196D01*
X8513504Y9142641D01*
X8514197Y9141947D01*
X8515029Y9141115D01*
X8516000Y9140006D01*
X8516971Y9138758D01*
X8518080Y9137371D01*
X8519051Y9135707D01*
X8520022Y9134042D01*
X8520993Y9132101D01*
X8521825Y9130159D01*
X8522657Y9127940D01*
X8523212Y9125721D01*
X8523489Y9123225D01*
X8523628Y9120729D01*
Y9120590D01*
Y9120174D01*
Y9119619D01*
X8523489Y9118787D01*
X8523350Y9117816D01*
X8523212Y9116568D01*
X8523073Y9115320D01*
X8522657Y9113933D01*
X8521825Y9110744D01*
X8520577Y9107415D01*
X8519745Y9105751D01*
X8518774Y9103948D01*
X8517526Y9102422D01*
X8516278Y9100758D01*
X8516139Y9100620D01*
X8516000Y9100342D01*
X8515584Y9099926D01*
X8514891Y9099371D01*
X8514197Y9098678D01*
X8513365Y9097985D01*
X8512256Y9097152D01*
X8511146Y9096182D01*
X8509759Y9095350D01*
X8508234Y9094379D01*
X8506708Y9093408D01*
X8504906Y9092576D01*
X8500884Y9090912D01*
X8496446Y9089525D01*
X8496307D01*
X8496030Y9089386D01*
X8495475D01*
X8494782Y9089248D01*
X8493811Y9089109D01*
X8492701Y9088831D01*
X8491314Y9088693D01*
X8489650Y9088554D01*
X8487709Y9088277D01*
X8485628Y9088138D01*
X8483271Y9087999D01*
X8480636Y9087722D01*
X8477723Y9087583D01*
X8474672D01*
X8471205Y9087445D01*
X8467600D01*
Y9054438D01*
Y9054299D01*
Y9054022D01*
Y9053467D01*
Y9052912D01*
Y9051248D01*
X8467738Y9049168D01*
X8467877Y9047088D01*
X8468016Y9045146D01*
X8468293Y9043343D01*
X8468570Y9042650D01*
X8468709Y9042095D01*
Y9041956D01*
X8468986Y9041679D01*
X8469264Y9041263D01*
X8469680Y9040708D01*
X8470235Y9040015D01*
X8470928Y9039321D01*
X8471899Y9038628D01*
X8472870Y9038073D01*
X8473008D01*
X8473424Y9037796D01*
X8474256Y9037657D01*
X8475366Y9037380D01*
X8476891Y9037102D01*
X8478833Y9036964D01*
X8481329Y9036686D01*
X8484103D01*
Y9033497D01*
X8423498D01*
Y9036686D01*
X8424885D01*
X8426272Y9036825D01*
X8427936D01*
X8429739Y9037102D01*
X8431680Y9037380D01*
X8433345Y9037657D01*
X8434593Y9038212D01*
X8434731Y9038350D01*
X8435009Y9038489D01*
X8435564Y9038767D01*
X8436257Y9039321D01*
X8437644Y9040431D01*
X8438199Y9041263D01*
X8438753Y9042095D01*
Y9042234D01*
X8438892Y9042650D01*
X8439169Y9043343D01*
X8439447Y9044591D01*
X8439585Y9046255D01*
X8439724Y9047226D01*
X8439863Y9048336D01*
Y9049584D01*
X8440001Y9051109D01*
Y9052635D01*
Y9054438D01*
Y9131962D01*
Y9132101D01*
Y9132378D01*
Y9132933D01*
Y9133488D01*
Y9135152D01*
X8439863Y9137093D01*
X8439724Y9139174D01*
X8439447Y9141254D01*
X8439169Y9142918D01*
X8439031Y9143612D01*
X8438753Y9144166D01*
Y9144305D01*
X8438476Y9144582D01*
X8438199Y9144998D01*
X8437782Y9145553D01*
X8437228Y9146247D01*
X8436396Y9146940D01*
X8435564Y9147633D01*
X8434454Y9148188D01*
X8434315Y9148327D01*
X8433899Y9148466D01*
X8433067Y9148743D01*
X8431958Y9149020D01*
X8430571Y9149298D01*
X8428629Y9149436D01*
X8426272Y9149714D01*
X8423498D01*
Y9152903D01*
X8478001D01*
X8479665Y9152765D01*
D02*
G37*
G36*
X8738033Y9115875D02*
X8757588D01*
Y9107276D01*
X8738033D01*
Y9056241D01*
Y9056102D01*
Y9055963D01*
Y9055131D01*
Y9053883D01*
X8738172Y9052496D01*
Y9050971D01*
X8738311Y9049445D01*
X8738449Y9048058D01*
X8738588Y9047088D01*
Y9046949D01*
X8738727Y9046810D01*
X8739143Y9045839D01*
X8739836Y9044869D01*
X8740946Y9043759D01*
X8741084D01*
X8741223Y9043620D01*
X8741916Y9043204D01*
X8742887Y9042650D01*
X8743997Y9042511D01*
X8744274D01*
X8744968Y9042650D01*
X8746077Y9042927D01*
X8747464Y9043620D01*
X8749128Y9044591D01*
X8749960Y9045423D01*
X8750931Y9046255D01*
X8751902Y9047226D01*
X8752734Y9048336D01*
X8753705Y9049723D01*
X8754675Y9051248D01*
X8757449Y9049307D01*
X8757310Y9049168D01*
X8757172Y9048613D01*
X8756617Y9047781D01*
X8756062Y9046672D01*
X8755230Y9045423D01*
X8754398Y9043898D01*
X8753150Y9042372D01*
X8751902Y9040847D01*
X8750376Y9039321D01*
X8748573Y9037796D01*
X8746770Y9036270D01*
X8744690Y9035022D01*
X8742333Y9033913D01*
X8739836Y9033080D01*
X8737201Y9032526D01*
X8734289Y9032387D01*
X8733595D01*
X8733041Y9032526D01*
X8731515Y9032664D01*
X8729712Y9032942D01*
X8727632Y9033497D01*
X8725413Y9034190D01*
X8723194Y9035299D01*
X8721114Y9036686D01*
X8720837Y9036825D01*
X8720282Y9037380D01*
X8719311Y9038350D01*
X8718202Y9039460D01*
X8717092Y9040985D01*
X8715844Y9042650D01*
X8714873Y9044453D01*
X8714180Y9046394D01*
Y9046533D01*
X8714041Y9047088D01*
X8713902Y9048058D01*
Y9048752D01*
X8713764Y9049584D01*
X8713625Y9050555D01*
Y9051664D01*
X8713486Y9053051D01*
Y9054577D01*
Y9056241D01*
X8713348Y9058182D01*
Y9060263D01*
Y9062620D01*
Y9107276D01*
X8702669D01*
Y9110327D01*
X8702808Y9110466D01*
X8703224Y9110744D01*
X8703778Y9111160D01*
X8704472Y9111714D01*
X8705443Y9112408D01*
X8706552Y9113240D01*
X8709187Y9115320D01*
X8712099Y9117678D01*
X8715150Y9120451D01*
X8718340Y9123502D01*
X8721391Y9126692D01*
X8721530Y9126831D01*
X8721807Y9127108D01*
X8722223Y9127524D01*
X8722778Y9128218D01*
X8723472Y9129050D01*
X8724165Y9130021D01*
X8725136Y9131130D01*
X8726106Y9132378D01*
X8728187Y9135291D01*
X8730544Y9138619D01*
X8732902Y9142225D01*
X8735121Y9146108D01*
X8738033D01*
Y9115875D01*
D02*
G37*
G36*
X8575634Y9118094D02*
X8576605D01*
X8577715Y9117955D01*
X8578963Y9117816D01*
X8580350Y9117539D01*
X8583401Y9116846D01*
X8586868Y9115875D01*
X8590335Y9114488D01*
X8593802Y9112685D01*
X8593941D01*
X8594218Y9112408D01*
X8594634Y9112130D01*
X8595327Y9111714D01*
X8596992Y9110327D01*
X8599072Y9108663D01*
X8601291Y9106444D01*
X8603649Y9103671D01*
X8605867Y9100481D01*
X8607809Y9096875D01*
Y9096736D01*
X8608086Y9096459D01*
X8608225Y9095904D01*
X8608641Y9095072D01*
X8608919Y9094101D01*
X8609335Y9092992D01*
X8609751Y9091744D01*
X8610305Y9090218D01*
X8610721Y9088693D01*
X8611137Y9086890D01*
X8611970Y9083145D01*
X8612524Y9078985D01*
X8612663Y9074547D01*
Y9074408D01*
Y9073715D01*
Y9072883D01*
X8612524Y9071635D01*
X8612386Y9070109D01*
X8612247Y9068306D01*
X8611970Y9066365D01*
X8611554Y9064284D01*
X8610444Y9059569D01*
X8609751Y9057212D01*
X8608919Y9054715D01*
X8607948Y9052219D01*
X8606700Y9049861D01*
X8605313Y9047365D01*
X8603787Y9045146D01*
X8603649Y9045007D01*
X8603232Y9044591D01*
X8602678Y9043898D01*
X8601846Y9042927D01*
X8600736Y9041818D01*
X8599349Y9040708D01*
X8597824Y9039460D01*
X8596021Y9038073D01*
X8594079Y9036825D01*
X8591860Y9035438D01*
X8589364Y9034329D01*
X8586729Y9033219D01*
X8583817Y9032248D01*
X8580766Y9031555D01*
X8577576Y9031139D01*
X8574109Y9031000D01*
X8573277D01*
X8572306Y9031139D01*
X8571058D01*
X8569532Y9031416D01*
X8567729Y9031694D01*
X8565788Y9032110D01*
X8563708Y9032664D01*
X8561350Y9033358D01*
X8559131Y9034190D01*
X8556635Y9035161D01*
X8554277Y9036409D01*
X8552058Y9037934D01*
X8549839Y9039599D01*
X8547620Y9041679D01*
X8545679Y9043898D01*
X8545540Y9044037D01*
X8545263Y9044453D01*
X8544708Y9045285D01*
X8544153Y9046255D01*
X8543321Y9047504D01*
X8542489Y9048890D01*
X8541657Y9050693D01*
X8540686Y9052635D01*
X8539715Y9054715D01*
X8538883Y9057073D01*
X8538051Y9059569D01*
X8537219Y9062204D01*
X8536664Y9064978D01*
X8536109Y9067890D01*
X8535832Y9070941D01*
X8535693Y9074131D01*
Y9074270D01*
Y9074963D01*
X8535832Y9075795D01*
Y9077182D01*
X8535971Y9078708D01*
X8536248Y9080510D01*
X8536525Y9082452D01*
X8536942Y9084671D01*
X8537496Y9087029D01*
X8538190Y9089525D01*
X8539022Y9092021D01*
X8539993Y9094656D01*
X8541102Y9097291D01*
X8542489Y9099926D01*
X8544014Y9102561D01*
X8545817Y9105057D01*
X8545956Y9105196D01*
X8546233Y9105612D01*
X8546927Y9106306D01*
X8547759Y9107138D01*
X8548730Y9108109D01*
X8549978Y9109218D01*
X8551503Y9110466D01*
X8553168Y9111714D01*
X8555109Y9112824D01*
X8557189Y9114072D01*
X8559408Y9115181D01*
X8561905Y9116152D01*
X8564678Y9116984D01*
X8567591Y9117678D01*
X8570642Y9118094D01*
X8573831Y9118232D01*
X8574941D01*
X8575634Y9118094D01*
D02*
G37*
G36*
X12852444Y9304573D02*
X12852272Y9302491D01*
Y9299889D01*
X12852100Y9296939D01*
X12851926Y9293990D01*
X12851578Y9287571D01*
X12850883Y9280979D01*
X12850365Y9277856D01*
X12849843Y9274734D01*
X12849323Y9271958D01*
X12848630Y9269529D01*
Y9269356D01*
X12848454Y9269009D01*
X12848282Y9268315D01*
X12847935Y9267448D01*
X12847414Y9266407D01*
X12846893Y9265019D01*
X12845506Y9262243D01*
X12843597Y9258947D01*
X12841170Y9255477D01*
X12838220Y9252008D01*
X12834750Y9248885D01*
X12834576Y9248711D01*
X12834230Y9248538D01*
X12833710Y9248191D01*
X12833015Y9247671D01*
X12831975Y9246977D01*
X12830934Y9246283D01*
X12829546Y9245589D01*
X12827985Y9244895D01*
X12824515Y9243507D01*
X12820525Y9242119D01*
X12816014Y9241252D01*
X12813585Y9240905D01*
X12811157D01*
X12810983D01*
X12810463D01*
X12809595D01*
X12808382Y9241078D01*
X12806993Y9241252D01*
X12805432Y9241599D01*
X12803523Y9241946D01*
X12801614Y9242466D01*
X12799533Y9242987D01*
X12797278Y9243854D01*
X12795023Y9244721D01*
X12792768Y9245936D01*
X12790512Y9247324D01*
X12788257Y9248885D01*
X12786002Y9250793D01*
X12783920Y9252875D01*
X12783573Y9253222D01*
X12783226Y9253742D01*
X12782706Y9254263D01*
X12781491Y9255998D01*
X12780103Y9258426D01*
X12778369Y9261376D01*
X12776634Y9265019D01*
X12774899Y9269356D01*
X12773511Y9274213D01*
X12722854Y9238303D01*
X12722681D01*
X12722507Y9237956D01*
X12721987Y9237609D01*
X12721293Y9237088D01*
X12719732Y9235874D01*
X12717650Y9234312D01*
X12715568Y9232751D01*
X12713660Y9231016D01*
X12711925Y9229455D01*
X12710711Y9228241D01*
X12710537Y9228067D01*
X12710190Y9227373D01*
X12709670Y9226506D01*
X12708976Y9225291D01*
X12708282Y9223730D01*
X12707761Y9221822D01*
X12707241Y9219913D01*
X12707068Y9217658D01*
X12703077D01*
Y9264845D01*
X12771082Y9312900D01*
Y9322615D01*
X12729100D01*
X12728926D01*
X12728579D01*
X12727885D01*
X12727191D01*
X12725110D01*
X12722681Y9322441D01*
X12720079Y9322268D01*
X12717476Y9322094D01*
X12715395Y9321747D01*
X12714527Y9321400D01*
X12713833Y9321227D01*
X12713660D01*
X12713313Y9320880D01*
X12712792Y9320533D01*
X12712099Y9320013D01*
X12711231Y9319319D01*
X12710364Y9318451D01*
X12709496Y9317237D01*
X12708802Y9316023D01*
Y9315849D01*
X12708455Y9315329D01*
X12708282Y9314288D01*
X12707935Y9312900D01*
X12707588Y9310992D01*
X12707415Y9308563D01*
X12707068Y9305440D01*
Y9301970D01*
X12703077D01*
Y9378303D01*
X12707068D01*
Y9376568D01*
X12707241Y9374833D01*
Y9372751D01*
X12707588Y9370496D01*
X12707935Y9368067D01*
X12708282Y9365985D01*
X12708976Y9364424D01*
X12709149Y9364251D01*
X12709323Y9363904D01*
X12709670Y9363210D01*
X12710364Y9362342D01*
X12711752Y9360607D01*
X12712792Y9359913D01*
X12713833Y9359220D01*
X12714007D01*
X12714527Y9359046D01*
X12715395Y9358699D01*
X12716956Y9358352D01*
X12718864Y9358179D01*
X12720252Y9358005D01*
X12721640Y9357832D01*
X12723201D01*
X12724936Y9357658D01*
X12727018D01*
X12729100D01*
X12826424D01*
X12826598D01*
X12826944D01*
X12827638D01*
X12828331D01*
X12830412D01*
X12832841Y9357832D01*
X12835445Y9358005D01*
X12837872Y9358352D01*
X12839955Y9358699D01*
X12840822Y9358873D01*
X12841516Y9359220D01*
X12841690D01*
X12842036Y9359566D01*
X12842557Y9359913D01*
X12843251Y9360434D01*
X12844118Y9361128D01*
X12844986Y9362169D01*
X12845853Y9363210D01*
X12846547Y9364597D01*
X12846721Y9364771D01*
X12846893Y9365291D01*
X12847241Y9366332D01*
X12847588Y9367720D01*
X12847935Y9369455D01*
X12848108Y9371884D01*
X12848454Y9374833D01*
Y9378303D01*
X12852444D01*
Y9304573D01*
D02*
G37*
G36*
X12755122Y9211066D02*
X12757030D01*
X12759112Y9210892D01*
X12761714Y9210545D01*
X12764490Y9210025D01*
X12767613Y9209505D01*
X12770735Y9208811D01*
X12774032Y9207770D01*
X12777501Y9206729D01*
X12780971Y9205341D01*
X12784267Y9203780D01*
X12787737Y9201871D01*
X12790859Y9199790D01*
X12793809Y9197361D01*
X12793982Y9197187D01*
X12794502Y9196667D01*
X12795196Y9195973D01*
X12796237Y9194932D01*
X12797278Y9193544D01*
X12798666Y9191983D01*
X12800053Y9190075D01*
X12801442Y9187993D01*
X12802831Y9185738D01*
X12804218Y9183309D01*
X12805605Y9180533D01*
X12806647Y9177757D01*
X12807687Y9174635D01*
X12808382Y9171512D01*
X12808900Y9168216D01*
X12809074Y9164746D01*
Y9163185D01*
X12808900Y9162144D01*
X12808728Y9160756D01*
X12808382Y9159195D01*
X12808034Y9157286D01*
X12807513Y9155378D01*
X12806821Y9153296D01*
X12805952Y9151215D01*
X12804910Y9148959D01*
X12803697Y9146531D01*
X12802136Y9144275D01*
X12800401Y9142020D01*
X12798493Y9139765D01*
X12796237Y9137510D01*
X12796064Y9137336D01*
X12795717Y9136989D01*
X12794849Y9136469D01*
X12793809Y9135775D01*
X12792421Y9134734D01*
X12790859Y9133866D01*
X12788951Y9132826D01*
X12786696Y9131611D01*
X12784267Y9130570D01*
X12781318Y9129356D01*
X12778195Y9128315D01*
X12774899Y9127448D01*
X12771256Y9126580D01*
X12767266Y9125886D01*
X12762929Y9125366D01*
X12758418Y9125019D01*
Y9181574D01*
X12758245D01*
X12757551D01*
X12756510Y9181400D01*
X12754949Y9181227D01*
X12753214Y9181054D01*
X12751305Y9180707D01*
X12749050Y9180360D01*
X12746621Y9179839D01*
X12741417Y9178625D01*
X12736039Y9176716D01*
X12733263Y9175502D01*
X12730661Y9174114D01*
X12728232Y9172553D01*
X12725804Y9170818D01*
X12725630Y9170645D01*
X12725457Y9170471D01*
X12724416Y9169430D01*
X12723028Y9167869D01*
X12721293Y9165614D01*
X12719558Y9163011D01*
X12718170Y9159889D01*
X12717130Y9156246D01*
X12716956Y9154337D01*
X12716783Y9152429D01*
Y9151388D01*
X12716956Y9150000D01*
X12717303Y9148439D01*
X12717650Y9146531D01*
X12718344Y9144622D01*
X12719211Y9142541D01*
X12720426Y9140459D01*
X12720599Y9140285D01*
X12721120Y9139591D01*
X12722160Y9138377D01*
X12723548Y9136989D01*
X12725283Y9135254D01*
X12727538Y9133346D01*
X12730488Y9131091D01*
X12733784Y9128835D01*
X12731355Y9125019D01*
X12731182Y9125192D01*
X12730661Y9125366D01*
X12729794Y9125886D01*
X12728579Y9126580D01*
X12727191Y9127274D01*
X12725630Y9128315D01*
X12721814Y9130570D01*
X12717823Y9133346D01*
X12713833Y9136469D01*
X12710190Y9139938D01*
X12708455Y9141847D01*
X12707068Y9143755D01*
Y9143928D01*
X12706721Y9144275D01*
X12706374Y9144796D01*
X12706027Y9145490D01*
X12705506Y9146531D01*
X12704812Y9147571D01*
X12704118Y9148959D01*
X12703598Y9150521D01*
X12702210Y9153817D01*
X12700996Y9157807D01*
X12700302Y9162317D01*
X12699955Y9167175D01*
Y9168216D01*
X12700128Y9169430D01*
X12700302Y9170992D01*
X12700475Y9172900D01*
X12700822Y9174982D01*
X12701343Y9177410D01*
X12702210Y9180013D01*
X12703077Y9182788D01*
X12704292Y9185738D01*
X12705680Y9188513D01*
X12707415Y9191462D01*
X12709323Y9194238D01*
X12711752Y9197014D01*
X12714354Y9199616D01*
X12717476Y9201871D01*
X12717650Y9202045D01*
X12718170Y9202218D01*
X12718864Y9202739D01*
X12720079Y9203259D01*
X12721467Y9203953D01*
X12723028Y9204821D01*
X12725110Y9205688D01*
X12727191Y9206555D01*
X12729620Y9207423D01*
X12732396Y9208290D01*
X12735172Y9208984D01*
X12738294Y9209852D01*
X12741590Y9210372D01*
X12745234Y9210892D01*
X12748877Y9211066D01*
X12752693Y9211239D01*
X12753040D01*
X12753908D01*
X12755122Y9211066D01*
D02*
G37*
G36*
X12779930Y9110793D02*
X12780971D01*
X12782185Y9110446D01*
X12784961Y9109926D01*
X12788431Y9108885D01*
X12791900Y9107497D01*
X12795717Y9105415D01*
X12797625Y9104201D01*
X12799360Y9102813D01*
X12799533Y9102640D01*
X12799707Y9102466D01*
X12800227Y9101946D01*
X12800922Y9101252D01*
X12801614Y9100384D01*
X12802483Y9099343D01*
X12803349Y9098129D01*
X12804218Y9096741D01*
X12805086Y9095180D01*
X12805952Y9093445D01*
X12806821Y9091537D01*
X12807513Y9089455D01*
X12808208Y9087200D01*
X12808728Y9084598D01*
X12808900Y9081995D01*
X12809074Y9079220D01*
Y9077832D01*
X12808900Y9076097D01*
X12808556Y9074015D01*
X12808034Y9071586D01*
X12807167Y9068811D01*
X12806126Y9066035D01*
X12804738Y9063086D01*
Y9062912D01*
X12804564Y9062565D01*
X12804218Y9062045D01*
X12804044Y9061351D01*
X12803349Y9059790D01*
X12803177Y9058228D01*
Y9057881D01*
X12803349Y9057187D01*
X12803523Y9056146D01*
X12803871Y9055106D01*
X12804044Y9054932D01*
X12804391Y9054585D01*
X12804738Y9054065D01*
X12805432Y9053544D01*
X12806299Y9052850D01*
X12807339Y9052156D01*
X12808728Y9051116D01*
Y9047299D01*
X12773685Y9045564D01*
Y9049381D01*
X12773858D01*
X12774379Y9049728D01*
X12775246Y9050075D01*
X12776287Y9050595D01*
X12777501Y9051116D01*
X12778889Y9051983D01*
X12782185Y9053718D01*
X12785828Y9055800D01*
X12789298Y9058228D01*
X12792421Y9060657D01*
X12793809Y9062045D01*
X12795023Y9063433D01*
X12795196Y9063780D01*
X12795890Y9064647D01*
X12796758Y9066035D01*
X12797972Y9067943D01*
X12799013Y9070025D01*
X12799880Y9072454D01*
X12800574Y9075056D01*
X12800748Y9077832D01*
Y9078526D01*
X12800574Y9079393D01*
X12800401Y9080434D01*
X12800053Y9081648D01*
X12799360Y9082863D01*
X12798666Y9084251D01*
X12797625Y9085465D01*
X12797452Y9085638D01*
X12797105Y9085985D01*
X12796411Y9086506D01*
X12795717Y9087026D01*
X12794676Y9087547D01*
X12793462Y9088067D01*
X12792074Y9088414D01*
X12790686Y9088588D01*
X12790512D01*
X12790165D01*
X12789645Y9088414D01*
X12788951Y9088241D01*
X12787043Y9087720D01*
X12786002Y9087200D01*
X12784961Y9086506D01*
X12784787Y9086332D01*
X12784094Y9085638D01*
X12782879Y9084424D01*
X12782185Y9083730D01*
X12781318Y9082689D01*
X12780277Y9081475D01*
X12779236Y9080087D01*
X12778022Y9078526D01*
X12776634Y9076617D01*
X12775072Y9074536D01*
X12773338Y9072280D01*
X12771429Y9069678D01*
X12769521Y9066729D01*
X12769348Y9066555D01*
X12769001Y9066035D01*
X12768480Y9065168D01*
X12767613Y9064127D01*
X12766745Y9062739D01*
X12765704Y9061351D01*
X12763102Y9058055D01*
X12760153Y9054412D01*
X12757030Y9050942D01*
X12755469Y9049207D01*
X12753908Y9047819D01*
X12752346Y9046431D01*
X12750785Y9045391D01*
X12750438Y9045217D01*
X12749397Y9044523D01*
X12747836Y9043656D01*
X12745754Y9042788D01*
X12743325Y9041747D01*
X12740376Y9041054D01*
X12737253Y9040360D01*
X12733784Y9040186D01*
X12733610D01*
X12733437D01*
X12732916D01*
X12732222D01*
X12730661Y9040360D01*
X12728406Y9040707D01*
X12725804Y9041227D01*
X12723028Y9042094D01*
X12719905Y9043135D01*
X12716783Y9044523D01*
X12716609D01*
X12716436Y9044697D01*
X12715395Y9045391D01*
X12714007Y9046258D01*
X12712099Y9047646D01*
X12710190Y9049381D01*
X12708108Y9051462D01*
X12706027Y9053891D01*
X12704292Y9056667D01*
X12704118Y9057014D01*
X12703598Y9058055D01*
X12702904Y9059616D01*
X12702210Y9061698D01*
X12701343Y9064300D01*
X12700649Y9067249D01*
X12700128Y9070372D01*
X12699955Y9073842D01*
Y9075229D01*
X12700128Y9076791D01*
X12700475Y9079046D01*
X12700996Y9081995D01*
X12701863Y9085291D01*
X12702904Y9089282D01*
X12704465Y9093619D01*
Y9093792D01*
X12704639Y9094139D01*
X12704986Y9094659D01*
X12705159Y9095353D01*
X12705680Y9096915D01*
X12705853Y9097609D01*
Y9098650D01*
X12705506Y9099343D01*
X12705159Y9100211D01*
X12704465Y9101078D01*
X12703598Y9102119D01*
X12702210Y9103160D01*
X12700302Y9104028D01*
Y9107844D01*
X12737253Y9109579D01*
Y9105762D01*
X12737080D01*
X12736559Y9105589D01*
X12735866Y9105242D01*
X12734825Y9104895D01*
X12733610Y9104374D01*
X12732222Y9103681D01*
X12729100Y9102293D01*
X12725457Y9100384D01*
X12721814Y9097956D01*
X12718517Y9095353D01*
X12715395Y9092231D01*
Y9092057D01*
X12715048Y9091884D01*
X12714701Y9091363D01*
X12714354Y9090669D01*
X12713139Y9089108D01*
X12711925Y9086853D01*
X12710537Y9084424D01*
X12709323Y9081648D01*
X12708629Y9078873D01*
X12708282Y9075923D01*
Y9075056D01*
X12708455Y9074015D01*
X12708629Y9072801D01*
X12708976Y9071413D01*
X12709670Y9070025D01*
X12710364Y9068637D01*
X12711405Y9067249D01*
X12711578Y9067076D01*
X12711925Y9066729D01*
X12712619Y9066208D01*
X12713660Y9065515D01*
X12714874Y9064821D01*
X12716089Y9064300D01*
X12717650Y9063953D01*
X12719385Y9063780D01*
X12719558D01*
X12720252D01*
X12721293Y9063953D01*
X12722507Y9064127D01*
X12723895Y9064647D01*
X12725457Y9065168D01*
X12726844Y9066035D01*
X12728406Y9067249D01*
X12728579Y9067423D01*
X12729100Y9067943D01*
X12729967Y9068811D01*
X12731355Y9070372D01*
X12732916Y9072280D01*
X12734998Y9074883D01*
X12736039Y9076444D01*
X12737253Y9078005D01*
X12738641Y9079914D01*
X12740029Y9081995D01*
X12740203Y9082169D01*
X12740550Y9082689D01*
X12741244Y9083557D01*
X12741937Y9084771D01*
X12742978Y9085985D01*
X12744019Y9087547D01*
X12746621Y9091016D01*
X12749571Y9094659D01*
X12752520Y9098303D01*
X12754081Y9100037D01*
X12755469Y9101425D01*
X12756683Y9102813D01*
X12757898Y9103854D01*
X12758071D01*
X12758245Y9104201D01*
X12758765Y9104548D01*
X12759459Y9104895D01*
X12761367Y9106109D01*
X12763796Y9107324D01*
X12766745Y9108712D01*
X12770042Y9109926D01*
X12773858Y9110620D01*
X12777848Y9110967D01*
X12778022D01*
X12778369D01*
X12779063D01*
X12779930Y9110793D01*
D02*
G37*
G36*
X12755122Y9023185D02*
X12757030D01*
X12759112Y9023011D01*
X12761714Y9022664D01*
X12764490Y9022144D01*
X12767613Y9021624D01*
X12770735Y9020930D01*
X12774032Y9019889D01*
X12777501Y9018848D01*
X12780971Y9017460D01*
X12784267Y9015899D01*
X12787737Y9013990D01*
X12790859Y9011909D01*
X12793809Y9009480D01*
X12793982Y9009306D01*
X12794502Y9008786D01*
X12795196Y9008092D01*
X12796237Y9007051D01*
X12797278Y9005663D01*
X12798666Y9004102D01*
X12800053Y9002194D01*
X12801442Y9000112D01*
X12802831Y8997857D01*
X12804218Y8995428D01*
X12805605Y8992652D01*
X12806647Y8989876D01*
X12807687Y8986754D01*
X12808382Y8983631D01*
X12808900Y8980335D01*
X12809074Y8976865D01*
Y8975304D01*
X12808900Y8974263D01*
X12808728Y8972875D01*
X12808382Y8971314D01*
X12808034Y8969405D01*
X12807513Y8967497D01*
X12806821Y8965415D01*
X12805952Y8963334D01*
X12804910Y8961078D01*
X12803697Y8958650D01*
X12802136Y8956394D01*
X12800401Y8954139D01*
X12798493Y8951884D01*
X12796237Y8949629D01*
X12796064Y8949455D01*
X12795717Y8949108D01*
X12794849Y8948588D01*
X12793809Y8947894D01*
X12792421Y8946853D01*
X12790859Y8945985D01*
X12788951Y8944945D01*
X12786696Y8943730D01*
X12784267Y8942689D01*
X12781318Y8941475D01*
X12778195Y8940434D01*
X12774899Y8939567D01*
X12771256Y8938699D01*
X12767266Y8938005D01*
X12762929Y8937485D01*
X12758418Y8937138D01*
Y8993693D01*
X12758245D01*
X12757551D01*
X12756510Y8993519D01*
X12754949Y8993346D01*
X12753214Y8993173D01*
X12751305Y8992826D01*
X12749050Y8992479D01*
X12746621Y8991958D01*
X12741417Y8990744D01*
X12736039Y8988835D01*
X12733263Y8987621D01*
X12730661Y8986233D01*
X12728232Y8984672D01*
X12725804Y8982937D01*
X12725630Y8982764D01*
X12725457Y8982590D01*
X12724416Y8981549D01*
X12723028Y8979988D01*
X12721293Y8977733D01*
X12719558Y8975130D01*
X12718170Y8972008D01*
X12717130Y8968365D01*
X12716956Y8966456D01*
X12716783Y8964548D01*
Y8963507D01*
X12716956Y8962119D01*
X12717303Y8960558D01*
X12717650Y8958650D01*
X12718344Y8956741D01*
X12719211Y8954660D01*
X12720426Y8952578D01*
X12720599Y8952404D01*
X12721120Y8951710D01*
X12722160Y8950496D01*
X12723548Y8949108D01*
X12725283Y8947373D01*
X12727538Y8945465D01*
X12730488Y8943210D01*
X12733784Y8940954D01*
X12731355Y8937138D01*
X12731182Y8937311D01*
X12730661Y8937485D01*
X12729794Y8938005D01*
X12728579Y8938699D01*
X12727191Y8939393D01*
X12725630Y8940434D01*
X12721814Y8942689D01*
X12717823Y8945465D01*
X12713833Y8948588D01*
X12710190Y8952057D01*
X12708455Y8953966D01*
X12707068Y8955874D01*
Y8956047D01*
X12706721Y8956394D01*
X12706374Y8956915D01*
X12706027Y8957609D01*
X12705506Y8958650D01*
X12704812Y8959690D01*
X12704118Y8961078D01*
X12703598Y8962640D01*
X12702210Y8965936D01*
X12700996Y8969926D01*
X12700302Y8974436D01*
X12699955Y8979294D01*
Y8980335D01*
X12700128Y8981549D01*
X12700302Y8983111D01*
X12700475Y8985019D01*
X12700822Y8987101D01*
X12701343Y8989529D01*
X12702210Y8992132D01*
X12703077Y8994907D01*
X12704292Y8997857D01*
X12705680Y9000632D01*
X12707415Y9003581D01*
X12709323Y9006357D01*
X12711752Y9009133D01*
X12714354Y9011735D01*
X12717476Y9013990D01*
X12717650Y9014164D01*
X12718170Y9014337D01*
X12718864Y9014858D01*
X12720079Y9015378D01*
X12721467Y9016072D01*
X12723028Y9016940D01*
X12725110Y9017807D01*
X12727191Y9018674D01*
X12729620Y9019542D01*
X12732396Y9020409D01*
X12735172Y9021103D01*
X12738294Y9021971D01*
X12741590Y9022491D01*
X12745234Y9023011D01*
X12748877Y9023185D01*
X12752693Y9023358D01*
X12753040D01*
X12753908D01*
X12755122Y9023185D01*
D02*
G37*
G36*
X12799360Y8927423D02*
X12799707Y8926902D01*
X12800227Y8926208D01*
X12800922Y8925341D01*
X12801788Y8924127D01*
X12802831Y8922739D01*
X12805432Y8919443D01*
X12808382Y8915800D01*
X12811852Y8911983D01*
X12815668Y8907993D01*
X12819656Y8904176D01*
X12819830Y8904003D01*
X12820178Y8903656D01*
X12820699Y8903135D01*
X12821565Y8902441D01*
X12822607Y8901574D01*
X12823820Y8900707D01*
X12825209Y8899492D01*
X12826770Y8898278D01*
X12830412Y8895676D01*
X12834576Y8892726D01*
X12839087Y8889777D01*
X12843945Y8887002D01*
Y8883358D01*
X12806126D01*
Y8858897D01*
X12795370D01*
Y8883358D01*
X12731529D01*
X12731355D01*
X12731182D01*
X12730141D01*
X12728579D01*
X12726844Y8883185D01*
X12724936D01*
X12723028Y8883011D01*
X12721293Y8882838D01*
X12720079Y8882664D01*
X12719905D01*
X12719732Y8882491D01*
X12718517Y8881971D01*
X12717303Y8881103D01*
X12715915Y8879715D01*
Y8879542D01*
X12715742Y8879368D01*
X12715221Y8878501D01*
X12714527Y8877287D01*
X12714354Y8875899D01*
Y8875552D01*
X12714527Y8874684D01*
X12714874Y8873296D01*
X12715742Y8871562D01*
X12716956Y8869480D01*
X12717997Y8868439D01*
X12719038Y8867225D01*
X12720252Y8866010D01*
X12721640Y8864969D01*
X12723375Y8863755D01*
X12725283Y8862541D01*
X12722854Y8859071D01*
X12722681Y8859244D01*
X12721987Y8859418D01*
X12720946Y8860112D01*
X12719558Y8860806D01*
X12717997Y8861847D01*
X12716089Y8862888D01*
X12714180Y8864449D01*
X12712272Y8866010D01*
X12710364Y8867919D01*
X12708455Y8870174D01*
X12706547Y8872429D01*
X12704986Y8875031D01*
X12703598Y8877980D01*
X12702557Y8881103D01*
X12701863Y8884399D01*
X12701690Y8888042D01*
Y8888910D01*
X12701863Y8889604D01*
X12702037Y8891512D01*
X12702384Y8893767D01*
X12703077Y8896370D01*
X12703945Y8899145D01*
X12705333Y8901921D01*
X12707068Y8904523D01*
X12707241Y8904870D01*
X12707935Y8905564D01*
X12709149Y8906778D01*
X12710537Y8908166D01*
X12712445Y8909554D01*
X12714527Y8911116D01*
X12716783Y8912330D01*
X12719211Y8913197D01*
X12719385D01*
X12720079Y8913371D01*
X12721293Y8913544D01*
X12722160D01*
X12723201Y8913718D01*
X12724416Y8913891D01*
X12725804D01*
X12727538Y8914065D01*
X12729447D01*
X12731529D01*
X12733957Y8914238D01*
X12736559D01*
X12739509D01*
X12795370D01*
Y8927596D01*
X12799186D01*
X12799360Y8927423D01*
D02*
G37*
%LPC*%
G36*
X10211132Y10990323D02*
X10209607D01*
X10208497Y10990184D01*
X10207111D01*
X10205446Y10990045D01*
X10203366Y10989907D01*
X10201147Y10989629D01*
Y10905725D01*
X10202118D01*
X10203089Y10905587D01*
X10204614D01*
X10206279Y10905448D01*
X10208220D01*
X10210300Y10905309D01*
X10213213D01*
X10214045Y10905448D01*
X10215293D01*
X10216680Y10905725D01*
X10218205Y10906003D01*
X10220008Y10906280D01*
X10221950Y10906835D01*
X10224030Y10907390D01*
X10226110Y10908222D01*
X10228329Y10909193D01*
X10230410Y10910302D01*
X10232629Y10911689D01*
X10234570Y10913353D01*
X10236650Y10915156D01*
X10238453Y10917236D01*
X10238592Y10917375D01*
X10238869Y10917791D01*
X10239285Y10918484D01*
X10239979Y10919455D01*
X10240672Y10920703D01*
X10241504Y10922229D01*
X10242336Y10923893D01*
X10243168Y10925973D01*
X10244001Y10928192D01*
X10244971Y10930689D01*
X10245665Y10933462D01*
X10246358Y10936513D01*
X10247052Y10939703D01*
X10247468Y10943170D01*
X10247745Y10946915D01*
X10247884Y10950798D01*
Y10950936D01*
Y10951214D01*
Y10951769D01*
Y10952462D01*
X10247745Y10953433D01*
X10247606Y10954404D01*
X10247468Y10955652D01*
X10247329Y10957039D01*
X10246774Y10959951D01*
X10245942Y10963279D01*
X10244833Y10966885D01*
X10243307Y10970630D01*
X10241366Y10974235D01*
X10238869Y10977841D01*
X10237482Y10979505D01*
X10235957Y10981170D01*
X10234293Y10982695D01*
X10232351Y10984221D01*
X10230410Y10985469D01*
X10228191Y10986717D01*
X10225833Y10987688D01*
X10223337Y10988658D01*
X10220563Y10989352D01*
X10217651Y10989907D01*
X10214461Y10990184D01*
X10211132Y10990323D01*
D02*
G37*
G36*
X9689542Y10972987D02*
X9674703Y10927499D01*
X9704381D01*
X9689542Y10972987D01*
D02*
G37*
G36*
X9698041Y4625986D02*
X9663231Y4578834D01*
X9698041D01*
Y4625986D01*
D02*
G37*
G36*
X9380038Y4646650D02*
X9368111D01*
Y4594505D01*
X9375046D01*
X9376155Y4594644D01*
X9377264D01*
X9379899Y4594782D01*
X9382950Y4595060D01*
X9385863Y4595476D01*
X9388775Y4596030D01*
X9390023Y4596308D01*
X9391272Y4596724D01*
X9391410D01*
X9391549Y4596863D01*
X9392242Y4597140D01*
X9393352Y4597695D01*
X9394739Y4598527D01*
X9396264Y4599636D01*
X9397928Y4601023D01*
X9399454Y4602687D01*
X9400841Y4604768D01*
X9400979Y4605045D01*
X9401395Y4605877D01*
X9401950Y4607125D01*
X9402644Y4608928D01*
X9403337Y4611008D01*
X9403892Y4613643D01*
X9404308Y4616694D01*
X9404447Y4620023D01*
Y4620161D01*
Y4620578D01*
Y4621271D01*
X9404308Y4622242D01*
Y4623351D01*
X9404169Y4624738D01*
X9403614Y4627650D01*
X9402921Y4630840D01*
X9401812Y4634307D01*
X9400147Y4637358D01*
X9399177Y4638884D01*
X9398067Y4640132D01*
X9397928Y4640271D01*
X9397790Y4640409D01*
X9397374Y4640687D01*
X9396819Y4641103D01*
X9396125Y4641657D01*
X9395293Y4642212D01*
X9394323Y4642767D01*
X9393074Y4643460D01*
X9391688Y4644015D01*
X9390162Y4644570D01*
X9388498Y4645125D01*
X9386695Y4645679D01*
X9384615Y4646095D01*
X9382396Y4646373D01*
X9380038Y4646650D01*
D02*
G37*
G36*
X12883994Y4882049D02*
Y4845852D01*
X12924767Y4863743D01*
X12883994Y4882049D01*
D02*
G37*
G36*
X13610648Y8807330D02*
X13609955D01*
X13609123Y8807192D01*
X13608012Y8806914D01*
X13606905Y8806498D01*
X13605518Y8805805D01*
X13604269Y8804973D01*
X13603021Y8803863D01*
X13602882Y8803725D01*
X13602466Y8803170D01*
X13601910Y8802338D01*
X13601357Y8800951D01*
X13600664Y8799148D01*
X13600247Y8798039D01*
X13599969Y8796790D01*
X13599554Y8795404D01*
X13599277Y8793878D01*
X13599138Y8792214D01*
X13598860Y8790411D01*
Y8790272D01*
Y8789995D01*
X13598721Y8789440D01*
Y8788608D01*
X13598582Y8787499D01*
Y8786389D01*
X13598444Y8784864D01*
Y8783199D01*
X13598306Y8781396D01*
X13598167Y8779316D01*
Y8776959D01*
X13598029Y8774462D01*
Y8771827D01*
X13597890Y8768915D01*
Y8765864D01*
Y8762674D01*
Y8762535D01*
Y8762258D01*
Y8761703D01*
Y8761010D01*
Y8760178D01*
Y8759207D01*
X13598029Y8756988D01*
X13598167Y8754214D01*
X13598306Y8751302D01*
X13598999Y8745061D01*
Y8744784D01*
X13599138Y8744090D01*
X13599416Y8742981D01*
X13599831Y8741594D01*
X13600386Y8739930D01*
X13601218Y8738404D01*
X13602049Y8736879D01*
X13603159Y8735492D01*
X13603297Y8735353D01*
X13603714Y8734937D01*
X13604408Y8734521D01*
X13605240Y8733967D01*
X13606349Y8733273D01*
X13607597Y8732857D01*
X13608846Y8732441D01*
X13610371Y8732302D01*
X13611064D01*
X13611758Y8732441D01*
X13612590Y8732580D01*
X13613699Y8732857D01*
X13614809Y8733134D01*
X13615918Y8733689D01*
X13616888Y8734383D01*
X13617027Y8734521D01*
X13617444Y8734937D01*
X13617999Y8735631D01*
X13618831Y8736602D01*
X13619524Y8737850D01*
X13620357Y8739237D01*
X13620911Y8740901D01*
X13621466Y8742842D01*
Y8742981D01*
X13621603Y8743258D01*
Y8743813D01*
X13621742Y8744507D01*
X13621883Y8745616D01*
X13622021Y8746864D01*
X13622159Y8748390D01*
X13622437Y8750193D01*
X13622575Y8752273D01*
X13622714Y8754769D01*
X13622853Y8757543D01*
X13622990Y8760594D01*
X13623129Y8764061D01*
Y8767944D01*
X13623270Y8772105D01*
Y8776681D01*
Y8776820D01*
Y8777375D01*
Y8778068D01*
Y8779178D01*
Y8780287D01*
X13623129Y8781674D01*
Y8784864D01*
X13622853Y8788331D01*
X13622575Y8791659D01*
X13622437Y8793323D01*
X13622159Y8794710D01*
X13621883Y8796097D01*
X13621603Y8797206D01*
X13621466Y8797484D01*
X13621327Y8798177D01*
X13620911Y8799148D01*
X13620357Y8800396D01*
X13619662Y8801644D01*
X13618831Y8803031D01*
X13617722Y8804279D01*
X13616612Y8805389D01*
X13616473Y8805527D01*
X13616196Y8805666D01*
X13615781Y8805944D01*
X13615086Y8806360D01*
X13614255Y8806776D01*
X13613145Y8807053D01*
X13612035Y8807192D01*
X13610648Y8807330D01*
D02*
G37*
G36*
X13359213Y8807746D02*
X13357411D01*
X13356441Y8807469D01*
X13355470Y8807192D01*
X13354222Y8806637D01*
X13352974Y8805805D01*
X13351724Y8804695D01*
X13350616Y8803170D01*
Y8803031D01*
X13350339Y8802754D01*
X13350200Y8802338D01*
X13349783Y8801783D01*
X13349368Y8800951D01*
X13348952Y8799980D01*
X13348537Y8798871D01*
X13348120Y8797484D01*
X13347565Y8796097D01*
X13347150Y8794433D01*
X13346733Y8792630D01*
X13346317Y8790827D01*
X13345901Y8788747D01*
X13345763Y8786528D01*
X13345485Y8784170D01*
Y8781674D01*
Y8778623D01*
X13369476D01*
Y8778761D01*
Y8779178D01*
Y8780010D01*
Y8780980D01*
Y8782090D01*
X13369337Y8783338D01*
Y8786389D01*
X13369061Y8789579D01*
X13368784Y8792769D01*
X13368645Y8794294D01*
X13368367Y8795681D01*
X13368089Y8796929D01*
X13367813Y8798039D01*
Y8798316D01*
X13367535Y8798871D01*
X13367119Y8799841D01*
X13366702Y8801090D01*
X13366010Y8802338D01*
X13365178Y8803725D01*
X13364207Y8804973D01*
X13363097Y8806082D01*
X13362959Y8806221D01*
X13362820Y8806360D01*
X13362265Y8806637D01*
X13361711Y8806914D01*
X13361017Y8807192D01*
X13360185Y8807469D01*
X13359213Y8807746D01*
D02*
G37*
G36*
X8857926Y6747195D02*
X8855568D01*
X8855429Y6700181D01*
X8857510D01*
X8858480Y6700320D01*
X8859729D01*
X8862502Y6700597D01*
X8865553Y6700874D01*
X8868604Y6701290D01*
X8871517Y6701984D01*
X8872765Y6702539D01*
X8874013Y6702955D01*
X8874152D01*
X8874290Y6703093D01*
X8874984Y6703509D01*
X8876093Y6704064D01*
X8877480Y6705035D01*
X8879006Y6706144D01*
X8880531Y6707531D01*
X8882057Y6709057D01*
X8883305Y6710860D01*
X8883443Y6711137D01*
X8883860Y6711830D01*
X8884276Y6712940D01*
X8884969Y6714465D01*
X8885524Y6716268D01*
X8885940Y6718487D01*
X8886356Y6721122D01*
X8886495Y6723896D01*
Y6724035D01*
Y6724312D01*
Y6724728D01*
Y6725283D01*
X8886356Y6726670D01*
X8886078Y6728472D01*
X8885662Y6730553D01*
X8885108Y6732633D01*
X8884414Y6734852D01*
X8883305Y6736793D01*
X8883166Y6737071D01*
X8882750Y6737626D01*
X8882057Y6738596D01*
X8880947Y6739706D01*
X8879699Y6740954D01*
X8878174Y6742202D01*
X8876371Y6743450D01*
X8874290Y6744560D01*
X8874013Y6744698D01*
X8873736Y6744837D01*
X8873181Y6744976D01*
X8872487Y6745115D01*
X8871794Y6745392D01*
X8870823Y6745669D01*
X8869714Y6745947D01*
X8868604Y6746085D01*
X8867217Y6746363D01*
X8865692Y6746640D01*
X8863889Y6746779D01*
X8862086Y6746917D01*
X8860145Y6747056D01*
X8857926Y6747195D01*
D02*
G37*
G36*
Y6693247D02*
X8855429D01*
Y6654831D01*
Y6650532D01*
Y6650393D01*
Y6649700D01*
X8855568Y6648868D01*
X8855707Y6647897D01*
X8855984Y6646788D01*
X8856400Y6645539D01*
X8856955Y6644430D01*
X8857787Y6643459D01*
X8857926Y6643320D01*
X8858203Y6643043D01*
X8858758Y6642766D01*
X8859590Y6642350D01*
X8860561Y6641795D01*
X8861809Y6641518D01*
X8863196Y6641240D01*
X8864860Y6641102D01*
X8866108D01*
X8867356Y6641240D01*
X8869020Y6641518D01*
X8870962Y6641795D01*
X8873181Y6642350D01*
X8875400Y6643182D01*
X8877619Y6644153D01*
X8877896Y6644291D01*
X8878590Y6644707D01*
X8879560Y6645401D01*
X8880947Y6646372D01*
X8882334Y6647758D01*
X8883860Y6649284D01*
X8885246Y6651087D01*
X8886495Y6653167D01*
Y6653306D01*
X8886633Y6653444D01*
X8887049Y6654277D01*
X8887465Y6655386D01*
X8888159Y6657050D01*
X8888713Y6658992D01*
X8889130Y6661211D01*
X8889546Y6663707D01*
X8889684Y6666342D01*
Y6666481D01*
Y6666758D01*
Y6667174D01*
Y6667729D01*
X8889546Y6669393D01*
X8889268Y6671335D01*
X8888852Y6673692D01*
X8888159Y6676189D01*
X8887327Y6678824D01*
X8886217Y6681320D01*
Y6681459D01*
X8886078Y6681597D01*
X8885524Y6682429D01*
X8884692Y6683539D01*
X8883582Y6684926D01*
X8882195Y6686451D01*
X8880392Y6688115D01*
X8878312Y6689502D01*
X8875816Y6690612D01*
X8875677D01*
X8875539Y6690750D01*
X8875122Y6690889D01*
X8874568Y6691028D01*
X8873874Y6691166D01*
X8872904Y6691444D01*
X8871933Y6691721D01*
X8870685Y6691999D01*
X8869436Y6692137D01*
X8867911Y6692415D01*
X8866247Y6692692D01*
X8864305Y6692831D01*
X8862364Y6692969D01*
X8860145Y6693108D01*
X8857926Y6693247D01*
D02*
G37*
G36*
X8476545Y6746917D02*
X8470859D01*
Y6695327D01*
X8471275D01*
X8471829Y6695188D01*
X8472384D01*
X8473910Y6695050D01*
X8476267D01*
X8476961Y6695188D01*
X8477793D01*
X8478902Y6695327D01*
X8481260Y6695882D01*
X8484034Y6696575D01*
X8486807Y6697685D01*
X8489442Y6699349D01*
X8490690Y6700320D01*
X8491800Y6701429D01*
X8491939Y6701568D01*
X8492077Y6701706D01*
X8492355Y6702122D01*
X8492771Y6702677D01*
X8493187Y6703371D01*
X8493603Y6704203D01*
X8494158Y6705174D01*
X8494712Y6706283D01*
X8495267Y6707670D01*
X8495822Y6709057D01*
X8496238Y6710721D01*
X8496654Y6712524D01*
X8497070Y6714465D01*
X8497347Y6716546D01*
X8497625Y6718765D01*
Y6721261D01*
Y6721400D01*
Y6721816D01*
Y6722509D01*
X8497486Y6723480D01*
Y6724589D01*
X8497347Y6725837D01*
X8496931Y6728750D01*
X8496238Y6731801D01*
X8495128Y6735129D01*
X8493741Y6738042D01*
X8492771Y6739428D01*
X8491800Y6740677D01*
Y6740815D01*
X8491523Y6740954D01*
X8490690Y6741647D01*
X8489304Y6742618D01*
X8487501Y6743866D01*
X8485004Y6744976D01*
X8482092Y6745947D01*
X8478486Y6746640D01*
X8476545Y6746917D01*
D02*
G37*
G36*
X8577507Y6713079D02*
X8576813D01*
X8575981Y6712940D01*
X8574872Y6712662D01*
X8573762Y6712246D01*
X8572375Y6711553D01*
X8571127Y6710721D01*
X8569879Y6709611D01*
X8569740Y6709473D01*
X8569324Y6708918D01*
X8568770Y6708086D01*
X8568215Y6706699D01*
X8567521Y6704896D01*
X8567105Y6703787D01*
X8566828Y6702539D01*
X8566412Y6701152D01*
X8566135Y6699626D01*
X8565996Y6697962D01*
X8565718Y6696159D01*
Y6696020D01*
Y6695743D01*
X8565580Y6695188D01*
Y6694356D01*
X8565441Y6693247D01*
Y6692137D01*
X8565302Y6690612D01*
Y6688948D01*
X8565164Y6687145D01*
X8565025Y6685064D01*
Y6682707D01*
X8564886Y6680210D01*
Y6677575D01*
X8564748Y6674663D01*
Y6671612D01*
Y6668422D01*
Y6668284D01*
Y6668006D01*
Y6667451D01*
Y6666758D01*
Y6665926D01*
Y6664955D01*
X8564886Y6662736D01*
X8565025Y6659963D01*
X8565164Y6657050D01*
X8565857Y6650809D01*
Y6650532D01*
X8565996Y6649839D01*
X8566273Y6648729D01*
X8566689Y6647342D01*
X8567244Y6645678D01*
X8568076Y6644153D01*
X8568908Y6642627D01*
X8570018Y6641240D01*
X8570156Y6641102D01*
X8570572Y6640685D01*
X8571266Y6640269D01*
X8572098Y6639715D01*
X8573207Y6639021D01*
X8574456Y6638605D01*
X8575704Y6638189D01*
X8577229Y6638050D01*
X8577923D01*
X8578616Y6638189D01*
X8579448Y6638328D01*
X8580558Y6638605D01*
X8581667Y6638883D01*
X8582777Y6639437D01*
X8583747Y6640131D01*
X8583886Y6640269D01*
X8584302Y6640685D01*
X8584857Y6641379D01*
X8585689Y6642350D01*
X8586382Y6643598D01*
X8587214Y6644985D01*
X8587769Y6646649D01*
X8588324Y6648590D01*
Y6648729D01*
X8588463Y6649007D01*
Y6649561D01*
X8588601Y6650255D01*
X8588740Y6651364D01*
X8588879Y6652612D01*
X8589017Y6654138D01*
X8589295Y6655941D01*
X8589433Y6658021D01*
X8589572Y6660517D01*
X8589711Y6663291D01*
X8589849Y6666342D01*
X8589988Y6669809D01*
Y6673692D01*
X8590127Y6677853D01*
Y6682429D01*
Y6682568D01*
Y6683123D01*
Y6683816D01*
Y6684926D01*
Y6686035D01*
X8589988Y6687422D01*
Y6690612D01*
X8589711Y6694079D01*
X8589433Y6697407D01*
X8589295Y6699071D01*
X8589017Y6700458D01*
X8588740Y6701845D01*
X8588463Y6702955D01*
X8588324Y6703232D01*
X8588185Y6703925D01*
X8587769Y6704896D01*
X8587214Y6706144D01*
X8586521Y6707392D01*
X8585689Y6708779D01*
X8584579Y6710027D01*
X8583470Y6711137D01*
X8583331Y6711276D01*
X8583054Y6711414D01*
X8582638Y6711692D01*
X8581944Y6712108D01*
X8581112Y6712524D01*
X8580003Y6712801D01*
X8578893Y6712940D01*
X8577507Y6713079D01*
D02*
G37*
G36*
X13591698Y6968465D02*
X13573392Y6927692D01*
X13609587D01*
X13591698Y6968465D01*
D02*
G37*
G36*
X13206572Y6999669D02*
X13200887D01*
Y6948079D01*
X13201302D01*
X13201857Y6947940D01*
X13202411D01*
X13203937Y6947801D01*
X13206294D01*
X13206989Y6947940D01*
X13207820D01*
X13208929Y6948079D01*
X13211287Y6948634D01*
X13214061Y6949327D01*
X13216833Y6950436D01*
X13219469Y6952101D01*
X13220718Y6953071D01*
X13221828Y6954181D01*
X13221967Y6954320D01*
X13222104Y6954458D01*
X13222382Y6954874D01*
X13222798Y6955429D01*
X13223215Y6956122D01*
X13223630Y6956955D01*
X13224185Y6957925D01*
X13224739Y6959035D01*
X13225294Y6960422D01*
X13225848Y6961809D01*
X13226265Y6963473D01*
X13226682Y6965276D01*
X13227097Y6967217D01*
X13227374Y6969297D01*
X13227652Y6971516D01*
Y6974013D01*
Y6974151D01*
Y6974567D01*
Y6975261D01*
X13227513Y6976232D01*
Y6977341D01*
X13227374Y6978589D01*
X13226958Y6981502D01*
X13226265Y6984553D01*
X13225156Y6987881D01*
X13223769Y6990793D01*
X13222798Y6992180D01*
X13221828Y6993428D01*
Y6993567D01*
X13221550Y6993706D01*
X13220718Y6994399D01*
X13219331Y6995370D01*
X13217528Y6996618D01*
X13215031Y6997728D01*
X13212119Y6998698D01*
X13208513Y6999392D01*
X13206572Y6999669D01*
D02*
G37*
G36*
X13307533Y6965830D02*
X13306841D01*
X13306007Y6965692D01*
X13304900Y6965414D01*
X13303789Y6964998D01*
X13302402Y6964305D01*
X13301154Y6963473D01*
X13299905Y6962363D01*
X13299767Y6962225D01*
X13299352Y6961670D01*
X13298798Y6960838D01*
X13298242Y6959451D01*
X13297548Y6957648D01*
X13297131Y6956539D01*
X13296855Y6955290D01*
X13296439Y6953904D01*
X13296162Y6952378D01*
X13296024Y6950714D01*
X13295746Y6948911D01*
Y6948772D01*
Y6948495D01*
X13295607Y6947940D01*
Y6947108D01*
X13295468Y6945999D01*
Y6944889D01*
X13295329Y6943364D01*
Y6941699D01*
X13295190Y6939896D01*
X13295052Y6937816D01*
Y6935459D01*
X13294913Y6932962D01*
Y6930327D01*
X13294775Y6927415D01*
Y6924364D01*
Y6921174D01*
Y6921035D01*
Y6920758D01*
Y6920203D01*
Y6919510D01*
Y6918678D01*
Y6917707D01*
X13294913Y6915488D01*
X13295052Y6912714D01*
X13295190Y6909802D01*
X13295885Y6903561D01*
Y6903284D01*
X13296024Y6902590D01*
X13296300Y6901481D01*
X13296716Y6900094D01*
X13297272Y6898430D01*
X13298103Y6896904D01*
X13298935Y6895379D01*
X13300044Y6893992D01*
X13300183Y6893853D01*
X13300600Y6893437D01*
X13301292Y6893021D01*
X13302126Y6892467D01*
X13303235Y6891773D01*
X13304483Y6891357D01*
X13305731Y6890941D01*
X13307256Y6890802D01*
X13307950D01*
X13308643Y6890941D01*
X13309476Y6891080D01*
X13310585Y6891357D01*
X13311694Y6891634D01*
X13312804Y6892189D01*
X13313774Y6892883D01*
X13313913Y6893021D01*
X13314330Y6893437D01*
X13314883Y6894131D01*
X13315717Y6895102D01*
X13316409Y6896350D01*
X13317242Y6897737D01*
X13317796Y6899401D01*
X13318352Y6901342D01*
Y6901481D01*
X13318491Y6901758D01*
Y6902313D01*
X13318628Y6903007D01*
X13318767Y6904116D01*
X13318906Y6905364D01*
X13319044Y6906890D01*
X13319322Y6908693D01*
X13319461Y6910773D01*
X13319598Y6913269D01*
X13319737Y6916043D01*
X13319878Y6919094D01*
X13320015Y6922561D01*
Y6926444D01*
X13320154Y6930605D01*
Y6935181D01*
Y6935320D01*
Y6935875D01*
Y6936568D01*
Y6937678D01*
Y6938787D01*
X13320015Y6940174D01*
Y6943364D01*
X13319737Y6946831D01*
X13319461Y6950159D01*
X13319322Y6951823D01*
X13319044Y6953210D01*
X13318767Y6954597D01*
X13318491Y6955706D01*
X13318352Y6955984D01*
X13318211Y6956677D01*
X13317796Y6957648D01*
X13317242Y6958896D01*
X13316548Y6960144D01*
X13315717Y6961531D01*
X13314607Y6962779D01*
X13313496Y6963889D01*
X13313358Y6964027D01*
X13313081Y6964166D01*
X13312665Y6964444D01*
X13311972Y6964860D01*
X13311139Y6965276D01*
X13310030Y6965553D01*
X13308920Y6965692D01*
X13307533Y6965830D01*
D02*
G37*
G36*
X8473286Y9145969D02*
X8467600D01*
Y9094379D01*
X8468016D01*
X8468570Y9094240D01*
X8469125D01*
X8470651Y9094101D01*
X8473008D01*
X8473702Y9094240D01*
X8474534D01*
X8475643Y9094379D01*
X8478001Y9094934D01*
X8480775Y9095627D01*
X8483548Y9096736D01*
X8486183Y9098401D01*
X8487431Y9099371D01*
X8488541Y9100481D01*
X8488679Y9100620D01*
X8488818Y9100758D01*
X8489096Y9101174D01*
X8489512Y9101729D01*
X8489928Y9102422D01*
X8490344Y9103255D01*
X8490898Y9104225D01*
X8491453Y9105335D01*
X8492008Y9106722D01*
X8492563Y9108109D01*
X8492979Y9109773D01*
X8493395Y9111576D01*
X8493811Y9113517D01*
X8494088Y9115597D01*
X8494366Y9117816D01*
Y9120313D01*
Y9120451D01*
Y9120867D01*
Y9121561D01*
X8494227Y9122532D01*
Y9123641D01*
X8494088Y9124889D01*
X8493672Y9127802D01*
X8492979Y9130853D01*
X8491869Y9134181D01*
X8490482Y9137093D01*
X8489512Y9138480D01*
X8488541Y9139728D01*
Y9139867D01*
X8488263Y9140006D01*
X8487431Y9140699D01*
X8486044Y9141670D01*
X8484242Y9142918D01*
X8481745Y9144028D01*
X8478833Y9144998D01*
X8475227Y9145692D01*
X8473286Y9145969D01*
D02*
G37*
G36*
X8574248Y9112130D02*
X8573554D01*
X8572722Y9111992D01*
X8571613Y9111714D01*
X8570503Y9111298D01*
X8569116Y9110605D01*
X8567868Y9109773D01*
X8566620Y9108663D01*
X8566481Y9108525D01*
X8566065Y9107970D01*
X8565510Y9107138D01*
X8564956Y9105751D01*
X8564262Y9103948D01*
X8563846Y9102839D01*
X8563569Y9101590D01*
X8563153Y9100204D01*
X8562875Y9098678D01*
X8562737Y9097014D01*
X8562459Y9095211D01*
Y9095072D01*
Y9094795D01*
X8562321Y9094240D01*
Y9093408D01*
X8562182Y9092299D01*
Y9091189D01*
X8562043Y9089664D01*
Y9087999D01*
X8561905Y9086196D01*
X8561766Y9084116D01*
Y9081759D01*
X8561627Y9079262D01*
Y9076627D01*
X8561489Y9073715D01*
Y9070664D01*
Y9067474D01*
Y9067335D01*
Y9067058D01*
Y9066503D01*
Y9065810D01*
Y9064978D01*
Y9064007D01*
X8561627Y9061788D01*
X8561766Y9059014D01*
X8561905Y9056102D01*
X8562598Y9049861D01*
Y9049584D01*
X8562737Y9048890D01*
X8563014Y9047781D01*
X8563430Y9046394D01*
X8563985Y9044730D01*
X8564817Y9043204D01*
X8565649Y9041679D01*
X8566759Y9040292D01*
X8566897Y9040153D01*
X8567313Y9039737D01*
X8568007Y9039321D01*
X8568839Y9038767D01*
X8569948Y9038073D01*
X8571196Y9037657D01*
X8572445Y9037241D01*
X8573970Y9037102D01*
X8574664D01*
X8575357Y9037241D01*
X8576189Y9037380D01*
X8577299Y9037657D01*
X8578408Y9037934D01*
X8579518Y9038489D01*
X8580488Y9039183D01*
X8580627Y9039321D01*
X8581043Y9039737D01*
X8581598Y9040431D01*
X8582430Y9041402D01*
X8583123Y9042650D01*
X8583955Y9044037D01*
X8584510Y9045701D01*
X8585065Y9047642D01*
Y9047781D01*
X8585204Y9048058D01*
Y9048613D01*
X8585342Y9049307D01*
X8585481Y9050416D01*
X8585620Y9051664D01*
X8585758Y9053190D01*
X8586036Y9054993D01*
X8586174Y9057073D01*
X8586313Y9059569D01*
X8586452Y9062343D01*
X8586590Y9065394D01*
X8586729Y9068861D01*
Y9072744D01*
X8586868Y9076905D01*
Y9081481D01*
Y9081620D01*
Y9082175D01*
Y9082868D01*
Y9083978D01*
Y9085087D01*
X8586729Y9086474D01*
Y9089664D01*
X8586452Y9093131D01*
X8586174Y9096459D01*
X8586036Y9098123D01*
X8585758Y9099510D01*
X8585481Y9100897D01*
X8585204Y9102006D01*
X8585065Y9102284D01*
X8584926Y9102977D01*
X8584510Y9103948D01*
X8583955Y9105196D01*
X8583262Y9106444D01*
X8582430Y9107831D01*
X8581320Y9109079D01*
X8580211Y9110189D01*
X8580072Y9110327D01*
X8579795Y9110466D01*
X8579379Y9110744D01*
X8578685Y9111160D01*
X8577853Y9111576D01*
X8576744Y9111853D01*
X8575634Y9111992D01*
X8574248Y9112130D01*
D02*
G37*
G36*
X12844118Y9322615D02*
X12778889D01*
Y9313941D01*
X12779063Y9312553D01*
Y9311165D01*
X12779236Y9307869D01*
X12779583Y9304052D01*
X12780103Y9300409D01*
X12780797Y9296766D01*
X12781144Y9295205D01*
X12781665Y9293643D01*
Y9293470D01*
X12781838Y9293296D01*
X12782185Y9292429D01*
X12782879Y9291041D01*
X12783920Y9289306D01*
X12785308Y9287398D01*
X12787043Y9285316D01*
X12789125Y9283408D01*
X12791727Y9281673D01*
X12792074Y9281500D01*
X12793115Y9280979D01*
X12794676Y9280285D01*
X12796931Y9279418D01*
X12799533Y9278550D01*
X12802831Y9277856D01*
X12806647Y9277336D01*
X12810809Y9277163D01*
X12810983D01*
X12811504D01*
X12812370D01*
X12813585Y9277336D01*
X12814973D01*
X12816708Y9277510D01*
X12820351Y9278203D01*
X12824341Y9279071D01*
X12828677Y9280459D01*
X12832495Y9282540D01*
X12834402Y9283755D01*
X12835965Y9285143D01*
X12836137Y9285316D01*
X12836311Y9285490D01*
X12836659Y9286010D01*
X12837180Y9286704D01*
X12837872Y9287571D01*
X12838567Y9288612D01*
X12839261Y9289827D01*
X12840128Y9291388D01*
X12840822Y9293123D01*
X12841516Y9295031D01*
X12842210Y9297113D01*
X12842905Y9299368D01*
X12843423Y9301970D01*
X12843771Y9304746D01*
X12844118Y9307695D01*
Y9322615D01*
D02*
G37*
G36*
X12772470Y9182094D02*
X12769348D01*
X12765531D01*
Y9152082D01*
X12765704D01*
X12766225D01*
X12767266D01*
X12768480D01*
X12769868D01*
X12771429Y9152256D01*
X12775246D01*
X12779236Y9152602D01*
X12783226Y9152949D01*
X12785134Y9153123D01*
X12786869Y9153470D01*
X12788431Y9153817D01*
X12789818Y9154164D01*
X12790165D01*
X12790859Y9154511D01*
X12792074Y9155031D01*
X12793635Y9155552D01*
X12795196Y9156419D01*
X12796931Y9157460D01*
X12798493Y9158674D01*
X12799880Y9160062D01*
X12800053Y9160236D01*
X12800227Y9160409D01*
X12800574Y9161103D01*
X12800922Y9161797D01*
X12801268Y9162664D01*
X12801614Y9163705D01*
X12801962Y9164920D01*
Y9167175D01*
X12801614Y9168389D01*
X12801268Y9169604D01*
X12800574Y9171165D01*
X12799533Y9172726D01*
X12798146Y9174288D01*
X12796237Y9175676D01*
X12796064D01*
X12795717Y9176023D01*
X12795196Y9176196D01*
X12794502Y9176716D01*
X12793462Y9177237D01*
X12792247Y9177757D01*
X12790859Y9178278D01*
X12789125Y9178798D01*
X12787390Y9179492D01*
X12785308Y9180013D01*
X12783053Y9180533D01*
X12780797Y9181054D01*
X12778195Y9181574D01*
X12775419Y9181747D01*
X12772470Y9182094D01*
D02*
G37*
G36*
Y8994213D02*
X12769348D01*
X12765531D01*
Y8964201D01*
X12765704D01*
X12766225D01*
X12767266D01*
X12768480D01*
X12769868D01*
X12771429Y8964375D01*
X12775246D01*
X12779236Y8964721D01*
X12783226Y8965068D01*
X12785134Y8965242D01*
X12786869Y8965589D01*
X12788431Y8965936D01*
X12789818Y8966283D01*
X12790165D01*
X12790859Y8966630D01*
X12792074Y8967150D01*
X12793635Y8967671D01*
X12795196Y8968538D01*
X12796931Y8969579D01*
X12798493Y8970793D01*
X12799880Y8972181D01*
X12800053Y8972355D01*
X12800227Y8972528D01*
X12800574Y8973222D01*
X12800922Y8973916D01*
X12801268Y8974783D01*
X12801614Y8975824D01*
X12801962Y8977039D01*
Y8979294D01*
X12801614Y8980508D01*
X12801268Y8981723D01*
X12800574Y8983284D01*
X12799533Y8984845D01*
X12798146Y8986407D01*
X12796237Y8987795D01*
X12796064D01*
X12795717Y8988142D01*
X12795196Y8988315D01*
X12794502Y8988835D01*
X12793462Y8989356D01*
X12792247Y8989876D01*
X12790859Y8990397D01*
X12789125Y8990917D01*
X12787390Y8991611D01*
X12785308Y8992132D01*
X12783053Y8992652D01*
X12780797Y8993173D01*
X12778195Y8993693D01*
X12775419Y8993866D01*
X12772470Y8994213D01*
D02*
G37*
%LPD*%
D44*
X9359875Y9169461D02*
X9207524D01*
Y9245637D01*
X9232916Y9271029D01*
X9283700D01*
X9309092Y9245637D01*
Y9169461D01*
Y9220245D02*
X9359875Y9271029D01*
Y9321812D02*
Y9372596D01*
Y9347204D01*
X9207524D01*
X9232916Y9321812D01*
Y9448771D02*
X9207524Y9474163D01*
Y9524946D01*
X9232916Y9550338D01*
X9258308D01*
X9283700Y9524946D01*
X9309092Y9550338D01*
X9334483D01*
X9359875Y9524946D01*
Y9474163D01*
X9334483Y9448771D01*
X9309092D01*
X9283700Y9474163D01*
X9258308Y9448771D01*
X9232916D01*
X9283700Y9474163D02*
Y9524946D01*
X8960182Y10102685D02*
Y10255035D01*
X9036357D01*
X9061749Y10229643D01*
Y10178860D01*
X9036357Y10153468D01*
X8960182D01*
X9010965D02*
X9061749Y10102685D01*
X9112532D02*
X9163316D01*
X9137924D01*
Y10255035D01*
X9112532Y10229643D01*
X9239491Y10255035D02*
X9341059D01*
Y10229643D01*
X9239491Y10128077D01*
Y10102685D01*
X9385362Y10121925D02*
Y10274275D01*
X9461537D01*
X9486929Y10248883D01*
Y10198100D01*
X9461537Y10172708D01*
X9385362D01*
X9436145D02*
X9486929Y10121925D01*
X9537712D02*
X9588496D01*
X9563104D01*
Y10274275D01*
X9537712Y10248883D01*
X9766239Y10274275D02*
X9715455Y10248883D01*
X9664671Y10198100D01*
Y10147317D01*
X9690063Y10121925D01*
X9740847D01*
X9766239Y10147317D01*
Y10172708D01*
X9740847Y10198100D01*
X9664671D01*
X9842562Y10096525D02*
Y10248875D01*
X9918737D01*
X9944129Y10223483D01*
Y10172700D01*
X9918737Y10147308D01*
X9842562D01*
X9893345D02*
X9944129Y10096525D01*
X9994912D02*
X10045696D01*
X10020304D01*
Y10248875D01*
X9994912Y10223483D01*
X10223439Y10248875D02*
X10121871D01*
Y10172700D01*
X10172655Y10198092D01*
X10198047D01*
X10223439Y10172700D01*
Y10121917D01*
X10198047Y10096525D01*
X10147263D01*
X10121871Y10121917D01*
X10299762Y10096525D02*
Y10248875D01*
X10375937D01*
X10401329Y10223483D01*
Y10172700D01*
X10375937Y10147308D01*
X10299762D01*
X10350545D02*
X10401329Y10096525D01*
X10452112D02*
X10502896D01*
X10477504D01*
Y10248875D01*
X10452112Y10223483D01*
X10655247Y10096525D02*
Y10248875D01*
X10579071Y10172700D01*
X10680639D01*
X12791440Y7493000D02*
Y7645351D01*
X12867615D01*
X12893007Y7619959D01*
Y7569175D01*
X12867615Y7543783D01*
X12791440D01*
X12842223D02*
X12893007Y7493000D01*
X12943791D02*
X12994574D01*
X12969183D01*
Y7645351D01*
X12943791Y7619959D01*
X13070750D02*
X13096141Y7645351D01*
X13146925D01*
X13172318Y7619959D01*
Y7594567D01*
X13146925Y7569175D01*
X13121533D01*
X13146925D01*
X13172318Y7543783D01*
Y7518392D01*
X13146925Y7493000D01*
X13096141D01*
X13070750Y7518392D01*
X12402820Y7655511D02*
Y7503160D01*
X12504387D01*
X12555171Y7630119D02*
X12580563Y7655511D01*
X12631346D01*
X12656738Y7630119D01*
Y7604727D01*
X12631346Y7579335D01*
X12605954D01*
X12631346D01*
X12656738Y7553943D01*
Y7528552D01*
X12631346Y7503160D01*
X12580563D01*
X12555171Y7528552D01*
X10845833Y10198083D02*
X10820441Y10223475D01*
X10769658D01*
X10744266Y10198083D01*
Y10096517D01*
X10769658Y10071125D01*
X10820441D01*
X10845833Y10096517D01*
X10998184Y10071125D02*
X10896617D01*
X10998184Y10172692D01*
Y10198083D01*
X10972792Y10223475D01*
X10922008D01*
X10896617Y10198083D01*
X11150534Y10071125D02*
X11048967D01*
X11150534Y10172692D01*
Y10198083D01*
X11125143Y10223475D01*
X11074359D01*
X11048967Y10198083D01*
X10090134Y9448771D02*
X10115526Y9474163D01*
Y9524946D01*
X10090134Y9550338D01*
X9988567D01*
X9963175Y9524946D01*
Y9474163D01*
X9988567Y9448771D01*
X9963175Y9397987D02*
Y9347204D01*
Y9372595D01*
X10115526D01*
X10090134Y9397987D01*
Y9271028D02*
X10115526Y9245637D01*
Y9194853D01*
X10090134Y9169461D01*
X9988567D01*
X9963175Y9194853D01*
Y9245637D01*
X9988567Y9271028D01*
X10090134D01*
X11671341Y5168925D02*
Y5321275D01*
X11747517D01*
X11772908Y5295883D01*
Y5245100D01*
X11747517Y5219708D01*
X11671341D01*
X11722125D02*
X11772908Y5168925D01*
X11823692Y5321275D02*
X11925259D01*
Y5295883D01*
X11823692Y5194317D01*
Y5168925D01*
X11709441Y3898925D02*
Y4051275D01*
X11785617D01*
X11811008Y4025883D01*
Y3975100D01*
X11785617Y3949708D01*
X11709441D01*
X11760225D02*
X11811008Y3898925D01*
X11963359Y4051275D02*
X11912575Y4025883D01*
X11861792Y3975100D01*
Y3924317D01*
X11887184Y3898925D01*
X11937967D01*
X11963359Y3924317D01*
Y3949708D01*
X11937967Y3975100D01*
X11861792D01*
X11760175Y4483141D02*
X11607825D01*
Y4559317D01*
X11633217Y4584708D01*
X11684000D01*
X11709392Y4559317D01*
Y4483141D01*
Y4533925D02*
X11760175Y4584708D01*
X11607825Y4737059D02*
Y4635492D01*
X11684000D01*
X11658608Y4686275D01*
Y4711667D01*
X11684000Y4737059D01*
X11734783D01*
X11760175Y4711667D01*
Y4660884D01*
X11734783Y4635492D01*
X12446025Y5968959D02*
X12598375D01*
Y5892783D01*
X12572983Y5867392D01*
X12522200D01*
X12496808Y5892783D01*
Y5968959D01*
Y5918175D02*
X12446025Y5867392D01*
Y5740433D02*
X12598375D01*
X12522200Y5816608D01*
Y5715041D01*
X11121990Y4838729D02*
X11096599Y4813337D01*
Y4762553D01*
X11121990Y4737161D01*
X11223557D01*
X11248949Y4762553D01*
Y4813337D01*
X11223557Y4838729D01*
X11248949Y4889512D02*
Y4940296D01*
Y4914904D01*
X11096599D01*
X11121990Y4889512D01*
Y5016471D02*
X11096599Y5041863D01*
Y5092646D01*
X11121990Y5118038D01*
X11147382D01*
X11172774Y5092646D01*
Y5067255D01*
Y5092646D01*
X11198166Y5118038D01*
X11223557D01*
X11248949Y5092646D01*
Y5041863D01*
X11223557Y5016471D01*
X11119025Y4200609D02*
X11093633Y4175217D01*
Y4124434D01*
X11119025Y4099042D01*
X11220592D01*
X11245984Y4124434D01*
Y4175217D01*
X11220592Y4200609D01*
X11245984Y4251393D02*
Y4302176D01*
Y4276784D01*
X11093633D01*
X11119025Y4251393D01*
X11245984Y4479919D02*
Y4378351D01*
X11144416Y4479919D01*
X11119025D01*
X11093633Y4454527D01*
Y4403743D01*
X11119025Y4378351D01*
X11671354Y8534425D02*
Y8686775D01*
X11747529D01*
X11772921Y8661383D01*
Y8610600D01*
X11747529Y8585208D01*
X11671354D01*
X11722137D02*
X11772921Y8534425D01*
X11823704D02*
X11874488D01*
X11849096D01*
Y8686775D01*
X11823704Y8661383D01*
X11950663Y8534425D02*
X12001447D01*
X11976055D01*
Y8686775D01*
X11950663Y8661383D01*
X11544362Y8001025D02*
Y8153375D01*
X11620537D01*
X11645929Y8127983D01*
Y8077200D01*
X11620537Y8051808D01*
X11544362D01*
X11595145D02*
X11645929Y8001025D01*
X11696712D02*
X11747496D01*
X11722104D01*
Y8153375D01*
X11696712Y8127983D01*
X11823671D02*
X11849063Y8153375D01*
X11899847D01*
X11925239Y8127983D01*
Y8026417D01*
X11899847Y8001025D01*
X11849063D01*
X11823671Y8026417D01*
Y8127983D01*
X12077741Y7988325D02*
Y8140675D01*
X12153917D01*
X12179308Y8115283D01*
Y8064500D01*
X12153917Y8039108D01*
X12077741D01*
X12128525D02*
X12179308Y7988325D01*
X12230092Y8013717D02*
X12255484Y7988325D01*
X12306267D01*
X12331659Y8013717D01*
Y8115283D01*
X12306267Y8140675D01*
X12255484D01*
X12230092Y8115283D01*
Y8089892D01*
X12255484Y8064500D01*
X12331659D01*
X11214133Y9296375D02*
Y9144025D01*
X11315700D01*
X11366484D02*
X11417267D01*
X11391876D01*
Y9296375D01*
X11366484Y9270983D01*
X11379229Y8356583D02*
X11353837Y8381975D01*
X11303054D01*
X11277662Y8356583D01*
Y8255017D01*
X11303054Y8229625D01*
X11353837D01*
X11379229Y8255017D01*
X11430012Y8229625D02*
X11480796D01*
X11455404D01*
Y8381975D01*
X11430012Y8356583D01*
X11556971Y8381975D02*
X11658539D01*
Y8356583D01*
X11556971Y8255017D01*
Y8229625D01*
X10896629Y8343883D02*
X10871237Y8369275D01*
X10820454D01*
X10795062Y8343883D01*
Y8242317D01*
X10820454Y8216925D01*
X10871237D01*
X10896629Y8242317D01*
X10947412Y8216925D02*
X10998196D01*
X10972804D01*
Y8369275D01*
X10947412Y8343883D01*
X11175939Y8369275D02*
X11125155Y8343883D01*
X11074371Y8293100D01*
Y8242317D01*
X11099763Y8216925D01*
X11150547D01*
X11175939Y8242317D01*
Y8267708D01*
X11150547Y8293100D01*
X11074371D01*
X9982221Y5029183D02*
X9956829Y5054575D01*
X9906045D01*
X9880654Y5029183D01*
Y4927617D01*
X9906045Y4902225D01*
X9956829D01*
X9982221Y4927617D01*
X10033004Y4902225D02*
X10083788D01*
X10058396D01*
Y5054575D01*
X10033004Y5029183D01*
X10159963Y4902225D02*
X10210747D01*
X10185355D01*
Y5054575D01*
X10159963Y5029183D01*
X9537708Y6083283D02*
X9512317Y6108675D01*
X9461533D01*
X9436141Y6083283D01*
Y5981717D01*
X9461533Y5956325D01*
X9512317D01*
X9537708Y5981717D01*
X9588492D02*
X9613884Y5956325D01*
X9664667D01*
X9690059Y5981717D01*
Y6083283D01*
X9664667Y6108675D01*
X9613884D01*
X9588492Y6083283D01*
Y6057892D01*
X9613884Y6032500D01*
X9690059D01*
X10375568Y6038143D02*
X10350176Y6063535D01*
X10299393D01*
X10274001Y6038143D01*
Y5936576D01*
X10299393Y5911185D01*
X10350176D01*
X10375568Y5936576D01*
X10426352Y6038143D02*
X10451744Y6063535D01*
X10502527D01*
X10527919Y6038143D01*
Y6012752D01*
X10502527Y5987360D01*
X10527919Y5961968D01*
Y5936576D01*
X10502527Y5911185D01*
X10451744D01*
X10426352Y5936576D01*
Y5961968D01*
X10451744Y5987360D01*
X10426352Y6012752D01*
Y6038143D01*
X10451744Y5987360D02*
X10502527D01*
X9156733Y9029675D02*
Y9004283D01*
X9207517Y8953500D01*
X9258300Y9004283D01*
Y9029675D01*
X9207517Y8953500D02*
Y8877325D01*
X9309084D02*
X9359867D01*
X9334476D01*
Y9029675D01*
X9309084Y9004283D01*
X9296860Y7665671D02*
X9398427Y7513320D01*
Y7665671D02*
X9296860Y7513320D01*
X9449211D02*
X9499994D01*
X9474603D01*
Y7665671D01*
X9449211Y7640279D01*
X10804308Y9547138D02*
X10956659D01*
Y9470963D01*
X10931267Y9445571D01*
X10880483D01*
X10855091Y9470963D01*
Y9547138D01*
Y9496354D02*
X10804308Y9445571D01*
Y9394787D02*
Y9344004D01*
Y9369395D01*
X10956659D01*
X10931267Y9394787D01*
X10804308Y9166261D02*
Y9267828D01*
X10905875Y9166261D01*
X10931267D01*
X10956659Y9191653D01*
Y9242436D01*
X10931267Y9267828D01*
X10309189Y8667704D02*
Y8820055D01*
X10385364D01*
X10410756Y8794663D01*
Y8743880D01*
X10385364Y8718488D01*
X10309189D01*
X10359972D02*
X10410756Y8667704D01*
X10461540Y8794663D02*
X10486932Y8820055D01*
X10537715D01*
X10563107Y8794663D01*
Y8769272D01*
X10537715Y8743880D01*
X10563107Y8718488D01*
Y8693096D01*
X10537715Y8667704D01*
X10486932D01*
X10461540Y8693096D01*
Y8718488D01*
X10486932Y8743880D01*
X10461540Y8769272D01*
Y8794663D01*
X10486932Y8743880D02*
X10537715D01*
X12573033Y9766325D02*
Y9918675D01*
X12649208D01*
X12674600Y9893283D01*
Y9842500D01*
X12649208Y9817108D01*
X12573033D01*
X12623817D02*
X12674600Y9766325D01*
X12725384D02*
X12776167D01*
X12750776D01*
Y9918675D01*
X12725384Y9893283D01*
X12573041Y8356625D02*
Y8508975D01*
X12649217D01*
X12674608Y8483583D01*
Y8432800D01*
X12649217Y8407408D01*
X12573041D01*
X12623825D02*
X12674608Y8356625D01*
X12725392Y8483583D02*
X12750784Y8508975D01*
X12801567D01*
X12826959Y8483583D01*
Y8458192D01*
X12801567Y8432800D01*
X12776175D01*
X12801567D01*
X12826959Y8407408D01*
Y8382017D01*
X12801567Y8356625D01*
X12750784D01*
X12725392Y8382017D01*
X12534941Y10160025D02*
Y10312375D01*
X12611117D01*
X12636508Y10286983D01*
Y10236200D01*
X12611117Y10210808D01*
X12534941D01*
X12585725D02*
X12636508Y10160025D01*
X12788859D02*
X12687292D01*
X12788859Y10261592D01*
Y10286983D01*
X12763467Y10312375D01*
X12712684D01*
X12687292Y10286983D01*
X10515575Y9474159D02*
X10363225D01*
Y9372592D01*
Y9220241D02*
Y9321808D01*
X10464792Y9220241D01*
X10490183D01*
X10515575Y9245633D01*
Y9296416D01*
X10490183Y9321808D01*
X9245625Y6603983D02*
X9220233Y6629375D01*
X9169450D01*
X9144058Y6603983D01*
Y6502417D01*
X9169450Y6477025D01*
X9220233D01*
X9245625Y6502417D01*
X9397976Y6477025D02*
X9296408D01*
X9397976Y6578592D01*
Y6603983D01*
X9372584Y6629375D01*
X9321800D01*
X9296408Y6603983D01*
X9448759Y6477025D02*
X9499543D01*
X9474151D01*
Y6629375D01*
X9448759Y6603983D01*
X9702833Y6591283D02*
X9677441Y6616675D01*
X9626658D01*
X9601266Y6591283D01*
Y6489717D01*
X9626658Y6464325D01*
X9677441D01*
X9702833Y6489717D01*
X9855184Y6464325D02*
X9753617D01*
X9855184Y6565892D01*
Y6591283D01*
X9829792Y6616675D01*
X9779008D01*
X9753617Y6591283D01*
X9905967D02*
X9931359Y6616675D01*
X9982143D01*
X10007534Y6591283D01*
Y6489717D01*
X9982143Y6464325D01*
X9931359D01*
X9905967Y6489717D01*
Y6591283D01*
X11395228Y9661451D02*
X11420620Y9686843D01*
Y9737627D01*
X11395228Y9763019D01*
X11293661D01*
X11268269Y9737627D01*
Y9686843D01*
X11293661Y9661451D01*
X11268269Y9610668D02*
Y9559884D01*
Y9585276D01*
X11420620D01*
X11395228Y9610668D01*
X11293661Y9483709D02*
X11268269Y9458317D01*
Y9407534D01*
X11293661Y9382142D01*
X11395228D01*
X11420620Y9407534D01*
Y9458317D01*
X11395228Y9483709D01*
X11369837D01*
X11344445Y9458317D01*
Y9382142D01*
X11861784Y9676871D02*
X11887176Y9702263D01*
Y9753046D01*
X11861784Y9778438D01*
X11760217D01*
X11734825Y9753046D01*
Y9702263D01*
X11760217Y9676871D01*
X11734825Y9626087D02*
Y9575304D01*
Y9600695D01*
X11887176D01*
X11861784Y9626087D01*
Y9499128D02*
X11887176Y9473736D01*
Y9422953D01*
X11861784Y9397561D01*
X11836392D01*
X11811000Y9422953D01*
X11785608Y9397561D01*
X11760217D01*
X11734825Y9422953D01*
Y9473736D01*
X11760217Y9499128D01*
X11785608D01*
X11811000Y9473736D01*
X11836392Y9499128D01*
X11861784D01*
X11811000Y9473736D02*
Y9422953D01*
X10350143Y8159031D02*
X10375535Y8184423D01*
Y8235206D01*
X10350143Y8260598D01*
X10248576D01*
X10223185Y8235206D01*
Y8184423D01*
X10248576Y8159031D01*
X10223185Y8108247D02*
Y8057464D01*
Y8082856D01*
X10375535D01*
X10350143Y8108247D01*
X10375535Y7879721D02*
Y7981289D01*
X10299360D01*
X10324752Y7930505D01*
Y7905113D01*
X10299360Y7879721D01*
X10248576D01*
X10223185Y7905113D01*
Y7955897D01*
X10248576Y7981289D01*
X9944129Y8966183D02*
X9918737Y8991575D01*
X9867954D01*
X9842562Y8966183D01*
Y8864617D01*
X9867954Y8839225D01*
X9918737D01*
X9944129Y8864617D01*
X9994912Y8839225D02*
X10045696D01*
X10020304D01*
Y8991575D01*
X9994912Y8966183D01*
X10198047Y8839225D02*
Y8991575D01*
X10121871Y8915400D01*
X10223439D01*
X11176664Y5726516D02*
X11202056Y5751908D01*
Y5802691D01*
X11176664Y5828083D01*
X11075097D01*
X11049705Y5802691D01*
Y5751908D01*
X11075097Y5726516D01*
X11202056Y5675733D02*
Y5574165D01*
X11176664D01*
X11075097Y5675733D01*
X11049705D01*
X10775768Y5524824D02*
X10750377Y5550215D01*
X10699593D01*
X10674201Y5524824D01*
Y5423257D01*
X10699593Y5397865D01*
X10750377D01*
X10775768Y5423257D01*
X10928119Y5550215D02*
X10877335Y5524824D01*
X10826552Y5474040D01*
Y5423257D01*
X10851944Y5397865D01*
X10902727D01*
X10928119Y5423257D01*
Y5448648D01*
X10902727Y5474040D01*
X10826552D01*
X9740908Y6362683D02*
X9715517Y6388075D01*
X9664733D01*
X9639341Y6362683D01*
Y6261117D01*
X9664733Y6235725D01*
X9715517D01*
X9740908Y6261117D01*
X9893259Y6388075D02*
X9791692D01*
Y6311900D01*
X9842475Y6337292D01*
X9867867D01*
X9893259Y6311900D01*
Y6261117D01*
X9867867Y6235725D01*
X9817084D01*
X9791692Y6261117D01*
X10922008Y7924783D02*
X10896617Y7950175D01*
X10845833D01*
X10820441Y7924783D01*
Y7823217D01*
X10845833Y7797825D01*
X10896617D01*
X10922008Y7823217D01*
X11048967Y7797825D02*
Y7950175D01*
X10972792Y7874000D01*
X11074359D01*
X9779016Y7188208D02*
X9753624Y7162816D01*
Y7112033D01*
X9779016Y7086641D01*
X9880583D01*
X9905975Y7112033D01*
Y7162816D01*
X9880583Y7188208D01*
X9779016Y7238992D02*
X9753624Y7264383D01*
Y7315167D01*
X9779016Y7340559D01*
X9804408D01*
X9829800Y7315167D01*
Y7289775D01*
Y7315167D01*
X9855192Y7340559D01*
X9880583D01*
X9905975Y7315167D01*
Y7264383D01*
X9880583Y7238992D01*
X12280544Y7257351D02*
X12305936Y7282743D01*
Y7333527D01*
X12280544Y7358918D01*
X12178977D01*
X12153585Y7333527D01*
Y7282743D01*
X12178977Y7257351D01*
X12153585Y7105001D02*
Y7206568D01*
X12255152Y7105001D01*
X12280544D01*
X12305936Y7130392D01*
Y7181176D01*
X12280544Y7206568D01*
X11950683Y5689600D02*
X11976075Y5714992D01*
Y5765775D01*
X11950683Y5791167D01*
X11849117D01*
X11823725Y5765775D01*
Y5714992D01*
X11849117Y5689600D01*
X11823725Y5638816D02*
Y5588033D01*
Y5613424D01*
X11976075D01*
X11950683Y5638816D01*
D57*
X12094500Y6702100D02*
G03*
X12094500Y6702100I-10000J0D01*
G01*
X10447900Y7093300D02*
G03*
X10447900Y7093300I-10000J0D01*
G01*
X12930400Y10383500D02*
G03*
X12930400Y10383500I-10000J0D01*
G01*
X9754934Y5744992D02*
G03*
X9754934Y5744992I-10000J0D01*
G01*
X10632440Y5676900D02*
X10766880D01*
X10844380D02*
X10982960D01*
X10844380Y5854700D02*
X10982960D01*
X10632440D02*
X10766880D01*
X10982960Y5676900D02*
Y5854700D01*
X10632440Y5676900D02*
Y5854700D01*
X11493840Y5508180D02*
Y5642620D01*
Y5720120D02*
Y5858700D01*
X11316040Y5720120D02*
Y5858700D01*
Y5508180D02*
Y5642620D01*
Y5858700D02*
X11493840D01*
X11316040Y5508180D02*
X11493840D01*
X10975520Y7721600D02*
X11109960D01*
X10759440D02*
X10898020D01*
X10759440Y7543800D02*
X10898020D01*
X10975520D02*
X11109960D01*
X10759440D02*
Y7721600D01*
X11109960Y7543800D02*
Y7721600D01*
X12090400Y7076440D02*
Y7210880D01*
Y7288380D02*
Y7426960D01*
X11912600Y7288380D02*
Y7426960D01*
Y7076440D02*
Y7210880D01*
Y7426960D02*
X12090400D01*
X11912600Y7076440D02*
X12090400D01*
X10753280Y9829460D02*
X10887720D01*
X10965220D02*
X11103800D01*
X10965220Y10007260D02*
X11103800D01*
X10753280D02*
X10887720D01*
X11103800Y9829460D02*
Y10007260D01*
X10753280Y9829460D02*
Y10007260D01*
X10279380Y10055600D02*
X10459720D01*
X10279380Y9917280D02*
Y10055600D01*
X10459720Y9917280D02*
Y10055600D01*
Y9705600D02*
Y9839780D01*
X10279380Y9705600D02*
X10459720D01*
X10279380D02*
Y9839780D01*
X9009380Y10055600D02*
X9189720D01*
X9009380Y9917280D02*
Y10055600D01*
X9189720Y9917280D02*
Y10055600D01*
Y9705600D02*
Y9839780D01*
X9009380Y9705600D02*
X9189720D01*
X9009380D02*
Y9839780D01*
X9441180Y10055600D02*
X9621520D01*
X9441180Y9917280D02*
Y10055600D01*
X9621520Y9917280D02*
Y10055600D01*
Y9705600D02*
Y9839780D01*
X9441180Y9705600D02*
X9621520D01*
X9441180D02*
Y9839780D01*
X9415780Y9534900D02*
X9596120D01*
X9415780Y9396580D02*
Y9534900D01*
X9596120Y9396580D02*
Y9534900D01*
Y9184900D02*
Y9319080D01*
X9415780Y9184900D02*
X9596120D01*
X9415780D02*
Y9319080D01*
X9860280Y10055600D02*
X10040620D01*
X9860280Y9917280D02*
Y10055600D01*
X10040620Y9917280D02*
Y10055600D01*
Y9705600D02*
Y9839780D01*
X9860280Y9705600D02*
X10040620D01*
X9860280D02*
Y9839780D01*
X12775200Y7057460D02*
X12955540D01*
Y7195780D01*
X12775200Y7057460D02*
Y7195780D01*
Y7273280D02*
Y7407460D01*
X12955540D01*
Y7273280D02*
Y7407460D01*
X9753600Y9178480D02*
X9931400D01*
X9753600Y9529000D02*
X9931400D01*
X9753600Y9178480D02*
Y9312920D01*
Y9390420D02*
Y9529000D01*
X9931400Y9390420D02*
Y9529000D01*
Y9178480D02*
Y9312920D01*
X8851900Y10350500D02*
Y10604500D01*
X8597900D02*
X8851900D01*
X8597900Y10350500D02*
X11137900D01*
Y10858500D01*
X8597900D02*
X11137900D01*
X8597900Y10350500D02*
Y10858500D01*
X11222000Y10274000D02*
X11892000D01*
X11222000Y10554000D02*
X11892000D01*
X11222000Y10274000D02*
Y10554000D01*
X11892000Y10274000D02*
Y10554000D01*
X11684340Y9394380D02*
Y9528820D01*
Y9606320D02*
Y9744900D01*
X11506540Y9606320D02*
Y9744900D01*
Y9394380D02*
Y9528820D01*
Y9744900D02*
X11684340D01*
X11506540Y9394380D02*
X11684340D01*
X11204745Y9397320D02*
Y9531760D01*
Y9609260D02*
Y9747840D01*
X11026945Y9609260D02*
Y9747840D01*
Y9397320D02*
Y9531760D01*
Y9747840D02*
X11204745D01*
X11026945Y9397320D02*
X11204745D01*
X10934700Y8448040D02*
X11112500D01*
X10934700Y8798560D02*
X11112500D01*
X10934700Y8448040D02*
Y8582480D01*
Y8659980D02*
Y8798560D01*
X11112500Y8659980D02*
Y8798560D01*
Y8448040D02*
Y8582480D01*
X13169901Y6832600D02*
X13677901D01*
Y4546600D02*
Y6832600D01*
X13169901Y4546600D02*
X13677901D01*
X13169901D02*
Y6832600D01*
X13423900Y6578600D02*
Y6832600D01*
X13169901Y6578600D02*
X13423900D01*
X8431234Y4552792D02*
Y6584792D01*
Y4552792D02*
X8939234D01*
Y6584792D01*
X8431234D02*
X8939234D01*
X8685234Y6330792D02*
Y6584792D01*
X8431234Y6330792D02*
X8685234D01*
X10564860Y9528740D02*
X10745200D01*
X10564860Y9390420D02*
Y9528740D01*
X10745200Y9390420D02*
Y9528740D01*
Y9178740D02*
Y9312920D01*
X10564860Y9178740D02*
X10745200D01*
X10564860D02*
Y9312920D01*
X11644360Y7604440D02*
Y7738620D01*
Y7604440D02*
X11824700D01*
Y7738620D01*
Y7816120D02*
Y7954440D01*
X11644360Y7816120D02*
Y7954440D01*
X11824700D01*
X11828780Y4759700D02*
X12009120D01*
X11828780Y4621380D02*
Y4759700D01*
X12009120Y4621380D02*
Y4759700D01*
Y4409700D02*
Y4543880D01*
X11828780Y4409700D02*
X12009120D01*
X11828780D02*
Y4543880D01*
X11515674Y4752340D02*
Y4886780D01*
Y4964280D02*
Y5102860D01*
X11337874Y4964280D02*
Y5102860D01*
Y4752340D02*
Y4886780D01*
Y5102860D02*
X11515674D01*
X11337874Y4752340D02*
X11515674D01*
X11648700Y4119880D02*
Y4300220D01*
Y4119880D02*
X11787020D01*
X11648700Y4300220D02*
X11787020D01*
X11864520D02*
X11998700D01*
Y4119880D02*
Y4300220D01*
X11864520Y4119880D02*
X11998700D01*
X11623300Y4919980D02*
Y5100320D01*
Y4919980D02*
X11761620D01*
X11623300Y5100320D02*
X11761620D01*
X11839120D02*
X11973300D01*
Y4919980D02*
Y5100320D01*
X11839120Y4919980D02*
X11973300D01*
X12180507Y5676900D02*
X12360847D01*
Y5815220D01*
X12180507Y5676900D02*
Y5815220D01*
Y5892720D02*
Y6026900D01*
X12360847D01*
Y5892720D02*
Y6026900D01*
X11334568Y4335960D02*
Y4470400D01*
Y4119880D02*
Y4258460D01*
X11512368Y4119880D02*
Y4258460D01*
Y4335960D02*
Y4470400D01*
X11334568Y4119880D02*
X11512368D01*
X11334568Y4470400D02*
X11512368D01*
X9676976Y5482432D02*
Y5616872D01*
Y5694372D02*
Y5832952D01*
X9499176Y5694372D02*
Y5832952D01*
Y5482432D02*
Y5616872D01*
Y5832952D02*
X9676976D01*
X9499176Y5482432D02*
X9676976D01*
X10350160Y5697980D02*
Y5832420D01*
Y5481900D02*
Y5620480D01*
X10527960Y5481900D02*
Y5620480D01*
Y5697980D02*
Y5832420D01*
X10350160Y5481900D02*
X10527960D01*
X10350160Y5832420D02*
X10527960D01*
X8431234Y8737252D02*
X8685234D01*
Y8991252D01*
X8431234D02*
X8939234D01*
Y6959252D02*
Y8991252D01*
X8431234Y6959252D02*
X8939234D01*
X8431234D02*
Y8991252D01*
X11602140Y8441380D02*
Y8575821D01*
Y8653320D02*
Y8791900D01*
X11424340Y8653320D02*
Y8791900D01*
Y8441380D02*
Y8575821D01*
Y8791900D02*
X11602140D01*
X11424340Y8441380D02*
X11602140D01*
X11781360Y8278860D02*
Y8459200D01*
Y8278860D02*
X11919680D01*
X11781360Y8459200D02*
X11919680D01*
X11997180D02*
X12131360D01*
Y8278860D02*
Y8459200D01*
X11997180Y8278860D02*
X12131360D01*
X9864780Y5117760D02*
X9999220D01*
X10076720D02*
X10215300D01*
X10076720Y5295560D02*
X10215300D01*
X9864780D02*
X9999220D01*
X10215300Y5117760D02*
Y5295560D01*
X9864780Y5117760D02*
Y5295560D01*
X12057380Y7947400D02*
X12237720D01*
X12057380Y7809080D02*
Y7947400D01*
X12237720Y7809080D02*
Y7947400D01*
Y7597400D02*
Y7731580D01*
X12057380Y7597400D02*
X12237720D01*
X12057380D02*
Y7731580D01*
X9776920Y7151400D02*
Y7426700D01*
X9281620D02*
X9776920D01*
X9281620Y7151400D02*
Y7426700D01*
Y7151400D02*
X9776920D01*
X13677998Y7162372D02*
Y8686372D01*
X13170000D02*
X13677998D01*
X13170000Y7162372D02*
Y8686372D01*
Y7162372D02*
X13677998D01*
X13423999D02*
Y7416372D01*
X13677998D01*
X10387060Y8251640D02*
Y8385820D01*
Y8251640D02*
X10567400D01*
Y8385820D01*
Y8463320D02*
Y8601640D01*
X10387060Y8463320D02*
Y8601640D01*
X10567400D01*
X12135394Y9770952D02*
Y9951292D01*
Y9770952D02*
X12273714D01*
X12135394Y9951292D02*
X12273714D01*
X12351214D02*
X12485394D01*
Y9770952D02*
Y9951292D01*
X12351214Y9770952D02*
X12485394D01*
X12900400Y8133080D02*
Y8313420D01*
X12762080D02*
X12900400D01*
X12762080Y8133080D02*
X12900400D01*
X12550400D02*
X12684580D01*
X12550400D02*
Y8313420D01*
X12684580D01*
X12135894Y10012252D02*
Y10192592D01*
Y10012252D02*
X12274214D01*
X12135894Y10192592D02*
X12274214D01*
X12351714D02*
X12485894D01*
Y10012252D02*
Y10192592D01*
X12351714Y10012252D02*
X12485894D01*
X9271340Y6677080D02*
X9449140D01*
X9271340Y7027600D02*
X9449140D01*
X9271340Y6677080D02*
Y6811520D01*
Y6889020D02*
Y7027600D01*
X9449140Y6889020D02*
Y7027600D01*
Y6677080D02*
Y6811520D01*
X9665674Y6677080D02*
X9843474D01*
X9665674Y7027600D02*
X9843474D01*
X9665674Y6677080D02*
Y6811521D01*
Y6889020D02*
Y7027600D01*
X9843474Y6889020D02*
Y7027600D01*
Y6677080D02*
Y6811521D01*
X9982200Y7889240D02*
X10160000D01*
X9982200Y8239760D02*
X10160000D01*
X9982200Y7889240D02*
Y8023680D01*
Y8101180D02*
Y8239760D01*
X10160000Y8101180D02*
Y8239760D01*
Y7889240D02*
Y8023680D01*
X9994900Y8397240D02*
X10172700D01*
X9994900Y8747760D02*
X10172700D01*
X9994900Y8397240D02*
Y8531680D01*
Y8609180D02*
Y8747760D01*
X10172700Y8609180D02*
Y8747760D01*
Y8397240D02*
Y8531680D01*
X9966380Y6248060D02*
Y6425860D01*
X10316900Y6248060D02*
Y6425860D01*
X9966380D02*
X10100820D01*
X10178320D02*
X10316900D01*
X10178320Y6248060D02*
X10316900D01*
X9966380D02*
X10100820D01*
X9966380Y7137060D02*
Y7314860D01*
X10316900Y7137060D02*
Y7314860D01*
X9966380D02*
X10100820D01*
X10178320D02*
X10316900D01*
X10178320Y7137060D02*
X10316900D01*
X9966380D02*
X10100820D01*
X11539265Y5508180D02*
X11717065D01*
X11539265Y5858700D02*
X11717065D01*
X11539265Y5508180D02*
Y5642620D01*
Y5720120D02*
Y5858700D01*
X11717065Y5720120D02*
Y5858700D01*
Y5508180D02*
Y5642620D01*
D58*
X9728195Y8684950D02*
G03*
X9347200Y8683102I-190496J-1260D01*
G01*
Y8098902D02*
G03*
X9728195Y8100750I190496J1260D01*
G01*
X9766300Y8683102D02*
G03*
X9309355Y8683229I-228471J7691D01*
G01*
X9309106Y8096684D02*
G03*
X9766300Y8098902I228595J1512D01*
G01*
X10784420Y5697560D02*
X10830140D01*
X10784420Y5834720D02*
X10830140D01*
X11473180Y5660160D02*
Y5705880D01*
X11336020Y5660160D02*
Y5705880D01*
X10912260Y7700940D02*
X10957980D01*
X10912260Y7563780D02*
X10957980D01*
X12069740Y7228420D02*
Y7274140D01*
X11932580Y7228420D02*
Y7274140D01*
X10905260Y9850120D02*
X10950980D01*
X10905260Y9987280D02*
X10950980D01*
X10438400Y9857320D02*
Y9903040D01*
X10301240Y9857320D02*
Y9903040D01*
X9168400Y9857320D02*
Y9903040D01*
X9031240Y9857320D02*
Y9903040D01*
X9600200Y9857320D02*
Y9903040D01*
X9463040Y9857320D02*
Y9903040D01*
X9574800Y9336620D02*
Y9382340D01*
X9437640Y9336620D02*
Y9382340D01*
X10019300Y9857320D02*
Y9903040D01*
X9882140Y9857320D02*
Y9903040D01*
X12796520Y7210020D02*
Y7255740D01*
X12933681Y7210020D02*
Y7255740D01*
X9773580Y9330460D02*
Y9376180D01*
X9910740Y9330460D02*
Y9376180D01*
X9347200Y8098902D02*
Y8683102D01*
X9728200Y8098902D02*
X9728215Y8683102D01*
X9309100Y8098902D02*
Y8683102D01*
X9766300Y8098902D02*
X9766315Y8683102D01*
X10439100Y4140687D02*
Y4389607D01*
X9675830Y4390877D02*
X10694370D01*
Y4136877D02*
Y4390877D01*
Y3882877D02*
Y4136877D01*
X9675830Y3882877D02*
X10694370D01*
X9675830D02*
Y4390877D01*
X11663680Y9546360D02*
Y9592080D01*
X11526520Y9546360D02*
Y9592080D01*
X11184085Y9549300D02*
Y9595020D01*
X11046925Y9549300D02*
Y9595020D01*
X10954680Y8600020D02*
Y8645740D01*
X11091840Y8600020D02*
Y8645740D01*
X10723880Y9330460D02*
Y9376180D01*
X10586720Y9330460D02*
Y9376180D01*
X11666220Y7756160D02*
Y7801880D01*
X11803380Y7756160D02*
Y7801880D01*
X11987800Y4561420D02*
Y4607140D01*
X11850640Y4561420D02*
Y4607140D01*
X11495014Y4904320D02*
Y4950040D01*
X11357854Y4904320D02*
Y4950040D01*
X11801260Y4278900D02*
X11846980D01*
X11801260Y4141740D02*
X11846980D01*
X11775860Y5079000D02*
X11821580D01*
X11775860Y4941840D02*
X11821580D01*
X12201827Y5829460D02*
Y5875180D01*
X12338987Y5829460D02*
Y5875180D01*
X11355228Y4272700D02*
Y4318420D01*
X11492388Y4272700D02*
Y4318420D01*
X9656316Y5634412D02*
Y5680132D01*
X9519156Y5634412D02*
Y5680132D01*
X10370820Y5634720D02*
Y5680440D01*
X10507980Y5634720D02*
Y5680440D01*
X11581480Y8593360D02*
Y8639080D01*
X11444320Y8593360D02*
Y8639080D01*
X11933920Y8437880D02*
X11979640D01*
X11933920Y8300720D02*
X11979640D01*
X10016760Y5138420D02*
X10062480D01*
X10016760Y5275580D02*
X10062480D01*
X12216400Y7749120D02*
Y7794840D01*
X12079240Y7749120D02*
Y7794840D01*
X10408920Y8403360D02*
Y8449080D01*
X10546080Y8403360D02*
Y8449080D01*
X12287954Y9929972D02*
X12333674D01*
X12287954Y9792812D02*
X12333674D01*
X12702120Y8154400D02*
X12747840D01*
X12702120Y8291560D02*
X12747840D01*
X12288454Y10171272D02*
X12334174D01*
X12288454Y10034112D02*
X12334174D01*
X9291320Y6829060D02*
Y6874780D01*
X9428480Y6829060D02*
Y6874780D01*
X9685654Y6829060D02*
Y6874780D01*
X9822814Y6829060D02*
Y6874780D01*
X10002180Y8041220D02*
Y8086940D01*
X10139340Y8041220D02*
Y8086940D01*
X10014880Y8549220D02*
Y8594940D01*
X10152040Y8549220D02*
Y8594940D01*
X10118360Y6405880D02*
X10164080D01*
X10118360Y6268720D02*
X10164080D01*
X10118360Y7294880D02*
X10164080D01*
X10118360Y7157720D02*
X10164080D01*
X11559245Y5660160D02*
Y5705880D01*
X11696405Y5660160D02*
Y5705880D01*
D59*
X11234500Y10124000D02*
G03*
X11234500Y10124000I-12500J0D01*
G01*
D60*
X12458700Y9131300D02*
G03*
X12458700Y9131300I-152400J0D01*
G01*
X11988800Y8813800D02*
X12623800D01*
Y9448800D01*
X11988800Y8813800D02*
Y9448800D01*
X12623800D01*
D61*
X10160000Y9474200D02*
X10172700D01*
X10160000Y9245600D02*
Y9474200D01*
Y9245600D02*
X10172700D01*
X10325100Y9474200D02*
X10337800D01*
Y9245600D02*
Y9474200D01*
X10325100Y9245600D02*
X10337800D01*
X12382500Y7353300D02*
X12395200D01*
X12382500Y7124700D02*
Y7353300D01*
Y7124700D02*
X12395200D01*
X12547600Y7353300D02*
X12560300D01*
Y7124700D02*
Y7353300D01*
X12547600Y7124700D02*
X12560300D01*
D62*
X13253134Y9091192D02*
Y9971192D01*
X13693134D01*
Y9931192D02*
Y9971192D01*
Y9131192D02*
Y9931192D01*
Y9091192D02*
Y9131192D01*
X13253134Y9091192D02*
X13693134D01*
Y9131192D02*
X13893134D01*
Y9931192D01*
X13693134D02*
X13893134D01*
X12310000Y6704100D02*
X12709000D01*
X12310000Y6199100D02*
X12709000D01*
X10627900Y6208300D02*
X10720900D01*
X10627900Y7228300D02*
X10720900D01*
X11554900Y6208300D02*
X11647900D01*
X11554900Y7228300D02*
X11647900D01*
X10627900Y6208300D02*
Y6301300D01*
Y7135300D02*
Y7228300D01*
X11647900Y6208300D02*
Y6301300D01*
Y7135300D02*
Y7228300D01*
X12415400Y10993500D02*
X12590900D01*
X12989900D02*
X13165401D01*
Y10723500D02*
Y10993500D01*
X12415400Y10723500D02*
Y10993500D01*
X9881434Y5494992D02*
Y5501992D01*
Y5787992D02*
Y5794992D01*
X10174434Y5494992D02*
X10181434D01*
X9881434D02*
X9888434D01*
X10181434D02*
Y5501992D01*
Y5787992D02*
Y5794992D01*
X10174434D02*
X10181434D01*
X9881434D02*
X9888434D01*
D63*
X12194600Y4324000D02*
Y5328000D01*
Y4324000D02*
X12766600D01*
Y5328000D01*
X12194600D02*
X12766600D01*
D64*
X9218630Y1545569D02*
X10724850D01*
X9218630D02*
Y4439137D01*
X10724850D01*
Y1545569D02*
Y4439137D01*
D65*
X11132000Y9047200D02*
X11474000D01*
X11132000Y8885200D02*
X11474000D01*
X11132000D02*
Y9047200D01*
X11474000Y8885200D02*
Y9047200D01*
%TF.MD5,fdfe7cf7b3cef17c4d89a99b49223fbf*%
M02*
