%TF.GenerationSoftware,Altium Limited,Altium Designer,20.2.5 (213)*%
G04 Layer_Color=255*
%FSLAX45Y45*%
%MOMM*%
%TF.SameCoordinates,0B4FD596-2A60-4D0F-BAE7-1B06E363B609*%
%TF.FilePolarity,Positive*%
%TF.FileFunction,Pads,Bot*%
%TF.Part,Single*%
G01*
G75*
%TA.AperFunction,ComponentPad*%
%ADD31C,1.30800*%
%ADD32C,2.10000*%
%ADD33C,1.60000*%
%ADD34R,1.60000X1.60000*%
%ADD35C,1.90500*%
%ADD36R,1.60000X1.60000*%
%ADD37O,1.52400X2.18440*%
%ADD38O,1.20000X2.40000*%
%ADD39O,0.73000X1.46000*%
%TA.AperFunction,ConnectorPad*%
%ADD43O,1.05000X2.10000*%
D31*
X13473134Y9331192D02*
D03*
Y9731192D02*
D03*
Y9531192D02*
D03*
D32*
Y9116192D02*
D03*
Y9946192D02*
D03*
D33*
X12420600Y4826000D02*
D03*
Y4572000D02*
D03*
X8724900Y10731500D02*
D03*
X8978900D02*
D03*
X9232900D02*
D03*
X9486900D02*
D03*
X9740900D02*
D03*
X9994900D02*
D03*
X10248900D02*
D03*
X10502900D02*
D03*
X10756900D02*
D03*
X11010900D02*
D03*
Y10477500D02*
D03*
X10756900D02*
D03*
X10502900D02*
D03*
X10248900D02*
D03*
X9994900D02*
D03*
X9740900D02*
D03*
X9486900D02*
D03*
X9232900D02*
D03*
X8978900D02*
D03*
X13296899Y6451600D02*
D03*
Y6197600D02*
D03*
Y5943600D02*
D03*
Y5689600D02*
D03*
Y5435600D02*
D03*
Y5181600D02*
D03*
Y4927600D02*
D03*
Y4673600D02*
D03*
X13550900D02*
D03*
Y4927600D02*
D03*
Y5181600D02*
D03*
Y5435600D02*
D03*
Y5689600D02*
D03*
Y5943600D02*
D03*
Y6197600D02*
D03*
Y6451600D02*
D03*
Y6705600D02*
D03*
X8558234Y6203792D02*
D03*
Y5949792D02*
D03*
Y5695792D02*
D03*
Y5441792D02*
D03*
Y5187792D02*
D03*
Y4933792D02*
D03*
Y4679792D02*
D03*
X8812234D02*
D03*
Y4933792D02*
D03*
Y5187792D02*
D03*
Y5441792D02*
D03*
Y5695792D02*
D03*
Y5949792D02*
D03*
Y6203792D02*
D03*
Y6457792D02*
D03*
Y8864252D02*
D03*
Y8610252D02*
D03*
Y8356252D02*
D03*
Y8102252D02*
D03*
Y7848252D02*
D03*
Y7594252D02*
D03*
Y7340252D02*
D03*
Y7086252D02*
D03*
X8558234D02*
D03*
Y7340252D02*
D03*
Y7594252D02*
D03*
Y7848252D02*
D03*
Y8102252D02*
D03*
Y8356252D02*
D03*
Y8610252D02*
D03*
X13550999Y8559372D02*
D03*
Y8305372D02*
D03*
Y8051372D02*
D03*
Y7797372D02*
D03*
Y7543372D02*
D03*
X13296999Y8559372D02*
D03*
Y8305372D02*
D03*
Y8051372D02*
D03*
Y7797372D02*
D03*
Y7543372D02*
D03*
Y7289372D02*
D03*
D34*
X12420600Y5080000D02*
D03*
X13296899Y6705600D02*
D03*
X8558234Y6457792D02*
D03*
Y8864252D02*
D03*
X13550999Y7289372D02*
D03*
D35*
X9537700Y8636000D02*
D03*
Y8146004D02*
D03*
D36*
X8724900Y10477500D02*
D03*
D37*
X10564830Y4007337D02*
D03*
X10310830D02*
D03*
X10058100D02*
D03*
X9802830D02*
D03*
X9805370Y4261337D02*
D03*
X10061910D02*
D03*
X10313370D02*
D03*
X10564830D02*
D03*
D38*
X12517900Y10823500D02*
D03*
X13062900D02*
D03*
D39*
X12547900Y10520500D02*
D03*
X13032899D02*
D03*
D43*
X12547900D02*
D03*
X13032899D02*
D03*
%TF.MD5,8d2c4a8a59dfb462150663f4576630b4*%
M02*
