%TF.GenerationSoftware,Altium Limited,Altium Designer,20.2.5 (213)*%
G04 Layer_Color=255*
%FSLAX45Y45*%
%MOMM*%
%TF.SameCoordinates,0B4FD596-2A60-4D0F-BAE7-1B06E363B609*%
%TF.FilePolarity,Positive*%
%TF.FileFunction,Pads,Top*%
%TF.Part,Single*%
G01*
G75*
%TA.AperFunction,SMDPad,CuDef*%
%ADD10R,1.39700X1.27000*%
%ADD11R,1.20000X1.40000*%
G04:AMPARAMS|DCode=12|XSize=1.58mm|YSize=0.6mm|CornerRadius=0.075mm|HoleSize=0mm|Usage=FLASHONLY|Rotation=0.000|XOffset=0mm|YOffset=0mm|HoleType=Round|Shape=RoundedRectangle|*
%AMROUNDEDRECTD12*
21,1,1.58000,0.45000,0,0,0.0*
21,1,1.43000,0.60000,0,0,0.0*
1,1,0.15000,0.71500,-0.22500*
1,1,0.15000,-0.71500,-0.22500*
1,1,0.15000,-0.71500,0.22500*
1,1,0.15000,0.71500,0.22500*
%
%ADD12ROUNDEDRECTD12*%
G04:AMPARAMS|DCode=13|XSize=1.56mm|YSize=0.28mm|CornerRadius=0.07mm|HoleSize=0mm|Usage=FLASHONLY|Rotation=90.000|XOffset=0mm|YOffset=0mm|HoleType=Round|Shape=RoundedRectangle|*
%AMROUNDEDRECTD13*
21,1,1.56000,0.14000,0,0,90.0*
21,1,1.42000,0.28000,0,0,90.0*
1,1,0.14000,0.07000,0.71000*
1,1,0.14000,0.07000,-0.71000*
1,1,0.14000,-0.07000,-0.71000*
1,1,0.14000,-0.07000,0.71000*
%
%ADD13ROUNDEDRECTD13*%
G04:AMPARAMS|DCode=14|XSize=1.56mm|YSize=0.28mm|CornerRadius=0.07mm|HoleSize=0mm|Usage=FLASHONLY|Rotation=180.000|XOffset=0mm|YOffset=0mm|HoleType=Round|Shape=RoundedRectangle|*
%AMROUNDEDRECTD14*
21,1,1.56000,0.14000,0,0,180.0*
21,1,1.42000,0.28000,0,0,180.0*
1,1,0.14000,-0.71000,0.07000*
1,1,0.14000,0.71000,0.07000*
1,1,0.14000,0.71000,-0.07000*
1,1,0.14000,-0.71000,-0.07000*
%
%ADD14ROUNDEDRECTD14*%
%ADD15R,1.40000X1.20000*%
%ADD16R,1.00000X2.40000*%
%ADD17R,3.30000X2.40000*%
%ADD18R,1.10000X1.00000*%
%TA.AperFunction,ConnectorPad*%
%ADD19R,1.42500X2.50000*%
%ADD20R,0.40000X1.75000*%
%TA.AperFunction,SMDPad,CuDef*%
%ADD21R,1.70000X1.54000*%
G04:AMPARAMS|DCode=22|XSize=0.22mm|YSize=0.64mm|CornerRadius=0.0275mm|HoleSize=0mm|Usage=FLASHONLY|Rotation=0.000|XOffset=0mm|YOffset=0mm|HoleType=Round|Shape=RoundedRectangle|*
%AMROUNDEDRECTD22*
21,1,0.22000,0.58500,0,0,0.0*
21,1,0.16500,0.64000,0,0,0.0*
1,1,0.05500,0.08250,-0.29250*
1,1,0.05500,-0.08250,-0.29250*
1,1,0.05500,-0.08250,0.29250*
1,1,0.05500,0.08250,0.29250*
%
%ADD22ROUNDEDRECTD22*%
G04:AMPARAMS|DCode=23|XSize=0.64mm|YSize=0.22mm|CornerRadius=0.0275mm|HoleSize=0mm|Usage=FLASHONLY|Rotation=0.000|XOffset=0mm|YOffset=0mm|HoleType=Round|Shape=RoundedRectangle|*
%AMROUNDEDRECTD23*
21,1,0.64000,0.16500,0,0,0.0*
21,1,0.58500,0.22000,0,0,0.0*
1,1,0.05500,0.29250,-0.08250*
1,1,0.05500,-0.29250,-0.08250*
1,1,0.05500,-0.29250,0.08250*
1,1,0.05500,0.29250,0.08250*
%
%ADD23ROUNDEDRECTD23*%
%ADD24R,1.65000X2.00000*%
%ADD25R,1.27000X1.52400*%
%TA.AperFunction,ComponentPad*%
%ADD31C,1.30800*%
%ADD32C,2.10000*%
%ADD33C,1.60000*%
%ADD34R,1.60000X1.60000*%
%ADD35C,1.90500*%
%ADD36R,1.60000X1.60000*%
%ADD37O,1.52400X2.18440*%
%ADD38O,1.20000X2.40000*%
%ADD39O,0.73000X1.46000*%
D10*
X10248900Y9245600D02*
D03*
Y9474200D02*
D03*
X12471400Y7124700D02*
D03*
Y7353300D02*
D03*
D11*
X10712260Y5766140D02*
D03*
X10902260D02*
D03*
X11030140Y7632360D02*
D03*
X10840140D02*
D03*
X10833100Y9918700D02*
D03*
X11023100D02*
D03*
X11729140Y4210320D02*
D03*
X11919140D02*
D03*
X11703740Y5010420D02*
D03*
X11893740D02*
D03*
X11861800Y8369300D02*
D03*
X12051800D02*
D03*
X9944600Y5207000D02*
D03*
X10134600D02*
D03*
X12215834Y9861392D02*
D03*
X12405834D02*
D03*
X12819960Y8222980D02*
D03*
X12629960D02*
D03*
X12216334Y10102692D02*
D03*
X12406334D02*
D03*
X10236200Y6337300D02*
D03*
X10046200D02*
D03*
X10236200Y7226300D02*
D03*
X10046200D02*
D03*
D12*
X12242500Y6642100D02*
D03*
Y6515100D02*
D03*
Y6388100D02*
D03*
Y6261100D02*
D03*
X12776500D02*
D03*
Y6388100D02*
D03*
Y6515100D02*
D03*
Y6642100D02*
D03*
D13*
X11512900Y7286300D02*
D03*
X11462900D02*
D03*
X11412900D02*
D03*
X11362900D02*
D03*
X11312900D02*
D03*
X11262900D02*
D03*
X11212900D02*
D03*
X11162900D02*
D03*
X11112900D02*
D03*
X11062900D02*
D03*
X11012900D02*
D03*
X10962900D02*
D03*
X10912900D02*
D03*
X10862900D02*
D03*
X10812900D02*
D03*
X10762900D02*
D03*
Y6150300D02*
D03*
X10812900D02*
D03*
X10862900D02*
D03*
X10912900D02*
D03*
X10962900D02*
D03*
X11012900D02*
D03*
X11062900D02*
D03*
X11112900D02*
D03*
X11162900D02*
D03*
X11212900D02*
D03*
X11262900D02*
D03*
X11312900D02*
D03*
X11362900D02*
D03*
X11412900D02*
D03*
X11462900D02*
D03*
X11512900D02*
D03*
D14*
X10569900Y7093300D02*
D03*
Y7043300D02*
D03*
Y6993300D02*
D03*
Y6943300D02*
D03*
Y6893300D02*
D03*
Y6843300D02*
D03*
Y6793300D02*
D03*
Y6743300D02*
D03*
Y6693300D02*
D03*
Y6643300D02*
D03*
Y6593300D02*
D03*
Y6543300D02*
D03*
Y6493300D02*
D03*
Y6443300D02*
D03*
Y6393300D02*
D03*
Y6343300D02*
D03*
X11705900D02*
D03*
Y6393300D02*
D03*
Y6443300D02*
D03*
Y6493300D02*
D03*
Y6543300D02*
D03*
Y6593300D02*
D03*
Y6643300D02*
D03*
Y6693300D02*
D03*
Y6743300D02*
D03*
Y6793300D02*
D03*
Y6843300D02*
D03*
Y6893300D02*
D03*
Y6943300D02*
D03*
Y6993300D02*
D03*
Y7043300D02*
D03*
Y7093300D02*
D03*
D15*
X11404600Y5588000D02*
D03*
Y5778000D02*
D03*
X12001160Y7156260D02*
D03*
Y7346260D02*
D03*
X10369820Y9975160D02*
D03*
Y9785160D02*
D03*
X9099820Y9975160D02*
D03*
Y9785160D02*
D03*
X9531620Y9975160D02*
D03*
Y9785160D02*
D03*
X9506220Y9454460D02*
D03*
Y9264460D02*
D03*
X9950720Y9975160D02*
D03*
Y9785160D02*
D03*
X12865100Y7137900D02*
D03*
Y7327900D02*
D03*
X9842160Y9448300D02*
D03*
Y9258300D02*
D03*
X11595100Y9474200D02*
D03*
Y9664200D02*
D03*
X11115505Y9477140D02*
D03*
Y9667140D02*
D03*
X11023260Y8717860D02*
D03*
Y8527860D02*
D03*
X10655300Y9448300D02*
D03*
Y9258300D02*
D03*
X11734800Y7684000D02*
D03*
Y7874000D02*
D03*
X11919220Y4679260D02*
D03*
Y4489260D02*
D03*
X11426434Y4832160D02*
D03*
Y5022160D02*
D03*
X12270407Y5757340D02*
D03*
Y5947340D02*
D03*
X11423808Y4390580D02*
D03*
Y4200580D02*
D03*
X9587736Y5562252D02*
D03*
Y5752252D02*
D03*
X10439400Y5752600D02*
D03*
Y5562600D02*
D03*
X11512900Y8521200D02*
D03*
Y8711200D02*
D03*
X12147820Y7866960D02*
D03*
Y7676960D02*
D03*
X10477500Y8331200D02*
D03*
Y8521200D02*
D03*
X9359900Y6946900D02*
D03*
Y6756900D02*
D03*
X9754234Y6946900D02*
D03*
Y6756900D02*
D03*
X10070760Y8159060D02*
D03*
Y7969060D02*
D03*
X10083460Y8667060D02*
D03*
Y8477060D02*
D03*
X11627825Y5778000D02*
D03*
Y5588000D02*
D03*
D16*
X11327000Y10124000D02*
D03*
X11557000D02*
D03*
X11787000D02*
D03*
D17*
X11557000Y10704000D02*
D03*
D18*
X11218000Y8966200D02*
D03*
X11388000D02*
D03*
D19*
X12694150Y10848500D02*
D03*
X12886650D02*
D03*
D20*
X12660400Y10541000D02*
D03*
X12725400D02*
D03*
X12790400D02*
D03*
X12855400D02*
D03*
X12920399D02*
D03*
D21*
X10031434Y5644992D02*
D03*
D22*
X9931434Y5799492D02*
D03*
X9971434D02*
D03*
X10011434D02*
D03*
X10051434D02*
D03*
X10091434D02*
D03*
X10131434D02*
D03*
Y5490492D02*
D03*
X10091434D02*
D03*
X10051434D02*
D03*
X10011434D02*
D03*
X9971434D02*
D03*
X9931434D02*
D03*
D23*
X10185934Y5744992D02*
D03*
Y5704992D02*
D03*
Y5664992D02*
D03*
Y5624992D02*
D03*
Y5584992D02*
D03*
Y5544992D02*
D03*
X9876934D02*
D03*
Y5584992D02*
D03*
Y5624992D02*
D03*
Y5664992D02*
D03*
Y5704992D02*
D03*
Y5744992D02*
D03*
D24*
X9398000Y7289800D02*
D03*
X9658000D02*
D03*
D25*
X12077700Y8712200D02*
D03*
X12534900D02*
D03*
X12077700Y9550400D02*
D03*
X12534900D02*
D03*
D31*
X13473134Y9331192D02*
D03*
Y9731192D02*
D03*
Y9531192D02*
D03*
D32*
Y9116192D02*
D03*
Y9946192D02*
D03*
D33*
X12420600Y4826000D02*
D03*
Y4572000D02*
D03*
X8724900Y10731500D02*
D03*
X8978900D02*
D03*
X9232900D02*
D03*
X9486900D02*
D03*
X9740900D02*
D03*
X9994900D02*
D03*
X10248900D02*
D03*
X10502900D02*
D03*
X10756900D02*
D03*
X11010900D02*
D03*
Y10477500D02*
D03*
X10756900D02*
D03*
X10502900D02*
D03*
X10248900D02*
D03*
X9994900D02*
D03*
X9740900D02*
D03*
X9486900D02*
D03*
X9232900D02*
D03*
X8978900D02*
D03*
X13296899Y6451600D02*
D03*
Y6197600D02*
D03*
Y5943600D02*
D03*
Y5689600D02*
D03*
Y5435600D02*
D03*
Y5181600D02*
D03*
Y4927600D02*
D03*
Y4673600D02*
D03*
X13550900D02*
D03*
Y4927600D02*
D03*
Y5181600D02*
D03*
Y5435600D02*
D03*
Y5689600D02*
D03*
Y5943600D02*
D03*
Y6197600D02*
D03*
Y6451600D02*
D03*
Y6705600D02*
D03*
X8558234Y6203792D02*
D03*
Y5949792D02*
D03*
Y5695792D02*
D03*
Y5441792D02*
D03*
Y5187792D02*
D03*
Y4933792D02*
D03*
Y4679792D02*
D03*
X8812234D02*
D03*
Y4933792D02*
D03*
Y5187792D02*
D03*
Y5441792D02*
D03*
Y5695792D02*
D03*
Y5949792D02*
D03*
Y6203792D02*
D03*
Y6457792D02*
D03*
Y8864252D02*
D03*
Y8610252D02*
D03*
Y8356252D02*
D03*
Y8102252D02*
D03*
Y7848252D02*
D03*
Y7594252D02*
D03*
Y7340252D02*
D03*
Y7086252D02*
D03*
X8558234D02*
D03*
Y7340252D02*
D03*
Y7594252D02*
D03*
Y7848252D02*
D03*
Y8102252D02*
D03*
Y8356252D02*
D03*
Y8610252D02*
D03*
X13550999Y8559372D02*
D03*
Y8305372D02*
D03*
Y8051372D02*
D03*
Y7797372D02*
D03*
Y7543372D02*
D03*
X13296999Y8559372D02*
D03*
Y8305372D02*
D03*
Y8051372D02*
D03*
Y7797372D02*
D03*
Y7543372D02*
D03*
Y7289372D02*
D03*
D34*
X12420600Y5080000D02*
D03*
X13296899Y6705600D02*
D03*
X8558234Y6457792D02*
D03*
Y8864252D02*
D03*
X13550999Y7289372D02*
D03*
D35*
X9537700Y8636000D02*
D03*
Y8146004D02*
D03*
D36*
X8724900Y10477500D02*
D03*
D37*
X10564830Y4007337D02*
D03*
X10310830D02*
D03*
X10058100D02*
D03*
X9802830D02*
D03*
X9805370Y4261337D02*
D03*
X10061910D02*
D03*
X10313370D02*
D03*
X10564830D02*
D03*
D38*
X12517900Y10823500D02*
D03*
X13062900D02*
D03*
D39*
X12547900Y10520500D02*
D03*
X13032899D02*
D03*
%TF.MD5,0dd6718197c2b211dbde02d82dba7082*%
M02*
